#N canvas 32 81 1005 524 10;
#N canvas 310 183 514 371 guts 0;
#N canvas 616 128 450 310 spektrum 0;
#X obj -2822 -414 *~;
#X obj -2795 -414 *~;
#X obj -2822 -351 biquad~ 0 0 0 0 1;
#X obj -2822 -373 q8_sqrt~;
#X text -2637 -458 Blockgröße;
#X obj -2998 -326 metro 100;
#X obj -2821 -495 inlet~;
#X obj -2822 -442 fft~;
#X obj -2712 -458 block~ 8192;
#X obj -2822 -310 log~ 10;
#X obj -2823 -261 clip~ -200 0;
#X obj -2823 -287 *~ 20;
#X obj -2821 -332 /~ 4096;
#X obj -2822 -233 tabwrite~ Jerry-Presets-Spektrum;
#X obj -2998 -380 r Jerry_EPPresets_on;
#X connect 0 0 3 0;
#X connect 1 0 3 0;
#X connect 2 0 12 0;
#X connect 3 0 2 0;
#X connect 5 0 13 0;
#X connect 6 0 7 0;
#X connect 7 0 0 0;
#X connect 7 0 0 1;
#X connect 7 1 1 0;
#X connect 7 1 1 1;
#X connect 9 0 11 0;
#X connect 10 0 13 0;
#X connect 11 0 10 0;
#X connect 12 0 9 0;
#X connect 14 0 5 0;
#X restore -2910 -499 pd spektrum;
#X obj -2911 -532 r~ Jerry_mainOut;
#X obj -3070 -432 loadbang;
#X obj -3068 -357 s jerry-key-1;
#X obj -2994 -432 sel 1;
#X obj -3071 -389 bng 15 250 50 0 empty empty empty 17 7 0 10 -262144
-1 -1;
#X obj -2922 -395 closebang;
#X obj -3075 -530 r Jerry_EPPresets_on;
#X obj -2938 -271 s JERRY_delfeedback_ctl;
#X obj -2884 -297 s JERRY_deltime_ctl;
#X msg -2884 -328 100;
#X msg -2938 -328 0.2;
#X obj -2707 -461 tgl 35 0 Jerry_EPPresets_on Jerry_EPPresets_on_ctl
An/Aus -65 18 0 17 -99865 -1 -1 1 1;
#X obj -2823 -474 loadbang;
#X msg -2823 -448 1;
#X obj -2823 -421 s Jerry_EPPresets_on_ctl;
#X obj -2714 -312 s Jerry_Seq_on_ctl;
#X msg -2714 -332 0;
#X connect 1 0 0 0;
#X connect 2 0 5 0;
#X connect 2 0 11 0;
#X connect 2 0 10 0;
#X connect 4 0 5 0;
#X connect 4 0 11 0;
#X connect 4 0 10 0;
#X connect 5 0 3 0;
#X connect 6 0 3 0;
#X connect 7 0 4 0;
#X connect 10 0 9 0;
#X connect 11 0 8 0;
#X connect 13 0 14 0;
#X connect 13 0 17 0;
#X connect 14 0 15 0;
#X connect 17 0 16 0;
#X restore 835 257 pd guts;
#N canvas 62 120 467 198 guts 0;
#N canvas 322 18 761 567 init 0;
#X obj 268 52 t b f;
#X obj 178 217 nbx 5 14 -1e+037 1e+037 0 0 empty empty empty 0 -8 0
10 -262144 -1 -1 29227 256;
#X obj 427 80 loadbang;
#X obj 95 182 tgl 15 0 empty empty empty 0 -6 0 8 -262144 -1 -1 0 1
;
#X obj 163 255 f;
#X obj 95 228 bng 15 250 50 0 empty empty empty 17 7 0 10 -262144 -1
-1;
#X obj 55 -95 > 0;
#X obj 55 -72 sel 1;
#X msg 55 -48 1;
#X obj 111 -93 sel 0;
#X msg 111 -69 0;
#X obj 314 80 t b f;
#X obj -69 -120 r EP-ADSR-BANG;
#X obj -69 -84 bng 15 250 50 0 empty empty empty 17 7 0 10 -262144
-1 -1;
#X obj 55 58 vline~;
#X obj 55 -4 pack f f;
#X obj 111 16 pack f f;
#X obj 95 205 metro 1000;
#X obj 178 119 expr $f1 + $f2 + $f3;
#X obj 178 156 + 5;
#X obj 178 185 * 50;
#X obj 314 34 r JERRY_EPAR_hold;
#X obj 54 83 tabwrite~ Jerry-Huellkurve;
#X obj 38 153 r EP_Jerry_env_onoff;
#X msg 163 286 \; Jerry-Huellkurve resize \$1;
#X msg 445 107 \; Jerry-Huellkurve yticks 0 0.125 2;
#X msg 444 147 \; Jerry-Huellkurve xticks 0 441 10;
#X obj 40 -153 r JERRY_trig_Noise;
#X obj 163 -150 r JERRY_trig_OSC;
#X obj 85 -121 +;
#X obj 4 -38 bng 15 250 50 0 empty empty empty 17 7 0 10 -262144 -1
-1;
#X obj 174 -69 bng 15 250 50 0 empty empty empty 17 7 0 10 -262144
-1 -1;
#X obj 178 -42 r JERRY_attack;
#X obj 268 -1 r JERRY_release;
#X connect 0 0 18 0;
#X connect 0 1 18 1;
#X connect 1 0 4 1;
#X connect 2 0 26 0;
#X connect 2 0 25 0;
#X connect 3 0 17 0;
#X connect 4 0 24 0;
#X connect 5 0 4 0;
#X connect 6 0 7 0;
#X connect 7 0 8 0;
#X connect 8 0 15 0;
#X connect 8 0 30 0;
#X connect 9 0 10 0;
#X connect 10 0 16 0;
#X connect 10 0 31 0;
#X connect 11 0 18 0;
#X connect 11 1 18 2;
#X connect 12 0 13 0;
#X connect 13 0 5 0;
#X connect 13 0 22 0;
#X connect 14 0 22 0;
#X connect 15 0 14 0;
#X connect 16 0 14 0;
#X connect 18 0 19 0;
#X connect 19 0 20 0;
#X connect 20 0 1 0;
#X connect 21 0 11 0;
#X connect 23 0 3 0;
#X connect 27 0 29 0;
#X connect 28 0 29 0;
#X connect 29 0 6 0;
#X connect 29 0 9 0;
#X connect 32 0 15 1;
#X connect 32 0 18 0;
#X connect 33 0 0 0;
#X connect 33 0 16 1;
#X restore 142 -181 pd init;
#N canvas 20 177 476 248 bangs 0;
#X obj 173 -112 r bang75-100;
#X obj 316 -115 r bang75-400;
#X obj 64 -54 delay 50;
#X msg 64 -23 0;
#X obj 26 -115 r bang75-50;
#X msg 211 -17 0;
#X msg 354 -27 0;
#X msg 129 0 50;
#X obj 280 -36 loadbang;
#X obj 85 80 s EP-ADSR-BANG;
#X msg 264 -3 500;
#X msg 377 0 1000;
#X obj 211 -51 delay 500;
#X obj 354 -50 delay 1000;
#N canvas 410 337 293 164 Trigger 0;
#X obj 56 77 s JERRY_trig_Noise;
#X obj 114 106 s JERRY_trig_OSC;
#X obj 106 45 inlet;
#X connect 2 0 0 0;
#X connect 2 0 1 0;
#X restore 26 118 pd Trigger;
#N canvas 410 337 293 110 Trigger 0;
#X obj 56 77 s JERRY_trig_Noise;
#X obj 114 106 s JERRY_trig_OSC;
#X obj 106 45 inlet;
#X connect 2 0 0 0;
#X connect 2 0 1 0;
#X restore 171 119 pd Trigger;
#N canvas 410 337 293 164 Trigger 0;
#X obj 56 77 s JERRY_trig_Noise;
#X obj 114 106 s JERRY_trig_OSC;
#X obj 106 45 inlet;
#X connect 2 0 0 0;
#X connect 2 0 1 0;
#X restore 316 122 pd Trigger;
#X obj 221 77 s JERRY_EPAR_hold;
#X msg 174 -59 1;
#X msg 27 -37 1;
#X msg 312 -59 1;
#X connect 0 0 10 0;
#X connect 0 0 9 0;
#X connect 0 0 12 0;
#X connect 0 0 18 0;
#X connect 1 0 11 0;
#X connect 1 0 9 0;
#X connect 1 0 13 0;
#X connect 1 0 20 0;
#X connect 2 0 3 0;
#X connect 3 0 14 0;
#X connect 4 0 2 0;
#X connect 4 0 7 0;
#X connect 4 0 9 0;
#X connect 4 0 19 0;
#X connect 5 0 15 0;
#X connect 6 0 16 0;
#X connect 7 0 17 0;
#X connect 8 0 7 0;
#X connect 10 0 17 0;
#X connect 11 0 17 0;
#X connect 12 0 5 0;
#X connect 13 0 6 0;
#X connect 18 0 15 0;
#X connect 19 0 14 0;
#X connect 20 0 16 0;
#X restore 193 -181 pd bangs;
#X obj 12 -222 r EP_Jerry_env_onoff;
#X obj 12 -133 s JERRY_attack_ctl;
#X obj 33 -103 s JERRY_release_ctl;
#X obj 12 -190 sel 1;
#X msg 12 -161 200;
#X obj 255 -137 r Jerry_EPEnvEX1;
#X obj 229 -79 s JERRY_attack_ctl;
#X obj 271 -38 s JERRY_release_ctl;
#X msg 229 -107 1000;
#X msg 271 -59 600;
#X obj 380 -80 s JERRY_attack_ctl;
#X obj 422 -39 s JERRY_release_ctl;
#X obj 406 -138 r Jerry_EPEnvEX2;
#X msg 380 -108 1;
#X msg 422 -60 700;
#X connect 2 0 5 0;
#X connect 5 0 6 0;
#X connect 6 0 3 0;
#X connect 6 0 4 0;
#X connect 7 0 10 0;
#X connect 7 0 11 0;
#X connect 10 0 8 0;
#X connect 11 0 9 0;
#X connect 14 0 15 0;
#X connect 14 0 16 0;
#X connect 15 0 12 0;
#X connect 16 0 13 0;
#X restore 847 -204 pd guts;
#X obj -90 -219 cnv 15 1000 520 empty empty empty 20 15 0 14 -128992
-33289 0;
#X obj -90 -212 cnv 15 1000 22 empty empty what? 20 11 0 14 -260097
-33289 0;
#X obj -22 -212 cnv 15 50 22 empty empty Presets 0 11 0 14 -260097
-33289 0;
#X obj -66 -161 bng 33 250 50 0 jerry-key-1 jerry-key-1 1 12 17 0 17
-162280 -260097 -1;
#X obj -25 -161 bng 33 250 50 0 jerry-key-2 jerry-key-2 2 12 17 0 17
-162280 -260097 -1;
#X obj 17 -161 bng 33 250 50 0 jerry-key-3 jerry-key-3 3 12 17 0 17
-162280 -260097 -1;
#X obj 59 -161 bng 33 250 50 0 jerry-key-4 jerry-key-4 4 12 17 0 17
-162280 -260097 -1;
#X obj 100 -161 bng 33 250 50 0 jerry-key-5 jerry-key-5 5 12 17 0 17
-162280 -260097 -1;
#X obj 141 -161 bng 33 250 50 0 jerry-key-6 jerry-key-6 6 12 17 0 17
-162280 -260097 -1;
#X obj 225 -161 bng 33 250 50 0 jerry-key-8 jerry-key-8 8 12 17 0 17
-162280 -260097 -1;
#X obj 266 -161 bng 33 250 50 0 jerry-key-9 jerry-key-9 9 12 17 0 17
-162280 -260097 -1;
#X obj 183 -161 bng 33 250 50 0 jerry-key-7 jerry-key-7 7 12 17 0 17
-162280 -260097 -1;
#X obj -70 -178 cnv 9 60 10 empty empty Melodie 7 5 0 10 -162280 -1
0;
#X obj 179 -178 cnv 9 60 10 empty empty Harmonie 7 5 0 10 -162280 -1
0;
#X obj 326 -149 cnv 20 90 20 empty empty Preset 10 12 0 12 -99865 -260097
0;
#X obj 417 -149 nbx 1 20 0.1 10 0 0 empty JERRY-aktives-preset empty
0 20 0 13 -99865 -260097 -260097 1 10;
#X text 33 270 1000 Hz;
#X text 133 270 3000 Hz;
#X text 230 270 5000 Hz;
#X text 328 270 7000 Hz;
#X text 426 270 9000 Hz;
#X text 521 270 11000 Hz;
#X text 619 270 13000 Hz;
#X text 717 270 15000 Hz;
#X obj 1 118 cnv 30 800 150 empty empty empty 10 12 0 10 -204786 -260097
0;
#N canvas 511 450 1153 478 (subpatch) 0;
#X array Jerry-Presets-Spektrum 3000 float 2;
#X coords 0 0 3000 -200 800 150 1 0 0;
#X restore 1 118 graph;
#X text -69 -96 JERRY verfügt über 9 PRESETS \, die sich zuallererst
aufteilen in melodische und harmonische Presets.;
#X text -69 -6 So erhält jedes melodische Preset seine eigene KLANGFARBE.
;
#X text -69 21 Bei den harmonischen Presets werden die einzelnen sinusähnlichen
Töne \, die durch die Bandpassfilter entstehen \, als Akkorde angeordnet.
Resultat ist ein AKKORDKLANG AUS SINUSTÖNEN.;
#X obj 473 -158 bng 30 250 50 0 Jerry_OpenEPPresetsDesc empty <--Beschreibung-Presets
35 15 0 13 -99865 -260097 -260097;
#X text -70 -64 Im ersten Fall wird durch die FILTERUNG VON WEIßEM
RAUSCHEN mittels mehrerer Bandpassfilter zugleich ein OBERTONSPEKTRUM
erzeugt \, so dass in der Regel ein komplexer Ton entsteht. (siehe
dazu auch ADD --> Additive Synthese);
#X obj 299 -62 bng 12 250 50 0 Jerry_what-noise xxxaretr what? 15 6
0 10 -2097 -260097 -1;
#X text 418 -96 Darüberhinaus unterscheiden sich die Presets hinsichtlich
des Klangcharakters der Sounds \, die durch die Beschleunigung der
Mausbewegung entstehen und hinsichtlich der Voreinstellungen von ATTACK
und RELEASE.;
#X text 418 -29 Diese Presets können über die TASTEN 1-9 auf dem
Keyboard abgerufen werden.;
#X obj 778 -59 bng 12 250 50 0 Jerry_what-env xxxaretr what? 15 7 0
10 -2097 -260097 -1;
#X obj 402 20 cnv 15 380 60 empty empty ToDo 20 8 0 10 -260097 -66577
0;
#X text 420 35 Höre dir die unterschiedlichen Presets an und versuche
nachzuvollziehen \, wie die unterschiedlichen Klangfarben zustande
kommen.;
#X obj 778 -89 bng 12 250 50 0 Jerry_what-OSCs xxxarestr what? 15 7
0 10 -2097 -260097 -1;
