#N canvas 234 42 904 656 10;
#N canvas 478 81 784 585 Guts 0;
#X obj 29 154 s Add_notein1_ctl;
#X obj 29 125 spigot;
#X obj 29 32 r Add_EPinputBang1;
#X obj 48 59 del 750;
#X msg 48 85 0;
#X obj 62 -23 r Add_EPInputon;
#X obj 60 221 sel 1;
#X obj 157 258 s Add_reset;
#X obj 98 295 delay 50;
#X obj 98 340 s Add_mainfreqmidi;
#X obj 161 125 spigot;
#X obj 180 59 del 750;
#X msg 180 85 0;
#X obj 161 32 r Add_EPinputBang2;
#X obj 161 154 s Add_notein2_ctl;
#X obj 293 131 spigot;
#X obj 312 65 del 750;
#X msg 312 91 0;
#X obj 425 131 spigot;
#X obj 444 65 del 750;
#X msg 444 91 0;
#X obj 293 38 r Add_EPinputBang3;
#X obj 293 160 s Add_notein3_ctl;
#X obj 425 38 r Add_EPinputBang4;
#X obj 425 160 s Add_notein4_ctl;
#X obj 552 132 spigot;
#X obj 571 66 del 750;
#X msg 571 92 0;
#X obj 553 39 r Add_EPinputBang5;
#X obj 552 161 s Add_notein5_ctl;
#X obj 435 223 closebang;
#X msg 435 249 0;
#X obj 435 274 s Add_EPInputon;
#X msg 98 317 67;
#X obj 353 346 r Add_seq_key_mode_ctl;
#X obj 337 391 sel 0;
#X obj 393 395 sel 2;
#X obj 348 456 bng 15 250 50 0 Add_seqpreset7 empty 7 -10 8 0 11 -66577
-260097 -261682;
#X obj 384 456 bng 15 250 50 0 Add_seqpreset8 empty 8 -10 8 0 11 -66577
-260097 -261682;
#X obj 493 438 bng 18 250 50 0 Add_randomseq empty Erzeuge -55 4 0
11 -66577 -260097 -1;
#X obj 438 455 cnv 15 10 10 empty empty Sequenz 0 0 0 11 -99865 -1
0;
#X obj 483 393 sel 1;
#X obj 483 416 del 5;
#X obj 343 425 del 5;
#X obj 393 425 del 5;
#X msg 237 268 0;
#X obj 236 296 s Add_seq_key_mode_ctl_ctl;
#X obj 576 213 loadbang;
#X msg 576 238 1;
#X obj 576 261 s Add_EPInputon_ctl;
#X obj 242 -34 tgl 35 0 Add_EPInputon Add_EPInputon_ctl An/Aus -58
18 0 15 -99865 -1 -1 1 1;
#X connect 1 0 0 0;
#X connect 2 0 1 0;
#X connect 2 0 3 0;
#X connect 3 0 4 0;
#X connect 4 0 0 0;
#X connect 5 0 1 1;
#X connect 5 0 10 1;
#X connect 5 0 15 1;
#X connect 5 0 18 1;
#X connect 5 0 25 1;
#X connect 5 0 6 0;
#X connect 5 0 7 0;
#X connect 5 0 45 0;
#X connect 6 0 7 0;
#X connect 6 0 8 0;
#X connect 8 0 33 0;
#X connect 8 0 37 0;
#X connect 10 0 14 0;
#X connect 11 0 12 0;
#X connect 12 0 14 0;
#X connect 13 0 10 0;
#X connect 13 0 11 0;
#X connect 15 0 22 0;
#X connect 16 0 17 0;
#X connect 17 0 22 0;
#X connect 18 0 24 0;
#X connect 19 0 20 0;
#X connect 20 0 24 0;
#X connect 21 0 15 0;
#X connect 21 0 16 0;
#X connect 23 0 18 0;
#X connect 23 0 19 0;
#X connect 25 0 29 0;
#X connect 26 0 27 0;
#X connect 27 0 29 0;
#X connect 28 0 25 0;
#X connect 28 0 26 0;
#X connect 30 0 31 0;
#X connect 30 0 27 0;
#X connect 30 0 20 0;
#X connect 30 0 17 0;
#X connect 30 0 12 0;
#X connect 30 0 4 0;
#X connect 30 0 7 0;
#X connect 31 0 32 0;
#X connect 33 0 9 0;
#X connect 34 0 35 0;
#X connect 34 0 36 0;
#X connect 34 0 41 0;
#X connect 35 0 43 0;
#X connect 36 0 44 0;
#X connect 41 0 42 0;
#X connect 42 0 39 0;
#X connect 43 0 37 0;
#X connect 44 0 38 0;
#X connect 45 0 46 0;
#X connect 47 0 48 0;
#X connect 48 0 49 0;
#X restore 597 -1182 pd Guts;
#X obj -248 -1808 cnv 15 900 650 empty empty empty 20 12 0 14 -128992
-66577 0;
#X obj -248 -1800 cnv 15 900 22 empty empty What?-Noteneingabe 20 11
0 14 -260097 -66577 0;
#X text 285 -1294 Ist eine MIDI-Klaviatur \, z.B. über USB \, angeschlossen
und in PD als MIDI-Eigangsgerät aktiviert \, so kann ADD von dieser
Noten empfangen und mit diesen Klänge erzeugen.;
#X text 285 -1248 Weiterhin können Sequenzen aus Noten mit dem SEQUENZER
erzeugt werden \, die ADD dann zur Klangerzeugung nutzt.;
#X text -220 -1726 Werden sie gedrückt \, so wird ein Wert für eine
Tonhöhe abgesendet und eine HÜLLKÜRVE wird erzeugt.;
#X text -220 -1616 Die TONHÖHE orientiert sich an der Frequenz des
Grundtons (s. additive Synthese).;
#X obj 217 -1556 cnv 15 140 100 empty empty Tonalität 8 12 0 13 -99865
-260097 0;
#X obj 262 -1527 cnv 15 15 15 empty empty Dur 0 10 0 11 -99865 -261682
0;
#X obj 262 -1506 cnv 15 15 15 empty empty Chromatisch 0 10 0 11 -99865
-261682 0;
#X obj 262 -1486 cnv 15 15 15 empty empty Moll 0 10 0 11 -99865 -261682
0;
#X obj 234 -1528 vradio 20 1 0 3 Add_seq_key_mode_ctl Add_seq_key_mode_ctl_ctl
empty 0 -8 0 10 -66577 -260097 -1 0;
#X text -219 -1582 Die ERSTE TASTE entspricht diesem Grundton.;
#X text -220 -1559 Die ZWEITE TASTE gibt die Terz über diesem Grundton
aus. Es ist die kleine Terz \, wenn unter Tonalität 'Moll' aktiviert
ist \, und die große Terz \, wenn dort 'Dur' aktiviert ist.;
#X text -220 -1512 Die DRITTE TASTE gibt die Quarte über dem Grunton
aus.;
#X text -220 -1481 Die VIERTE TASTE gibt die Quinte über dem Grundton
aus.;
#X text 285 -1316 Die 5 Tasten finden sich so auch auf dem NANOKONTROL2.
;
#X obj 164 -1590 bng 27 250 50 0 Add_EPinputBang1 xxx I 10 14 0 14
-66577 -260097 -260097;
#X obj 164 -1556 bng 27 250 50 0 Add_EPinputBang2 xxx III 2 14 0 14
-66577 -260097 -260097;
#X obj 164 -1523 bng 27 250 50 0 Add_EPinputBang3 xxx IV 5 14 0 14
-66577 -260097 -260097;
#X obj 164 -1489 bng 27 250 50 0 Add_EPinputBang4 xxx V 10 14 0 14
-66577 -260097 -260097;
#X obj 164 -1455 bng 27 250 50 0 Add_EPinputBang5 xxx VI 6 14 0 14
-66577 -260097 -260097;
#X text -221 -1455 Die FÜNFTE TASTE aktiviert die Sexte über dem
Grundton. Hier handelt es sich um die kleine Sexte \, wenn unter Tonalität
'Moll' aktiviert ist \, und die große Sexte \, wenn dort 'Dur' aktiviert
ist.;
#X text -222 -1398 Die Tonleiter im 'chromatischen' Modus ist eine
Mischung aus Dur- und Molltonleiter mit kleiner Terz und großer Sexte.
;
#X text -223 -1307 Ist der SEQUENZER aktiviert \, so transponieren
die Tasten die Sequenenz nach der vorgegebenen Tonalität auf die jeweilige
Tonstufe.;
#X obj 143 -1316 cnv 15 80 52 empty empty Start/Stop 6 12 0 11 -99865
-261682 0;
#X text -220 -1762 Die Eingabetasten dienen dazu \, ADDs KLANGAUSGABE
auf einer bestimmten Tonhöhe zu aktivieren.;
#X obj 266 -1342 cnv 15 10 5 empty empty Controller 20 12 0 14 -128992
-260097 0;
#X obj -241 -1334 cnv 15 10 5 empty empty Sequenzer 20 12 0 14 -128992
-260097 0;
#X obj 248 -1695 cnv 15 390 85 empty empty ToDo 10 12 0 12 -260097
-1 0;
#X text 273 -1647 Versuche dabei zu hören \, wie sich die Tongeschlechter
der gespielten Tonleitern (auch beim Sequenzer) verändern.;
#X obj 306 -1552 bng 15 250 50 0 what-tonal xxxx what? 19 7 0 10 -2097
-260097 -1;
#X obj -80 -1696 bng 15 250 50 0 what-env xxxx what? 19 7 0 10 -2097
-260097 -1;
#X text 273 -1675 Versuche nachzuvollziehen \, welche Funktionen die
Tasten für die Noteneingabe erfüllen.;
#X obj 172 -1293 go;
