#N canvas 14 303 503 303 10;
#X obj -248 -1808 cnv 15 500 300 empty empty empty 20 12 0 14 -128992
-66577 0;
#X obj -248 -1800 cnv 15 500 22 empty empty What?-Tonalität 20 11
0 14 -260097 -66577 0;
#X text -176 -1682 DUR:;
#X text -142 -1682 Die Noteneingabetasten und die Sequenzen beziehen
sich auf eine Durtonleiter auf der Grundfrequenz des Grundtons.;
#X text -181 -1639 MOLL:;
#X text -143 -1639 Die Noteneingabetasten und die Sequenzen beziehen
sich auf eine Molltonleiter auf der Grundfrequenz des Grundtons.;
#X text -222 -1594 Chromatisch:;
#X text -221 -1735 sowie die tonale Struktur der Sequenzen im SEQUENZER.
;
#X text -145 -1594 Die Noteneingabetasten beziehen sich auf eine Tonleiter
mit Grundton \, kleiner Terz \, Quarte \, Quinte und großer Sexte.
Die Sequenzen können alle 12 Halbtöne enthalten.;
#X obj 60 -1756 bng 15 250 50 0 what-input xxxx what? 19 7 0 10 -2097
-260097 -1;
#X text -220 -1757 Die Tonalität steuert ADDs NOTENEINGABETASTEN;
