#N canvas 155 99 756 356 10;
#X obj 3 126 select 0 1;
#X obj 21 68 loadbang;
#X msg 21 91 0;
#X obj 334 325 s startstop_canvas;
#X msg 226 212 label ►;
#X msg 455 192 label ■;
#X msg 226 237 label_font 2 14;
#X obj 0 0 cnv 15 24 24 empty startstop_canvas_bg empty 20 12 0 14
-258699 -262144 0;
#X obj 3 319 s startstop_canvas_bg;
#X obj 3 3 tgl 18 0 Add_trigseq Add_trigseq empty -2 -7 0 9 -54094
-260097 -33289 0 1;
#X msg 31 246 color -43073;
#X msg 3 217 color 13;
#X obj 3 3 cnv 16 18 18 startstop_canvas startstop_canvas ► 3 9 2
14 -66577 -260097 0;
#X text 561 314 Button Overkill Deep Stuff;
#X msg 456 217 label_font 0 14;
#X msg 226 262 label_pos 3 9;
#X msg 453 242 label_pos 5 8;
#X connect 0 0 11 0;
#X connect 0 0 4 0;
#X connect 0 0 6 0;
#X connect 0 0 15 0;
#X connect 0 1 10 0;
#X connect 0 1 5 0;
#X connect 0 1 14 0;
#X connect 0 1 16 0;
#X connect 1 0 2 0;
#X connect 2 0 0 0;
#X connect 4 0 3 0;
#X connect 5 0 3 0;
#X connect 6 0 3 0;
#X connect 9 0 0 0;
#X connect 10 0 8 0;
#X connect 11 0 8 0;
#X connect 14 0 3 0;
#X connect 15 0 3 0;
#X connect 16 0 3 0;
#X coords 0 0 1 1 24 24 1 0 0;
