#N canvas 0 0 1023 681 10;
#X obj -997 -720 cnv 15 1020 680 empty empty empty 20 12 0 12 -66577
-261682 0;
#X obj -782 -663 cnv 15 80 280 empty empty Grundton 8 12 0 10 -128992
-260097 0;
#X obj -770 -628 knob 50 50 0 127 0 0 Add_mainfreqmidi Add_mainfreqmidi
Freq 0 -8 0 9 -228856 -260097 -261682 1282 1;
#X obj -760 -535 vsl 30 130 0 127 0 0 Add_mainvolctl Add_mainvolctl
MainVol -2 -9 0 9 -66577 -260097 -261682 12900 1;
#X obj -771 -573 nbx 5 14 -1e+037 1e+037 0 0 empty Add_basicfreq empty
0 -8 0 10 -66577 -260097 -260097 51.9131 256;
#X obj -701 -663 cnv 15 80 220 empty empty Oberton-1 8 12 0 10 -128992
-260097 0;
#X obj -685 -627 knob 40 40 0 127 0 0 Add_OT1ctl Add_OT1ctl Freq 0
-8 0 9 -228856 -260097 -261682 0 1;
#X obj -673 -545 vsl 16 80 0 127 0 0 Add_OT1volctl Add_OT1volctl Vol
0 -9 0 9 -66577 -260097 -261682 0 1;
#X obj -686 -582 nbx 5 14 -1e+037 1e+037 0 0 empty Add_freq1 empty
0 -8 0 10 -66577 -260097 -260097 103.826 256;
#X obj -113 -399 cnv 15 116 320 empty empty Reverb 11 15 0 25 -128992
-260097 0;
#X obj -49 -321 vsl 16 130 0 127 0 0 Add_verbfeedctl Add_verbfeedctl
Feedback 0 -9 0 9 -66577 -260097 -261682 3047 1;
#X obj -98 -321 vsl 16 130 0 127 0 0 Add_verbdrywetctl Add_verbdrywetctl
Dry/Wet 0 -9 0 9 -66577 -260097 -261682 2031 1;
#X obj -973 -329 cnv 15 180 275 empty empty empty 8 12 0 10 -128992
-260097 0;
#X obj -961 -255 nbx 5 14 -1e+037 1e+037 0 0 empty Add_seqtemp empty
0 -8 0 10 -66577 -260097 -260097 120 256;
#X obj -954 -293 knob 32 32 30 1500 1 0 Add_seqtempfloat Add_seqtemp_ctl
BPM 0 -8 0 9 -228856 -260097 -261682 1099 1;
#X obj -969 -467 cnv 15 115 110 empty empty Tonalität 8 12 0 12 -128992
-260097 0;
#X text -903 -211 1/4;
#X text -959 -211 1/1;
#X text -931 -211 1/2;
#X obj -924 -438 cnv 15 15 15 empty empty Dur 0 10 0 9 -128992 -261682
0;
#X obj -924 -415 cnv 15 15 15 empty empty Chromatisch 0 10 0 9 -128992
-261682 0;
#X obj -924 -392 cnv 15 15 15 empty empty Moll 0 10 0 9 -128992 -261682
0;
#X obj -952 -440 vradio 22 1 0 3 Add_seq_key_mode Add_seq_key_mode_ctl
empty 0 -8 0 10 -66577 -260097 -1 0;
#X obj -631 -663 cnv 15 80 220 empty empty Oberton-2 8 12 0 10 -128992
-260097 0;
#X obj -615 -627 knob 40 40 0 127 0 0 Add_OT2ctl Add_OT2ctl Freq 0
-8 0 9 -228856 -260097 -261682 0 1;
#X obj -603 -545 vsl 16 80 0 127 0 0 Add_OT2volctl Add_OT2volctl Vol
0 -9 0 9 -66577 -260097 -261682 0 1;
#X obj -616 -582 nbx 5 14 -1e+037 1e+037 0 0 empty Add_freq2 empty
0 -8 0 10 -66577 -260097 -260097 155.739 256;
#X obj -561 -663 cnv 15 80 220 empty empty Oberton-3 8 12 0 10 -128992
-260097 0;
#X obj -545 -627 knob 40 40 0 127 0 0 Add_OT3ctl Add_OT3ctl Freq 0
-8 0 9 -228856 -260097 -261682 0 1;
#X obj -533 -545 vsl 16 80 0 127 0 0 Add_OT3volctl Add_OT3volctl Vol
0 -9 0 9 -66577 -260097 -261682 0 1;
#X obj -546 -582 nbx 5 14 -1e+037 1e+037 0 0 empty Add_freq3 empty
0 -8 0 10 -66577 -260097 -260097 207.652 256;
#X obj -490 -663 cnv 15 80 220 empty empty Oberton-4 8 12 0 10 -128992
-260097 0;
#X obj -474 -627 knob 40 40 0 127 0 0 Add_OT4ctl Add_OT4ctl Freq 0
-8 0 9 -228856 -260097 -261682 0 1;
#X obj -462 -545 vsl 16 80 0 127 0 0 Add_OT4volctl Add_OT4volctl Vol
0 -9 0 9 -66577 -260097 -261682 0 1;
#X obj -475 -582 nbx 5 14 -1e+037 1e+037 0 0 empty Add_freq4 empty
0 -8 0 10 -66577 -260097 -260097 259.565 256;
#X obj -417 -663 cnv 15 80 220 empty empty Oberton-5 8 12 0 10 -128992
-260097 0;
#X obj -401 -627 knob 40 40 0 127 0 0 Add_OT5ctl Add_OT5ctl Freq 0
-8 0 9 -228856 -260097 -261682 0 1;
#X obj -389 -545 vsl 16 80 0 127 0 0 Add_OT5volctl Add_OT5volctl Vol
0 -9 0 9 -66577 -260097 -261682 0 1;
#X obj -402 -582 nbx 5 14 -1e+037 1e+037 0 0 empty Add_freq5 empty
0 -8 0 10 -66577 -260097 -260097 311.479 256;
#X obj -812 -369 cnv 15 213 315 empty empty Sequenzer 8 16 0 25 -128992
-260097 0;
#X obj -768 -315 tgl 50 0 Add_trigseq Add_trigseq An/Aus 5 -8 0 12
-66577 -260097 -260097 0 1;
#X obj -327 -688 cnv 15 120 130 empty empty Waveshaping 8 10 0 15 -128992
-260097 0;
#X obj -288 -625 knob 40 40 0 127 0 0 Add_waveclipctl Add_waveclipctl
Clip 0 -8 0 9 -228856 -260097 -261682 31 1;
#X obj -295 -580 nbx 5 14 -1e+037 1e+037 0 0 empty Add_waveclipshow
empty 0 -8 0 10 -66577 -260097 -260097 0.00787402 256;
#X obj -197 -690 cnv 15 201 240 empty empty Subtraktive-Synthese 8
12 0 15 -128992 -260097 0;
#X obj -158 -607 knob 40 40 16 5000 0 0 Add_hp_freq Add_hp_freq_ctl
Frequenz 0 -8 0 9 -262144 -260097 -261682 0 1;
#X obj -77 -608 knob 40 40 100 16000 1 0 Add_lp_freq Add_lp_freq_ctl
Frequenz 0 -8 0 9 -262144 -260097 -261682 3900 1;
#X obj -158 -518 knob 40 40 0.1 21 0 0 Add_hp_q Add_hp_q_ctl Q 0 -8
0 9 -262144 -260097 -261682 124 1;
#X obj -76 -519 knob 40 40 0.1 21 0 0 Add_lp_q Add_lp_q_ctl Q 0 -8
0 9 -262144 -260097 -261682 124 1;
#X obj -77 -560 nbx 5 14 -1e+037 1e+037 0 0 empty empty empty 0 -8
0 10 -33289 -260097 -1 16000 256;
#X obj -158 -559 nbx 5 14 -1e+037 1e+037 0 0 empty empty empty 0 -8
0 10 -33289 -260097 -1 16 256;
#X obj -76 -471 nbx 5 14 -1e+037 1e+037 0 0 empty empty empty 0 -8
0 10 -33289 -260097 -1 0.764513 256;
#X obj -158 -470 nbx 5 14 -1e+037 1e+037 0 0 empty empty empty 0 -8
0 10 -33289 -260097 -1 0.764513 256;
#X text -166 -644 Hochpass;
#X text -86 -644 Tiefpass;
#X obj -782 -690 cnv 15 445 30 empty empty Additive-Synthese 20 16
0 15 -128992 -260097 0;
#X obj -782 -719 cnv 15 786 30 empty empty Klangformung 10 16 0 25
-128992 -260097 0;
#X obj -103 -185 cnv 15 30 30 empty empty Filter 20 16 0 12 -128992
-260097 0;
#X obj -105 -145 knob 40 40 0 127 0 0 Add_verbdampctl Add_verbdampctl
Damping 0 -8 0 9 -228856 -260097 -261682 0 1;
#X obj -107 -100 nbx 4 14 -1e+037 1e+037 0 0 empty Add_verbdamppc empty
0 -8 0 10 -66577 -260097 -260097 0 256;
#X obj -55 -145 knob 40 40 0 127 0 0 Add_verblopctl Add_verblopctl
Lowpass 0 -8 0 9 -228856 -260097 -261682 2672 1;
#X obj -56 -100 nbx 5 14 -1e+037 1e+037 0 0 empty Add_verblop empty
0 -8 0 10 -66577 -260097 -260097 10275.6 256;
#X obj -662 -453 cnv 15 285 60 empty empty Presets-Obertöne 8 12 0
10 -99865 -260097 0;
#X obj -640 -417 bng 15 250 50 0 Add_tonepreset1 Add_tonepreset1 Sinus
-5 -8 0 9 -66577 -260097 -261682;
#X obj -609 -417 bng 15 250 50 0 Add_tonepreset2 Add_tonepreset2 Saw
0 -8 0 9 -66577 -260097 -261682;
#X obj -578 -417 bng 15 250 50 0 Add_tonepreset3 Add_tonepreset3 Square
-8 -8 0 9 -66577 -260097 -261682;
#X obj -547 -417 bng 15 250 50 0 Add_tonepreset4 Add_tonepreset4 Tri
0 -8 0 9 -66577 -260097 -261682;
#X obj -515 -417 bng 15 250 50 0 Add_tonepreset5 Add_tonepreset5 Bell
-2 -8 0 9 -66577 -260097 -261682;
#X obj -484 -416 bng 15 250 50 0 Add_tonepreset6 Add_tonepreset6 Flute
0 -8 0 9 -66577 -260097 -261682;
#X obj -453 -416 bng 15 250 50 0 Add_tonepreset7 Add_tonepreset7 slot_1
0 -8 0 9 -66577 -260097 -261682;
#X obj -422 -416 bng 15 250 50 0 Add_tonepreset8 Add_tonepreset8 slot_2
0 -8 0 9 -66577 -260097 -261682;
#X obj -637 -298 bng 18 250 50 0 Add_randomseq Add_randomseq Erzeuge
-40 4 0 9 -66577 -260097 -261682;
#X obj -634 -149 bng 18 250 50 0 Add_seqdrawreset Add_seqdrawreset
Reset -3 -7 0 9 -66577 -260097 -261682;
#X obj -677 -282 cnv 10 10 10 empty empty Sequenz 0 0 0 9 -128992 -261682
0;
#X obj -970 -637 cnv 15 190 140 empty empty Noteneingabe 8 10 0 15
-128992 -260097 0;
#X obj -959 -611 tgl 30 0 Add_notein1 Add_notein1_ctl empty 17 7 0
10 -66577 -260097 -260097 0 127;
#X obj -927 -611 tgl 30 0 Add_notein2 Add_notein2_ctl empty 17 7 0
10 -66577 -260097 -260097 0 127;
#X obj -895 -611 tgl 30 0 Add_notein3 Add_notein3_ctl empty 17 7 0
10 -66577 -260097 -1 0 127;
#X obj -863 -611 tgl 30 0 Add_notein4 Add_notein4_ctl empty 17 7 0
10 -66577 -260097 -260097 0 127;
#X obj -831 -611 tgl 30 0 Add_notein5 Add_notein5_ctl empty 17 7 0
10 -66577 -260097 -260097 0 127;
#X obj -941 -556 knob 32 32 0 1500 0 1 Add_attack Add_attack_ctl Attack
0 -8 0 9 -228856 -260097 -261682 41 1;
#X obj -868 -556 knob 32 32 30 3000 1 0 Add_release Add_release_ctl
Release 0 -8 0 9 -228856 -260097 -261682 810 1;
#X obj -940 -519 nbx 5 14 -1e+037 1e+037 0 0 empty Add_attack empty
0 -8 0 10 -66577 -260097 -260097 19.8387 256;
#X obj -868 -519 nbx 5 14 -1e+037 1e+037 0 0 empty Add_release empty
0 -8 0 10 -66577 -260097 -260097 99.9314 256;
#X obj -958 -133 knob 32 32 0.01 1 0 0 Add_seqduration Add_seqduration_ctl
Notendauer 0 -8 0 9 -228856 -260097 -261682 2474 1;
#X obj -961 -95 nbx 5 14 -1e+037 1e+037 0 0 empty Add_seqduration_show
empty 0 -8 0 10 -66577 -260097 -260097 0.864865 256;
#X obj -962 -194 hradio 28 1 1 5 Add_seq_skalar Add_seq_skalar_ctl
Notenwerte 0 -23 0 9 -66577 -260097 -261682 3;
#X text -875 -211 1/8;
#X text -848 -211 1/16;
#X obj -800 -229 cnv 15 150 115 empty empty Sequenzen-sichern 14 12
0 12 -260097 -262144 0;
#X obj -722 -202 bng 15 250 50 0 Add_Save_Seq_1 empty Save -24 9 0
9 -66577 -260097 -262144;
#X obj -722 -180 bng 15 250 50 0 Add_Save_Seq_2 empty Save -24 9 0
9 -66577 -260097 -262144;
#X obj -722 -158 bng 15 250 50 0 Add_Save_Seq_3 empty Save -24 9 0
9 -66577 -260097 -262144;
#X obj -722 -136 bng 15 250 50 0 Add_Save_Seq_4 empty Save -24 9 0
9 -66577 -260097 -262144;
#X obj -699 -202 bng 15 250 50 0 Add_Load_Seq_1 Add_Load_Seq_1_ctl
Load 21 9 0 9 -66577 -260097 -1;
#X obj -699 -180 bng 15 250 50 0 Add_Load_Seq_2 Add_Load_Seq_2_ctl
Load 21 9 0 9 -66577 -260097 -1;
#X obj -699 -158 bng 15 250 50 0 Add_Load_Seq_3 Add_Load_Seq_3_ctl
Load 21 9 0 9 -66577 -260097 -1;
#X obj -699 -136 bng 15 250 50 0 Add_Load_Seq_4 Add_Load_Seq_4_ctl
Load 21 9 0 9 -66577 -260097 -1;
#X text -796 -203 Slot 1;
#X text -796 -181 Slot 2;
#X text -796 -159 Slot 3;
#X text -796 -137 Slot 4;
#X obj -342 -508 cnv 15 150 115 empty empty Klänge-sichern 23 12 0
12 -260097 -262144 0;
#X text -338 -482 Slot 1;
#X text -338 -460 Slot 2;
#X text -338 -438 Slot 3;
#X text -338 -416 Slot 4;
#X obj -266 -482 bng 15 250 50 0 Add_Sound_Save_1 empty Save -24 9
0 9 -66577 -260097 -261682;
#X obj -266 -460 bng 15 250 50 0 Add_Sound_Save_1 empty Save -24 9
0 9 -66577 -260097 -261682;
#X obj -266 -438 bng 15 250 50 0 Add_Sound_Save_3 empty Save -24 9
0 9 -66577 -260097 -261682;
#X obj -266 -416 bng 15 250 50 0 Add_Sound_Save_4 empty Save -24 9
0 9 -66577 -260097 -261682;
#X obj -243 -482 bng 15 250 50 0 Add_Sound_Load_1 empty Load 23 9 0
9 -66577 -260097 -261682;
#X obj -243 -460 bng 15 250 50 0 Add_Sound_Load_2 empty Load 23 9 0
9 -66577 -260097 -261682;
#X obj -243 -438 bng 15 250 50 0 Add_Sound_Load_3 empty Load 23 9 0
9 -66577 -260097 -261682;
#X obj -243 -416 bng 15 250 50 0 Add_Sound_Load_4 empty Load 23 9 0
9 -66577 -260097 -261682;
#X obj -598 -369 cnv 15 455 268 empty empty empty 8 16 0 25 -128992
-260097 0;
#X obj -599 -153 nbx 2 14 -1e+037 1e+037 0 0 Add_seqstep1 Add_seqstep1
empty 0 -8 0 10 -66577 -260097 -260097 0 256;
#X obj -571 -153 nbx 2 14 -1e+037 1e+037 0 0 Add_seqstep2 Add_seqstep2
empty 0 -8 0 10 -66577 -260097 -1 0 256;
#X obj -543 -153 nbx 2 14 -1e+037 1e+037 0 0 Add_seqstep3 Add_seqstep3
empty 0 -8 0 10 -66577 -260097 -1 0 256;
#X obj -515 -153 nbx 2 14 -1e+037 1e+037 0 0 Add_seqstep4 Add_seqstep4
empty 0 -8 0 10 -66577 -260097 -1 0 256;
#X obj -487 -153 nbx 2 14 -1e+037 1e+037 0 0 Add_seqstep5 Add_seqstep5
empty 0 -8 0 10 -66577 -260097 -1 0 256;
#X obj -459 -153 nbx 2 14 -1e+037 1e+037 0 0 Add_seqstep6 Add_seqstep6
empty 0 -8 0 10 -66577 -260097 -1 0 256;
#X obj -431 -153 nbx 2 14 -1e+037 1e+037 0 0 Add_seqstep7 Add_seqstep7
empty 0 -8 0 10 -66577 -260097 -1 0 256;
#X obj -403 -153 nbx 2 14 -1e+037 1e+037 0 0 Add_seqstep8 Add_seqstep8
empty 0 -8 0 10 -66577 -260097 -1 0 256;
#X obj -375 -153 nbx 2 14 -1e+037 1e+037 0 0 Add_seqstep9 Add_seqstep9
empty 0 -8 0 10 -66577 -260097 -1 0 256;
#X obj -347 -153 nbx 2 14 -1e+037 1e+037 0 0 Add_seqstep10 Add_seqstep10
empty 0 -8 0 10 -66577 -260097 -1 0 256;
#X obj -319 -153 nbx 2 14 -1e+037 1e+037 0 0 Add_seqstep11 Add_seqstep11
empty 0 -8 0 10 -66577 -260097 -1 0 256;
#X obj -291 -153 nbx 2 14 -1e+037 1e+037 0 0 Add_seqstep12 Add_seqstep12
empty 0 -8 0 10 -66577 -260097 -1 0 256;
#X obj -263 -153 nbx 2 14 -1e+037 1e+037 0 0 Add_seqstep13 Add_seqstep13
empty 0 -8 0 10 -66577 -260097 -1 0 256;
#X obj -235 -153 nbx 2 14 -1e+037 1e+037 0 0 Add_seqstep14 Add_seqstep14
empty 0 -8 0 10 -66577 -260097 -1 0 256;
#X obj -207 -153 nbx 2 14 -1e+037 1e+037 0 0 Add_seqstep15 Add_seqstep15
empty 0 -8 0 10 -66577 -260097 -1 0 256;
#X obj -179 -153 nbx 2 14 -1e+037 1e+037 0 0 Add_seqstep16 Add_seqstep16
empty 0 -8 0 10 -66577 -260097 -1 0 256;
#X obj -593 -138 bng 15 250 50 0 empty Add_seqpos1 empty 17 7 0 10
-66577 -260097 -1;
#X obj -566 -138 bng 15 250 50 0 empty Add_seqpos2 empty 17 7 0 10
-66577 -260097 -1;
#X obj -537 -138 bng 15 250 50 0 empty Add_seqpos3 empty 17 7 0 10
-66577 -260097 -1;
#X obj -510 -138 bng 15 250 50 0 empty Add_seqpos4 empty 17 7 0 10
-66577 -260097 -1;
#X obj -481 -138 bng 15 250 50 0 empty Add_seqpos5 empty 17 7 0 10
-66577 -260097 -1;
#X obj -454 -138 bng 15 250 50 0 empty Add_seqpos6 empty 17 7 0 10
-66577 -260097 -1;
#X obj -425 -138 bng 15 250 50 0 empty Add_seqpos7 empty 17 7 0 10
-66577 -260097 -1;
#X obj -397 -138 bng 15 250 50 0 empty Add_seqpos8 empty 17 7 0 10
-66577 -260097 -1;
#X obj -369 -138 bng 15 250 50 0 empty Add_seqpos9 empty 17 7 0 10
-66577 -260097 -1;
#X obj -341 -138 bng 15 250 50 0 empty Add_seqpos10 empty 17 7 0 10
-66577 -260097 -1;
#X obj -313 -138 bng 15 250 50 0 empty Add_seqpos11 empty 17 7 0 10
-66577 -260097 -1;
#X obj -286 -138 bng 15 250 50 0 empty Add_seqpos12 empty 17 7 0 10
-66577 -260097 -1;
#X obj -257 -138 bng 15 250 50 0 empty Add_seqpos13 empty 17 7 0 10
-66577 -260097 -1;
#X obj -229 -138 bng 15 250 50 0 empty Add_seqpos14 empty 17 7 0 10
-66577 -260097 -1;
#X obj -201 -138 bng 15 250 50 0 empty Add_seqpos15 empty 17 7 0 10
-66577 -260097 -1;
#X obj -174 -138 bng 15 250 50 0 empty Add_seqpos16 empty 17 7 0 10
-66577 -260097 -1;
#X obj -510 -113 cnv 15 285 60 empty empty Presets-Sequenzen 8 12 0
10 -99865 -260097 0;
#X obj -495 -84 bng 15 250 50 0 Add_seqpreset1 Add_seqpreset1 1 -10
8 0 8 -66577 -260097 -261682;
#X obj -460 -84 bng 15 250 50 0 Add_seqpreset2 Add_seqpreset2 2 -10
8 0 8 -66577 -260097 -261682;
#X obj -424 -84 bng 15 250 50 0 Add_seqpreset3 Add_seqpreset3 3 -10
8 0 8 -66577 -260097 -261234;
#X obj -388 -84 bng 15 250 50 0 Add_seqpreset4 Add_seqpreset4 4 -10
8 0 8 -66577 -260097 -261682;
#X obj -352 -84 bng 15 250 50 0 Add_seqpreset5 Add_seqpreset5 5 -10
8 0 8 -66577 -260097 -261682;
#X obj -316 -84 bng 15 250 50 0 Add_seqpreset6 Add_seqpreset6 6 -10
8 0 8 -66577 -260097 -261682;
#X obj -281 -84 bng 15 250 50 0 Add_seqpreset7 Add_seqpreset7 7 -10
8 0 8 -66577 -260097 -261682;
#X obj -246 -84 bng 15 250 50 0 Add_seqpreset8 Add_seqpreset8 8 -10
8 0 8 -66577 -260097 -261682;
#N canvas 313 63 834 620 sequencer 0;
#X obj 100 100 pianoroll pianoroll1 448 203 -2 26 29 16 0 0 0;
#X obj -106 210 int;
#X obj -106 190 r Add_seqtempfloat;
#X obj -106 231 s Add_seqtemp;
#N canvas 0 0 450 300 sequencetableSave 0;
#X obj -454 -14 r Add_Load_Seq_1;
#X obj -453 -60 r Add_Save_Seq_1;
#X obj -326 -60 r Add_Save_Seq_2;
#X obj -327 -14 r Add_Load_Seq_2;
#X obj -207 -61 r Add_Save_Seq_3;
#X obj -208 -15 r Add_Load_Seq_3;
#X obj -80 -61 r Add_Save_Seq_4;
#X obj -81 -15 r Add_Load_Seq_4;
#X msg -453 -39 1;
#X msg -326 -39 2;
#X msg -207 -40 3;
#X msg -80 -40 4;
#X msg -454 9 1;
#X msg -327 9 2;
#X msg -208 8 3;
#X msg -81 8 4;
#X msg -253 120 load pattern#\$1;
#X msg -335 161 save pattern#\$1;
#X obj -218 196 outlet;
#X connect 0 0 12 0;
#X connect 1 0 8 0;
#X connect 2 0 9 0;
#X connect 3 0 13 0;
#X connect 4 0 10 0;
#X connect 5 0 14 0;
#X connect 6 0 11 0;
#X connect 7 0 15 0;
#X connect 8 0 17 0;
#X connect 9 0 17 0;
#X connect 10 0 17 0;
#X connect 11 0 17 0;
#X connect 12 0 16 0;
#X connect 13 0 16 0;
#X connect 14 0 16 0;
#X connect 15 0 16 0;
#X connect 16 0 18 0;
#X connect 17 0 18 0;
#X restore 275 36 pd sequencetableSave;
#N canvas 369 7 755 710 addmakesequence 0;
#N canvas 0 0 450 300 counter 0;
#X obj 121 147 f;
#X obj 177 147 + 1;
#X msg 228 225 0;
#X obj 122 94 inlet;
#X obj 122 250 outlet;
#X obj 270 226 outlet;
#X obj 184 194 moses 16;
#X connect 0 0 1 0;
#X connect 0 0 4 0;
#X connect 1 0 6 0;
#X connect 2 0 0 1;
#X connect 2 0 5 0;
#X connect 3 0 0 0;
#X connect 6 0 0 1;
#X connect 6 1 2 0;
#X restore 71 -163 pd counter;
#X obj 121 -191 spigot;
#X obj 71 -237 t b b;
#X msg 124 -214 1;
#X obj 71 -256 bng 15 250 50 0 empty empty empty 17 7 0 10 -66577 -1
-1;
#X floatatom 17 -92 5 0 0 0 - - -;
#X obj 17 105 pack;
#X text 839 61 Hier Erläuterungen;
#X obj 71 -287 r Add_randomseq;
#X obj 71 -191 del 10;
#X msg 206 -241 0;
#X obj 206 -219 s Add_prenr;
#X obj 594 35 r addsequence;
#X obj 557 221 zl nth;
#N canvas 0 0 450 300 counter 0;
#X obj 121 147 f;
#X obj 177 147 + 1;
#X msg 228 225 0;
#X obj 122 94 inlet;
#X obj 122 250 outlet;
#X obj 270 226 outlet;
#X obj 184 194 moses 16;
#X connect 0 0 1 0;
#X connect 0 0 4 0;
#X connect 1 0 6 0;
#X connect 2 0 0 1;
#X connect 2 0 5 0;
#X connect 3 0 0 0;
#X connect 6 0 0 1;
#X connect 6 1 2 0;
#X restore 594 139 pd counter;
#X obj 644 111 spigot;
#X obj 594 65 t b b;
#X msg 647 88 1;
#X floatatom 557 251 5 0 0 0 - - -;
#X obj 557 181 l;
#X obj 656 204 + 1;
#X obj 557 158 bng 15 250 50 0 empty empty empty 17 7 0 10 -66577 -260097
-1;
#X obj 594 111 del 10;
#X obj 344 -245 r Add_seq_key_mode;
#X obj 277 -204 spigot;
#X obj 344 -221 - 1;
#X obj 277 -173 s Add_seqtonal;
#X obj 71 -133 bng 15 250 50 0 empty empty empty 17 7 0 10 -262144
-1 -1;
#X obj 71 8 zl nth;
#X floatatom 71 36 5 0 0 0 - - -;
#X msg 71 -108 0 0 0 0 0 0 0 0 0 1 1 1 1 2 2 2 2 3 3 3 3 4 4 4 4 5
5 5 5 6 6 6 6 7 7 7 7 8 8 8 8 9 9 9 9 10 10 10 10 11 11 11 12 12 12
12 13 14 14 15 16 17 18 19 20 21 22 23 24 25 26;
#X obj 104 -24 random 71;
#X obj 144 148 s;
#X msg 209 82 symbol Add_seqstep\$1;
#X obj 144 124 pipe 1;
#X obj 209 256 pack 0 0 0 0 0 0 0 0 0 0 0 0 0 0 0 0;
#X obj 209 281 list;
#X obj 17 85 pipe 1;
#X obj 209 52 + 1;
#X obj 209 306 tabset sequence;
#X obj 209 215 pipe 170;
#X msg 209 235 0;
#X obj 209 193 route 0 1 2 3 4 5 6 7 8 9 10 11 12 13 14 15;
#X obj 64 82 sel 1;
#X obj 144 69 sel 1;
#X msg 144 90 0;
#X obj -95 138 r Add_seq_tonal;
#N canvas 658 108 378 460 keymodetable 0;
#N canvas 0 0 450 300 counter 0;
#X obj 121 147 f;
#X obj 177 147 + 1;
#X msg 228 225 0;
#X obj 122 94 inlet;
#X obj 122 250 outlet;
#X obj 270 226 outlet;
#X floatatom 80 194 5 0 0 0 - - -;
#X obj 184 194 moses 16;
#X connect 0 0 1 0;
#X connect 0 0 4 0;
#X connect 0 0 6 0;
#X connect 1 0 7 0;
#X connect 2 0 0 1;
#X connect 2 0 5 0;
#X connect 3 0 0 0;
#X connect 7 0 0 1;
#X connect 7 1 2 0;
#X restore -8916 -323 pd counter;
#X obj -8866 -351 spigot;
#X obj -8916 -397 t b b;
#X msg -8863 -374 1;
#X floatatom -8916 -292 5 0 0 0 - - -;
#X obj -8916 -242 tabread sequence;
#X obj -8916 -152 s;
#X msg -8824 -220 symbol Add_seqstep\$1;
#X floatatom -8916 -198 5 0 0 0 - - -;
#X obj -8916 -176 pipe 1;
#X obj -8751 -182 tabwrite sequence;
#X obj -8824 -262 + 1;
#N canvas 53 92 1080 300 trans 0;
#X obj -8400 -61 bng 15 250 50 0 empty empty empty 17 7 0 10 -262144
-1 -1;
#X msg -8400 -24 -2;
#X obj -8373 -61 bng 15 250 50 0 empty empty empty 17 7 0 10 -262144
-1 -1;
#X msg -8373 -24 0;
#X obj -8346 -61 bng 15 250 50 0 empty empty empty 17 7 0 10 -262144
-1 -1;
#X obj -8319 -61 bng 15 250 50 0 empty empty empty 17 7 0 10 -262144
-1 -1;
#X msg -8346 -24 2;
#X msg -8319 -24 3;
#X obj -8291 -61 bng 15 250 50 0 empty empty empty 17 7 0 10 -262144
-1 -1;
#X msg -8291 -24 5;
#X obj -8264 -61 bng 15 250 50 0 empty empty empty 17 7 0 10 -262144
-1 -1;
#X obj -8237 -61 bng 15 250 50 0 empty empty empty 17 7 0 10 -262144
-1 -1;
#X obj -8210 -61 bng 15 250 50 0 empty empty empty 17 7 0 10 -262144
-1 -1;
#X obj -8183 -61 bng 15 250 50 0 empty empty empty 17 7 0 10 -262144
-1 -1;
#X obj -8155 -61 bng 15 250 50 0 empty empty empty 17 7 0 10 -262144
-1 -1;
#X msg -8264 -24 7;
#X msg -8237 -24 8;
#X msg -8210 -24 10;
#X msg -8183 -24 12;
#X msg -8155 -24 14;
#X obj -8128 -61 bng 15 250 50 0 empty empty empty 17 7 0 10 -262144
-1 -1;
#X obj -8101 -61 bng 15 250 50 0 empty empty empty 17 7 0 10 -262144
-1 -1;
#X obj -8074 -61 bng 15 250 50 0 empty empty empty 17 7 0 10 -262144
-1 -1;
#X obj -8047 -61 bng 15 250 50 0 empty empty empty 17 7 0 10 -262144
-1 -1;
#X obj -8020 -61 bng 15 250 50 0 empty empty empty 17 7 0 10 -262144
-1 -1;
#X obj -7992 -61 bng 15 250 50 0 empty empty empty 17 7 0 10 -262144
-1 -1;
#X msg -8128 -24 15;
#X msg -8101 -24 17;
#X msg -8074 -24 19;
#X msg -8047 -24 20;
#X msg -8020 -24 22;
#X msg -7992 -24 24;
#X obj -8886 -180 inlet;
#X obj -8499 55 outlet;
#X obj -8912 -59 bng 15 250 50 0 empty empty empty 17 7 0 10 -262144
-1 -1;
#X obj -8885 -59 bng 15 250 50 0 empty empty empty 17 7 0 10 -262144
-1 -1;
#X msg -8885 -22 0;
#X obj -8858 -59 bng 15 250 50 0 empty empty empty 17 7 0 10 -262144
-1 -1;
#X obj -8831 -59 bng 15 250 50 0 empty empty empty 17 7 0 10 -262144
-1 -1;
#X msg -8858 -22 2;
#X obj -8803 -59 bng 15 250 50 0 empty empty empty 17 7 0 10 -262144
-1 -1;
#X msg -8803 -22 5;
#X obj -8776 -59 bng 15 250 50 0 empty empty empty 17 7 0 10 -262144
-1 -1;
#X obj -8749 -59 bng 15 250 50 0 empty empty empty 17 7 0 10 -262144
-1 -1;
#X obj -8722 -59 bng 15 250 50 0 empty empty empty 17 7 0 10 -262144
-1 -1;
#X obj -8695 -59 bng 15 250 50 0 empty empty empty 17 7 0 10 -262144
-1 -1;
#X obj -8667 -59 bng 15 250 50 0 empty empty empty 17 7 0 10 -262144
-1 -1;
#X msg -8776 -22 7;
#X msg -8695 -22 12;
#X msg -8667 -22 14;
#X obj -8640 -59 bng 15 250 50 0 empty empty empty 17 7 0 10 -262144
-1 -1;
#X obj -8613 -59 bng 15 250 50 0 empty empty empty 17 7 0 10 -262144
-1 -1;
#X obj -8586 -59 bng 15 250 50 0 empty empty empty 17 7 0 10 -262144
-1 -1;
#X obj -8559 -59 bng 15 250 50 0 empty empty empty 17 7 0 10 -262144
-1 -1;
#X obj -8532 -59 bng 15 250 50 0 empty empty empty 17 7 0 10 -262144
-1 -1;
#X obj -8504 -59 bng 15 250 50 0 empty empty empty 17 7 0 10 -262144
-1 -1;
#X msg -8613 -22 17;
#X msg -8586 -22 19;
#X msg -8504 -22 24;
#X msg -8912 -22 -1;
#X msg -8831 -22 4;
#X msg -8749 -22 9;
#X msg -8722 -22 11;
#X msg -8640 -22 16;
#X msg -8559 -22 21;
#X msg -8532 -22 23;
#X obj -8825 -184 r Add_seq_key_mode;
#X obj -8919 -143 gate 3;
#X obj -8825 -160 + 1;
#X obj -8919 -117 sel -2 -1 0 1 2 3 4 5 6 7 8 9 10 11 12 13 14 15 16
17 18 19 20 21 22 23 24 25 26;
#X obj -8406 -117 sel -2 -1 0 1 2 3 4 5 6 7 8 9 10 11 12 13 14 15 16
17 18 19 20 21 22 23 24 25 26;
#X obj -8476 -59 bng 15 250 50 0 empty empty empty 17 7 0 10 -262144
-1 -1;
#X msg -8476 -22 26;
#X obj -7964 -61 bng 15 250 50 0 empty empty empty 17 7 0 10 -262144
-1 -1;
#X msg -7964 -24 26;
#X connect 0 0 1 0;
#X connect 1 0 33 0;
#X connect 2 0 3 0;
#X connect 3 0 33 0;
#X connect 4 0 6 0;
#X connect 5 0 7 0;
#X connect 6 0 33 0;
#X connect 7 0 33 0;
#X connect 8 0 9 0;
#X connect 9 0 33 0;
#X connect 10 0 15 0;
#X connect 11 0 16 0;
#X connect 12 0 17 0;
#X connect 13 0 18 0;
#X connect 14 0 19 0;
#X connect 15 0 33 0;
#X connect 16 0 33 0;
#X connect 17 0 33 0;
#X connect 18 0 33 0;
#X connect 19 0 33 0;
#X connect 20 0 26 0;
#X connect 21 0 27 0;
#X connect 22 0 28 0;
#X connect 23 0 29 0;
#X connect 24 0 30 0;
#X connect 25 0 31 0;
#X connect 26 0 33 0;
#X connect 27 0 33 0;
#X connect 28 0 33 0;
#X connect 29 0 33 0;
#X connect 30 0 33 0;
#X connect 31 0 33 0;
#X connect 32 0 67 1;
#X connect 34 0 59 0;
#X connect 35 0 36 0;
#X connect 36 0 33 0;
#X connect 37 0 39 0;
#X connect 38 0 60 0;
#X connect 39 0 33 0;
#X connect 40 0 41 0;
#X connect 41 0 33 0;
#X connect 42 0 47 0;
#X connect 43 0 61 0;
#X connect 44 0 62 0;
#X connect 45 0 48 0;
#X connect 46 0 49 0;
#X connect 47 0 33 0;
#X connect 48 0 33 0;
#X connect 49 0 33 0;
#X connect 50 0 63 0;
#X connect 51 0 56 0;
#X connect 52 0 57 0;
#X connect 53 0 64 0;
#X connect 54 0 65 0;
#X connect 55 0 58 0;
#X connect 56 0 33 0;
#X connect 57 0 33 0;
#X connect 58 0 33 0;
#X connect 59 0 33 0;
#X connect 60 0 33 0;
#X connect 61 0 33 0;
#X connect 62 0 33 0;
#X connect 63 0 33 0;
#X connect 64 0 33 0;
#X connect 65 0 33 0;
#X connect 66 0 68 0;
#X connect 67 0 69 0;
#X connect 67 2 70 0;
#X connect 68 0 67 0;
#X connect 69 0 34 0;
#X connect 69 1 34 0;
#X connect 69 2 35 0;
#X connect 69 3 37 0;
#X connect 69 4 37 0;
#X connect 69 5 38 0;
#X connect 69 6 38 0;
#X connect 69 7 40 0;
#X connect 69 8 42 0;
#X connect 69 9 42 0;
#X connect 69 10 43 0;
#X connect 69 11 43 0;
#X connect 69 12 44 0;
#X connect 69 13 44 0;
#X connect 69 14 45 0;
#X connect 69 15 46 0;
#X connect 69 16 46 0;
#X connect 69 17 50 0;
#X connect 69 18 50 0;
#X connect 69 19 51 0;
#X connect 69 20 52 0;
#X connect 69 21 52 0;
#X connect 69 22 53 0;
#X connect 69 23 53 0;
#X connect 69 24 54 0;
#X connect 69 25 54 0;
#X connect 69 26 55 0;
#X connect 69 27 71 0;
#X connect 69 28 71 0;
#X connect 70 0 0 0;
#X connect 70 1 2 0;
#X connect 70 2 2 0;
#X connect 70 3 4 0;
#X connect 70 4 4 0;
#X connect 70 5 5 0;
#X connect 70 6 8 0;
#X connect 70 7 8 0;
#X connect 70 8 10 0;
#X connect 70 9 10 0;
#X connect 70 10 11 0;
#X connect 70 11 12 0;
#X connect 70 12 12 0;
#X connect 70 13 13 0;
#X connect 70 14 13 0;
#X connect 70 15 14 0;
#X connect 70 16 14 0;
#X connect 70 17 20 0;
#X connect 70 18 21 0;
#X connect 70 19 21 0;
#X connect 70 20 22 0;
#X connect 70 21 22 0;
#X connect 70 22 23 0;
#X connect 70 23 24 0;
#X connect 70 24 24 0;
#X connect 70 25 25 0;
#X connect 70 26 25 0;
#X connect 70 27 73 0;
#X connect 70 28 73 0;
#X connect 71 0 72 0;
#X connect 72 0 33 0;
#X connect 73 0 74 0;
#X connect 74 0 33 0;
#X restore -8916 -219 pd trans;
#X obj -8916 -422 bng 15 250 50 0 empty empty empty 17 7 0 10 -262144
-1 -1;
#X obj -8916 -447 del 5;
#X obj -8916 -473 r Add_seqtonal;
#X obj -8806 -521 r Add_seq_key_mode;
#X obj -9002 -201 pack;
#X obj -9002 -128 s Add_seq_tonal;
#X obj -8975 -228 pipe 1;
#X obj -8916 -351 del 10;
#X obj -8806 -464 sel 0 2;
#X obj -8806 -491 change;
#X connect 0 0 4 0;
#X connect 0 1 1 1;
#X connect 1 0 20 0;
#X connect 2 0 20 0;
#X connect 2 1 3 0;
#X connect 3 0 1 1;
#X connect 4 0 10 1;
#X connect 4 0 11 0;
#X connect 4 0 5 0;
#X connect 4 0 19 0;
#X connect 5 0 12 0;
#X connect 7 0 6 1;
#X connect 8 0 9 0;
#X connect 8 0 10 0;
#X connect 8 0 17 1;
#X connect 9 0 6 0;
#X connect 11 0 7 0;
#X connect 12 0 8 0;
#X connect 13 0 2 0;
#X connect 14 0 13 0;
#X connect 15 0 14 0;
#X connect 16 0 22 0;
#X connect 17 0 18 0;
#X connect 19 0 17 0;
#X connect 20 0 0 0;
#X connect 20 0 1 0;
#X connect 21 0 14 0;
#X connect 21 1 14 0;
#X connect 22 0 21 0;
#X restore 277 -145 pd keymodetable;
#N canvas 0 0 450 300 (subpatch) 0;
#X array sequence 16 float 3;
#A 0 0 0 0 0 0 0 0 0 0 0 0 0 0 0 0 0;
#X coords 0 26 16 -2 445 200 1 0 0;
#X restore 466 -262 graph;
#X obj 277 -241 del 180;
#N canvas 532 42 450 300 Add_seq_table_Reset 0;
#X msg -304 -697 \; sequence const 0;
#X obj -304 -750 r Add_seqdrawreset;
#X obj -383 -714 loadbang;
#X obj -304 -627 s Add_seq_att_skalar_ctl;
#X obj -304 -605 s Add_seq_rel_skalar_ctl;
#X msg -304 -660 1;
#N canvas 0 0 450 300 counter 0;
#X obj 121 147 f;
#X obj 177 147 + 1;
#X msg 228 225 0;
#X obj 122 94 inlet;
#X obj 122 250 outlet;
#X obj 270 226 outlet;
#X obj 184 194 moses 16;
#X connect 0 0 1 0;
#X connect 0 0 4 0;
#X connect 1 0 6 0;
#X connect 2 0 0 1;
#X connect 2 0 5 0;
#X connect 3 0 0 0;
#X connect 6 0 0 1;
#X connect 6 1 2 0;
#X restore -121 -638 pd counter;
#X obj -71 -666 spigot;
#X obj -121 -712 t b b;
#X msg -68 -689 1;
#X obj -121 -666 del 10;
#X obj -121 -608 + 1;
#X obj -121 -508 s;
#X msg -56 -574 symbol Add_seqstep\$1;
#X obj -121 -532 pipe 1;
#X msg -121 -566 0;
#X connect 1 0 0 0;
#X connect 1 0 5 0;
#X connect 1 0 8 0;
#X connect 2 0 0 0;
#X connect 5 0 3 0;
#X connect 5 0 4 0;
#X connect 6 0 11 0;
#X connect 6 1 7 1;
#X connect 7 0 10 0;
#X connect 8 0 10 0;
#X connect 8 1 9 0;
#X connect 9 0 7 1;
#X connect 10 0 6 0;
#X connect 10 0 7 0;
#X connect 11 0 13 0;
#X connect 11 0 15 0;
#X connect 13 0 12 1;
#X connect 14 0 12 0;
#X connect 15 0 14 0;
#X restore 468 -37 pd Add_seq_table_Reset;
#X obj 482 52 tabset sequence;
#X obj 634 291 s;
#X msg 656 230 symbol Add_seqstep\$1;
#X obj 634 267 pipe 1;
#X obj 560 303 pack;
#X obj 560 283 pipe 1;
#X obj 560 330 s Add_seq_tonal;
#X msg 64 165 0 0;
#X obj 17 206 outlet;
#X connect 0 0 27 0;
#X connect 0 0 5 0;
#X connect 0 1 1 1;
#X connect 1 0 9 0;
#X connect 2 0 9 0;
#X connect 2 1 3 0;
#X connect 3 0 1 1;
#X connect 4 0 2 0;
#X connect 4 0 10 0;
#X connect 4 0 49 0;
#X connect 5 0 37 0;
#X connect 5 0 38 0;
#X connect 5 0 43 0;
#X connect 6 0 42 0;
#X connect 6 0 59 0;
#X connect 8 0 4 0;
#X connect 9 0 0 0;
#X connect 9 0 1 0;
#X connect 10 0 11 0;
#X connect 12 0 16 0;
#X connect 12 0 51 0;
#X connect 12 0 19 1;
#X connect 13 0 18 0;
#X connect 14 0 20 0;
#X connect 14 0 21 0;
#X connect 14 0 56 0;
#X connect 14 1 15 1;
#X connect 15 0 22 0;
#X connect 16 0 22 0;
#X connect 16 1 17 0;
#X connect 17 0 15 1;
#X connect 18 0 54 0;
#X connect 18 0 55 1;
#X connect 19 0 13 0;
#X connect 20 0 13 1;
#X connect 20 0 53 0;
#X connect 21 0 19 0;
#X connect 22 0 14 0;
#X connect 22 0 15 0;
#X connect 23 0 25 0;
#X connect 24 0 26 0;
#X connect 25 0 24 1;
#X connect 27 0 30 0;
#X connect 27 0 31 0;
#X connect 28 0 29 0;
#X connect 29 0 6 1;
#X connect 29 0 34 0;
#X connect 30 0 28 0;
#X connect 31 0 28 1;
#X connect 33 0 32 1;
#X connect 34 0 32 0;
#X connect 35 0 36 0;
#X connect 36 0 39 0;
#X connect 37 0 6 0;
#X connect 38 0 33 0;
#X connect 38 0 44 0;
#X connect 40 0 41 0;
#X connect 41 0 35 0;
#X connect 42 0 40 0;
#X connect 42 1 35 1;
#X connect 42 2 35 2;
#X connect 42 3 35 3;
#X connect 42 4 35 4;
#X connect 42 5 35 5;
#X connect 42 6 35 6;
#X connect 42 7 35 7;
#X connect 42 8 35 8;
#X connect 42 9 35 9;
#X connect 42 10 35 10;
#X connect 42 11 35 11;
#X connect 42 12 35 12;
#X connect 42 13 35 13;
#X connect 42 14 35 14;
#X connect 42 15 35 15;
#X connect 43 0 58 0;
#X connect 44 0 45 0;
#X connect 45 0 34 0;
#X connect 46 0 59 0;
#X connect 49 0 24 0;
#X connect 53 0 52 1;
#X connect 54 0 52 0;
#X connect 55 0 57 0;
#X connect 56 0 55 0;
#X connect 58 0 59 0;
#X restore 140 35 pd addmakesequence;
#N canvas 149 25 855 610 Sequencer_Guts 0;
#X obj 37 142 % 16;
#X obj 37 118 counter;
#X obj 37 -73 tgl 15 0 empty empty empty 17 7 0 10 -66577 -260097 -1
0 1;
#X obj 37 80 metro;
#X floatatom 37 164 5 0 0 0 - - -;
#N canvas 298 53 565 171 addseqdirection 0;
#X msg 27 66 1;
#X msg 147 65 0;
#X text 297 49 Hier Erklärung;
#X obj 90 101 outlet;
#X obj 206 48 r Add_trigseq;
#X obj 27 25 r Add_seqDirBack;
#X obj 147 24 r Add_seqDirFor;
#X connect 0 0 3 0;
#X connect 1 0 3 0;
#X connect 4 0 1 0;
#X connect 5 0 0 0;
#X connect 6 0 1 0;
#X restore 124 101 pd addseqdirection;
#X obj -26 44 bng 15 250 50 0 empty empty empty 17 7 0 10 -66577 -1
-1;
#X obj 37 -180 r Add_trigseq;
#X obj 272 229 s;
#X msg 319 207 symbol Add_seqpos\$1;
#X obj 272 207 bng 15 250 50 0 empty empty empty 17 7 0 10 -66577 -1
-1;
#X obj 319 180 + 1;
#X obj 272 180 pipe 1;
#X obj 64 -3 /;
#X msg 64 -22 60000;
#X floatatom 64 29 5 0 0 0 - - -;
#X obj 64 -46 t b f;
#X obj 114 -35 r Add_seq_skalar;
#N canvas 569 292 285 302 scale 0;
#X obj 24 63 inlet;
#X msg 24 159 1;
#X msg 64 159 2;
#X msg 104 159 4;
#X obj 24 237 outlet;
#X obj 104 124 sel 4;
#X obj 64 124 sel 3;
#X obj 24 124 sel 2;
#X obj -56 124 sel 0;
#X obj -16 124 sel 1;
#X msg -16 159 0.5;
#X obj -56 159 0.25;
#X connect 0 0 5 0;
#X connect 0 0 6 0;
#X connect 0 0 7 0;
#X connect 0 0 9 0;
#X connect 0 0 8 0;
#X connect 1 0 4 0;
#X connect 2 0 4 0;
#X connect 3 0 4 0;
#X connect 5 0 3 0;
#X connect 6 0 2 0;
#X connect 7 0 1 0;
#X connect 8 0 11 0;
#X connect 9 0 10 0;
#X connect 10 0 4 0;
#X connect 11 0 4 0;
#X restore 114 -9 pd scale;
#X obj 64 50 /;
#X obj 114 12 t b f;
#X floatatom 295 258 5 0 0 0 - - -;
#X obj 115 67 s Add_seq_temp_ms;
#N canvas 347 206 508 500 seqnote 0;
#X floatatom 209 192 5 0 100 0 - - -;
#X floatatom 83 301 5 0 1 0 - - -;
#X obj 209 167 v seqt;
#X text 314 145 Aufräumen und Erläutern;
#X obj 83 367 v seqt;
#X obj 139 85 > 0;
#X obj 38 85 > 0;
#X obj 38 48 r Add_seqSpeed+;
#X obj 139 48 r Add_seqSpeed-;
#X obj 38 208 + 1;
#X obj 139 208 - 1;
#X obj 209 222 s Add_seq_skalar_ctl;
#X obj 83 254 r Add_seq_skalar_ctl;
#X obj 38 114 sel 1;
#X obj 139 114 sel 1;
#X obj 154 329 loadbang;
#X obj 83 338 clip 0 4;
#X msg 154 350 2;
#X connect 0 0 9 0;
#X connect 0 0 10 0;
#X connect 0 0 11 0;
#X connect 1 0 16 0;
#X connect 2 0 0 0;
#X connect 5 0 14 0;
#X connect 6 0 13 0;
#X connect 7 0 6 0;
#X connect 8 0 5 0;
#X connect 9 0 1 0;
#X connect 10 0 1 0;
#X connect 12 0 1 0;
#X connect 13 0 9 0;
#X connect 13 0 2 0;
#X connect 14 0 10 0;
#X connect 14 0 2 0;
#X connect 15 0 17 0;
#X connect 15 0 2 0;
#X connect 16 0 4 0;
#X connect 17 0 4 0;
#X restore 430 -137 pd seqnote;
#X floatatom 154 -139 5 0 0 0 - - -;
#X obj 83 154 r Add_trigseq;
#X obj 37 191 spigot;
#X floatatom 83 174 5 0 0 0 - - -;
#X obj 92 -123 - 1;
#X obj 92 -102 abs;
#X obj 37 -109 spigot;
#N canvas 206 126 450 300 select 0;
#X obj 100 65 sel 0 1 2 3 4 5 6 7 8 9 10 11 12 13 14 15;
#X obj 219 121 sel 0 2 4 6 8 10 12 14;
#X obj 297 166 sel 0 4 8 12;
#X obj 23 185 sel 0 8;
#X obj -18 156 sel 0;
#X obj 70 8 inlet;
#X obj 62 266 bng 15 250 50 0 empty empty empty 17 7 0 10 -262144 -1
-1;
#X obj 124 3 r Add_seq_skalar;
#X floatatom 123 24 5 0 0 0 - - -;
#X obj 34 59 gate 5;
#X obj 109 42 + 1;
#X obj 61 284 outlet;
#X floatatom 29 15 5 0 0 0 - - -;
#X connect 0 0 6 0;
#X connect 0 1 6 0;
#X connect 0 2 6 0;
#X connect 0 3 6 0;
#X connect 0 4 6 0;
#X connect 0 5 6 0;
#X connect 0 6 6 0;
#X connect 0 7 6 0;
#X connect 0 8 6 0;
#X connect 0 9 6 0;
#X connect 0 10 6 0;
#X connect 0 11 6 0;
#X connect 0 12 6 0;
#X connect 0 13 6 0;
#X connect 0 14 6 0;
#X connect 0 15 6 0;
#X connect 1 0 6 0;
#X connect 1 1 6 0;
#X connect 1 2 6 0;
#X connect 1 3 6 0;
#X connect 1 4 6 0;
#X connect 1 5 6 0;
#X connect 1 6 6 0;
#X connect 1 7 6 0;
#X connect 2 0 6 0;
#X connect 2 1 6 0;
#X connect 2 2 6 0;
#X connect 2 3 6 0;
#X connect 3 0 6 0;
#X connect 3 1 6 0;
#X connect 4 0 6 0;
#X connect 5 0 12 0;
#X connect 6 0 11 0;
#X connect 7 0 8 0;
#X connect 8 0 10 0;
#X connect 9 0 4 0;
#X connect 9 1 3 0;
#X connect 9 2 2 0;
#X connect 9 3 1 0;
#X connect 9 4 0 0;
#X connect 10 0 9 0;
#X connect 12 0 9 1;
#X restore 334 74 pd select;
#X floatatom 334 -54 5 0 0 0 - - -;
#X obj 334 102 bng 15 250 50 0 empty empty empty 17 7 0 10 -262144
-1 -1;
#X obj 154 -121 sel 1;
#X msg 154 -90 0;
#X floatatom 295 -4 5 0 0 0 - - -;
#X obj 295 63 *;
#X msg 295 299 60000;
#X obj 310 278 pipe 1;
#X obj 295 323 /;
#X floatatom 316 365 5 0 0 0 - - -;
#X obj 329 321 r Add_seqduration;
#X obj 329 340 t b f;
#X obj 371 381 s Add_seq_noteduration;
#X msg 70 -132 1;
#X obj 70 -155 loadbang;
#X obj 64 -70 r Add_seqtemp;
#X obj 438 357 s Add_seqduration_show;
#X obj 154 -178 r Add_network_on;
#X obj 295 -27 r Add_network_bpm;
#X obj 334 -81 r Add_network_clock;
#N canvas 508 112 450 300 show 0;
#X floatatom -8422 -389 5 0 0 0 - - -;
#X obj -8422 -350 int;
#X obj -8422 -330 t b f;
#X obj -8422 -409 / 1.62;
#X obj -8457 -268 +;
#X obj -8457 -233 mtof;
#X floatatom -8457 -209 5 0 0 0 - - -;
#X obj -8457 -151 s Add_basicfreq;
#X floatatom -8414 -251 5 0 0 0 - - -;
#X obj -8457 -303 r Add_freqmidiin;
#X obj -8406 -210 r Add_trigseq;
#X obj -8457 -174 spigot;
#X floatatom -8406 -190 5 0 0 0 - - -;
#X obj -8422 -437 r Add_mainfreqmidi;
#X connect 0 0 1 0;
#X connect 1 0 2 0;
#X connect 2 0 4 0;
#X connect 2 1 4 1;
#X connect 3 0 0 0;
#X connect 4 0 5 0;
#X connect 4 0 8 0;
#X connect 5 0 6 0;
#X connect 6 0 11 0;
#X connect 9 0 4 0;
#X connect 10 0 12 0;
#X connect 11 0 7 0;
#X connect 12 0 11 1;
#X connect 13 0 3 0;
#X restore 515 -135 pd show mainfreq;
#X obj -13 -2 == 0;
#X obj -13 19 sel 1;
#X obj -51 -102 spigot;
#X obj -51 19 sel 1;
#X obj -51 -2 == 1;
#X msg -18 -130 0;
#X floatatom 153 45 5 0 0 0 - - -;
#X obj 316 390 * 1;
#N canvas 582 0 450 300 notoneinput 0;
#X obj 93 108 inlet;
#X obj 93 136 sel 1;
#X msg 93 160 0;
#X obj 82 194 s Add_notein1_ctl;
#X obj 83 214 s Add_notein2_ctl;
#X obj 81 235 s Add_notein3_ctl;
#X obj 83 260 s Add_notein4_ctl;
#X obj 81 282 s Add_notein5_ctl;
#X connect 0 0 1 0;
#X connect 1 0 2 0;
#X connect 2 0 3 0;
#X connect 2 0 4 0;
#X connect 2 0 5 0;
#X connect 2 0 6 0;
#X connect 2 0 7 0;
#X restore 286 -164 pd notoneinput;
#X obj 308 21 s Add_seqtemp;
#X obj 37 233 outlet;
#X obj 316 415 outlet;
#X connect 0 0 4 0;
#X connect 1 0 0 0;
#X connect 2 0 3 0;
#X connect 3 0 1 0;
#X connect 4 0 12 0;
#X connect 4 0 26 0;
#X connect 4 0 11 0;
#X connect 5 0 1 1;
#X connect 6 0 1 2;
#X connect 7 0 30 0;
#X connect 7 0 53 0;
#X connect 7 0 55 0;
#X connect 7 0 61 0;
#X connect 9 0 8 1;
#X connect 10 0 8 0;
#X connect 11 0 9 0;
#X connect 12 0 10 0;
#X connect 13 0 15 0;
#X connect 14 0 13 0;
#X connect 15 0 19 0;
#X connect 16 0 14 0;
#X connect 16 1 13 1;
#X connect 17 0 18 0;
#X connect 18 0 20 0;
#X connect 19 0 3 1;
#X connect 19 0 22 0;
#X connect 19 0 41 0;
#X connect 20 0 15 0;
#X connect 20 1 19 1;
#X connect 20 1 37 1;
#X connect 20 1 59 0;
#X connect 21 0 38 0;
#X connect 21 0 39 0;
#X connect 24 0 28 0;
#X connect 24 0 34 0;
#X connect 25 0 27 0;
#X connect 26 0 63 0;
#X connect 27 0 26 1;
#X connect 28 0 29 0;
#X connect 29 0 30 1;
#X connect 29 0 55 1;
#X connect 30 0 2 0;
#X connect 31 0 33 0;
#X connect 32 0 31 0;
#X connect 33 0 1 0;
#X connect 34 0 35 0;
#X connect 35 0 2 0;
#X connect 36 0 37 0;
#X connect 36 0 62 0;
#X connect 37 0 21 0;
#X connect 38 0 40 0;
#X connect 39 0 40 1;
#X connect 40 0 41 0;
#X connect 41 0 44 0;
#X connect 41 0 60 0;
#X connect 42 0 43 0;
#X connect 43 0 60 0;
#X connect 43 1 60 1;
#X connect 43 1 48 0;
#X connect 45 0 30 1;
#X connect 46 0 45 0;
#X connect 46 0 58 0;
#X connect 47 0 16 0;
#X connect 49 0 24 0;
#X connect 50 0 36 0;
#X connect 51 0 32 0;
#X connect 53 0 54 0;
#X connect 54 0 6 0;
#X connect 55 0 57 0;
#X connect 56 0 6 0;
#X connect 57 0 56 0;
#X connect 58 0 55 1;
#X connect 60 0 64 0;
#X restore 4 376 pd Sequencer_Guts;
#N canvas 301 94 639 565 Sequencer_Output 0;
#X floatatom -426 69 5 0 0 0 - - -;
#X obj -292 100 makenote 1 150;
#X obj -292 227 s seqnoteon;
#X obj -504 85 s addseqadd;
#N canvas 53 87 1227 718 transpose 0;
#X floatatom 254 605 5 0 0 0 - - -;
#X obj 254 626 int;
#X obj 254 546 r Add_mainfreqmidi;
#X obj 254 646 t b f;
#X obj 254 574 / 1.62;
#X floatatom 213 34 5 0 0 0 - - -;
#X obj 297 -112 inlet;
#X obj 454 133 gate 5;
#X msg 205 89 1;
#X msg 230 89 2;
#X msg 257 89 3;
#X msg 284 89 4;
#X msg 311 89 5;
#X floatatom 256 117 5 0 0 0 - - -;
#X obj 219 752 outlet;
#X obj 462 189 pipe 1;
#X obj 462 254 +;
#X msg 622 201 3;
#X msg 570 201 4;
#X msg 595 202 3;
#X obj 213 60 sel 12 15 16 17 19 20 21;
#X msg 649 201 4;
#X msg 676 201 3;
#X msg 703 201 3;
#X msg 728 201 4;
#X floatatom 571 238 5 0 0 0 - - -;
#X msg 755 201 4;
#X msg 782 201 3;
#X msg 809 201 3;
#X msg 836 201 4;
#X msg 863 201 3;
#X msg 890 201 3;
#X msg 917 201 4;
#X msg 944 201 4;
#X msg 971 201 3;
#X floatatom 573 332 5 0 0 0 - - -;
#X obj 470 283 pipe 1;
#X obj 470 348 +;
#X msg 572 295 5;
#X msg 597 295 5;
#X msg 624 295 5;
#X msg 651 295 5;
#X msg 678 295 5;
#X msg 705 295 5;
#X msg 730 295 6;
#X msg 757 295 5;
#X msg 784 295 5;
#X msg 811 295 5;
#X msg 838 295 5;
#X msg 865 295 5;
#X msg 892 295 5;
#X msg 919 295 5;
#X msg 946 295 6;
#X msg 973 295 5;
#X floatatom 219 628 5 0 0 0 - - -;
#X obj 219 708 +;
#X floatatom 553 424 5 0 0 0 - - -;
#X floatatom 564 516 5 0 0 0 - - -;
#X obj 481 440 +;
#X obj 491 487 pipe 1;
#X obj 491 552 +;
#X obj -150 133 gate 5;
#X obj -142 189 pipe 1;
#X obj -142 254 +;
#X msg 18 201 3;
#X floatatom -33 238 5 0 0 0 - - -;
#X floatatom -31 332 5 0 0 0 - - -;
#X obj -134 283 pipe 1;
#X obj -134 348 +;
#X msg -32 295 5;
#X msg -7 295 5;
#X msg 20 295 5;
#X msg 47 295 5;
#X msg 101 295 5;
#X floatatom -42 427 5 0 0 0 - - -;
#X floatatom -40 516 5 0 0 0 - - -;
#X obj -123 378 pipe 1;
#X obj -123 443 +;
#X obj -113 487 pipe 1;
#X obj -113 552 +;
#X msg -34 201 3;
#X msg -9 201 4;
#X msg 45 201 3;
#X msg 72 201 4;
#X msg 99 201 4;
#X msg 124 201 3;
#X msg 151 201 3;
#X msg 74 295 6;
#X msg 126 295 5;
#X msg 153 295 5;
#X msg 180 295 5;
#X msg 207 295 5;
#X msg 234 295 5;
#X msg 261 295 6;
#X msg 288 295 5;
#X msg 315 295 5;
#X msg 342 295 5;
#X msg 178 201 4;
#X msg 205 201 3;
#X msg 232 201 3;
#X msg 259 201 4;
#X msg 286 201 4;
#X msg 313 201 3;
#X msg 340 201 3;
#X obj 481 388 pipe 1;
#X obj 264 -86 gate 3;
#X floatatom 1070 60 5 0 0 0 - - -;
#X msg 1085 106 0;
#X msg 1137 106 5;
#X obj 1070 303 +;
#X floatatom 1070 548 5 0 0 0 - - -;
#X msg 1110 106 4;
#X obj 213 8 r Add_freqmidiin;
#X obj 219 731 + 12;
#X msg 556 660 8;
#X msg 583 660 8;
#X msg 610 660 9;
#X msg 637 660 9;
#X msg 664 660 8;
#X msg 689 660 9;
#X msg 716 660 9;
#X msg 743 660 9;
#X msg 770 660 8;
#X msg 797 660 8;
#X msg 824 660 9;
#X msg 851 660 9;
#X msg 878 660 8;
#X msg 904 660 9;
#X msg 932 660 9;
#X msg 531 660 9;
#X msg 563 479 -3;
#X msg 588 479 -4;
#X msg 615 479 -4;
#X msg 642 479 -3;
#X msg 669 479 -3;
#X msg 696 479 -4;
#X msg 721 479 -3;
#X msg 748 479 -3;
#X msg 856 479 -3;
#X msg 525 697 7;
#X msg 550 697 7;
#X msg 604 697 7;
#X msg 631 697 7;
#X msg 658 697 7;
#X msg 710 697 7;
#X msg 737 697 7;
#X msg 766 697 7;
#X msg 577 697 6;
#X msg 683 697 7;
#X msg 821 697 7;
#X msg 848 697 7;
#X msg 875 697 7;
#X msg 902 697 7;
#X msg 929 697 7;
#X msg 793 697 6;
#X msg 561 390 -5;
#X msg 586 390 -5;
#X msg 613 390 -6;
#X msg 640 390 -5;
#X msg 667 390 -5;
#X msg 694 390 -5;
#X msg 719 390 -5;
#X msg 746 390 -5;
#X msg 773 390 -5;
#X msg 802 390 -5;
#X msg 829 390 -6;
#X msg 857 390 -5;
#X msg 884 390 -5;
#X msg 911 390 -5;
#X msg 938 390 -5;
#X msg 965 390 -5;
#X msg 538 763 7;
#X msg 591 763 7;
#X msg 618 763 7;
#X msg 645 763 7;
#X msg 724 763 7;
#X msg 751 763 7;
#X msg 670 763 7;
#X msg 805 763 7;
#X msg 832 763 7;
#X msg 861 763 7;
#X msg 564 763 7;
#X msg 512 763 6;
#X msg 697 763 6;
#X msg 778 763 7;
#X msg 886 763 6;
#X msg 913 763 7;
#X text 981 683 Moll;
#X msg 539 740 9;
#X msg 566 740 9;
#X msg 593 740 8;
#X msg 620 740 9;
#X msg 647 740 9;
#X msg 515 740 8;
#X msg 672 740 8;
#X msg 699 740 8;
#X msg 726 740 9;
#X msg 753 740 9;
#X msg 780 740 8;
#X msg 807 740 9;
#X msg 834 740 9;
#X msg 861 740 8;
#X msg 887 740 8;
#X msg 915 740 9;
#X text 957 755 Dur;
#X msg -43 390 -6;
#X msg -17 390 -5;
#X msg 9 390 -5;
#X msg 36 390 -5;
#X msg 63 390 -5;
#X msg 90 390 -5;
#X msg 115 390 -5;
#X msg 142 390 -6;
#X msg 169 390 -5;
#X msg 196 390 -5;
#X msg 223 390 -5;
#X msg 250 390 -5;
#X msg 277 390 -5;
#X msg 306 390 -5;
#X msg 331 390 -6;
#X msg 358 390 -5;
#X msg -40 479 -4;
#X msg -16 479 -3;
#X msg 11 479 -3;
#X msg 38 479 -4;
#X msg 65 479 -3;
#X msg 92 479 -3;
#X msg 117 479 -4;
#X msg 144 479 -4;
#X msg 171 479 -3;
#X msg 198 479 -3;
#X msg 225 479 -4;
#X msg 252 479 -3;
#X msg 279 479 -3;
#X msg 306 479 -4;
#X msg 332 479 -4;
#X msg 360 479 -3;
#X obj 140 72 loadbang;
#X msg 1164 106 -5;
#X msg 1191 106 -4;
#X obj 349 -125 r Add_seq_key_mode;
#X obj 349 -103 + 1;
#X floatatom 379 -38 5 0 0 0 - - -;
#X obj 589 165 sel -2 0 2 3 5 7 8 10 12 14 15 17 19 20 22 24 26;
#X msg 998 201 3;
#X obj 592 254 sel -2 0 2 3 5 7 8 10 12 14 15 17 19 20 22 24 26;
#X msg 1001 295 5;
#X obj 585 359 sel -2 0 2 3 5 7 8 10 12 14 15 17 19 20 22 24 26;
#X msg 992 390 -6;
#X obj 582 453 sel -2 0 2 3 5 7 8 10 12 14 15 17 19 20 22 24 26;
#X msg 775 479 -4;
#X msg 802 479 -4;
#X msg 830 479 -3;
#X msg 880 477 -4;
#X msg 910 479 -3;
#X msg 936 479 -3;
#X msg 964 479 -4;
#X msg 991 478 -4;
#X obj -17 142 sel -1 0 2 4 5 7 9 11 12 14 16 17 19 21 23 24 26;
#X obj -9 238 sel -1 0 2 4 5 7 9 11 12 14 16 17 19 21 23 24 26;
#X obj -23 342 sel -1 0 2 4 5 7 9 11 12 14 16 17 19 21 23 24 26;
#X obj -17 426 sel -1 0 2 4 5 7 9 11 12 14 16 17 19 21 23 24 26;
#X msg 369 296 5;
#X msg 384 390 -5;
#X msg 387 478 -3;
#X msg 367 201 4;
#X msg 393 202 3;
#X msg 396 294 5;
#X msg 423 295 5;
#X connect 0 0 1 0;
#X connect 1 0 3 0;
#X connect 2 0 4 0;
#X connect 3 0 55 0;
#X connect 3 1 55 1;
#X connect 4 0 0 0;
#X connect 5 0 20 0;
#X connect 6 0 105 1;
#X connect 7 0 54 0;
#X connect 7 1 15 0;
#X connect 7 1 243 0;
#X connect 7 2 36 0;
#X connect 7 2 245 0;
#X connect 7 3 104 0;
#X connect 7 3 247 0;
#X connect 7 4 59 0;
#X connect 7 4 249 0;
#X connect 8 0 13 0;
#X connect 8 0 107 0;
#X connect 9 0 13 0;
#X connect 9 0 111 0;
#X connect 10 0 13 0;
#X connect 10 0 108 0;
#X connect 11 0 13 0;
#X connect 11 0 238 0;
#X connect 12 0 13 0;
#X connect 12 0 239 0;
#X connect 13 0 7 0;
#X connect 13 0 61 0;
#X connect 15 0 16 0;
#X connect 16 0 54 0;
#X connect 17 0 25 0;
#X connect 18 0 25 0;
#X connect 19 0 25 0;
#X connect 20 0 8 0;
#X connect 20 1 9 0;
#X connect 20 2 9 0;
#X connect 20 3 10 0;
#X connect 20 4 11 0;
#X connect 20 5 12 0;
#X connect 20 6 12 0;
#X connect 21 0 25 0;
#X connect 22 0 25 0;
#X connect 23 0 25 0;
#X connect 24 0 25 0;
#X connect 25 0 16 1;
#X connect 26 0 25 0;
#X connect 27 0 25 0;
#X connect 28 0 25 0;
#X connect 29 0 25 0;
#X connect 30 0 25 0;
#X connect 31 0 25 0;
#X connect 32 0 25 0;
#X connect 33 0 25 0;
#X connect 34 0 25 0;
#X connect 35 0 37 1;
#X connect 36 0 37 0;
#X connect 37 0 54 0;
#X connect 38 0 35 0;
#X connect 39 0 35 0;
#X connect 40 0 35 0;
#X connect 41 0 35 0;
#X connect 42 0 35 0;
#X connect 43 0 35 0;
#X connect 44 0 35 0;
#X connect 45 0 35 0;
#X connect 46 0 35 0;
#X connect 47 0 35 0;
#X connect 48 0 35 0;
#X connect 49 0 35 0;
#X connect 50 0 35 0;
#X connect 51 0 35 0;
#X connect 52 0 35 0;
#X connect 53 0 35 0;
#X connect 54 0 55 0;
#X connect 55 0 113 0;
#X connect 56 0 58 1;
#X connect 57 0 60 1;
#X connect 58 0 54 0;
#X connect 59 0 60 0;
#X connect 60 0 54 0;
#X connect 61 0 54 0;
#X connect 61 1 62 0;
#X connect 61 1 258 0;
#X connect 61 2 67 0;
#X connect 61 2 259 0;
#X connect 61 3 76 0;
#X connect 61 3 260 0;
#X connect 61 4 78 0;
#X connect 61 4 261 0;
#X connect 62 0 63 0;
#X connect 63 0 54 0;
#X connect 64 0 65 0;
#X connect 65 0 63 1;
#X connect 66 0 68 1;
#X connect 67 0 68 0;
#X connect 68 0 54 0;
#X connect 69 0 66 0;
#X connect 70 0 66 0;
#X connect 71 0 66 0;
#X connect 72 0 66 0;
#X connect 73 0 66 0;
#X connect 74 0 77 1;
#X connect 75 0 79 1;
#X connect 76 0 77 0;
#X connect 77 0 54 0;
#X connect 78 0 79 0;
#X connect 79 0 54 0;
#X connect 80 0 65 0;
#X connect 81 0 65 0;
#X connect 82 0 65 0;
#X connect 83 0 65 0;
#X connect 84 0 65 0;
#X connect 85 0 65 0;
#X connect 86 0 65 0;
#X connect 87 0 66 0;
#X connect 88 0 66 0;
#X connect 89 0 66 0;
#X connect 90 0 66 0;
#X connect 91 0 66 0;
#X connect 92 0 66 0;
#X connect 93 0 66 0;
#X connect 94 0 66 0;
#X connect 95 0 66 0;
#X connect 96 0 66 0;
#X connect 97 0 65 0;
#X connect 98 0 65 0;
#X connect 99 0 65 0;
#X connect 100 0 65 0;
#X connect 101 0 65 0;
#X connect 102 0 65 0;
#X connect 103 0 65 0;
#X connect 104 0 58 0;
#X connect 105 0 61 1;
#X connect 105 1 106 0;
#X connect 105 2 7 1;
#X connect 105 2 242 0;
#X connect 106 0 109 0;
#X connect 107 0 109 1;
#X connect 108 0 109 1;
#X connect 109 0 110 0;
#X connect 110 0 54 0;
#X connect 111 0 109 1;
#X connect 112 0 5 0;
#X connect 113 0 14 0;
#X connect 130 0 57 0;
#X connect 131 0 57 0;
#X connect 132 0 57 0;
#X connect 133 0 57 0;
#X connect 134 0 57 0;
#X connect 135 0 57 0;
#X connect 136 0 57 0;
#X connect 137 0 57 0;
#X connect 138 0 57 0;
#X connect 155 0 56 0;
#X connect 156 0 56 0;
#X connect 157 0 56 0;
#X connect 158 0 56 0;
#X connect 159 0 56 0;
#X connect 160 0 56 0;
#X connect 161 0 56 0;
#X connect 162 0 56 0;
#X connect 163 0 56 0;
#X connect 164 0 56 0;
#X connect 165 0 56 0;
#X connect 166 0 56 0;
#X connect 167 0 56 0;
#X connect 168 0 56 0;
#X connect 169 0 56 0;
#X connect 170 0 56 0;
#X connect 205 0 74 0;
#X connect 206 0 74 0;
#X connect 207 0 74 0;
#X connect 208 0 74 0;
#X connect 209 0 74 0;
#X connect 210 0 74 0;
#X connect 211 0 74 0;
#X connect 212 0 74 0;
#X connect 213 0 74 0;
#X connect 214 0 74 0;
#X connect 215 0 74 0;
#X connect 216 0 74 0;
#X connect 217 0 74 0;
#X connect 218 0 74 0;
#X connect 219 0 74 0;
#X connect 220 0 74 0;
#X connect 221 0 75 0;
#X connect 222 0 75 0;
#X connect 223 0 75 0;
#X connect 224 0 75 0;
#X connect 225 0 75 0;
#X connect 226 0 75 0;
#X connect 227 0 75 0;
#X connect 228 0 75 0;
#X connect 229 0 75 0;
#X connect 230 0 75 0;
#X connect 231 0 75 0;
#X connect 232 0 75 0;
#X connect 233 0 75 0;
#X connect 234 0 75 0;
#X connect 235 0 75 0;
#X connect 236 0 75 0;
#X connect 237 0 8 0;
#X connect 238 0 109 1;
#X connect 239 0 109 1;
#X connect 240 0 241 0;
#X connect 241 0 105 0;
#X connect 243 0 18 0;
#X connect 243 1 19 0;
#X connect 243 2 17 0;
#X connect 243 3 21 0;
#X connect 243 4 22 0;
#X connect 243 5 23 0;
#X connect 243 6 24 0;
#X connect 243 7 26 0;
#X connect 243 8 27 0;
#X connect 243 9 28 0;
#X connect 243 10 29 0;
#X connect 243 11 30 0;
#X connect 243 12 31 0;
#X connect 243 13 32 0;
#X connect 243 14 33 0;
#X connect 243 15 34 0;
#X connect 243 16 244 0;
#X connect 244 0 25 0;
#X connect 245 0 38 0;
#X connect 245 1 39 0;
#X connect 245 2 40 0;
#X connect 245 3 41 0;
#X connect 245 4 42 0;
#X connect 245 5 43 0;
#X connect 245 6 44 0;
#X connect 245 7 45 0;
#X connect 245 8 46 0;
#X connect 245 9 47 0;
#X connect 245 10 48 0;
#X connect 245 11 49 0;
#X connect 245 12 50 0;
#X connect 245 13 51 0;
#X connect 245 14 52 0;
#X connect 245 15 53 0;
#X connect 245 16 246 0;
#X connect 246 0 35 0;
#X connect 247 0 155 0;
#X connect 247 1 156 0;
#X connect 247 2 157 0;
#X connect 247 3 158 0;
#X connect 247 4 159 0;
#X connect 247 5 160 0;
#X connect 247 6 161 0;
#X connect 247 7 162 0;
#X connect 247 8 163 0;
#X connect 247 9 164 0;
#X connect 247 10 165 0;
#X connect 247 11 166 0;
#X connect 247 12 167 0;
#X connect 247 13 168 0;
#X connect 247 14 169 0;
#X connect 247 15 170 0;
#X connect 247 17 248 0;
#X connect 248 0 56 0;
#X connect 249 0 130 0;
#X connect 249 1 131 0;
#X connect 249 2 132 0;
#X connect 249 3 133 0;
#X connect 249 4 134 0;
#X connect 249 5 135 0;
#X connect 249 6 136 0;
#X connect 249 7 137 0;
#X connect 249 8 250 0;
#X connect 249 9 251 0;
#X connect 249 10 252 0;
#X connect 249 11 138 0;
#X connect 249 12 253 0;
#X connect 249 13 254 0;
#X connect 249 14 255 0;
#X connect 249 15 256 0;
#X connect 249 16 257 0;
#X connect 250 0 57 0;
#X connect 251 0 57 0;
#X connect 252 0 57 0;
#X connect 253 0 57 0;
#X connect 254 0 57 0;
#X connect 255 0 57 0;
#X connect 256 0 57 0;
#X connect 257 0 57 0;
#X connect 258 0 80 0;
#X connect 258 1 81 0;
#X connect 258 2 64 0;
#X connect 258 3 82 0;
#X connect 258 4 83 0;
#X connect 258 5 84 0;
#X connect 258 6 85 0;
#X connect 258 7 86 0;
#X connect 258 8 97 0;
#X connect 258 9 98 0;
#X connect 258 10 99 0;
#X connect 258 11 100 0;
#X connect 258 12 101 0;
#X connect 258 13 102 0;
#X connect 258 14 103 0;
#X connect 258 15 265 0;
#X connect 258 16 266 0;
#X connect 259 0 69 0;
#X connect 259 1 70 0;
#X connect 259 2 71 0;
#X connect 259 3 72 0;
#X connect 259 4 87 0;
#X connect 259 5 73 0;
#X connect 259 6 88 0;
#X connect 259 7 89 0;
#X connect 259 8 90 0;
#X connect 259 9 91 0;
#X connect 259 10 92 0;
#X connect 259 11 93 0;
#X connect 259 12 94 0;
#X connect 259 13 95 0;
#X connect 259 14 96 0;
#X connect 259 15 262 0;
#X connect 259 16 267 0;
#X connect 259 17 268 0;
#X connect 260 0 205 0;
#X connect 260 1 206 0;
#X connect 260 2 207 0;
#X connect 260 3 208 0;
#X connect 260 4 209 0;
#X connect 260 5 210 0;
#X connect 260 6 211 0;
#X connect 260 7 212 0;
#X connect 260 8 213 0;
#X connect 260 9 214 0;
#X connect 260 10 215 0;
#X connect 260 11 216 0;
#X connect 260 12 217 0;
#X connect 260 13 218 0;
#X connect 260 14 219 0;
#X connect 260 15 220 0;
#X connect 260 16 263 0;
#X connect 261 0 221 0;
#X connect 261 1 222 0;
#X connect 261 2 223 0;
#X connect 261 3 224 0;
#X connect 261 4 225 0;
#X connect 261 5 226 0;
#X connect 261 6 227 0;
#X connect 261 7 228 0;
#X connect 261 8 229 0;
#X connect 261 9 230 0;
#X connect 261 10 231 0;
#X connect 261 11 232 0;
#X connect 261 12 233 0;
#X connect 261 13 234 0;
#X connect 261 14 235 0;
#X connect 261 15 236 0;
#X connect 261 16 264 0;
#X connect 262 0 66 0;
#X connect 263 0 74 0;
#X connect 264 0 75 0;
#X connect 265 0 65 0;
#X connect 266 0 65 0;
#X connect 267 0 66 0;
#X connect 268 0 66 0;
#X restore -426 101 pd transpose;
#X obj -426 135 s Add_pitchseq;
#X floatatom -292 70 5 0 0 0 - - -;
#X obj -211 144 sel 0;
#X msg -211 182 0;
#X obj -211 164 bng 15 250 50 0 empty empty empty 17 7 0 10 -262144
-1 -1;
#X floatatom -292 199 5 0 0 0 - - -;
#X floatatom -211 125 5 0 0 0 - - -;
#X obj -292 29 inlet;
#X obj -426 32 inlet;
#X obj -211 51 inlet;
#X obj -389 192 inlet;
#X floatatom -389 220 5 0 0 0 - - -;
#X obj -426 338 s;
#X msg -389 270 symbol Add_seqstep\$1;
#X floatatom -426 292 5 0 0 0 - - -;
#X obj -426 314 pipe 1;
#X obj -389 246 + 1;
#X obj -426 384 tabwrite sequence;
#X connect 0 0 3 0;
#X connect 0 0 4 0;
#X connect 0 0 19 0;
#X connect 1 1 11 0;
#X connect 4 0 5 0;
#X connect 6 0 10 0;
#X connect 6 0 1 0;
#X connect 7 0 9 0;
#X connect 8 0 10 0;
#X connect 9 0 8 0;
#X connect 10 0 2 0;
#X connect 11 0 7 0;
#X connect 12 0 6 0;
#X connect 13 0 0 0;
#X connect 14 0 1 2;
#X connect 15 0 16 0;
#X connect 16 0 21 0;
#X connect 16 0 22 1;
#X connect 18 0 17 1;
#X connect 19 0 20 0;
#X connect 20 0 17 0;
#X connect 20 0 22 0;
#X connect 21 0 18 0;
#X restore 264 393 pd Sequencer_Output;
#X msg 100 42 init;
#X msg 140 69 pitch \$1 \$2;
#X connect 0 0 7 0;
#X connect 0 1 7 2;
#X connect 1 0 3 0;
#X connect 2 0 1 0;
#X connect 4 0 0 0;
#X connect 5 0 9 0;
#X connect 6 0 7 1;
#X connect 6 0 0 0;
#X connect 6 1 7 3;
#X connect 8 0 0 0;
#X connect 9 0 0 0;
#X coords 0 -1 1 1 448 203 2 100 100;
#X restore -601 -357 pd sequencer;
#X obj -396 -683 bng 15 250 50 0 what-addsyn xxx what? 19 7 0 10 -99865
-260097 -1;
#X obj -259 -663 bng 15 250 50 0 what-ws xxx what? 19 7 0 10 -99865
-260097 -1;
#X obj -49 -664 bng 15 250 50 0 what-subsyn xxxx what? 19 7 0 10 -99865
-260097 -1;
#X obj -49 -365 bng 15 250 50 0 what-reverb xxxx what? 19 7 0 10 -99865
-260097 -1;
#X obj -662 -358 bng 15 250 50 0 what-reverb xxxx what? 19 7 0 10 -99865
-260097 -1;
#X obj -988 -694 cnv 15 20 20 empty empty ADD 20 12 0 55 -66577 -260097
0;
#X connect 45 0 50 0;
#X connect 46 0 49 0;
#X connect 47 0 52 0;
#X connect 48 0 51 0;
