#N canvas 0 0 1280 718 10;
#X floatatom 225 84 5 0 0 0 - - -;
#X obj 746 244 keyname;
#X floatatom 746 293 5 0 0 0 - - -;
#X msg 108 191 1;
#X msg 160 193 2;
#X msg 209 190 3;
#X msg 247 195 4;
#X msg 294 187 5;
#X msg 349 186 6;
#X msg 388 197 7;
#X msg 438 204 8;
#X msg 486 211 9;
#X msg 532 204 10;
#X msg 611 202 11;
#X msg 661 195 12;
#X msg 727 198 13;
#X obj -103 120 select 121 120;
#X floatatom 411 281 5 0 0 0 - - -;
#X obj 411 323 t b f;
#X obj 412 385 zl nth;
#X msg -69 335 60 61 62 63 64 65 66 67 68 69 70 71 72;
#X obj -76 284 loadbang;
#X obj -43 218 + 12;
#X obj -114 216 - 12;
#X obj 55 199 loadbang;
#X obj 141 274 v oct;
#X obj 27 146 v oct;
#X floatatom 20 180 5 0 0 0 - - -;
#X floatatom 26 246 5 -36 60 0 - - -;
#X obj 410 482 +;
#X floatatom 410 523 5 24 127 0 - - -;
#X obj 659 604 outlet;
#X obj 704 404 * 1;
#X obj 226 141 select 97 119 115 101 100 102 116 103 122 104 117 106
107 121 120;
#X msg 620 310 0;
#X msg 584 375 1;
#X obj 646 455 sel 0;
#X obj 701 575 spigot;
#X msg 683 538 1;
#X msg 749 544 0;
#X obj 761 405 loadbang;
#X obj 697 456 sel 1;
#X msg 700 489 1;
#X msg 649 491 0;
#X obj 425 615 f;
#X floatatom 425 671 5 0 0 0 - - -;
#X msg 607 557 bang;
#X obj 226 -21 key;
#X obj 791 176 - 12;
#X obj 532 636 bng 15 250 50 0 empty empty empty 17 7 0 10 -262144
-1 -1;
#X obj 177 13 change;
#X obj 311 651 outlet;
#X msg 326 526 bang;
#X msg 36 220 -36;
#X connect 0 0 16 0;
#X connect 0 0 33 0;
#X connect 1 0 2 0;
#X connect 2 0 32 0;
#X connect 3 0 17 0;
#X connect 4 0 17 0;
#X connect 5 0 17 0;
#X connect 6 0 17 0;
#X connect 7 0 17 0;
#X connect 8 0 17 0;
#X connect 9 0 17 0;
#X connect 10 0 17 0;
#X connect 11 0 17 0;
#X connect 12 0 17 0;
#X connect 13 0 17 0;
#X connect 14 0 17 0;
#X connect 15 0 17 0;
#X connect 16 0 23 0;
#X connect 16 0 26 0;
#X connect 16 1 22 0;
#X connect 16 1 26 0;
#X connect 17 0 18 0;
#X connect 18 0 19 0;
#X connect 18 0 35 0;
#X connect 18 1 19 1;
#X connect 19 0 29 0;
#X connect 20 0 19 0;
#X connect 21 0 20 0;
#X connect 22 0 28 0;
#X connect 23 0 28 0;
#X connect 24 0 53 0;
#X connect 26 0 27 0;
#X connect 27 0 22 0;
#X connect 27 0 23 0;
#X connect 28 0 25 0;
#X connect 28 0 29 1;
#X connect 29 0 30 0;
#X connect 30 0 44 1;
#X connect 30 0 52 0;
#X connect 32 0 36 0;
#X connect 32 0 41 0;
#X connect 33 0 3 0;
#X connect 33 1 4 0;
#X connect 33 2 5 0;
#X connect 33 3 6 0;
#X connect 33 4 7 0;
#X connect 33 5 8 0;
#X connect 33 6 9 0;
#X connect 33 7 10 0;
#X connect 33 8 11 0;
#X connect 33 9 12 0;
#X connect 33 10 13 0;
#X connect 33 11 14 0;
#X connect 33 12 15 0;
#X connect 33 13 34 0;
#X connect 33 14 34 0;
#X connect 33 15 34 0;
#X connect 34 0 32 1;
#X connect 35 0 32 1;
#X connect 36 0 38 0;
#X connect 36 0 43 0;
#X connect 36 0 46 0;
#X connect 37 0 31 0;
#X connect 37 0 39 0;
#X connect 38 0 37 1;
#X connect 39 0 37 1;
#X connect 40 0 38 0;
#X connect 41 0 42 0;
#X connect 42 0 37 0;
#X connect 43 0 31 0;
#X connect 44 0 45 0;
#X connect 44 0 49 0;
#X connect 45 0 51 0;
#X connect 47 0 50 0;
#X connect 50 0 0 0;
#X connect 52 0 44 0;
#X connect 53 0 28 0;
