#N canvas 53 82 703 304 10;
#X obj 1 30 cnv 10 700 270 empty empty empty 8 12 0 10 -99865 -260097
0;
#X obj 0 -1 cnv 15 700 30 empty empty Netzwerk 10 16 0 20 -260097 -1
0;
#N canvas 116 130 870 558 guts 1;
#X floatatom 120 27 5 0 0 0 - - -;
#X floatatom 33 208 5 0 0 0 - - -;
#X obj 33 130 unpack f f f;
#X obj 168 163 netsend;
#X msg 168 125 send bang;
#X obj 33 231 s Add_network_on;
#X obj 67 280 s Add_network_bpm;
#X obj 102 255 s Add_network_clock;
#X msg 168 21 connect \$1 3001;
#X obj 201 -49 r IP_Drumbo;
#X obj 168 -15 symbol;
#X obj 168 -47 bng 15 250 50 0 empty Net_Connect_Drumbo empty 17 7
0 10 -262144 -1 -1;
#X obj 33 108 route clock time;
#X obj 673 170 netsend;
#X msg 673 132 send bang;
#X obj 673 -8 symbol;
#X obj 673 -40 bng 15 250 50 0 empty Net_Connect_Jerry empty 17 7 0
10 -262144 -1 -1;
#X msg 673 28 connect \$1 3001;
#X floatatom 673 211 5 0 0 0 - - -;
#X floatatom 594 82 5 0 0 0 - - -;
#X obj 507 115 route time;
#X floatatom 168 184 5 0 0 0 - - -;
#X obj 168 209 s Signale_NW_DRUMBO_SENDON;
#X obj 120 58 s Signale_NW_DRUMBO_RECON;
#X obj 706 -42 r IP_Jerry;
#X obj 458 273 r Add_seq_key_mode;
#X text 465 252 Tonalität;
#X floatatom 458 302 5 0 0 0 - - -;
#X floatatom 587 296 5 0 0 0 - - -;
#X obj 587 274 r Add_Base;
#X obj 587 320 ftom;
#X floatatom 587 345 5 0 0 0 - - -;
#X text 585 252 Grundfrequenz;
#X obj 33 1 netreceive;
#X obj 507 56 netreceivejerry 3000 tata;
#X obj 137 170 bng 15 250 50 0 empty empty empty 17 7 0 10 -262144
-1 -1;
#X floatatom 79 171 5 0 0 0 - - -;
#X connect 0 0 23 0;
#X connect 1 0 5 0;
#X connect 2 0 1 0;
#X connect 2 1 6 0;
#X connect 2 1 36 0;
#X connect 2 2 7 0;
#X connect 2 2 35 0;
#X connect 3 0 21 0;
#X connect 4 0 3 0;
#X connect 8 0 3 0;
#X connect 9 0 10 1;
#X connect 10 0 8 0;
#X connect 11 0 10 0;
#X connect 12 0 2 0;
#X connect 12 1 4 0;
#X connect 13 0 18 0;
#X connect 14 0 13 0;
#X connect 15 0 17 0;
#X connect 16 0 15 0;
#X connect 17 0 13 0;
#X connect 20 0 14 0;
#X connect 21 0 22 0;
#X connect 24 0 15 1;
#X connect 25 0 27 0;
#X connect 28 0 30 0;
#X connect 29 0 28 0;
#X connect 30 0 31 0;
#X connect 33 0 12 0;
#X connect 33 1 0 0;
#X connect 34 0 20 0;
#X connect 34 1 19 0;
#X restore 646 7 pd guts;
#X obj 83 104 bng 30 250 50 0 Net_Connect_Drumbo empty verbinden -10
38 0 10 -191407 -260097 -1;
#N canvas 646 358 450 300 InputDrumbo 0;
#X obj 100 101 entry 100 20 grey70 black;
#X obj 100 120 pddp/print;
#X obj 99 -85 trigger bang bang;
#X msg 98 -65 clear;
#X obj 144 -53 sel return;
#X obj 51 187 s IP_Drumbo;
#X connect 0 0 1 0;
#X connect 0 0 5 0;
#X connect 0 1 4 0;
#X connect 2 0 3 0;
#X connect 2 1 0 0;
#X connect 3 0 0 0;
#X connect 4 0 2 0;
#X coords 0 -1 1 1 100 40 1 100 100;
#X restore 51 56 pd InputDrumbo;
#X text 5 35 Hier IP-Adresse von DRUMBO eingeben;
#X text 59 144 auf Port 3001;
#X text 473 35 Hier IP-Adresse von JERRY eingeben;
#X obj 34 241 nbx 5 14 -1e+37 1e+37 0 0 empty Signale_NW_DRUMBO_SENDON
Senden 0 -8 0 10 -262144 -1 -262144 1 256;
#X obj 112 241 nbx 5 14 -1e+37 1e+37 0 0 empty Signale_NW_DRUMBO_RECON
Empfang 0 -8 0 10 -262144 -1 -262144 1 256;
#X text 32 208 Verbindungsstatus DRUMBO;
#X text 174 117 Info: Rechner müssen im Netzwerk sein;
#X text 212 133 und TCP-Port bla und bla müssen geöffnet sein;
#X obj 551 104 bng 30 250 50 0 Net_Connect_Jerry empty verbinden -10
38 0 10 -191407 -260097 -1;
#N canvas 646 358 450 300 InputDrumbo 0;
#X obj 100 101 entry 100 20 grey70 black;
#X obj 100 120 pddp/print;
#X obj 99 -85 trigger bang bang;
#X msg 98 -65 clear;
#X obj 144 -53 sel return;
#X obj 51 187 s IP_Jerry;
#X connect 0 0 1 0;
#X connect 0 0 5 0;
#X connect 0 1 4 0;
#X connect 2 0 3 0;
#X connect 2 1 0 0;
#X connect 3 0 0 0;
#X connect 4 0 2 0;
#X coords 0 -1 1 1 100 40 1 100 100;
#X restore 519 56 pd InputDrumbo;
#X text 527 144 auf Port 3001;
#X obj 502 241 nbx 5 14 -1e+37 1e+37 0 0 empty Signale_NW_DRUMBO_SENDON
Senden 0 -8 0 10 -262144 -1 -262144 0 256;
#X obj 585 241 nbx 5 14 -1e+37 1e+37 0 0 empty Signale_NW_DRUMBO_RECON
Empfang 0 -8 0 10 -262144 -1 -262144 1 256;
#X text 500 208 Verbindungsstatus DRUMBO;
