#N canvas 215 78 738 569 10;
#X obj 75 -44 clip~ -1 1;
#X obj 148 -122 * -1;
#X floatatom 200 -60 7 0 0 0 - - -;
#X obj 76 103 /~;
#X obj 17 -160 inlet~;
#X obj 60 -160 inlet~;
#X floatatom 148 -101 7 0 0 0 - - -;
#X obj 16 369 outlet~;
#N canvas 358 51 404 249 Waveshapecontrols 0;
#X obj 44 70 / 127;
#X floatatom 44 92 5 0 0 0 - - -;
#X obj 44 6 r Add_waveclipctl;
#X obj 44 213 outlet;
#X obj 44 27 - 127;
#X obj 44 47 abs;
#X floatatom 44 136 5 0 0 0 - - -;
#X obj 43 115 + 0.189207;
#X obj 44 157 pow 4;
#X obj 44 183 + 0.025;
#X text 140 89 Die Controllerwerte für das Clipping;
#X text 140 103 werden skaliert und begrenzt.;
#X obj 103 30 / 127;
#X obj 103 53 s Add_waveclipshow;
#X connect 0 0 1 0;
#X connect 1 0 7 0;
#X connect 2 0 4 0;
#X connect 2 0 12 0;
#X connect 4 0 5 0;
#X connect 5 0 0 0;
#X connect 6 0 8 0;
#X connect 7 0 6 0;
#X connect 8 0 9 0;
#X connect 9 0 3 0;
#X connect 12 0 13 0;
#X restore 200 -139 pd Waveshapecontrols;
#X obj 355 -154 block~ 1024 1 8;
#X obj 17 270 *~ 0.125;
#X obj 17 293 rzero~ -1;
#X obj 17 316 rzero~ -1;
#X obj 17 339 rzero~ -1;
#X obj 16 213 cpole~ 0.852238 -0.201949;
#X obj 16 239 cpole~ 0.852238 0.201949;
#X obj 16 167 rpole~ 0.763198;
#X obj 16 190 *~ 0.062617;
#X obj 16 144 *~ 0.236802;
#X text 345 53 WAVESHAPING;
#X text 345 84 Mithilfe des Clip-Objektes wird das eingehende Signal
in seiner Amplitude oben und unten begrenzt. Die dadurch erzeugte 'Eckigkeit'
des Signals führt im Frequenzbereich zu neuen Obertönen.;
#X text 345 152 Da diese Obertöne bei starkem Clipping sehr hohe Frequenzen
erreichen können und somit die Gefahr von starkem Aliasing gegeben
ist \, wird hier Upsampling mit einem Faktor von 8 und bei 16000 Hz
ein Tiefpassfilter angewendet. Dadurch werden die Aliasingartefakte
stark reduziert.;
#X text 49 126 Anti-Aliasing-Filter;
#X text 454 -155 Upsampling;
#X text 47 -91 Waveshaping;
#X obj 339 -44 s Add_clipvalue;
#X text 60 -12 Verstärkung der ungeclippten Grundfrequenz;
#X text 60 0 aus klanglichen Gründen.;
#X text 248 -61 obere Begrenzung;
#X text 197 -102 untere Begrenzung;
#X text 167 62 Anpassung der Laustärke;
#X text 167 75 des geclippten Signals.;
#X obj 200 -39 * 0.494;
#X obj 200 40 * 5;
#X obj 16 -5 /~;
#X obj 31 -31 line~;
#X msg 31 -53 \$1 5;
#X obj 90 84 line~;
#X msg 90 62 \$1 5;
#X obj 200 17 pow 0.2;
#X obj 90 43 clip 0.05 1;
#X obj 90 23 + 0.05;
#X connect 0 0 3 0;
#X connect 1 0 6 0;
#X connect 2 0 0 2;
#X connect 2 0 25 0;
#X connect 2 0 32 0;
#X connect 2 0 41 0;
#X connect 3 0 18 0;
#X connect 4 0 0 0;
#X connect 4 0 34 0;
#X connect 5 0 0 0;
#X connect 6 0 0 1;
#X connect 8 0 1 0;
#X connect 8 0 2 0;
#X connect 10 0 11 0;
#X connect 11 0 12 0;
#X connect 12 0 13 0;
#X connect 13 0 7 0;
#X connect 14 0 15 0;
#X connect 14 1 15 1;
#X connect 15 0 10 0;
#X connect 16 0 17 0;
#X connect 17 0 14 0;
#X connect 18 0 16 0;
#X connect 32 0 39 0;
#X connect 33 0 36 0;
#X connect 34 0 18 0;
#X connect 35 0 34 1;
#X connect 36 0 35 0;
#X connect 37 0 3 1;
#X connect 38 0 37 0;
#X connect 39 0 33 0;
#X connect 40 0 38 0;
#X connect 41 0 40 0;
