#N canvas 185 6 999 732 10;
#X obj 64 144 +~;
#X obj 64 392 outlet~;
#X obj 40 -172 cnv 15 41 72 empty empty Wave 4 8 0 10 -233017 -66577
0;
#X floatatom 44 -120 5 0 0 0 - - #0-waveform-level;
#X obj 44 -142 inlet;
#X text 42 -160 Level;
#X obj -4 -172 cnv 15 41 72 empty empty Pad-\$1 4 8 0 10 -233017 -66577
0;
#X text -3 -160 Volume;
#X floatatom 0 -120 5 0 0 0 - - #0-volume;
#X obj 0 -142 inlet;
#X obj 84 -172 cnv 15 115 72 empty empty Noise 4 8 0 10 -233017 -66577
0;
#X floatatom 86 -120 5 0 0 0 - - #0-noise-level;
#X floatatom 124 -120 5 0 0 0 - - #0-lowpass;
#X floatatom 162 -120 5 0 0 0 - - #0-highpass;
#X obj 86 -142 inlet;
#X obj 124 -142 inlet;
#X obj 162 -142 inlet;
#X text 86 -160 Level;
#X text 162 -160 HP;
#X text 124 -160 LP;
#X obj 202 -172 cnv 15 80 72 empty empty VCO 4 8 0 10 -233017 -66577
0;
#X floatatom 205 -120 5 0 0 0 - - #0-waveform_VCO;
#X floatatom 245 -120 5 0 0 0 - - #0-pulse_width_VCO;
#X obj 205 -142 inlet;
#X obj 245 -142 inlet;
#X text 204 -160 Mode;
#X text 244 -160 PlsWth;
#X obj 285 -172 cnv 15 160 72 empty empty LFO 4 8 0 10 -233017 -66577
0;
#X floatatom 368 -120 5 0 0 0 - - #1-LFO-freq;
#X floatatom 408 -120 5 0 0 0 - - #1-LFO-int;
#X floatatom 328 -120 5 0 0 0 - - #0-pulse_width_LFO;
#X obj 328 -142 inlet;
#X obj 368 -142 inlet;
#X obj 408 -142 inlet;
#X text 367 -160 Freq;
#X text 405 -160 Int;
#X text 327 -160 PlsWth;
#X floatatom 288 -120 5 0 0 0 - - #0-waveform_LFO;
#X obj 288 -142 inlet;
#X text 287 -160 Mode;
#X obj 448 -172 cnv 15 80 72 empty empty VCF 4 8 0 10 -233017 -66577
0;
#X obj 531 -172 cnv 15 80 72 empty empty AM 4 8 0 10 -233017 -66577
0;
#X obj 614 -172 cnv 15 156 72 empty empty Level_Envelope 4 8 0 10 -233017
-66577 0;
#X obj 773 -172 cnv 15 124 72 empty empty Pitch_Envelope 4 8 0 10 -233017
-66577 0;
#X text 450 -160 Cutoff;
#X text 490 -160 Q/Peak;
#X floatatom 618 -120 5 0 0 0 - - att#1;
#X floatatom 491 -120 5 0 0 0 - - #0-VCF-q;
#X floatatom 656 -120 5 0 0 0 - - dec#1;
#X floatatom 694 -120 5 0 0 0 - - sus#1;
#X floatatom 732 -120 5 0 0 0 - - rel#1;
#X floatatom 819 -120 5 0 0 0 - - fq1#1;
#X floatatom 859 -120 5 0 0 0 - - fq2#1;
#X floatatom 777 -120 5 0 0 0 - - tim#1;
#X floatatom 534 -120 5 0 0 0 - - #1-AM-freq;
#X floatatom 574 -120 5 0 0 0 - - #1-AM-int;
#X obj 491 -142 inlet;
#X obj 534 -142 inlet;
#X obj 618 -142 inlet;
#X obj 656 -142 inlet;
#X obj 694 -142 inlet;
#X obj 732 -142 inlet;
#X obj 819 -142 inlet;
#X obj 859 -142 inlet;
#X obj 777 -142 inlet;
#X obj 574 -142 inlet;
#X floatatom 452 -120 5 0 0 0 - - #0-VCF-freq;
#X obj 452 -142 inlet;
#X text 777 -160 Time;
#X text 533 -160 Freq;
#X text 571 -160 Int;
#X text 692 -160 Sus;
#X text 730 -160 Rel;
#X text 654 -160 Dec;
#X text 616 -160 Att;
#X text 819 -160 Frq1;
#X text 859 -160 Frq2;
#X obj 900 -172 cnv 15 41 72 empty empty DPad 4 8 0 10 -233017 -66577
0;
#X obj 944 -172 cnv 15 41 72 empty empty FX 4 8 0 10 -233017 -66577
0;
#X obj 903 -142 inlet;
#X obj 947 -142 inlet;
#X floatatom 947 -120 5 0 0 0 - - -;
#X text 946 -160 Reverb;
#X text 902 -160 #36-43;
#X floatatom 903 -120 5 0 0 0 - - #1-MIDI-bang;
#X obj 65 214 *~;
#X obj 65 25 +~;
#N canvas 272 103 829 670 ADSR_Hüllkurve 0;
#X obj 270 195 timer;
#X obj 340 185 +;
#X obj 340 156 f;
#X obj 270 121 t b b;
#X obj 271 288 >= 0;
#X obj 271 243 t f f;
#X obj 230 432 f;
#X msg 230 465 0 \$1;
#X obj 371 404 f;
#X obj 371 429 pack f f f;
#X obj 230 518 vline~;
#X obj 271 317 sel 0 1;
#X msg 371 458 \$1 \$2 \, 0 \$3 \$2;
#X obj 271 220 expr $f2-$f1;
#X obj 399 260 min;
#X obj 399 321 min;
#X text 38 199 [attack \, decay \, sustain];
#X text 274 13 [release];
#X obj 67 432 pack f f f f f;
#X msg 67 457 \$1 \$2 \, \$3 \$4 \$5;
#X obj 107 326 *;
#X obj 67 281 t f f;
#X obj 464 343 *;
#X obj 230 558 outlet~;
#X obj 270 83 sel 1 0;
#X obj 270 62 > 0;
#X obj 40 250 sel 0;
#X obj 39 160 s vel\$1;
#X obj 360 548 tgl 15 0 empty empty empty 17 7 0 10 -262144 -1 -1 0
1;
#X obj 361 607 s~ huellkurve\$1;
#X obj 321 571 spigot~;
#X obj 270 32 r vel\$1;
#X obj 479 311 r sus\$1;
#X obj 355 106 r att\$1;
#X obj 369 154 r dec\$1;
#X obj 44 502 r anti-knack-\$1;
#X text 359 625 gesendet an EP_ADSR;
#X obj 414 235 r dec\$1;
#X obj 414 299 r rel\$1;
#X obj 464 290 r vel\$1;
#X obj 428 401 r rel\$1;
#X obj 122 277 r sus\$1;
#X obj 127 363 r dec\$1;
#X obj 148 393 r att\$1;
#X obj 40 224 r vel\$1;
#X obj 245 409 r rel\$1;
#X text 468 230 <-- Der kleinere Wert (Dec oder Rel) wird weitergereicht.
;
#X text 525 285 <-- Sustain wird von der Velocity beeinflusst;
#X text 473 457 <-- Erzwinge Decay \, triggere Release erst danach
;
#X text 428 102 Wenn das Drumpad losgelassen wird (also die Velocity
auf 0 springt) \, bevor die Attack- and Decay-Zeit abgelaufen ist \,
wird abgewartet \, bis das Decay durchlaufen ist. Erst dann wird Release
getriggert. Wenn die Velocity auf 0 springt \, nachdem Attack und Decay
durchlaufen sind \, wird das Release normal getriggert.;
#N canvas 358 68 877 368 triggering 0;
#X obj 58 224 outlet;
#X obj 193 228 bng 15 250 50 0 empty empty empty 17 7 0 10 -262144
-1 -1;
#X obj 154 163 moses 1;
#X obj 58 187 / 127;
#X obj 63 1 bng 15 250 50 0 empty empty empty 17 7 0 10 -262144 -1
-1;
#X obj 63 -25 r \$1-GUI-bang;
#X text 387 148 GUI Bang ist der Auslöseknopf in der GUI;
#X text 387 168 MIDI Bang ist der Auslöser durch das MIDI-Keyboard
;
#X text 387 188 BANG triggert den Pitch Envelope und die Phase bei
der Sinus und Rect VCO Waveform;
#X text 387 59 Hier kommen die Signale zusammen \, die die Instrumente
triggern/auslösen. Diese lassen sich entweder mit dem MIDI-Controller
(AKAI LPD 8) oder einem Mausklick auf den Bang oben rechts am jeweiligen
Instrument auslösen. Letztere Option verfügt entsprechend über keinerlei
Anschlagsdynamik \, sondern simuliert einen Tastendruck mit voller
Intensität und der Dauer von 50 ms.;
#X obj 154 -25 r \$1-MIDI-bang;
#X obj 129 307 s \$1-BANG;
#X obj 193 307 s EP-ADSR-BANG;
#X obj -13 136 r EP-ADSR_Inputbang-\$1;
#X msg 96 77 0;
#X floatatom 154 137 5 0 0 0 - - -;
#X obj 96 49 delay 50;
#X obj 28 80 f;
#X obj 27 107 nbx 5 14 -1e+037 1e+037 0 0 empty empty empty 0 -8 0
10 -262144 -1 -1 0 256;
#X obj 5 19 loadbang;
#X msg 5 47 50;
#X obj 82 -1 r accento;
#X connect 1 0 11 0;
#X connect 1 0 12 0;
#X connect 2 1 1 0;
#X connect 3 0 0 0;
#X connect 4 0 16 0;
#X connect 4 0 17 0;
#X connect 5 0 4 0;
#X connect 10 0 15 0;
#X connect 13 0 0 0;
#X connect 14 0 15 0;
#X connect 15 0 2 0;
#X connect 15 0 3 0;
#X connect 16 0 14 0;
#X connect 17 0 18 0;
#X connect 17 0 15 0;
#X connect 19 0 20 0;
#X connect 20 0 17 1;
#X connect 21 0 17 1;
#X restore 39 131 pd triggering;
#X obj 360 522 r EP_ADSR_onoff;
#X connect 0 0 13 0;
#X connect 1 0 13 1;
#X connect 2 0 1 0;
#X connect 3 0 0 0;
#X connect 3 1 2 0;
#X connect 4 0 11 0;
#X connect 5 0 4 0;
#X connect 5 1 14 0;
#X connect 6 0 7 0;
#X connect 7 0 10 0;
#X connect 8 0 9 0;
#X connect 9 0 12 0;
#X connect 10 0 23 0;
#X connect 10 0 30 0;
#X connect 11 0 6 0;
#X connect 11 1 8 0;
#X connect 12 0 10 0;
#X connect 13 0 5 0;
#X connect 14 0 15 0;
#X connect 15 0 9 1;
#X connect 18 0 19 0;
#X connect 19 0 10 0;
#X connect 20 0 18 2;
#X connect 21 0 18 0;
#X connect 21 1 20 0;
#X connect 22 0 8 1;
#X connect 24 0 3 0;
#X connect 24 1 0 1;
#X connect 25 0 24 0;
#X connect 26 1 21 0;
#X connect 28 0 30 1;
#X connect 30 1 29 0;
#X connect 31 0 25 0;
#X connect 32 0 22 1;
#X connect 33 0 2 1;
#X connect 34 0 1 1;
#X connect 35 0 10 0;
#X connect 37 0 14 1;
#X connect 38 0 15 1;
#X connect 39 0 22 0;
#X connect 40 0 9 2;
#X connect 41 0 20 1;
#X connect 42 0 18 3;
#X connect 43 0 18 4;
#X connect 43 0 18 1;
#X connect 44 0 26 0;
#X connect 45 0 6 1;
#X connect 50 0 27 0;
#X connect 51 0 28 0;
#X restore 99 178 pd ADSR_Hüllkurve;
#N canvas 489 443 315 267 Noise 0;
#X obj 43 -16 noise~;
#X obj 42 63 lop~;
#X obj 43 103 hip~;
#X floatatom 94 43 5 0 0 0 - - -;
#X floatatom 94 90 5 0 0 0 - - -;
#X obj 94 22 r \$0-lowpass;
#X obj 94 70 r \$0-highpass;
#X obj 42 205 outlet~;
#X obj 95 132 r \$0-noise-level;
#X obj 43 167 *~;
#X text 170 153 Lautstärkelevel;
#X text 87 -17 Rauschgenerator;
#X text 186 30 Tiefpassfilter;
#X text 187 85 Hochpassfilter;
#X connect 0 0 1 0;
#X connect 1 0 2 0;
#X connect 2 0 9 0;
#X connect 5 0 1 1;
#X connect 5 0 3 0;
#X connect 6 0 2 1;
#X connect 6 0 4 0;
#X connect 8 0 9 1;
#X connect 9 0 7 0;
#X restore 98 108 pd Noise;
#X obj 340 -59 bng 15 250 50 0 what-Ptich empty what? 20 7 0 10 -2097
-260097 -1;
#X obj 340 178 bng 15 250 50 0 what-ADSR empty what? 20 7 0 10 -2097
-260097 -1;
#X obj 340 293 bng 15 250 50 0 what-AM empty what? 20 7 0 10 -2097
-260097 -1;
#X obj 340 -11 bng 15 250 50 0 what-FM empty what? 20 7 0 10 -2097
-260097 -1;
#X obj 340 108 bng 15 250 50 0 what-Rauschen what-Rauschen_ctl what?
20 7 0 10 -2097 -260097 -1;
#X obj 340 66 bng 15 250 50 0 what-Signalformen empty what? 20 7 0
10 -2097 -260097 -1;
#X text 213 191 Hüllkurvengenerator;
#X text 211 292 Amplitudenmodulation;
#N canvas 229 263 335 248 AM 0;
#X obj 61 21 inlet~;
#X obj 13 246 outlet~;
#X obj 62 178 *~;
#X obj 77 95 osc~;
#X obj 78 144 *~;
#X obj 77 61 r \$1-AM-freq;
#X obj 124 96 r \$1-AM-int;
#X obj 14 214 *~ 0.7;
#X text 108 142 Intensität;
#X text 157 60 Frequenz der Modulation;
#X text 63 213 Lautstärkenregulierung;
#X connect 0 0 2 0;
#X connect 0 0 7 0;
#X connect 2 0 7 0;
#X connect 3 0 4 0;
#X connect 4 0 2 1;
#X connect 5 0 3 0;
#X connect 6 0 4 1;
#X connect 7 0 1 0;
#X restore 65 293 pd AM;
#N canvas 119 404 474 229 FM 0;
#N canvas 307 330 526 182 LFO1 0;
#X obj -90 -20 switch~;
#X obj -90 -68 + 1;
#X obj -214 31 outlet~;
#X obj -90 -47 == 1;
#X obj -215 -5 osc~;
#X obj -90 -88 r \$0-waveform_LFO;
#X obj -194 -55 r phase_osc;
#X msg -194 -32 0;
#X obj -215 -89 r \$1-LFO-freq;
#X text -185 -6 Sinusschwingung;
#X text -46 -64 Der Oscillator ist nur aktiviert \, wenn er in der
GUI ausgewählt ist;
#X connect 1 0 3 0;
#X connect 3 0 0 0;
#X connect 4 0 2 0;
#X connect 5 0 1 0;
#X connect 6 0 7 0;
#X connect 7 0 4 1;
#X connect 8 0 4 0;
#X restore 44 29 pd LFO1;
#N canvas 693 347 532 254 LFO2 0;
#X obj -33 -9 switch~;
#X obj -33 -57 + 1;
#X obj -210 56 outlet~;
#X obj -33 -36 == 2;
#X obj -210 -52 phasor~;
#X obj -210 2 -~ 0.5;
#X obj -210 29 *~ 2;
#X obj -210 -25 expr~ $v1 > 0.5;
#X obj -33 -76 r \$0-waveform_LFO;
#X obj -210 -76 r \$1-LFO-freq;
#X text 1 -54 Der Oscillator ist nur aktiviert \, wenn er in der GUI
ausgewählt ist;
#X text -166 12 Rechteckschwingung;
#X connect 1 0 3 0;
#X connect 3 0 0 0;
#X connect 4 0 7 0;
#X connect 5 0 6 0;
#X connect 6 0 2 0;
#X connect 7 0 5 0;
#X connect 8 0 1 0;
#X connect 9 0 4 0;
#X restore 104 29 pd LFO2;
#N canvas 270 286 531 148 LFO3 0;
#X obj -13 35 switch~;
#X obj -13 -13 + 1;
#X obj -183 65 outlet~;
#X obj -13 8 == 3;
#X obj -182 -13 phasor~;
#X obj -182 14 -~ 0.5;
#X obj -183 42 *~ 2;
#X obj -13 -33 r \$0-waveform_LFO;
#X obj -182 -40 r \$1-LFO-freq;
#X text 21 -10 Der Oscillator ist nur aktiviert \, wenn er in der GUI
ausgewählt ist;
#X text -133 6 Sägezahnschwingung;
#X connect 1 0 3 0;
#X connect 3 0 0 0;
#X connect 4 0 5 0;
#X connect 5 0 6 0;
#X connect 6 0 2 0;
#X connect 7 0 1 0;
#X connect 8 0 4 0;
#X restore 164 29 pd LFO3;
#N canvas 616 465 511 283 LFO4 0;
#X obj -38 38 switch~;
#X obj -38 -18 + 1;
#X obj -182 184 outlet~;
#X obj -38 11 == 4;
#X obj -181 -11 phasor~;
#X obj -182 49 +~ 1;
#X obj -182 26 *~ -1;
#X obj -183 108 -~ 0.5;
#X obj -183 131 *~ 2;
#X obj -38 -38 r \$0-waveform_LFO;
#X obj -181 -40 r \$1-LFO-freq;
#X text -161 74 Invertierte Sägezahnschwingung;
#X text -8 -7 Der Oscillator ist nur aktiviert \, wenn er in der GUI
ausgewählt ist;
#X connect 1 0 3 0;
#X connect 3 0 0 0;
#X connect 4 0 6 0;
#X connect 5 0 7 0;
#X connect 6 0 5 0;
#X connect 7 0 8 0;
#X connect 8 0 2 0;
#X connect 9 0 1 0;
#X connect 10 0 4 0;
#X restore 224 29 pd LFO4;
#N canvas 367 295 465 255 LFO5 0;
#X obj -88 46 switch~;
#X obj -88 -10 + 1;
#X obj -181 184 outlet~;
#X obj -181 -11 phasor~;
#X obj -160 36 *~ -1;
#X obj -160 57 +~ 1;
#X obj -182 97 min~;
#X obj -182 119 *~ 4;
#X obj -182 142 -~ 1;
#X obj -88 19 == 5;
#X obj -88 -37 r \$0-waveform_LFO;
#X obj -181 -40 r \$1-LFO-freq;
#X text -143 84 Dreieckschwingung;
#X text -56 1 Der Oscillator ist nur aktiviert \, wenn er in der GUI
ausgewählt ist;
#X connect 1 0 9 0;
#X connect 3 0 4 0;
#X connect 3 0 6 0;
#X connect 4 0 5 0;
#X connect 5 0 6 1;
#X connect 6 0 7 0;
#X connect 7 0 8 0;
#X connect 8 0 2 0;
#X connect 9 0 0 0;
#X connect 10 0 1 0;
#X connect 11 0 3 0;
#X restore 283 29 pd LFO5;
#N canvas 256 273 503 250 LFO6 0;
#X obj -68 38 switch~;
#X obj -68 -18 + 1;
#X obj -181 165 outlet~;
#X obj -181 -1 phasor~;
#X obj -180 136 expr~ $v1 > $v2;
#X floatatom -93 93 5 0 100 0 - - -;
#X obj -68 11 == 6;
#X obj -93 114 + 0.02;
#X obj -68 -38 r \$0-waveform_LFO;
#X obj -93 71 r \$0-pulse_width_LFO;
#X obj -181 -37 r \$1-LFO-freq;
#X text -32 -12 Der Oscillator ist nur aktiviert \, wenn er in der
GUI ausgewählt ist;
#X text -177 49 Pulsschwingung;
#X text -53 93 Breite des Puls;
#X connect 1 0 6 0;
#X connect 3 0 4 0;
#X connect 4 0 2 0;
#X connect 5 0 7 0;
#X connect 6 0 0 0;
#X connect 7 0 4 1;
#X connect 8 0 1 0;
#X connect 9 0 5 0;
#X connect 10 0 3 0;
#X restore 342 29 pd LFO6;
#X obj 170 84 r \$1-LFO-int;
#X obj 45 101 *~;
#X obj 44 165 outlet~;
#X text 250 83 Intensität der Frequenzmodulation;
#X text 66 131 Frequenzmodulationsschwingungs - Erzeugung;
#X text 132 6 die sechs Schwingungsformen;
#X connect 0 0 7 0;
#X connect 1 0 7 0;
#X connect 2 0 7 0;
#X connect 3 0 7 0;
#X connect 4 0 7 0;
#X connect 5 0 7 0;
#X connect 6 0 7 1;
#X connect 7 0 8 0;
#X restore 99 -11 pd FM;
#X text 213 -12 Frequenzmodulation;
#N canvas 263 211 785 478 PitchEnvelope 0;
#X obj 255 146 line~;
#X obj 255 78 list;
#X msg 255 122 \$1 \, \$2 \$3;
#X obj 254 278 outlet~;
#X obj 320 -10 t b f;
#X obj 426 -10 t b f;
#X obj 373 36 pack f f f;
#X obj 426 -34 r fq2\$1;
#X obj 373 -34 r fq1\$1;
#X obj 320 -34 r tim\$1;
#X text 380 96 - Time in ms;
#X text 380 112 - Frequenz 1 in Hz;
#X text 380 127 - Frequenz 2 in Hz;
#X text 371 229 Bsp.: Eine große Bass Drum hat anfangs einen höheren
Ton (~200 Hz). Dieser fällt danach schnell (~20 ms) auf eine niedrigere
Frequenz (< 100 Hz) ab.;
#X obj 255 -34 r \$1-BANG;
#X obj 268 53 t b;
#X msg 57 44 0;
#X obj 57 11 r knob_pitenv_freq2_\$1_in;
#X obj 102 49 r freq2_globe;
#X floatatom 302 198 5 0 0 0 - - -;
#X msg 302 153 1.05946;
#X obj 302 176 pow;
#X obj 57 144 t b b f;
#X obj 254 214 *~;
#X obj 102 103 f;
#X obj 132 103 int;
#X obj 142 71 * 0.653543;
#X obj 102 71 * 0.5;
#X text -6 -16 Integration globaler Frequenzregler;
#X text 159 103 <--;
#X obj 120 234 r fq2\$1;
#X obj 120 261 *;
#X obj 120 286 s freq2_anzeige_\$1;
#X obj 76 355 *;
#X obj 76 328 r fq1\$1;
#X obj 76 380 s freq1_anzeige_\$1;
#X text 371 75 Die Tonhöhen Hüllkurve basiert auf drei Parametern:
;
#X text 371 161 Frequenz 1 bestimmt die zuerst erzeugte Frequenz. Innerhalb
der eingestellten Zeit (Time) verändert sich der Ton linear zu Frequenz
2 So lassen sich ansteigende oder abfallende Tonbewegungen erzeugen.
;
#X connect 0 0 23 0;
#X connect 1 0 2 0;
#X connect 2 0 0 0;
#X connect 4 0 6 0;
#X connect 4 0 15 0;
#X connect 4 1 6 2;
#X connect 5 0 6 0;
#X connect 5 1 6 1;
#X connect 6 0 1 1;
#X connect 7 0 5 0;
#X connect 8 0 6 0;
#X connect 8 0 15 0;
#X connect 9 0 4 0;
#X connect 14 0 1 0;
#X connect 15 0 1 0;
#X connect 16 0 22 0;
#X connect 17 0 16 0;
#X connect 18 0 27 0;
#X connect 19 0 23 1;
#X connect 19 0 31 1;
#X connect 19 0 33 1;
#X connect 20 0 21 0;
#X connect 21 0 19 0;
#X connect 22 1 20 0;
#X connect 22 1 31 0;
#X connect 22 1 33 0;
#X connect 22 2 21 1;
#X connect 23 0 3 0;
#X connect 24 0 22 0;
#X connect 27 0 24 0;
#X connect 30 0 31 0;
#X connect 31 0 32 0;
#X connect 33 0 35 0;
#X connect 34 0 33 0;
#X restore 65 -59 pd PitchEnvelope;
#X text 213 -49 Hüllkurvengenerator;
#X text 212 106 Rauschgenerator;
#X text 483 -66 Am Anfang von DRUMBOS Klangsynthese wird die Frequenz
\, mit der die Oszillatoren (Schwingungsgeneratoren) angesteuert werden
\, durch eine Hüllkurve in ihrem zeitlichen Verlauf kontrolliert.
;
#X text 484 175 Mittels des Hüllkurvengenerators wird das Signal in
seinem zeitlichen Lautstärkeverlauf geformt.;
#N canvas 665 348 450 300 Signalformen 0;
#N canvas 429 242 526 186 VCO1 0;
#X obj -215 -79 inlet~;
#X obj -59 0 switch~;
#X obj -59 -54 + 1;
#X obj -214 70 outlet~;
#X obj -59 -27 == 1;
#X obj -215 13 osc~;
#X obj -59 -78 r \$0-waveform_VCO;
#X text -174 10 Sinusschwingung;
#X text -17 -49 Der Oscillator ist nur aktiviert \, wenn er in der
GUI ausgewählt ist;
#X connect 0 0 5 0;
#X connect 2 0 4 0;
#X connect 4 0 1 0;
#X connect 5 0 3 0;
#X connect 6 0 2 0;
#X restore 28 114 pd VCO1;
#N canvas 453 243 488 252 VCO2 0;
#X obj -210 7 inlet~;
#X obj -83 89 switch~;
#X obj -83 31 + 1;
#X obj -210 196 outlet~;
#X obj -83 62 == 2;
#X obj -210 88 phasor~;
#X obj -210 142 -~ 0.5;
#X obj -210 169 *~ 2;
#X obj -210 115 expr~ $v1 > 0.5;
#X obj -83 7 r \$0-waveform_VCO;
#X text -53 25 Der Oscillator ist nur aktiviert \, wenn er in der GUI
ausgewählt ist;
#X text -159 137 Rechteckschwingung;
#X connect 0 0 5 0;
#X connect 2 0 4 0;
#X connect 4 0 1 0;
#X connect 5 0 8 0;
#X connect 6 0 7 0;
#X connect 7 0 3 0;
#X connect 8 0 6 0;
#X connect 9 0 2 0;
#X restore 87 114 pd VCO2;
#N canvas 397 255 527 146 VCO3 0;
#X obj -182 -40 inlet~;
#X obj -24 39 switch~;
#X obj -24 -14 + 1;
#X obj -183 65 outlet~;
#X obj -24 12 == 3;
#X obj -182 -13 phasor~;
#X obj -182 14 -~ 0.5;
#X obj -183 42 *~ 2;
#X obj -24 -37 r \$0-waveform_VCO;
#X text 11 -12 Der Oscillator ist nur aktiviert \, wenn er in der GUI
ausgewählt ist;
#X text -145 29 Sägezahnschwingung;
#X connect 0 0 5 0;
#X connect 2 0 4 0;
#X connect 4 0 1 0;
#X connect 5 0 6 0;
#X connect 6 0 7 0;
#X connect 7 0 3 0;
#X connect 8 0 2 0;
#X restore 147 114 pd VCO3;
#N canvas 421 247 450 286 VCO4 0;
#X obj -181 -40 inlet~;
#X obj -88 36 switch~;
#X obj -88 -18 + 1;
#X obj -183 155 outlet~;
#X obj -88 9 == 4;
#X obj -181 -11 phasor~;
#X obj -182 52 +~ 1;
#X obj -182 29 *~ -1;
#X obj -182 95 -~ 0.5;
#X obj -182 117 *~ 2;
#X obj -88 -38 r \$0-waveform_VCO;
#X text -175 72 Invertierte Sägezahnschwingung;
#X text -53 -16 Der Oscillator ist nur aktiviert \, wenn er in der
GUI ausgewählt ist;
#X connect 0 0 5 0;
#X connect 2 0 4 0;
#X connect 4 0 1 0;
#X connect 5 0 7 0;
#X connect 6 0 8 0;
#X connect 7 0 6 0;
#X connect 8 0 9 0;
#X connect 9 0 3 0;
#X connect 10 0 2 0;
#X restore 207 114 pd VCO4;
#N canvas 517 238 456 302 VCO5 0;
#X obj -181 -40 inlet~;
#X obj -99 41 switch~;
#X obj -99 -13 + 1;
#X obj -181 224 outlet~;
#X obj -181 44 phasor~;
#X obj -160 91 *~ -1;
#X obj -160 112 +~ 1;
#X obj -182 152 min~;
#X obj -182 174 *~ 4;
#X obj -182 197 -~ 1;
#X obj -99 14 == 5;
#X obj -99 -33 r \$0-waveform_VCO;
#X text -153 134 Dreieckschwingung;
#X text -66 -9 Der Oscillator ist nur aktiviert \, wenn er in der GUI
ausgewählt ist;
#X connect 0 0 4 0;
#X connect 2 0 10 0;
#X connect 4 0 5 0;
#X connect 4 0 7 0;
#X connect 5 0 6 0;
#X connect 6 0 7 1;
#X connect 7 0 8 0;
#X connect 8 0 9 0;
#X connect 9 0 3 0;
#X connect 10 0 1 0;
#X connect 11 0 2 0;
#X restore 268 114 pd VCO5;
#N canvas 437 211 557 274 VCO6 0;
#X obj -182 -40 inlet~;
#X obj -2 28 switch~;
#X obj -2 -26 + 1;
#X obj -181 184 outlet~;
#X obj -181 -11 phasor~;
#X obj -2 1 == 6;
#X obj -180 146 expr~ $v1 > $v2;
#X floatatom -93 85 5 0 100 0 - - -;
#X obj -93 110 + 0.02;
#X obj -93 56 r \$0-pulse_width_VCO;
#X obj -2 -46 r \$0-waveform_VCO;
#X text 34 -22 Der Oscillator ist nur aktiviert \, wenn er in der GUI
ausgewählt ist;
#X text -76 146 Pulsschwingung;
#X text -53 85 Breite des Puls;
#X connect 0 0 4 0;
#X connect 2 0 5 0;
#X connect 4 0 6 0;
#X connect 5 0 1 0;
#X connect 6 0 3 0;
#X connect 7 0 8 0;
#X connect 8 0 6 1;
#X connect 9 0 7 0;
#X connect 10 0 2 0;
#X restore 326 114 pd VCO6;
#X obj 28 17 inlet~;
#X obj 28 259 outlet~;
#X obj 28 230 *~;
#X obj 82 213 r \$0-waveform-level;
#X text 206 212 Lautstärkeregulierung des Oszillator;
#X text 243 70 die sechs Signalformen;
#X connect 0 0 8 0;
#X connect 1 0 8 0;
#X connect 2 0 8 0;
#X connect 3 0 8 0;
#X connect 4 0 8 0;
#X connect 5 0 8 0;
#X connect 6 0 0 0;
#X connect 6 0 1 0;
#X connect 6 0 2 0;
#X connect 6 0 3 0;
#X connect 6 0 4 0;
#X connect 6 0 5 0;
#X connect 8 0 7 0;
#X connect 9 0 8 1;
#X restore 65 66 pd Signalformen;
#N canvas 55 549 362 208 Filter_und_Lautstärke 0;
#X obj 36 14 inlet~;
#N canvas 528 373 172 206 VCF 0;
#X obj 28 31 inlet~;
#X obj 26 212 outlet~;
#X obj 27 154 vcf~;
#X obj 38 98 sig~;
#X obj 38 78 r \$0-VCF-freq;
#X obj 69 98 r \$0-VCF-q;
#X text 63 155 Bandpassfilter;
#X connect 0 0 2 0;
#X connect 2 0 1 0;
#X connect 3 0 2 1;
#X connect 4 0 3 0;
#X connect 5 0 2 2;
#X restore 37 43 pd VCF;
#N canvas 827 556 450 194 volume 0;
#X obj 66 17 inlet~;
#X obj 66 107 outlet~;
#X obj 66 76 *~;
#X obj 99 41 r \$0-volume;
#X text 153 109 Lautstärkeregelung der einzelnen Drumpads;
#X connect 0 0 2 0;
#X connect 2 0 1 0;
#X connect 3 0 2 1;
#X restore 37 131 pd volume;
#X obj 36 166 outlet~;
#X text 124 128 Lautstärkeregelung;
#X text 124 42 Bandpassfilter;
#N canvas 358 219 450 555 LP+HP 0;
#X obj 23 14 inlet~;
#X obj 24 507 outlet~;
#X floatatom 47 145 5 0 0 0 - - -;
#X floatatom 68 59 5 0 0 0 - - -;
#X floatatom 44 347 5 0 0 0 - - -;
#X floatatom 67 261 5 0 0 0 - - -;
#X text 111 212 Tiefpassfilter;
#X text 112 166 Cutoff-Frequenz des Tiefpass;
#X text 131 77 Güte des Tiefpass;
#X text 88 366 Cutoff-Frequenz des Hochpass;
#X text 111 282 Güte des Hochpass;
#X text 79 410 Hochpass;
#X msg 67 282 \$1 10;
#X msg 44 367 \$1 10;
#X obj 68 79 pack 0 10;
#X obj 47 166 pack 0 10;
#X obj 44 388 line~;
#X obj 67 302 line~;
#X obj 47 186 line~;
#X obj 68 100 line~;
#X obj 24 213 vcf_lp6~;
#X obj 23 411 vcf_hp6~;
#X obj 23 476 *~ 2;
#X obj 68 38 r Drumbo_lp_q_\$1;
#X obj 47 125 r Drumbo_lp_freq_\$1;
#X obj 67 240 r Drumbo_hp_q_\$1;
#X obj 44 327 r Drumbo_hp_freq_\$1;
#X connect 0 0 20 0;
#X connect 2 0 15 0;
#X connect 3 0 14 0;
#X connect 4 0 13 0;
#X connect 5 0 12 0;
#X connect 12 0 17 0;
#X connect 13 0 16 0;
#X connect 14 0 19 0;
#X connect 15 0 18 0;
#X connect 16 0 21 1;
#X connect 17 0 21 2;
#X connect 18 0 20 1;
#X connect 19 0 20 2;
#X connect 20 0 21 0;
#X connect 21 0 22 0;
#X connect 22 0 1 0;
#X connect 23 0 3 0;
#X connect 24 0 2 0;
#X connect 25 0 5 0;
#X connect 26 0 4 0;
#X restore 47 85 pd LP+HP;
#X text 124 85 Tief- und Hochpass (nicht genutzt);
#X connect 0 0 1 0;
#X connect 1 0 2 0;
#X connect 2 0 3 0;
#X restore 64 362 pd Filter_und_Lautstärke;
#X text 212 66 Signalformen;
#X text 213 177 Lautstärken-;
#X text 213 -62 Tonhöhen-;
#N canvas 31 315 742 555 Waveshaping 0;
#X obj 125 -4 clip~ -1 1;
#X obj 153 -92 * -1;
#X floatatom 182 -50 7 0 0 0 - - -;
#X obj 126 133 /~;
#X obj 80 -98 inlet~;
#X floatatom 153 -70 7 0 0 0 - - -;
#X obj 125 391 outlet~;
#N canvas 118 142 404 410 Waveshapecontrols 0;
#X obj 44 193 / 127;
#X floatatom 44 215 5 0 0 0 - - -;
#X obj 44 336 outlet;
#X obj 44 150 - 127;
#X obj 44 171 abs;
#X floatatom 44 259 5 0 0 0 - - -;
#X obj 43 238 + 0.189207;
#X obj 44 280 pow 4;
#X obj 44 306 + 0.025;
#X text 140 92 Die Controllerwerte für das Clipping;
#X text 140 106 werden skaliert und begrenzt.;
#X floatatom 44 128 5 0 0 0 - - -;
#X obj 44 -24 r knob_waveshape_\$1;
#X obj 59 1 r Drumbo_waveclipctl;
#X obj 44 25 +;
#X obj 73 25 t b;
#X obj 44 90 nbx 5 14 -1e+037 1e+037 0 0 empty empty empty 0 -8 0 10
-262144 -1 -1 0 256;
#X obj 44 66 min 127;
#X connect 0 0 1 0;
#X connect 1 0 6 0;
#X connect 3 0 4 0;
#X connect 4 0 0 0;
#X connect 5 0 7 0;
#X connect 6 0 5 0;
#X connect 7 0 8 0;
#X connect 8 0 2 0;
#X connect 11 0 3 0;
#X connect 12 0 14 0;
#X connect 13 0 14 1;
#X connect 13 0 15 0;
#X connect 14 0 17 0;
#X connect 15 0 14 0;
#X connect 16 0 11 0;
#X connect 17 0 16 0;
#X restore 182 -126 pd Waveshapecontrols;
#X text 69 -126 Waveshaping;
#X text 187 21 Verstärkung der ungeclippten Grundfrequenz;
#X text 187 33 aus klanglichen Gründen.;
#X text 227 -51 obere Begrenzung;
#X text 204 -71 untere Begrenzung;
#X obj 140 100 line~;
#X msg 140 78 \$1 5;
#X obj 140 56 clip 0.05 1;
#X obj 140 33 + 0.05;
#X floatatom 223 206 5 0 0 0 - - -;
#X floatatom 223 246 5 0 0 0 - - -;
#X obj 223 225 pow 0.8;
#X obj 223 186 / 127;
#X obj 223 286 - 1;
#X obj 223 307 abs;
#X floatatom 223 328 5 0 0 0 - - -;
#X obj 125 352 *~;
#X floatatom 223 378 5 0 0 0 - - -;
#X obj 223 265 * 0.5;
#X text 391 374 Waveshaping ohne AA-Filter. Weniger rechenintensiv...
;
#X obj 223 358 pow 1.1;
#X obj 223 67 r knob_waveshape_\$1;
#X obj 482 -75 loadbang;
#X msg 482 -49 0;
#X obj 482 -24 s knob_waveshape_\$1_in;
#X obj 238 91 r Drumbo_waveclipctl;
#X obj 223 115 +;
#X obj 252 115 t b;
#X obj 223 165 nbx 5 14 -1e+037 1e+037 0 0 empty empty empty 0 -8 0
10 -262144 -1 -1 0 256;
#X obj 223 141 min 127;
#X obj 316 179 s show_waveshape-int-gui_\$1;
#X connect 0 0 3 0;
#X connect 1 0 5 0;
#X connect 2 0 0 2;
#X connect 2 0 16 0;
#X connect 3 0 24 0;
#X connect 4 0 0 0;
#X connect 5 0 0 1;
#X connect 7 0 1 0;
#X connect 7 0 2 0;
#X connect 13 0 3 1;
#X connect 14 0 13 0;
#X connect 15 0 14 0;
#X connect 16 0 15 0;
#X connect 17 0 19 0;
#X connect 18 0 26 0;
#X connect 19 0 18 0;
#X connect 20 0 17 0;
#X connect 21 0 22 0;
#X connect 22 0 23 0;
#X connect 23 0 28 0;
#X connect 24 0 6 0;
#X connect 25 0 24 1;
#X connect 26 0 21 0;
#X connect 28 0 25 0;
#X connect 29 0 34 0;
#X connect 30 0 31 0;
#X connect 31 0 32 0;
#X connect 33 0 34 1;
#X connect 33 0 35 0;
#X connect 34 0 37 0;
#X connect 35 0 34 0;
#X connect 36 0 20 0;
#X connect 36 0 38 0;
#X connect 37 0 36 0;
#X restore 64 327 pd Waveshaping;
#X text 212 324 Waveshaping;
#X obj 340 327 bng 15 250 50 0 what-Waveshape empty what? 20 7 0 10
-2097 -260097 -1;
#X obj 340 494 bng 15 250 50 0 what-Reverb empty what? 20 7 0 10 -2097
-260097 -1;
#X obj 340 442 bng 15 250 50 0 what-Sequencer empty what? 20 7 0 10
-2097 -260097 -1;
#X text 212 491 Reverb;
#X text 212 439 Sequenzer;
#X text 484 -7 Dieser Frequenzverlauf wird dann durch Frequenzmodulation
weiter beeinflusst.;
#X text 484 64 Dieses frequenzmodulierte Signal wird an die Oszillatoren
weitergeleitet \, die verschiedene Schwingungsformen erzeugen können.
;
#X text 485 108 Dem Oszillatorsignal kann gefiltertes Rauschen hinzugefügt
werden.;
#X text 485 279 Durch Amplitudenmodulation können dem Signal schließlich
weitere Frequenzanteile zugefügt werden.;
#X text 485 317 Wavshaping macht den Sound schärfer \, indem Obertöne
erzeugt werden \, die dem eines Rechtecksignals entsprechen.;
#X text 485 439 Mit dem Sequencer lassen sich Muster erstellen \, die
in zeitlicher Abfolge abgefahren werden und die Drumpads auslösen.
;
#X text 485 487 Der konfigurierbare Reverb fügt einen Nachhall hinzu
\, der dem Signal einen virtuellen Raumklang verleiht.;
#X connect 0 0 85 0;
#X connect 4 0 3 0;
#X connect 9 0 8 0;
#X connect 14 0 11 0;
#X connect 15 0 12 0;
#X connect 16 0 13 0;
#X connect 23 0 21 0;
#X connect 24 0 22 0;
#X connect 31 0 30 0;
#X connect 32 0 28 0;
#X connect 33 0 29 0;
#X connect 38 0 37 0;
#X connect 56 0 47 0;
#X connect 57 0 54 0;
#X connect 58 0 46 0;
#X connect 59 0 48 0;
#X connect 60 0 49 0;
#X connect 61 0 50 0;
#X connect 62 0 51 0;
#X connect 63 0 52 0;
#X connect 64 0 53 0;
#X connect 65 0 55 0;
#X connect 67 0 66 0;
#X connect 79 0 84 0;
#X connect 80 0 81 0;
#X connect 85 0 97 0;
#X connect 86 0 105 0;
#X connect 87 0 85 1;
#X connect 88 0 0 1;
#X connect 97 0 110 0;
#X connect 98 0 86 1;
#X connect 100 0 86 0;
#X connect 105 0 0 0;
#X connect 106 0 1 0;
#X connect 110 0 106 0;
