#N canvas 150 71 944 543 10;
#X obj -1410 -25 cnv 15 2800 520 empty empty Knob_Input 20 12 0 10
-228856 -260097 0;
#X msg 230 66 \$1 25;
#X obj 230 88 line;
#X msg -785 68 \$1 25;
#X msg -638 118 \$1 25;
#X msg -462 68 \$1 25;
#X msg -283 118 \$1 25;
#X obj -785 91 line;
#X obj -638 141 line;
#X obj -462 90 line;
#X obj -283 140 line;
#X text -463 21 Cutoff;
#X text -283 71 Q/Peak;
#X text -1051 21 VCO Mode;
#X text -912 131 LFO Pulse Width;
#X text -1033 131 VCO Pulse Width;
#X msg -912 180 \$1 25;
#X msg -1033 180 \$1 25;
#X obj -912 202 line;
#X obj -1033 202 line;
#X text -931 21 LFO Mode;
#X msg -1398 70 \$1 25;
#X obj -1398 92 line;
#X msg 346 116 \$1 25;
#X obj 346 138 line;
#X msg 407 166 \$1 25;
#X obj 407 188 line;
#X msg 467 216 \$1 25;
#X obj 467 241 line;
#X text 345 71 Decay Time (ms);
#X text 406 121 Sustain Level 0-1;
#X text 467 171 Release Time (ms);
#X msg 686 115 \$1 25;
#X obj 686 137 line;
#X msg 858 66 \$1 25;
#X obj 858 88 line;
#X text 857 22 Freq 2;
#X text 279 21 Attack Time (ms);
#X text 279 -1 Level Envelope;
#X text 685 71 Freq 1;
#X text 622 -1 Pitch Envelope;
#X text -463 6 VCF;
#X text -785 21 Frequency;
#X text -637 71 Intensity;
#X text -785 6 LFO;
#X text -1399 21 Volume;
#X msg -1308 70 \$1 25;
#X obj -1308 92 line;
#X msg -1292 180 \$1 25;
#X obj -1292 202 line;
#X msg -1174 70 \$1 25;
#X obj -1174 92 line;
#X msg -1158 180 \$1 25;
#X obj -1158 202 line;
#X text -1309 4 Wave/Noise-Level + Noise-Filtering;
#X text -1309 21 Waveform Level;
#X text -1293 131 Noise Level;
#X text -1175 21 Noise Lowpass;
#X text -1159 131 Noise Highpass;
#X msg -82 68 \$1 25;
#X msg 61 118 \$1 25;
#X obj -82 90 line;
#X obj 61 140 line;
#X text -82 21 Frequency;
#X text 62 71 Intensity;
#X text -82 7 AM;
#X obj -1398 458 outlet;
#X obj -1308 458 outlet;
#X obj -1292 408 outlet;
#X obj -1174 458 outlet;
#X obj -1158 408 outlet;
#X obj -1050 458 outlet;
#X obj -1033 408 outlet;
#X obj -929 458 outlet;
#X obj -912 408 outlet;
#X obj -785 458 outlet;
#X obj -638 398 outlet;
#X obj -283 388 outlet;
#X obj -82 458 outlet;
#X obj 61 389 outlet;
#X obj 280 458 outlet;
#X obj 346 408 outlet;
#X obj 407 358 outlet;
#X obj 467 394 outlet;
#X obj 686 408 outlet;
#X obj 853 458 outlet;
#X text 1118 22 Drumpad 40-43 36-39;
#X obj 1120 458 outlet;
#X obj 61 194 / 127;
#X obj -283 204 / 12.7;
#X obj -462 280 * 0.02;
#X obj -462 303 pow 2.7;
#X obj -462 257 * 15;
#X obj -462 458 outlet;
#X obj -638 233 pow 1.9;
#X obj -638 211 * 0.12;
#X obj -1398 43 r knob_vol_\$1;
#X obj -1308 43 r knob_wave_level_\$1;
#X obj -1292 153 r knob_noise_level_\$1;
#X obj -1174 43 r knob_noise_lp_\$1;
#X obj -1158 153 r knob_noise_hp_\$1;
#X obj -1050 43 r waveform_VCO_\$1;
#X obj -1033 153 r knob_pulse_VCO_\$1;
#X obj -929 43 r waveform_LFO_\$1;
#X obj -912 153 r knob_pulse_LFO_\$1;
#X obj -785 43 r knob_lfo_freq_\$1;
#X obj -638 93 r knob_lfo_int_\$1;
#X obj -462 43 r knob_vcf_cut_\$1;
#X obj -283 93 r knob_vcf_q_\$1;
#X obj -82 43 r knob_am_freq_\$1;
#X obj 61 93 r knob_am_int_\$1;
#X obj 280 43 r knob_levenv_attack_\$1;
#X obj 346 93 r knob_levenv_decay_\$1;
#X obj 407 143 r knob_levenv_sustain_\$1;
#X obj 467 193 r knob_levenv_release_\$1;
#X text -1309 -22 Drumpad #n;
#X text -1242 -22 Parameter 1 (1-8) // Parameter 2 (40-43 bzw. 36-39)
;
#X obj 853 239 mtof;
#X obj 798 139 moses 36;
#X obj 853 163 moses 85;
#X obj 908 228 pow 1.88;
#X obj 798 250 pow 1.09;
#X obj 798 228 + 9.78;
#X obj 908 251 - 2656.85;
#X obj -1174 113 nbx 5 14 -1e+037 1e+037 0 0 empty empty empty 0 -8
0 10 -262144 -1 -1 12000 256;
#X obj -1158 223 nbx 5 14 -1e+037 1e+037 0 0 empty empty empty 0 -8
0 10 -262144 -1 -1 0 256;
#X text -1020 389 0 - 0.975;
#X text -899 389 0 - 0.975;
#X text -1278 389 0 - 1;
#X text -1292 439 0 - 1;
#X text -1160 439 0 - 12000 Hz;
#X text -1147 389 0 - 12000 Hz;
#X text -1038 439 0/1/2/3/4/5;
#X text -919 439 0/1/2/3/4/5;
#X obj -785 114 nbx 5 14 -1e+037 1e+037 0 0 empty empty empty 0 -8
0 10 -262144 -1 -1 1.27 256;
#X obj -785 298 * 0.12;
#X obj -785 343 * 3;
#X obj -785 377 nbx 5 14 -1e+037 1e+037 0 0 empty empty empty 0 -8
0 10 -262144 -1 -1 0.0328311 256;
#X obj -638 163 nbx 5 14 -1e+037 1e+037 0 0 empty empty empty 0 -8
0 10 -262144 -1 -1 0 256;
#X obj -638 345 nbx 5 14 -1e+037 1e+037 0 0 empty empty empty 0 -8
0 10 -262144 -1 -1 0 256;
#X obj -462 114 nbx 5 14 -1e+037 1e+037 0 0 empty empty empty 0 -8
0 10 -262144 -1 -1 0 256;
#X obj -462 332 nbx 5 14 -1e+037 1e+037 0 0 empty empty empty 0 -8
0 10 -262144 -1 -1 0 256;
#X obj -283 164 nbx 5 14 -1e+037 1e+037 0 0 empty empty empty 0 -8
0 10 -262144 -1 -1 0 256;
#X obj -283 325 nbx 5 14 -1e+037 1e+037 0 0 empty empty empty 0 -8
0 10 -262144 -1 -1 0 256;
#X obj -82 114 nbx 5 14 -1e+037 1e+037 0 0 empty empty empty 0 -8 0
10 -262144 -1 -1 1.27 256;
#X obj -82 404 nbx 5 14 -1e+037 1e+037 0 0 empty empty empty 0 -8 0
10 -262144 -1 -1 1.51935 256;
#X obj 61 164 nbx 5 14 -1e+037 1e+037 0 0 empty empty empty 0 -8 0
10 -262144 -1 -1 0 256;
#X obj 61 344 nbx 5 14 -1e+037 1e+037 0 0 empty empty empty 0 -8 0
10 -262144 -1 -1 0 256;
#X obj 280 427 nbx 5 14 -1e+037 1e+037 0 0 empty empty empty 0 -8 0
10 -262144 -1 -1 0.499405 256;
#X obj 346 373 nbx 5 14 -1e+037 1e+037 0 0 empty empty empty 0 -8 0
10 -262144 -1 -1 69.9738 256;
#X obj 407 324 nbx 5 14 -1e+037 1e+037 0 0 empty empty empty 0 -8 0
10 -262144 -1 -1 1 256;
#X obj 467 360 nbx 5 14 -1e+037 1e+037 0 0 empty empty empty 0 -8 0
10 -262144 -1 -1 79.9562 256;
#X obj 686 164 nbx 5 14 -1e+037 1e+037 0 0 empty empty empty 0 -8 0
10 -262144 -1 -1 139.6 256;
#X text -775 439 0 - 307.7 Hz;
#X text -775 426 Midi Control;
#X text -625 366 Midi Control;
#X obj -1292 223 nbx 5 14 -1e+037 1e+037 0 0 empty empty empty 0 -8
0 10 -262144 -1 -1 0 256;
#X obj -1308 113 nbx 5 14 -1e+037 1e+037 0 0 empty empty empty 0 -8
0 10 -262144 -1 -1 0 256;
#X obj -1398 113 nbx 5 14 -1e+037 1e+037 0 0 empty empty empty 0 -8
0 10 -262144 -1 -1 1 256;
#X obj -929 113 nbx 5 14 -1e+037 1e+037 0 0 empty empty empty 0 -8
0 10 -262144 -1 -1 0 256;
#X obj -912 223 nbx 5 14 -1e+037 1e+037 0 0 empty empty empty 0 -8
0 10 -262144 -1 -1 0 256;
#X obj -1033 223 nbx 5 14 -1e+037 1e+037 0 0 empty empty empty 0 -8
0 10 -262144 -1 -1 0 256;
#X obj -1050 113 nbx 5 14 -1e+037 1e+037 0 0 empty empty empty 0 -8
0 10 -262144 -1 -1 0 256;
#X text -1386 439 0 - 1;
#X text -453 426 Midi Control;
#X text -272 356 Midi Control;
#X text -625 379 0 - 176.8;
#X text -453 439 0 - 18556 Hz;
#X text -273 369 0 - 10;
#X text -69 426 Midi Control;
#X text 72 360 Midi Control;
#X text -69 439 0 - 5080 Hz;
#X text 71 373 0 - 1;
#X obj 853 315 nbx 5 14 -1e+037 1e+037 0 0 empty empty empty 0 -8 0
10 -262144 -1 -1 40.1077 256;
#X obj 798 282 nbx 4 14 -1e+037 1e+037 0 0 empty empty empty 0 -8 0
10 -262144 -1 -1 40.1077 256;
#X obj 853 282 nbx 4 14 -1e+037 1e+037 0 0 empty empty empty 0 -8 0
10 -262144 -1 -1 0 256;
#X obj 908 282 nbx 4 14 -1e+037 1e+037 0 0 empty empty empty 0 -8 0
10 -262144 -1 -1 0 256;
#X obj 858 114 nbx 5 14 -1e+037 1e+037 0 0 empty empty empty 0 -8 0
10 -262144 -1 -1 19.79 256;
#X obj 853 197 nbx 4 14 -1e+037 1e+037 0 0 empty empty empty 0 -8 0
10 -262144 -1 -1 0 256;
#X obj 908 197 nbx 4 14 -1e+037 1e+037 0 0 empty empty empty 0 -8 0
10 -262144 -1 -1 0 256;
#X text 865 426 Midi Control;
#X text 422 339 0 - 1;
#X text 482 375 1 - 1500 ms;
#X text 358 389 1 - 1500 ms;
#X text 865 439 12 - 6362 Hz;
#X text 700 389 12 - 6362 Hz;
#X obj 798 197 nbx 4 14 -1e+037 1e+037 0 0 empty empty empty 0 -8 0
10 -262144 -1 -1 19.79 256;
#X msg 624 66 \$1 25;
#X obj 624 88 line;
#X obj 624 458 outlet;
#X obj 624 114 nbx 5 14 -1e+037 1e+037 0 0 empty empty empty 0 -8 0
10 -262144 -1 -1 50.5 256;
#X text 640 439 0 - 750;
#X text 623 22 Time;
#X obj 1137 418 outlet;
#X obj 1137 195 nbx 5 14 -1e+037 1e+037 0 0 empty empty empty 0 -8
0 10 -262144 -1 -1 0 256;
#X obj 1181 84 loadbang;
#X msg 1181 105 0;
#X obj -82 144 pow 1.75;
#X text 621 476 tiefes C (65 \, 406 Hz) bis hohes C (84 \, 1046 Hz)
diatonisch;
#X text 1136 151 Reverb;
#X obj 1181 132 s knob_reverb_\$1_in;
#X obj 1137 173 r knob_reverb_\$1;
#X text 1149 399 0 - 1;
#X obj -753 180 r lfo_freq_\$1_ctl;
#X obj -785 241 f;
#X obj -753 219 t b f;
#X obj -785 274 +;
#X obj -753 201 nbx 5 14 -1e+037 1e+037 0 0 empty empty empty 0 -8
0 10 -262144 -1 -1 0 256;
#X obj -638 282 f;
#X obj -578 244 t b f;
#X obj -638 315 +;
#X obj -578 222 nbx 5 14 -1e+037 1e+037 0 0 empty empty empty 0 -8
0 10 -262144 -1 -1 0 256;
#X obj -578 201 r lfo_int_\$1_ctl;
#X obj -551 279 pow 1.8;
#X obj -82 273 f;
#X obj -47 251 t b f;
#X obj -82 306 +;
#X obj -47 233 nbx 5 14 -1e+037 1e+037 0 0 empty empty empty 0 -8 0
10 -262144 -1 -1 0 256;
#X obj -20 277 pow 1.2;
#X obj -47 212 r am_freq_\$1_ctl;
#X obj 61 259 f;
#X obj 120 242 t b f;
#X obj 61 307 +;
#X obj 120 206 nbx 5 14 -1e+037 1e+037 0 0 empty empty empty 0 -8 0
10 -262144 -1 -1 0 256;
#X obj 120 222 / 127;
#X msg 120 131 0;
#X msg -47 181 0;
#X msg -753 150 0;
#X msg -578 171 0;
#X obj 120 181 r am_int_\$1_ctl;
#X obj -283 235 f;
#X obj -216 218 t b f;
#X obj -283 283 +;
#X obj -216 182 nbx 5 14 -1e+037 1e+037 0 0 empty empty empty 0 -8
0 10 -262144 -1 -1 0 256;
#X obj -462 208 f;
#X obj -404 191 t b f;
#X obj -462 230 +;
#X obj -404 155 nbx 5 14 -1e+037 1e+037 0 0 empty empty empty 0 -8
0 10 -262144 -1 -1 0 256;
#X obj -216 198 / 12.7;
#X obj -404 171 * 1;
#X msg -216 121 0;
#X msg -404 88 0;
#X obj -404 133 r vcf_cut_\$1_ctl;
#X obj -216 141 r vcf_q_\$1_ctl;
#X obj 239 187 r levenv_attack_\$1_ctl;
#X obj 230 369 f;
#X obj 230 393 +;
#X obj 346 324 f;
#X obj 346 347 +;
#X obj 280 344 t b f;
#X obj 280 294 nbx 5 14 -1e+037 1e+037 0 0 empty empty empty 0 -8 0
10 -262144 -1 -1 0 256;
#X obj 360 294 t b f;
#X obj 360 258 nbx 5 14 -1e+037 1e+037 0 0 empty empty empty 0 -8 0
10 -262144 -1 -1 0 256;
#X obj 467 312 f;
#X obj 467 335 +;
#X obj 505 285 t b f;
#X obj 505 239 nbx 5 14 -1e+037 1e+037 0 0 empty empty empty 0 -8 0
10 -262144 -1 -1 0 256;
#X msg 280 141 0;
#X msg 360 229 0;
#X msg 505 216 0;
#X obj 1120 45 r trigger_\$1;
#X obj 1120 86 nbx 5 14 -1e+037 1e+037 0 0 empty empty empty 0 -8 0
10 -262144 -1 -1 0 256;
#X obj -426 366 s \$1-vcf-freq-gui;
#X obj -217 381 s \$1-vcf-q-gui;
#X text 293 441 0 - 500 ms;
#X obj 280 324 * 3;
#X obj 360 274 * 3;
#X obj 505 259 * 3;
#X obj 1137 343 f;
#X obj 1169 321 t b f;
#X obj 1137 376 +;
#X obj 1169 303 nbx 5 14 -1e+037 1e+037 0 0 empty empty empty 0 -8
0 10 -262144 -1 -1 0 256;
#X msg 1169 252 0;
#X obj 1179 272 r reverb_globe;
#X obj 1189 418 s reverb_\$1_wet;
#X obj -785 321 pow 2.4;
#X obj -749 251 pow 1.05;
#X obj 623 43 r knob_pitenv_time2_\$1_in;
#X obj 686 93 r knob_pitenv_freq1_\$1_in;
#X obj 858 43 r knob_pitenv_freq2_\$1_in;
#X obj 425 30 r knob_levenv_sustain_\$1_glb_ctl;
#X obj 407 228 f;
#X obj 407 279 + 1;
#X obj 425 209 t b f;
#X obj 407 304 clip 0 1;
#X connect 1 0 2 0;
#X connect 2 0 245 0;
#X connect 3 0 7 0;
#X connect 4 0 8 0;
#X connect 5 0 9 0;
#X connect 6 0 10 0;
#X connect 7 0 134 0;
#X connect 8 0 138 0;
#X connect 9 0 140 0;
#X connect 10 0 142 0;
#X connect 16 0 18 0;
#X connect 17 0 19 0;
#X connect 18 0 160 0;
#X connect 19 0 161 0;
#X connect 21 0 22 0;
#X connect 22 0 158 0;
#X connect 23 0 24 0;
#X connect 24 0 247 0;
#X connect 25 0 26 0;
#X connect 26 0 281 0;
#X connect 27 0 28 0;
#X connect 28 0 253 0;
#X connect 32 0 33 0;
#X connect 33 0 152 0;
#X connect 34 0 35 0;
#X connect 35 0 177 0;
#X connect 46 0 47 0;
#X connect 47 0 157 0;
#X connect 48 0 49 0;
#X connect 49 0 156 0;
#X connect 50 0 51 0;
#X connect 51 0 124 0;
#X connect 52 0 53 0;
#X connect 53 0 125 0;
#X connect 59 0 61 0;
#X connect 60 0 62 0;
#X connect 61 0 144 0;
#X connect 62 0 146 0;
#X connect 88 0 220 0;
#X connect 89 0 230 0;
#X connect 90 0 91 0;
#X connect 91 0 141 0;
#X connect 92 0 90 0;
#X connect 94 0 208 0;
#X connect 95 0 94 0;
#X connect 96 0 21 0;
#X connect 97 0 46 0;
#X connect 98 0 48 0;
#X connect 99 0 50 0;
#X connect 100 0 52 0;
#X connect 101 0 162 0;
#X connect 102 0 17 0;
#X connect 103 0 159 0;
#X connect 104 0 16 0;
#X connect 105 0 3 0;
#X connect 105 0 227 0;
#X connect 106 0 4 0;
#X connect 106 0 228 0;
#X connect 107 0 5 0;
#X connect 107 0 241 0;
#X connect 108 0 6 0;
#X connect 108 0 240 0;
#X connect 109 0 59 0;
#X connect 109 0 226 0;
#X connect 110 0 60 0;
#X connect 110 0 225 0;
#X connect 111 0 1 0;
#X connect 111 0 257 0;
#X connect 111 0 259 0;
#X connect 112 0 23 0;
#X connect 112 0 258 0;
#X connect 113 0 25 0;
#X connect 114 0 27 0;
#X connect 117 0 175 0;
#X connect 118 0 186 0;
#X connect 118 1 119 0;
#X connect 119 0 178 0;
#X connect 119 1 179 0;
#X connect 120 0 123 0;
#X connect 121 0 174 0;
#X connect 122 0 121 0;
#X connect 123 0 176 0;
#X connect 124 0 69 0;
#X connect 125 0 70 0;
#X connect 134 0 204 0;
#X connect 135 0 275 0;
#X connect 136 0 137 0;
#X connect 137 0 75 0;
#X connect 138 0 95 0;
#X connect 139 0 76 0;
#X connect 140 0 234 0;
#X connect 141 0 93 0;
#X connect 141 0 262 0;
#X connect 142 0 89 0;
#X connect 143 0 77 0;
#X connect 143 0 263 0;
#X connect 144 0 197 0;
#X connect 145 0 78 0;
#X connect 146 0 88 0;
#X connect 147 0 79 0;
#X connect 148 0 80 0;
#X connect 149 0 81 0;
#X connect 150 0 82 0;
#X connect 151 0 83 0;
#X connect 152 0 84 0;
#X connect 156 0 68 0;
#X connect 157 0 67 0;
#X connect 158 0 66 0;
#X connect 159 0 73 0;
#X connect 160 0 74 0;
#X connect 161 0 72 0;
#X connect 162 0 71 0;
#X connect 173 0 85 0;
#X connect 174 0 173 0;
#X connect 175 0 173 0;
#X connect 176 0 173 0;
#X connect 177 0 118 0;
#X connect 178 0 117 0;
#X connect 179 0 120 0;
#X connect 186 0 122 0;
#X connect 187 0 188 0;
#X connect 188 0 190 0;
#X connect 190 0 189 0;
#X connect 194 0 268 0;
#X connect 195 0 196 0;
#X connect 196 0 200 0;
#X connect 197 0 214 0;
#X connect 201 0 194 0;
#X connect 201 0 272 0;
#X connect 203 0 207 0;
#X connect 204 0 206 0;
#X connect 205 0 204 0;
#X connect 205 1 276 0;
#X connect 206 0 135 0;
#X connect 207 0 205 0;
#X connect 208 0 210 0;
#X connect 209 0 208 0;
#X connect 209 1 213 0;
#X connect 210 0 139 0;
#X connect 211 0 209 0;
#X connect 212 0 211 0;
#X connect 213 0 210 1;
#X connect 214 0 216 0;
#X connect 215 0 214 0;
#X connect 215 1 218 0;
#X connect 216 0 145 0;
#X connect 217 0 215 0;
#X connect 218 0 216 1;
#X connect 219 0 217 0;
#X connect 220 0 222 0;
#X connect 221 0 220 0;
#X connect 221 1 222 1;
#X connect 222 0 147 0;
#X connect 223 0 224 0;
#X connect 224 0 221 0;
#X connect 225 0 223 0;
#X connect 226 0 217 0;
#X connect 227 0 207 0;
#X connect 228 0 211 0;
#X connect 229 0 223 0;
#X connect 230 0 232 0;
#X connect 231 0 230 0;
#X connect 231 1 232 1;
#X connect 232 0 143 0;
#X connect 233 0 238 0;
#X connect 234 0 236 0;
#X connect 235 0 234 0;
#X connect 235 1 236 1;
#X connect 236 0 92 0;
#X connect 237 0 239 0;
#X connect 238 0 231 0;
#X connect 239 0 235 0;
#X connect 240 0 233 0;
#X connect 241 0 237 0;
#X connect 242 0 237 0;
#X connect 243 0 233 0;
#X connect 244 0 250 0;
#X connect 244 0 252 0;
#X connect 244 0 256 0;
#X connect 245 0 246 0;
#X connect 246 0 148 0;
#X connect 247 0 248 0;
#X connect 248 0 149 0;
#X connect 249 0 245 0;
#X connect 249 1 246 1;
#X connect 250 0 265 0;
#X connect 251 0 247 0;
#X connect 251 1 248 1;
#X connect 252 0 266 0;
#X connect 253 0 254 0;
#X connect 254 0 151 0;
#X connect 255 0 253 0;
#X connect 255 1 254 1;
#X connect 256 0 267 0;
#X connect 257 0 250 0;
#X connect 258 0 252 0;
#X connect 259 0 256 0;
#X connect 260 0 261 0;
#X connect 261 0 87 0;
#X connect 265 0 249 0;
#X connect 266 0 251 0;
#X connect 267 0 255 0;
#X connect 268 0 270 0;
#X connect 269 0 268 0;
#X connect 269 1 270 1;
#X connect 270 0 193 0;
#X connect 270 0 274 0;
#X connect 271 0 269 0;
#X connect 272 0 271 0;
#X connect 273 0 271 0;
#X connect 275 0 136 0;
#X connect 276 0 206 1;
#X connect 277 0 187 0;
#X connect 278 0 32 0;
#X connect 279 0 34 0;
#X connect 280 0 283 0;
#X connect 281 0 282 0;
#X connect 282 0 284 0;
#X connect 283 0 281 0;
#X connect 283 1 282 1;
#X connect 284 0 150 0;
