#N canvas 118 75 1008 406 10;
#X obj 170 151 sel 0 1 2 3 4 5 6 7 8 9 10 11 12 13 14 15;
#X obj 21 203 f;
#X obj 53 203 f;
#X obj 83 203 f;
#X obj 115 203 f;
#X obj 163 203 f;
#X obj 194 203 f;
#X obj 224 203 f;
#X obj 256 203 f;
#X obj 299 203 f;
#X obj 330 203 f;
#X obj 361 203 f;
#X obj 393 203 f;
#X obj 448 203 f;
#X obj 480 203 f;
#X obj 510 203 f;
#X obj 542 203 f;
#X obj 247 250 sel 1;
#X obj 247 274 outlet;
#X obj 170 18 inlet;
#X floatatom 21 181 5 0 0 0 - - -;
#X floatatom 54 181 5 0 0 0 - - -;
#X floatatom 87 181 5 0 0 0 - - -;
#X floatatom 116 181 5 0 0 0 - - -;
#X floatatom 163 181 5 0 0 0 - - -;
#X floatatom 194 181 5 0 0 0 - - -;
#X floatatom 226 181 5 0 0 0 - - -;
#X floatatom 256 181 5 0 0 0 - - -;
#X floatatom 299 181 5 0 0 0 - - -;
#X floatatom 330 181 5 0 0 0 - - -;
#X floatatom 361 181 5 0 0 0 - - -;
#X floatatom 393 181 5 0 0 0 - - -;
#X floatatom 448 181 5 0 0 0 - - -;
#X floatatom 481 181 5 0 0 0 - - -;
#X floatatom 511 181 5 0 0 0 - - -;
#X floatatom 543 181 5 0 0 0 - - -;
#X text 639 86 Diese werden anschließend an die Floats geleitet.;
#X text 639 106 Feuert der durchlaufende 1-16 Counter die jeweilige
;
#X text 639 126 Position ab \, gelangen die Werte an das Outlet und
;
#X text 639 66 Hier kommen die gesetzten Werte der Toggle-Matrix an.
;
#X text 639 146 triggern/bangen das jeweilige Pad.;
#X obj 21 66 r \$2togl1-\$1s;
#X obj 54 86 r \$2togl2-\$1s;
#X obj 87 106 r \$2togl3-\$1s;
#X obj 116 126 r \$2togl4-\$1s;
#X obj 163 66 r \$2togl5-\$1s;
#X obj 194 86 r \$2togl6-\$1s;
#X obj 226 106 r \$2togl7-\$1s;
#X obj 256 126 r \$2togl8-\$1s;
#X obj 299 66 r \$2togl9-\$1s;
#X obj 330 86 r \$2togl10-\$1s;
#X obj 361 106 r \$2togl11-\$1s;
#X obj 393 126 r \$2togl12-\$1s;
#X obj 448 66 r \$2togl13-\$1s;
#X obj 481 86 r \$2togl14-\$1s;
#X obj 511 106 r \$2togl15-\$1s;
#X obj 543 126 r \$2togl16-\$1s;
#X text 586 180 Kanal aktiv 0/1;
#X connect 0 0 1 0;
#X connect 0 1 2 0;
#X connect 0 2 3 0;
#X connect 0 3 4 0;
#X connect 0 4 5 0;
#X connect 0 5 6 0;
#X connect 0 6 7 0;
#X connect 0 7 8 0;
#X connect 0 8 9 0;
#X connect 0 9 10 0;
#X connect 0 10 11 0;
#X connect 0 11 12 0;
#X connect 0 12 13 0;
#X connect 0 13 14 0;
#X connect 0 14 15 0;
#X connect 0 15 16 0;
#X connect 1 0 17 0;
#X connect 2 0 17 0;
#X connect 3 0 17 0;
#X connect 4 0 17 0;
#X connect 5 0 17 0;
#X connect 6 0 17 0;
#X connect 7 0 17 0;
#X connect 8 0 17 0;
#X connect 9 0 17 0;
#X connect 10 0 17 0;
#X connect 11 0 17 0;
#X connect 12 0 17 0;
#X connect 13 0 17 0;
#X connect 14 0 17 0;
#X connect 15 0 17 0;
#X connect 16 0 17 0;
#X connect 17 0 18 0;
#X connect 19 0 0 0;
#X connect 20 0 1 1;
#X connect 21 0 2 1;
#X connect 22 0 3 1;
#X connect 23 0 4 1;
#X connect 24 0 5 1;
#X connect 25 0 6 1;
#X connect 26 0 7 1;
#X connect 27 0 8 1;
#X connect 28 0 9 1;
#X connect 29 0 10 1;
#X connect 30 0 11 1;
#X connect 31 0 12 1;
#X connect 32 0 13 1;
#X connect 33 0 14 1;
#X connect 34 0 15 1;
#X connect 35 0 16 1;
#X connect 41 0 20 0;
#X connect 42 0 21 0;
#X connect 43 0 22 0;
#X connect 44 0 23 0;
#X connect 45 0 24 0;
#X connect 46 0 25 0;
#X connect 47 0 26 0;
#X connect 48 0 27 0;
#X connect 49 0 28 0;
#X connect 50 0 29 0;
#X connect 51 0 30 0;
#X connect 52 0 31 0;
#X connect 53 0 32 0;
#X connect 54 0 33 0;
#X connect 55 0 34 0;
#X connect 56 0 35 0;
