#N canvas 257 276 450 300 10;
#X obj 141 68 inlet;
#X obj 131 203 outlet;
#X obj 131 177 nbx 5 14 -1e+037 1e+037 0 0 empty empty empty 0 -8 0
10 -262144 -1 -1 80 256;
#X msg 168 133 127;
#X obj 141 98 sel 0;
#X obj 57 147 f;
#X obj 15 42 loadbang;
#X obj 72 103 nbx 5 14 -1e+037 1e+037 0 0 empty empty empty 0 -8 0
10 -262144 -1 -1 70 256;
#X obj 13 91 del 1;
#X msg 72 76 65;
#X connect 0 0 4 0;
#X connect 2 0 1 0;
#X connect 3 0 2 0;
#X connect 4 0 5 0;
#X connect 4 1 3 0;
#X connect 5 0 2 0;
#X connect 6 0 9 0;
#X connect 6 0 8 0;
#X connect 7 0 5 1;
#X connect 8 0 5 0;
#X connect 9 0 7 0;
