#N canvas 408 375 1341 451 10;
#X obj -123 56 f;
#X floatatom -123 82 5 0 0 0 - - -;
#X floatatom -108 16 5 0 0 0 - - -;
#X obj -108 -9 r \$1togl1-1s;
#X obj -43 56 f;
#X floatatom -43 82 5 0 0 0 - - -;
#X floatatom -28 16 5 0 0 0 - - -;
#X obj -28 -9 r \$1togl2-1s;
#X obj 37 56 f;
#X floatatom 37 82 5 0 0 0 - - -;
#X floatatom 52 16 5 0 0 0 - - -;
#X obj 117 56 f;
#X floatatom 117 82 5 0 0 0 - - -;
#X floatatom 132 16 5 0 0 0 - - -;
#X obj 197 56 f;
#X floatatom 197 82 5 0 0 0 - - -;
#X floatatom 212 16 5 0 0 0 - - -;
#X obj 277 56 f;
#X floatatom 277 82 5 0 0 0 - - -;
#X floatatom 292 16 5 0 0 0 - - -;
#X obj 357 56 f;
#X floatatom 357 82 5 0 0 0 - - -;
#X floatatom 372 16 5 0 0 0 - - -;
#X obj 437 56 f;
#X floatatom 437 82 5 0 0 0 - - -;
#X floatatom 452 16 5 0 0 0 - - -;
#X obj 517 56 f;
#X floatatom 517 82 5 0 0 0 - - -;
#X floatatom 532 16 5 0 0 0 - - -;
#X obj 597 56 f;
#X floatatom 597 82 5 0 0 0 - - -;
#X floatatom 612 16 5 0 0 0 - - -;
#X obj 677 56 f;
#X floatatom 677 82 5 0 0 0 - - -;
#X floatatom 692 16 5 0 0 0 - - -;
#X obj 757 56 f;
#X floatatom 757 82 5 0 0 0 - - -;
#X floatatom 772 16 5 0 0 0 - - -;
#X floatatom 852 16 5 0 0 0 - - -;
#X obj 917 56 f;
#X floatatom 917 82 5 0 0 0 - - -;
#X floatatom 932 16 5 0 0 0 - - -;
#X obj 997 56 f;
#X floatatom 997 82 5 0 0 0 - - -;
#X floatatom 1012 16 5 0 0 0 - - -;
#X obj 1077 56 f;
#X floatatom 1077 82 5 0 0 0 - - -;
#X floatatom 1092 16 5 0 0 0 - - -;
#X obj 52 -9 r \$1togl3-1s;
#X obj 132 -9 r \$1togl4-1s;
#X obj 212 -9 r \$1togl5-1s;
#X obj 292 -9 r \$1togl6-1s;
#X obj -123 -52 bng 15 250 50 0 empty copy\$1to\$2 copy\$1to\$2 17
7 0 10 -262144 -1 -1;
#X obj -123 35 bng 15 250 50 0 bang\$1\$2 empty empty 17 7 0 10 -262144
-1 -1;
#X obj -43 35 bng 15 250 50 0 bang\$1\$2 empty empty 17 7 0 10 -262144
-1 -1;
#X obj 37 35 bng 15 250 50 0 bang\$1\$2 empty empty 17 7 0 10 -262144
-1 -1;
#X obj 117 35 bng 15 250 50 0 bang\$1\$2 empty empty 17 7 0 10 -262144
-1 -1;
#X obj 197 35 bng 15 250 50 0 bang\$1\$2 empty empty 17 7 0 10 -262144
-1 -1;
#X obj 277 35 bng 15 250 50 0 bang\$1\$2 empty empty 17 7 0 10 -262144
-1 -1;
#X obj 357 35 bng 15 250 50 0 bang\$1\$2 empty empty 17 7 0 10 -262144
-1 -1;
#X obj 437 35 bng 15 250 50 0 bang\$1\$2 empty empty 17 7 0 10 -262144
-1 -1;
#X obj 517 35 bng 15 250 50 0 bang\$1\$2 empty empty 17 7 0 10 -262144
-1 -1;
#X obj 597 35 bng 15 250 50 0 bang\$1\$2 empty empty 17 7 0 10 -262144
-1 -1;
#X obj 677 35 bng 15 250 50 0 bang\$1\$2 empty empty 17 7 0 10 -262144
-1 -1;
#X obj 757 35 bng 15 250 50 0 bang\$1\$2 empty empty 17 7 0 10 -262144
-1 -1;
#X obj 837 35 bng 15 250 50 0 bang\$1\$2 empty empty 17 7 0 10 -262144
-1 -1;
#X obj 917 35 bng 15 250 50 0 bang\$1\$2 empty empty 17 7 0 10 -262144
-1 -1;
#X obj 997 35 bng 15 250 50 0 bang\$1\$2 empty empty 17 7 0 10 -262144
-1 -1;
#X obj 1077 35 bng 15 250 50 0 bang\$1\$2 empty empty 17 7 0 10 -262144
-1 -1;
#X obj 837 56 f;
#X floatatom 837 82 5 0 0 0 - - -;
#X obj 372 -9 r \$1togl7-1s;
#X obj 452 -9 r \$1togl8-1s;
#X obj 532 -9 r \$1togl9-1s;
#X obj 612 -8 r \$1togl10-1s;
#X obj 692 -9 r \$1togl11-1s;
#X obj 772 -9 r \$1togl12-1s;
#X obj 852 -9 r \$1togl13-1s;
#X obj 932 -9 r \$1togl14-1s;
#X obj 1012 -9 r \$1togl15-1s;
#X obj 1092 -9 r \$1togl16-1s;
#X obj -123 236 f;
#X floatatom -123 262 5 0 0 0 - - -;
#X floatatom -108 196 5 0 0 0 - - -;
#X obj -43 236 f;
#X floatatom -43 262 5 0 0 0 - - -;
#X floatatom -28 196 5 0 0 0 - - -;
#X obj 37 236 f;
#X floatatom 37 262 5 0 0 0 - - -;
#X floatatom 52 196 5 0 0 0 - - -;
#X obj 117 236 f;
#X floatatom 117 262 5 0 0 0 - - -;
#X floatatom 132 196 5 0 0 0 - - -;
#X obj 197 236 f;
#X floatatom 197 262 5 0 0 0 - - -;
#X floatatom 212 196 5 0 0 0 - - -;
#X obj 277 236 f;
#X floatatom 277 262 5 0 0 0 - - -;
#X floatatom 292 196 5 0 0 0 - - -;
#X obj 357 236 f;
#X floatatom 357 262 5 0 0 0 - - -;
#X floatatom 372 196 5 0 0 0 - - -;
#X obj 437 236 f;
#X floatatom 437 262 5 0 0 0 - - -;
#X floatatom 452 196 5 0 0 0 - - -;
#X obj 517 236 f;
#X floatatom 517 262 5 0 0 0 - - -;
#X floatatom 532 196 5 0 0 0 - - -;
#X obj 597 236 f;
#X floatatom 597 262 5 0 0 0 - - -;
#X floatatom 612 196 5 0 0 0 - - -;
#X obj 677 236 f;
#X floatatom 677 262 5 0 0 0 - - -;
#X floatatom 692 196 5 0 0 0 - - -;
#X obj 757 236 f;
#X floatatom 757 262 5 0 0 0 - - -;
#X floatatom 772 196 5 0 0 0 - - -;
#X floatatom 852 196 5 0 0 0 - - -;
#X obj 917 236 f;
#X floatatom 917 262 5 0 0 0 - - -;
#X floatatom 932 196 5 0 0 0 - - -;
#X obj 997 236 f;
#X floatatom 997 262 5 0 0 0 - - -;
#X floatatom 1012 196 5 0 0 0 - - -;
#X obj 1077 236 f;
#X floatatom 1077 262 5 0 0 0 - - -;
#X floatatom 1092 196 5 0 0 0 - - -;
#X obj -123 128 bng 15 250 50 0 empty copy\$1to\$2 copy\$1to\$2 17
7 0 10 -262144 -1 -1;
#X obj -123 215 bng 15 250 50 0 bang\$1\$2 empty empty 17 7 0 10 -262144
-1 -1;
#X obj -43 215 bng 15 250 50 0 bang\$1\$2 empty empty 17 7 0 10 -262144
-1 -1;
#X obj 37 215 bng 15 250 50 0 bang\$1\$2 empty empty 17 7 0 10 -262144
-1 -1;
#X obj 117 215 bng 15 250 50 0 bang\$1\$2 empty empty 17 7 0 10 -262144
-1 -1;
#X obj 197 215 bng 15 250 50 0 bang\$1\$2 empty empty 17 7 0 10 -262144
-1 -1;
#X obj 277 215 bng 15 250 50 0 bang\$1\$2 empty empty 17 7 0 10 -262144
-1 -1;
#X obj 357 215 bng 15 250 50 0 bang\$1\$2 empty empty 17 7 0 10 -262144
-1 -1;
#X obj 437 215 bng 15 250 50 0 bang\$1\$2 empty empty 17 7 0 10 -262144
-1 -1;
#X obj 517 215 bng 15 250 50 0 bang\$1\$2 empty empty 17 7 0 10 -262144
-1 -1;
#X obj 597 215 bng 15 250 50 0 bang\$1\$2 empty empty 17 7 0 10 -262144
-1 -1;
#X obj 677 215 bng 15 250 50 0 bang\$1\$2 empty empty 17 7 0 10 -262144
-1 -1;
#X obj 757 215 bng 15 250 50 0 bang\$1\$2 empty empty 17 7 0 10 -262144
-1 -1;
#X obj 837 215 bng 15 250 50 0 bang\$1\$2 empty empty 17 7 0 10 -262144
-1 -1;
#X obj 917 215 bng 15 250 50 0 bang\$1\$2 empty empty 17 7 0 10 -262144
-1 -1;
#X obj 997 215 bng 15 250 50 0 bang\$1\$2 empty empty 17 7 0 10 -262144
-1 -1;
#X obj 1077 215 bng 15 250 50 0 bang\$1\$2 empty empty 17 7 0 10 -262144
-1 -1;
#X obj 837 236 f;
#X floatatom 837 262 5 0 0 0 - - -;
#X obj -123 416 f;
#X floatatom -123 442 5 0 0 0 - - -;
#X floatatom -108 376 5 0 0 0 - - -;
#X obj -43 416 f;
#X floatatom -43 442 5 0 0 0 - - -;
#X floatatom -28 376 5 0 0 0 - - -;
#X obj 37 416 f;
#X floatatom 37 442 5 0 0 0 - - -;
#X floatatom 52 376 5 0 0 0 - - -;
#X obj 117 416 f;
#X floatatom 117 442 5 0 0 0 - - -;
#X floatatom 132 376 5 0 0 0 - - -;
#X obj 197 416 f;
#X floatatom 197 442 5 0 0 0 - - -;
#X floatatom 212 376 5 0 0 0 - - -;
#X obj 277 416 f;
#X floatatom 277 442 5 0 0 0 - - -;
#X floatatom 292 376 5 0 0 0 - - -;
#X obj 357 416 f;
#X floatatom 357 442 5 0 0 0 - - -;
#X floatatom 372 376 5 0 0 0 - - -;
#X obj 437 416 f;
#X floatatom 437 442 5 0 0 0 - - -;
#X floatatom 452 376 5 0 0 0 - - -;
#X obj 517 416 f;
#X floatatom 517 442 5 0 0 0 - - -;
#X floatatom 532 376 5 0 0 0 - - -;
#X obj 597 416 f;
#X floatatom 597 442 5 0 0 0 - - -;
#X floatatom 612 376 5 0 0 0 - - -;
#X obj 677 416 f;
#X floatatom 677 442 5 0 0 0 - - -;
#X floatatom 692 376 5 0 0 0 - - -;
#X obj 757 416 f;
#X floatatom 757 442 5 0 0 0 - - -;
#X floatatom 772 376 5 0 0 0 - - -;
#X floatatom 852 376 5 0 0 0 - - -;
#X obj 917 416 f;
#X floatatom 917 442 5 0 0 0 - - -;
#X floatatom 932 376 5 0 0 0 - - -;
#X obj 997 416 f;
#X floatatom 997 442 5 0 0 0 - - -;
#X floatatom 1012 376 5 0 0 0 - - -;
#X obj 1077 416 f;
#X floatatom 1077 442 5 0 0 0 - - -;
#X floatatom 1092 376 5 0 0 0 - - -;
#X obj -123 308 bng 15 250 50 0 empty copy\$1to\$2 copy\$1to\$2 17
7 0 10 -262144 -1 -1;
#X obj -123 395 bng 15 250 50 0 bang\$1\$2 empty empty 17 7 0 10 -262144
-1 -1;
#X obj -43 395 bng 15 250 50 0 bang\$1\$2 empty empty 17 7 0 10 -262144
-1 -1;
#X obj 37 395 bng 15 250 50 0 bang\$1\$2 empty empty 17 7 0 10 -262144
-1 -1;
#X obj 117 395 bng 15 250 50 0 bang\$1\$2 empty empty 17 7 0 10 -262144
-1 -1;
#X obj 197 395 bng 15 250 50 0 bang\$1\$2 empty empty 17 7 0 10 -262144
-1 -1;
#X obj 277 395 bng 15 250 50 0 bang\$1\$2 empty empty 17 7 0 10 -262144
-1 -1;
#X obj 357 395 bng 15 250 50 0 bang\$1\$2 empty empty 17 7 0 10 -262144
-1 -1;
#X obj 437 395 bng 15 250 50 0 bang\$1\$2 empty empty 17 7 0 10 -262144
-1 -1;
#X obj 517 395 bng 15 250 50 0 bang\$1\$2 empty empty 17 7 0 10 -262144
-1 -1;
#X obj 597 395 bng 15 250 50 0 bang\$1\$2 empty empty 17 7 0 10 -262144
-1 -1;
#X obj 677 395 bng 15 250 50 0 bang\$1\$2 empty empty 17 7 0 10 -262144
-1 -1;
#X obj 757 395 bng 15 250 50 0 bang\$1\$2 empty empty 17 7 0 10 -262144
-1 -1;
#X obj 837 395 bng 15 250 50 0 bang\$1\$2 empty empty 17 7 0 10 -262144
-1 -1;
#X obj 917 395 bng 15 250 50 0 bang\$1\$2 empty empty 17 7 0 10 -262144
-1 -1;
#X obj 997 395 bng 15 250 50 0 bang\$1\$2 empty empty 17 7 0 10 -262144
-1 -1;
#X obj 1077 395 bng 15 250 50 0 bang\$1\$2 empty empty 17 7 0 10 -262144
-1 -1;
#X obj 837 416 f;
#X floatatom 837 442 5 0 0 0 - - -;
#X obj -123 606 f;
#X floatatom -123 632 5 0 0 0 - - -;
#X floatatom -108 566 5 0 0 0 - - -;
#X obj -43 606 f;
#X floatatom -43 632 5 0 0 0 - - -;
#X floatatom -28 566 5 0 0 0 - - -;
#X obj 37 606 f;
#X floatatom 37 632 5 0 0 0 - - -;
#X floatatom 52 566 5 0 0 0 - - -;
#X obj 117 606 f;
#X floatatom 117 632 5 0 0 0 - - -;
#X floatatom 132 566 5 0 0 0 - - -;
#X obj 197 606 f;
#X floatatom 197 632 5 0 0 0 - - -;
#X floatatom 212 566 5 0 0 0 - - -;
#X obj 277 606 f;
#X floatatom 277 632 5 0 0 0 - - -;
#X floatatom 292 566 5 0 0 0 - - -;
#X obj 357 606 f;
#X floatatom 357 632 5 0 0 0 - - -;
#X floatatom 372 566 5 0 0 0 - - -;
#X obj 437 606 f;
#X floatatom 437 632 5 0 0 0 - - -;
#X floatatom 452 566 5 0 0 0 - - -;
#X obj 517 606 f;
#X floatatom 517 632 5 0 0 0 - - -;
#X floatatom 532 566 5 0 0 0 - - -;
#X obj 597 606 f;
#X floatatom 597 632 5 0 0 0 - - -;
#X floatatom 612 566 5 0 0 0 - - -;
#X obj 677 606 f;
#X floatatom 677 632 5 0 0 0 - - -;
#X floatatom 692 566 5 0 0 0 - - -;
#X obj 757 606 f;
#X floatatom 757 632 5 0 0 0 - - -;
#X floatatom 772 566 5 0 0 0 - - -;
#X floatatom 852 566 5 0 0 0 - - -;
#X obj 917 606 f;
#X floatatom 917 632 5 0 0 0 - - -;
#X floatatom 932 566 5 0 0 0 - - -;
#X obj 997 606 f;
#X floatatom 997 632 5 0 0 0 - - -;
#X floatatom 1012 566 5 0 0 0 - - -;
#X obj 1077 606 f;
#X floatatom 1077 632 5 0 0 0 - - -;
#X floatatom 1092 566 5 0 0 0 - - -;
#X obj -123 498 bng 15 250 50 0 empty copy\$1to\$2 copy\$1to\$2 17
7 0 10 -262144 -1 -1;
#X obj -123 585 bng 15 250 50 0 bang\$1\$2 empty empty 17 7 0 10 -262144
-1 -1;
#X obj -43 585 bng 15 250 50 0 bang\$1\$2 empty empty 17 7 0 10 -262144
-1 -1;
#X obj 37 585 bng 15 250 50 0 bang\$1\$2 empty empty 17 7 0 10 -262144
-1 -1;
#X obj 117 585 bng 15 250 50 0 bang\$1\$2 empty empty 17 7 0 10 -262144
-1 -1;
#X obj 197 585 bng 15 250 50 0 bang\$1\$2 empty empty 17 7 0 10 -262144
-1 -1;
#X obj 277 585 bng 15 250 50 0 bang\$1\$2 empty empty 17 7 0 10 -262144
-1 -1;
#X obj 357 585 bng 15 250 50 0 bang\$1\$2 empty empty 17 7 0 10 -262144
-1 -1;
#X obj 437 585 bng 15 250 50 0 bang\$1\$2 empty empty 17 7 0 10 -262144
-1 -1;
#X obj 517 585 bng 15 250 50 0 bang\$1\$2 empty empty 17 7 0 10 -262144
-1 -1;
#X obj 597 585 bng 15 250 50 0 bang\$1\$2 empty empty 17 7 0 10 -262144
-1 -1;
#X obj 677 585 bng 15 250 50 0 bang\$1\$2 empty empty 17 7 0 10 -262144
-1 -1;
#X obj 757 585 bng 15 250 50 0 bang\$1\$2 empty empty 17 7 0 10 -262144
-1 -1;
#X obj 837 585 bng 15 250 50 0 bang\$1\$2 empty empty 17 7 0 10 -262144
-1 -1;
#X obj 917 585 bng 15 250 50 0 bang\$1\$2 empty empty 17 7 0 10 -262144
-1 -1;
#X obj 997 585 bng 15 250 50 0 bang\$1\$2 empty empty 17 7 0 10 -262144
-1 -1;
#X obj 1077 585 bng 15 250 50 0 bang\$1\$2 empty empty 17 7 0 10 -262144
-1 -1;
#X obj 837 606 f;
#X floatatom 837 632 5 0 0 0 - - -;
#X obj -123 796 f;
#X floatatom -123 822 5 0 0 0 - - -;
#X floatatom -108 756 5 0 0 0 - - -;
#X obj -43 796 f;
#X floatatom -43 822 5 0 0 0 - - -;
#X floatatom -28 756 5 0 0 0 - - -;
#X obj 37 796 f;
#X floatatom 37 822 5 0 0 0 - - -;
#X floatatom 52 756 5 0 0 0 - - -;
#X obj 117 796 f;
#X floatatom 117 822 5 0 0 0 - - -;
#X floatatom 132 756 5 0 0 0 - - -;
#X obj 197 796 f;
#X floatatom 197 822 5 0 0 0 - - -;
#X floatatom 212 756 5 0 0 0 - - -;
#X obj 277 796 f;
#X floatatom 277 822 5 0 0 0 - - -;
#X floatatom 292 756 5 0 0 0 - - -;
#X obj 357 796 f;
#X floatatom 357 822 5 0 0 0 - - -;
#X floatatom 372 756 5 0 0 0 - - -;
#X obj 437 796 f;
#X floatatom 437 822 5 0 0 0 - - -;
#X floatatom 452 756 5 0 0 0 - - -;
#X obj 517 796 f;
#X floatatom 517 822 5 0 0 0 - - -;
#X floatatom 532 756 5 0 0 0 - - -;
#X obj 597 796 f;
#X floatatom 597 822 5 0 0 0 - - -;
#X floatatom 612 756 5 0 0 0 - - -;
#X obj 677 796 f;
#X floatatom 677 822 5 0 0 0 - - -;
#X floatatom 692 756 5 0 0 0 - - -;
#X obj 757 796 f;
#X floatatom 757 822 5 0 0 0 - - -;
#X floatatom 772 756 5 0 0 0 - - -;
#X floatatom 852 756 5 0 0 0 - - -;
#X obj 917 796 f;
#X floatatom 917 822 5 0 0 0 - - -;
#X floatatom 932 756 5 0 0 0 - - -;
#X obj 997 796 f;
#X floatatom 997 822 5 0 0 0 - - -;
#X floatatom 1012 756 5 0 0 0 - - -;
#X obj 1077 796 f;
#X floatatom 1077 822 5 0 0 0 - - -;
#X floatatom 1092 756 5 0 0 0 - - -;
#X obj -123 688 bng 15 250 50 0 empty copy\$1to\$2 copy\$1to\$2 17
7 0 10 -262144 -1 -1;
#X obj -123 775 bng 15 250 50 0 bang\$1\$2 empty empty 17 7 0 10 -262144
-1 -1;
#X obj -43 775 bng 15 250 50 0 bang\$1\$2 empty empty 17 7 0 10 -262144
-1 -1;
#X obj 37 775 bng 15 250 50 0 bang\$1\$2 empty empty 17 7 0 10 -262144
-1 -1;
#X obj 117 775 bng 15 250 50 0 bang\$1\$2 empty empty 17 7 0 10 -262144
-1 -1;
#X obj 197 775 bng 15 250 50 0 bang\$1\$2 empty empty 17 7 0 10 -262144
-1 -1;
#X obj 277 775 bng 15 250 50 0 bang\$1\$2 empty empty 17 7 0 10 -262144
-1 -1;
#X obj 357 775 bng 15 250 50 0 bang\$1\$2 empty empty 17 7 0 10 -262144
-1 -1;
#X obj 437 775 bng 15 250 50 0 bang\$1\$2 empty empty 17 7 0 10 -262144
-1 -1;
#X obj 517 775 bng 15 250 50 0 bang\$1\$2 empty empty 17 7 0 10 -262144
-1 -1;
#X obj 597 775 bng 15 250 50 0 bang\$1\$2 empty empty 17 7 0 10 -262144
-1 -1;
#X obj 677 775 bng 15 250 50 0 bang\$1\$2 empty empty 17 7 0 10 -262144
-1 -1;
#X obj 757 775 bng 15 250 50 0 bang\$1\$2 empty empty 17 7 0 10 -262144
-1 -1;
#X obj 837 775 bng 15 250 50 0 bang\$1\$2 empty empty 17 7 0 10 -262144
-1 -1;
#X obj 917 775 bng 15 250 50 0 bang\$1\$2 empty empty 17 7 0 10 -262144
-1 -1;
#X obj 997 775 bng 15 250 50 0 bang\$1\$2 empty empty 17 7 0 10 -262144
-1 -1;
#X obj 1077 775 bng 15 250 50 0 bang\$1\$2 empty empty 17 7 0 10 -262144
-1 -1;
#X obj 837 796 f;
#X floatatom 837 822 5 0 0 0 - - -;
#X obj -123 976 f;
#X floatatom -123 1002 5 0 0 0 - - -;
#X floatatom -108 936 5 0 0 0 - - -;
#X obj -43 976 f;
#X floatatom -43 1002 5 0 0 0 - - -;
#X floatatom -28 936 5 0 0 0 - - -;
#X obj 37 976 f;
#X floatatom 37 1002 5 0 0 0 - - -;
#X floatatom 52 936 5 0 0 0 - - -;
#X obj 117 976 f;
#X floatatom 117 1002 5 0 0 0 - - -;
#X floatatom 132 936 5 0 0 0 - - -;
#X obj 197 976 f;
#X floatatom 197 1002 5 0 0 0 - - -;
#X floatatom 212 936 5 0 0 0 - - -;
#X obj 277 976 f;
#X floatatom 277 1002 5 0 0 0 - - -;
#X floatatom 292 936 5 0 0 0 - - -;
#X obj 357 976 f;
#X floatatom 357 1002 5 0 0 0 - - -;
#X floatatom 372 936 5 0 0 0 - - -;
#X obj 437 976 f;
#X floatatom 437 1002 5 0 0 0 - - -;
#X floatatom 452 936 5 0 0 0 - - -;
#X obj 517 976 f;
#X floatatom 517 1002 5 0 0 0 - - -;
#X floatatom 532 936 5 0 0 0 - - -;
#X obj 597 976 f;
#X floatatom 597 1002 5 0 0 0 - - -;
#X floatatom 612 936 5 0 0 0 - - -;
#X obj 677 976 f;
#X floatatom 677 1002 5 0 0 0 - - -;
#X floatatom 692 936 5 0 0 0 - - -;
#X obj 757 976 f;
#X floatatom 757 1002 5 0 0 0 - - -;
#X floatatom 772 936 5 0 0 0 - - -;
#X floatatom 852 936 5 0 0 0 - - -;
#X obj 917 976 f;
#X floatatom 917 1002 5 0 0 0 - - -;
#X floatatom 932 936 5 0 0 0 - - -;
#X obj 997 976 f;
#X floatatom 997 1002 5 0 0 0 - - -;
#X floatatom 1012 936 5 0 0 0 - - -;
#X obj 1077 976 f;
#X floatatom 1077 1002 5 0 0 0 - - -;
#X floatatom 1092 936 5 0 0 0 - - -;
#X obj -123 868 bng 15 250 50 0 empty copy\$1to\$2 copy\$1to\$2 17
7 0 10 -262144 -1 -1;
#X obj -123 955 bng 15 250 50 0 bang\$1\$2 empty empty 17 7 0 10 -262144
-1 -1;
#X obj -43 955 bng 15 250 50 0 bang\$1\$2 empty empty 17 7 0 10 -262144
-1 -1;
#X obj 37 955 bng 15 250 50 0 bang\$1\$2 empty empty 17 7 0 10 -262144
-1 -1;
#X obj 117 955 bng 15 250 50 0 bang\$1\$2 empty empty 17 7 0 10 -262144
-1 -1;
#X obj 197 955 bng 15 250 50 0 bang\$1\$2 empty empty 17 7 0 10 -262144
-1 -1;
#X obj 277 955 bng 15 250 50 0 bang\$1\$2 empty empty 17 7 0 10 -262144
-1 -1;
#X obj 357 955 bng 15 250 50 0 bang\$1\$2 empty empty 17 7 0 10 -262144
-1 -1;
#X obj 437 955 bng 15 250 50 0 bang\$1\$2 empty empty 17 7 0 10 -262144
-1 -1;
#X obj 517 955 bng 15 250 50 0 bang\$1\$2 empty empty 17 7 0 10 -262144
-1 -1;
#X obj 597 955 bng 15 250 50 0 bang\$1\$2 empty empty 17 7 0 10 -262144
-1 -1;
#X obj 677 955 bng 15 250 50 0 bang\$1\$2 empty empty 17 7 0 10 -262144
-1 -1;
#X obj 757 955 bng 15 250 50 0 bang\$1\$2 empty empty 17 7 0 10 -262144
-1 -1;
#X obj 837 955 bng 15 250 50 0 bang\$1\$2 empty empty 17 7 0 10 -262144
-1 -1;
#X obj 917 955 bng 15 250 50 0 bang\$1\$2 empty empty 17 7 0 10 -262144
-1 -1;
#X obj 997 955 bng 15 250 50 0 bang\$1\$2 empty empty 17 7 0 10 -262144
-1 -1;
#X obj 1077 955 bng 15 250 50 0 bang\$1\$2 empty empty 17 7 0 10 -262144
-1 -1;
#X obj 837 976 f;
#X floatatom 837 1002 5 0 0 0 - - -;
#X obj -123 1156 f;
#X floatatom -123 1182 5 0 0 0 - - -;
#X floatatom -108 1116 5 0 0 0 - - -;
#X obj -43 1156 f;
#X floatatom -43 1182 5 0 0 0 - - -;
#X floatatom -28 1116 5 0 0 0 - - -;
#X obj 37 1156 f;
#X floatatom 37 1182 5 0 0 0 - - -;
#X floatatom 52 1116 5 0 0 0 - - -;
#X obj 117 1156 f;
#X floatatom 117 1182 5 0 0 0 - - -;
#X floatatom 132 1116 5 0 0 0 - - -;
#X obj 197 1156 f;
#X floatatom 197 1182 5 0 0 0 - - -;
#X floatatom 212 1116 5 0 0 0 - - -;
#X obj 277 1156 f;
#X floatatom 277 1182 5 0 0 0 - - -;
#X floatatom 292 1116 5 0 0 0 - - -;
#X obj 357 1156 f;
#X floatatom 357 1182 5 0 0 0 - - -;
#X floatatom 372 1116 5 0 0 0 - - -;
#X obj 437 1156 f;
#X floatatom 437 1182 5 0 0 0 - - -;
#X floatatom 452 1116 5 0 0 0 - - -;
#X obj 517 1156 f;
#X floatatom 517 1182 5 0 0 0 - - -;
#X floatatom 532 1116 5 0 0 0 - - -;
#X obj 597 1156 f;
#X floatatom 597 1182 5 0 0 0 - - -;
#X floatatom 612 1116 5 0 0 0 - - -;
#X obj 677 1156 f;
#X floatatom 677 1182 5 0 0 0 - - -;
#X floatatom 692 1116 5 0 0 0 - - -;
#X obj 757 1156 f;
#X floatatom 757 1182 5 0 0 0 - - -;
#X floatatom 772 1116 5 0 0 0 - - -;
#X floatatom 852 1116 5 0 0 0 - - -;
#X obj 917 1156 f;
#X floatatom 917 1182 5 0 0 0 - - -;
#X floatatom 932 1116 5 0 0 0 - - -;
#X obj 997 1156 f;
#X floatatom 997 1182 5 0 0 0 - - -;
#X floatatom 1012 1116 5 0 0 0 - - -;
#X obj 1077 1156 f;
#X floatatom 1077 1182 5 0 0 0 - - -;
#X floatatom 1092 1116 5 0 0 0 - - -;
#X obj -123 1048 bng 15 250 50 0 empty copy\$1to\$2 copy\$1to\$2 17
7 0 10 -262144 -1 -1;
#X obj -123 1135 bng 15 250 50 0 bang\$1\$2 empty empty 17 7 0 10 -262144
-1 -1;
#X obj -43 1135 bng 15 250 50 0 bang\$1\$2 empty empty 17 7 0 10 -262144
-1 -1;
#X obj 37 1135 bng 15 250 50 0 bang\$1\$2 empty empty 17 7 0 10 -262144
-1 -1;
#X obj 117 1135 bng 15 250 50 0 bang\$1\$2 empty empty 17 7 0 10 -262144
-1 -1;
#X obj 197 1135 bng 15 250 50 0 bang\$1\$2 empty empty 17 7 0 10 -262144
-1 -1;
#X obj 277 1135 bng 15 250 50 0 bang\$1\$2 empty empty 17 7 0 10 -262144
-1 -1;
#X obj 357 1135 bng 15 250 50 0 bang\$1\$2 empty empty 17 7 0 10 -262144
-1 -1;
#X obj 437 1135 bng 15 250 50 0 bang\$1\$2 empty empty 17 7 0 10 -262144
-1 -1;
#X obj 517 1135 bng 15 250 50 0 bang\$1\$2 empty empty 17 7 0 10 -262144
-1 -1;
#X obj 597 1135 bng 15 250 50 0 bang\$1\$2 empty empty 17 7 0 10 -262144
-1 -1;
#X obj 677 1135 bng 15 250 50 0 bang\$1\$2 empty empty 17 7 0 10 -262144
-1 -1;
#X obj 757 1135 bng 15 250 50 0 bang\$1\$2 empty empty 17 7 0 10 -262144
-1 -1;
#X obj 837 1135 bng 15 250 50 0 bang\$1\$2 empty empty 17 7 0 10 -262144
-1 -1;
#X obj 917 1135 bng 15 250 50 0 bang\$1\$2 empty empty 17 7 0 10 -262144
-1 -1;
#X obj 997 1135 bng 15 250 50 0 bang\$1\$2 empty empty 17 7 0 10 -262144
-1 -1;
#X obj 1077 1135 bng 15 250 50 0 bang\$1\$2 empty empty 17 7 0 10 -262144
-1 -1;
#X obj 837 1156 f;
#X floatatom 837 1182 5 0 0 0 - - -;
#X obj -123 1346 f;
#X floatatom -123 1372 5 0 0 0 - - -;
#X floatatom -108 1306 5 0 0 0 - - -;
#X obj -43 1346 f;
#X floatatom -43 1372 5 0 0 0 - - -;
#X floatatom -28 1306 5 0 0 0 - - -;
#X obj 37 1346 f;
#X floatatom 37 1372 5 0 0 0 - - -;
#X floatatom 52 1306 5 0 0 0 - - -;
#X obj 117 1346 f;
#X floatatom 117 1372 5 0 0 0 - - -;
#X floatatom 132 1306 5 0 0 0 - - -;
#X obj 197 1346 f;
#X floatatom 197 1372 5 0 0 0 - - -;
#X floatatom 212 1306 5 0 0 0 - - -;
#X obj 277 1346 f;
#X floatatom 277 1372 5 0 0 0 - - -;
#X floatatom 292 1306 5 0 0 0 - - -;
#X obj 357 1346 f;
#X floatatom 357 1372 5 0 0 0 - - -;
#X floatatom 372 1306 5 0 0 0 - - -;
#X obj 437 1346 f;
#X floatatom 437 1372 5 0 0 0 - - -;
#X floatatom 452 1306 5 0 0 0 - - -;
#X obj 517 1346 f;
#X floatatom 517 1372 5 0 0 0 - - -;
#X floatatom 532 1306 5 0 0 0 - - -;
#X obj 597 1346 f;
#X floatatom 597 1372 5 0 0 0 - - -;
#X floatatom 612 1306 5 0 0 0 - - -;
#X obj 677 1346 f;
#X floatatom 677 1372 5 0 0 0 - - -;
#X floatatom 692 1306 5 0 0 0 - - -;
#X obj 757 1346 f;
#X floatatom 757 1372 5 0 0 0 - - -;
#X floatatom 772 1306 5 0 0 0 - - -;
#X floatatom 852 1306 5 0 0 0 - - -;
#X obj 917 1346 f;
#X floatatom 917 1372 5 0 0 0 - - -;
#X floatatom 932 1306 5 0 0 0 - - -;
#X obj 997 1346 f;
#X floatatom 997 1372 5 0 0 0 - - -;
#X floatatom 1012 1306 5 0 0 0 - - -;
#X obj 1077 1346 f;
#X floatatom 1077 1372 5 0 0 0 - - -;
#X floatatom 1092 1306 5 0 0 0 - - -;
#X obj -123 1238 bng 15 250 50 0 empty copy\$1to\$2 copy\$1to\$2 17
7 0 10 -262144 -1 -1;
#X obj -123 1325 bng 15 250 50 0 bang\$1\$2 empty empty 17 7 0 10 -262144
-1 -1;
#X obj -43 1325 bng 15 250 50 0 bang\$1\$2 empty empty 17 7 0 10 -262144
-1 -1;
#X obj 37 1325 bng 15 250 50 0 bang\$1\$2 empty empty 17 7 0 10 -262144
-1 -1;
#X obj 117 1325 bng 15 250 50 0 bang\$1\$2 empty empty 17 7 0 10 -262144
-1 -1;
#X obj 197 1325 bng 15 250 50 0 bang\$1\$2 empty empty 17 7 0 10 -262144
-1 -1;
#X obj 277 1325 bng 15 250 50 0 bang\$1\$2 empty empty 17 7 0 10 -262144
-1 -1;
#X obj 357 1325 bng 15 250 50 0 bang\$1\$2 empty empty 17 7 0 10 -262144
-1 -1;
#X obj 437 1325 bng 15 250 50 0 bang\$1\$2 empty empty 17 7 0 10 -262144
-1 -1;
#X obj 517 1325 bng 15 250 50 0 bang\$1\$2 empty empty 17 7 0 10 -262144
-1 -1;
#X obj 597 1325 bng 15 250 50 0 bang\$1\$2 empty empty 17 7 0 10 -262144
-1 -1;
#X obj 677 1325 bng 15 250 50 0 bang\$1\$2 empty empty 17 7 0 10 -262144
-1 -1;
#X obj 757 1325 bng 15 250 50 0 bang\$1\$2 empty empty 17 7 0 10 -262144
-1 -1;
#X obj 837 1325 bng 15 250 50 0 bang\$1\$2 empty empty 17 7 0 10 -262144
-1 -1;
#X obj 917 1325 bng 15 250 50 0 bang\$1\$2 empty empty 17 7 0 10 -262144
-1 -1;
#X obj 997 1325 bng 15 250 50 0 bang\$1\$2 empty empty 17 7 0 10 -262144
-1 -1;
#X obj 1077 1325 bng 15 250 50 0 bang\$1\$2 empty empty 17 7 0 10 -262144
-1 -1;
#X obj 837 1346 f;
#X floatatom 837 1372 5 0 0 0 - - -;
#X obj -108 171 r \$1togl1-2s;
#X obj -108 351 r \$1togl1-3s;
#X obj -108 541 r \$1togl1-4s;
#X obj -108 731 r \$1togl1-5s;
#X obj -108 911 r \$1togl1-6s;
#X obj -108 1091 r \$1togl1-7s;
#X obj -108 1281 r \$1togl1-8s;
#X obj -28 171 r \$1togl2-2s;
#X obj 52 171 r \$1togl3-2s;
#X obj 132 171 r \$1togl4-2s;
#X obj 212 171 r \$1togl5-2s;
#X obj 292 171 r \$1togl6-2s;
#X obj 372 171 r \$1togl7-2s;
#X obj 452 171 r \$1togl8-2s;
#X obj 532 171 r \$1togl9-2s;
#X obj 612 172 r \$1togl10-2s;
#X obj 692 171 r \$1togl11-2s;
#X obj 772 171 r \$1togl12-2s;
#X obj 852 171 r \$1togl13-2s;
#X obj 932 171 r \$1togl14-2s;
#X obj 1012 171 r \$1togl15-2s;
#X obj 1092 171 r \$1togl16-2s;
#X obj -28 351 r \$1togl2-3s;
#X obj 52 351 r \$1togl3-3s;
#X obj 132 351 r \$1togl4-3s;
#X obj 212 351 r \$1togl5-3s;
#X obj 292 351 r \$1togl6-3s;
#X obj 372 351 r \$1togl7-3s;
#X obj 452 351 r \$1togl8-3s;
#X obj 532 351 r \$1togl9-3s;
#X obj 612 352 r \$1togl10-3s;
#X obj 692 351 r \$1togl11-3s;
#X obj 772 351 r \$1togl12-3s;
#X obj 852 351 r \$1togl13-3s;
#X obj 932 351 r \$1togl14-3s;
#X obj 1012 351 r \$1togl15-3s;
#X obj 1092 351 r \$1togl16-3s;
#X obj -28 541 r \$1togl2-4s;
#X obj 52 541 r \$1togl3-4s;
#X obj 132 541 r \$1togl4-4s;
#X obj 212 541 r \$1togl5-4s;
#X obj 292 541 r \$1togl6-4s;
#X obj 372 541 r \$1togl7-4s;
#X obj 452 541 r \$1togl8-4s;
#X obj 532 541 r \$1togl9-4s;
#X obj 612 542 r \$1togl10-4s;
#X obj 692 541 r \$1togl11-4s;
#X obj 772 541 r \$1togl12-4s;
#X obj 852 541 r \$1togl13-4s;
#X obj 932 541 r \$1togl14-4s;
#X obj 1012 541 r \$1togl15-4s;
#X obj 1092 541 r \$1togl16-4s;
#X obj -28 731 r \$1togl2-5s;
#X obj 52 731 r \$1togl3-5s;
#X obj 132 731 r \$1togl4-5s;
#X obj 212 731 r \$1togl5-5s;
#X obj 292 731 r \$1togl6-5s;
#X obj 372 731 r \$1togl7-5s;
#X obj 452 731 r \$1togl8-5s;
#X obj 532 731 r \$1togl9-5s;
#X obj 612 732 r \$1togl10-5s;
#X obj 692 731 r \$1togl11-5s;
#X obj 772 731 r \$1togl12-5s;
#X obj 852 731 r \$1togl13-5s;
#X obj 932 731 r \$1togl14-5s;
#X obj 1012 731 r \$1togl15-5s;
#X obj 1092 731 r \$1togl16-5s;
#X obj -28 911 r \$1togl2-6s;
#X obj 52 911 r \$1togl3-6s;
#X obj 132 911 r \$1togl4-6s;
#X obj 212 911 r \$1togl5-6s;
#X obj 292 911 r \$1togl6-6s;
#X obj 1092 911 r \$1togl16-6s;
#X obj 1012 911 r \$1togl15-6s;
#X obj 932 911 r \$1togl14-6s;
#X obj 852 911 r \$1togl13-6s;
#X obj 772 911 r \$1togl12-6s;
#X obj 692 911 r \$1togl11-6s;
#X obj 612 912 r \$1togl10-6s;
#X obj 532 911 r \$1togl9-6s;
#X obj 452 911 r \$1togl8-6s;
#X obj 372 911 r \$1togl7-6s;
#X obj -28 1091 r \$1togl2-7s;
#X obj 52 1091 r \$1togl3-7s;
#X obj 132 1091 r \$1togl4-7s;
#X obj 212 1091 r \$1togl5-7s;
#X obj 292 1091 r \$1togl6-7s;
#X obj 372 1091 r \$1togl7-7s;
#X obj 452 1091 r \$1togl8-7s;
#X obj 532 1091 r \$1togl9-7s;
#X obj 612 1092 r \$1togl10-7s;
#X obj 692 1091 r \$1togl11-7s;
#X obj 772 1091 r \$1togl12-7s;
#X obj 852 1091 r \$1togl13-7s;
#X obj 932 1091 r \$1togl14-7s;
#X obj 1012 1091 r \$1togl15-7s;
#X obj 1092 1091 r \$1togl16-7s;
#X obj 1092 1281 r \$1togl16-8s;
#X obj 1012 1281 r \$1togl15-8s;
#X obj 932 1281 r \$1togl14-8s;
#X obj 852 1281 r \$1togl13-8s;
#X obj 772 1281 r \$1togl12-8s;
#X obj 692 1281 r \$1togl11-8s;
#X obj 612 1283 r \$1togl10-8s;
#X obj 532 1281 r \$1togl9-8s;
#X obj 452 1281 r \$1togl8-8s;
#X obj 372 1281 r \$1togl7-8s;
#X obj 292 1281 r \$1togl6-8s;
#X obj 212 1281 r \$1togl5-8s;
#X obj 132 1281 r \$1togl4-8s;
#X obj 52 1281 r \$1togl3-8s;
#X obj -28 1281 r \$1togl2-8s;
#X obj -123 106 s \$2togl1-1r;
#X obj -43 106 s \$2togl2-1r;
#X obj 37 106 s \$2togl3-1r;
#X obj 117 106 s \$2togl4-1r;
#X obj 277 106 s \$2togl6-1r;
#X obj 197 106 s \$2togl5-1r;
#X obj 357 106 s \$2togl7-1r;
#X obj 437 106 s \$2togl8-1r;
#X obj 517 106 s \$2togl9-1r;
#X obj 597 106 s \$2togl10-1r;
#X obj 677 106 s \$2togl11-1r;
#X obj 757 106 s \$2togl12-1r;
#X obj 837 106 s \$2togl13-1r;
#X obj 917 106 s \$2togl14-1r;
#X obj 997 106 s \$2togl15-1r;
#X obj 1077 106 s \$2togl16-1r;
#X obj 1077 286 s \$2togl16-2r;
#X obj 997 286 s \$2togl15-2r;
#X obj 917 286 s \$2togl14-2r;
#X obj 837 286 s \$2togl13-2r;
#X obj 757 286 s \$2togl12-2r;
#X obj 677 286 s \$2togl11-2r;
#X obj 597 286 s \$2togl10-2r;
#X obj 517 286 s \$2togl9-2r;
#X obj 437 286 s \$2togl8-2r;
#X obj 357 286 s \$2togl7-2r;
#X obj 277 286 s \$2togl6-2r;
#X obj 197 286 s \$2togl5-2r;
#X obj 117 286 s \$2togl4-2r;
#X obj 37 286 s \$2togl3-2r;
#X obj -43 286 s \$2togl2-2r;
#X obj -123 286 s \$2togl1-2r;
#X obj -123 466 s \$2togl1-3r;
#X obj -43 466 s \$2togl2-3r;
#X obj 37 466 s \$2togl3-3r;
#X obj 117 466 s \$2togl4-3r;
#X obj 197 466 s \$2togl5-3r;
#X obj 277 466 s \$2togl6-3r;
#X obj 357 466 s \$2togl7-3r;
#X obj 437 466 s \$2togl8-3r;
#X obj 517 466 s \$2togl9-3r;
#X obj 597 466 s \$2togl10-3r;
#X obj 677 466 s \$2togl11-3r;
#X obj 757 466 s \$2togl12-3r;
#X obj 837 466 s \$2togl13-3r;
#X obj 917 466 s \$2togl14-3r;
#X obj 997 466 s \$2togl15-3r;
#X obj 1077 466 s \$2togl16-3r;
#X obj -123 656 s \$2togl1-4r;
#X obj -43 656 s \$2togl2-4r;
#X obj 37 656 s \$2togl3-4r;
#X obj 117 656 s \$2togl4-4r;
#X obj 197 656 s \$2togl5-4r;
#X obj 277 656 s \$2togl6-4r;
#X obj 357 656 s \$2togl7-4r;
#X obj 437 656 s \$2togl8-4r;
#X obj 517 656 s \$2togl9-4r;
#X obj 597 656 s \$2togl10-4r;
#X obj 677 656 s \$2togl11-4r;
#X obj 757 656 s \$2togl12-4r;
#X obj 837 656 s \$2togl13-4r;
#X obj 917 656 s \$2togl14-4r;
#X obj 997 656 s \$2togl15-4r;
#X obj 1077 656 s \$2togl16-4r;
#X obj -123 845 s \$2togl1-5r;
#X obj -43 846 s \$2togl2-5r;
#X obj 37 846 s \$2togl3-5r;
#X obj 117 846 s \$2togl4-5r;
#X obj 197 846 s \$2togl5-5r;
#X obj 277 846 s \$2togl6-5r;
#X obj 357 846 s \$2togl7-5r;
#X obj 437 846 s \$2togl8-5r;
#X obj 517 846 s \$2togl9-5r;
#X obj 597 846 s \$2togl10-5r;
#X obj 677 846 s \$2togl11-5r;
#X obj 757 846 s \$2togl12-5r;
#X obj 837 846 s \$2togl13-5r;
#X obj 917 846 s \$2togl14-5r;
#X obj 997 846 s \$2togl15-5r;
#X obj 1077 846 s \$2togl16-5r;
#X obj -123 1026 s \$2togl1-6r;
#X obj -43 1026 s \$2togl2-6r;
#X obj 37 1026 s \$2togl3-6r;
#X obj 117 1026 s \$2togl4-6r;
#X obj 197 1026 s \$2togl5-6r;
#X obj 277 1026 s \$2togl6-6r;
#X obj 357 1026 s \$2togl7-6r;
#X obj 437 1026 s \$2togl8-6r;
#X obj 517 1026 s \$2togl9-6r;
#X obj 597 1026 s \$2togl10-6r;
#X obj 677 1026 s \$2togl11-6r;
#X obj 757 1026 s \$2togl12-6r;
#X obj 837 1026 s \$2togl13-6r;
#X obj 917 1026 s \$2togl14-6r;
#X obj 997 1026 s \$2togl15-6r;
#X obj 1077 1026 s \$2togl16-6r;
#X obj -123 1206 s \$2togl1-7r;
#X obj -43 1206 s \$2togl2-7r;
#X obj 37 1206 s \$2togl3-7r;
#X obj 117 1206 s \$2togl4-7r;
#X obj 197 1206 s \$2togl5-7r;
#X obj 277 1205 s \$2togl6-7r;
#X obj 357 1206 s \$2togl7-7r;
#X obj 437 1206 s \$2togl8-7r;
#X obj 517 1206 s \$2togl9-7r;
#X obj 597 1206 s \$2togl10-7r;
#X obj 677 1206 s \$2togl11-7r;
#X obj 757 1206 s \$2togl12-7r;
#X obj 837 1206 s \$2togl13-7r;
#X obj 917 1206 s \$2togl14-7r;
#X obj 997 1206 s \$2togl15-7r;
#X obj 1077 1206 s \$2togl16-7r;
#X obj -123 1396 s \$2togl1-8r;
#X obj -43 1396 s \$2togl2-8r;
#X obj 37 1396 s \$2togl3-8r;
#X obj 117 1396 s \$2togl4-8r;
#X obj 197 1396 s \$2togl5-8r;
#X obj 277 1396 s \$2togl6-8r;
#X obj 357 1396 s \$2togl7-8r;
#X obj 437 1396 s \$2togl8-8r;
#X obj 517 1396 s \$2togl9-8r;
#X obj 596 1396 s \$2togl10-8r;
#X obj 677 1396 s \$2togl11-8r;
#X obj 757 1396 s \$2togl12-8r;
#X obj 837 1396 s \$2togl13-8r;
#X obj 917 1396 s \$2togl14-8r;
#X obj 997 1396 s \$2togl15-8r;
#X obj 1077 1396 s \$2togl16-8r;
#X connect 0 0 1 0;
#X connect 1 0 648 0;
#X connect 2 0 0 1;
#X connect 3 0 2 0;
#X connect 4 0 5 0;
#X connect 5 0 649 0;
#X connect 6 0 4 1;
#X connect 7 0 6 0;
#X connect 8 0 9 0;
#X connect 9 0 650 0;
#X connect 10 0 8 1;
#X connect 11 0 12 0;
#X connect 12 0 651 0;
#X connect 13 0 11 1;
#X connect 14 0 15 0;
#X connect 15 0 653 0;
#X connect 16 0 14 1;
#X connect 17 0 18 0;
#X connect 18 0 652 0;
#X connect 19 0 17 1;
#X connect 20 0 21 0;
#X connect 21 0 654 0;
#X connect 22 0 20 1;
#X connect 23 0 24 0;
#X connect 24 0 655 0;
#X connect 25 0 23 1;
#X connect 26 0 27 0;
#X connect 27 0 656 0;
#X connect 28 0 26 1;
#X connect 29 0 30 0;
#X connect 30 0 657 0;
#X connect 31 0 29 1;
#X connect 32 0 33 0;
#X connect 33 0 658 0;
#X connect 34 0 32 1;
#X connect 35 0 36 0;
#X connect 36 0 659 0;
#X connect 37 0 35 1;
#X connect 38 0 69 1;
#X connect 39 0 40 0;
#X connect 40 0 661 0;
#X connect 41 0 39 1;
#X connect 42 0 43 0;
#X connect 43 0 662 0;
#X connect 44 0 42 1;
#X connect 45 0 46 0;
#X connect 46 0 663 0;
#X connect 47 0 45 1;
#X connect 48 0 10 0;
#X connect 49 0 13 0;
#X connect 50 0 16 0;
#X connect 51 0 19 0;
#X connect 52 0 53 0;
#X connect 52 0 54 0;
#X connect 52 0 55 0;
#X connect 52 0 56 0;
#X connect 52 0 57 0;
#X connect 52 0 58 0;
#X connect 52 0 59 0;
#X connect 52 0 60 0;
#X connect 52 0 61 0;
#X connect 52 0 62 0;
#X connect 52 0 63 0;
#X connect 52 0 64 0;
#X connect 52 0 65 0;
#X connect 52 0 66 0;
#X connect 52 0 67 0;
#X connect 52 0 68 0;
#X connect 53 0 0 0;
#X connect 54 0 4 0;
#X connect 55 0 8 0;
#X connect 56 0 11 0;
#X connect 57 0 14 0;
#X connect 58 0 17 0;
#X connect 59 0 20 0;
#X connect 60 0 23 0;
#X connect 61 0 26 0;
#X connect 62 0 29 0;
#X connect 63 0 32 0;
#X connect 64 0 35 0;
#X connect 65 0 69 0;
#X connect 66 0 39 0;
#X connect 67 0 42 0;
#X connect 68 0 45 0;
#X connect 69 0 70 0;
#X connect 70 0 660 0;
#X connect 71 0 22 0;
#X connect 72 0 25 0;
#X connect 73 0 28 0;
#X connect 74 0 31 0;
#X connect 75 0 34 0;
#X connect 76 0 37 0;
#X connect 77 0 38 0;
#X connect 78 0 41 0;
#X connect 79 0 44 0;
#X connect 80 0 47 0;
#X connect 81 0 82 0;
#X connect 82 0 679 0;
#X connect 83 0 81 1;
#X connect 84 0 85 0;
#X connect 85 0 678 0;
#X connect 86 0 84 1;
#X connect 87 0 88 0;
#X connect 88 0 677 0;
#X connect 89 0 87 1;
#X connect 90 0 91 0;
#X connect 91 0 676 0;
#X connect 92 0 90 1;
#X connect 93 0 94 0;
#X connect 94 0 675 0;
#X connect 95 0 93 1;
#X connect 96 0 97 0;
#X connect 97 0 674 0;
#X connect 98 0 96 1;
#X connect 99 0 100 0;
#X connect 100 0 673 0;
#X connect 101 0 99 1;
#X connect 102 0 103 0;
#X connect 103 0 672 0;
#X connect 104 0 102 1;
#X connect 105 0 106 0;
#X connect 106 0 671 0;
#X connect 107 0 105 1;
#X connect 108 0 109 0;
#X connect 109 0 670 0;
#X connect 110 0 108 1;
#X connect 111 0 112 0;
#X connect 112 0 669 0;
#X connect 113 0 111 1;
#X connect 114 0 115 0;
#X connect 115 0 668 0;
#X connect 116 0 114 1;
#X connect 117 0 144 1;
#X connect 118 0 119 0;
#X connect 119 0 666 0;
#X connect 120 0 118 1;
#X connect 121 0 122 0;
#X connect 122 0 665 0;
#X connect 123 0 121 1;
#X connect 124 0 125 0;
#X connect 125 0 664 0;
#X connect 126 0 124 1;
#X connect 127 0 128 0;
#X connect 127 0 129 0;
#X connect 127 0 130 0;
#X connect 127 0 131 0;
#X connect 127 0 132 0;
#X connect 127 0 133 0;
#X connect 127 0 134 0;
#X connect 127 0 135 0;
#X connect 127 0 136 0;
#X connect 127 0 137 0;
#X connect 127 0 138 0;
#X connect 127 0 139 0;
#X connect 127 0 140 0;
#X connect 127 0 141 0;
#X connect 127 0 142 0;
#X connect 127 0 143 0;
#X connect 128 0 81 0;
#X connect 129 0 84 0;
#X connect 130 0 87 0;
#X connect 131 0 90 0;
#X connect 132 0 93 0;
#X connect 133 0 96 0;
#X connect 134 0 99 0;
#X connect 135 0 102 0;
#X connect 136 0 105 0;
#X connect 137 0 108 0;
#X connect 138 0 111 0;
#X connect 139 0 114 0;
#X connect 140 0 144 0;
#X connect 141 0 118 0;
#X connect 142 0 121 0;
#X connect 143 0 124 0;
#X connect 144 0 145 0;
#X connect 145 0 667 0;
#X connect 146 0 147 0;
#X connect 147 0 680 0;
#X connect 148 0 146 1;
#X connect 149 0 150 0;
#X connect 150 0 681 0;
#X connect 151 0 149 1;
#X connect 152 0 153 0;
#X connect 153 0 682 0;
#X connect 154 0 152 1;
#X connect 155 0 156 0;
#X connect 156 0 683 0;
#X connect 157 0 155 1;
#X connect 158 0 159 0;
#X connect 159 0 684 0;
#X connect 160 0 158 1;
#X connect 161 0 162 0;
#X connect 162 0 685 0;
#X connect 163 0 161 1;
#X connect 164 0 165 0;
#X connect 165 0 686 0;
#X connect 166 0 164 1;
#X connect 167 0 168 0;
#X connect 168 0 687 0;
#X connect 169 0 167 1;
#X connect 170 0 171 0;
#X connect 171 0 688 0;
#X connect 172 0 170 1;
#X connect 173 0 174 0;
#X connect 174 0 689 0;
#X connect 175 0 173 1;
#X connect 176 0 177 0;
#X connect 177 0 690 0;
#X connect 178 0 176 1;
#X connect 179 0 180 0;
#X connect 180 0 691 0;
#X connect 181 0 179 1;
#X connect 182 0 209 1;
#X connect 183 0 184 0;
#X connect 184 0 693 0;
#X connect 185 0 183 1;
#X connect 186 0 187 0;
#X connect 187 0 694 0;
#X connect 188 0 186 1;
#X connect 189 0 190 0;
#X connect 190 0 695 0;
#X connect 191 0 189 1;
#X connect 192 0 193 0;
#X connect 192 0 194 0;
#X connect 192 0 195 0;
#X connect 192 0 196 0;
#X connect 192 0 197 0;
#X connect 192 0 198 0;
#X connect 192 0 199 0;
#X connect 192 0 200 0;
#X connect 192 0 201 0;
#X connect 192 0 202 0;
#X connect 192 0 203 0;
#X connect 192 0 204 0;
#X connect 192 0 205 0;
#X connect 192 0 206 0;
#X connect 192 0 207 0;
#X connect 192 0 208 0;
#X connect 193 0 146 0;
#X connect 194 0 149 0;
#X connect 195 0 152 0;
#X connect 196 0 155 0;
#X connect 197 0 158 0;
#X connect 198 0 161 0;
#X connect 199 0 164 0;
#X connect 200 0 167 0;
#X connect 201 0 170 0;
#X connect 202 0 173 0;
#X connect 203 0 176 0;
#X connect 204 0 179 0;
#X connect 205 0 209 0;
#X connect 206 0 183 0;
#X connect 207 0 186 0;
#X connect 208 0 189 0;
#X connect 209 0 210 0;
#X connect 210 0 692 0;
#X connect 211 0 212 0;
#X connect 212 0 696 0;
#X connect 213 0 211 1;
#X connect 214 0 215 0;
#X connect 215 0 697 0;
#X connect 216 0 214 1;
#X connect 217 0 218 0;
#X connect 218 0 698 0;
#X connect 219 0 217 1;
#X connect 220 0 221 0;
#X connect 221 0 699 0;
#X connect 222 0 220 1;
#X connect 223 0 224 0;
#X connect 224 0 700 0;
#X connect 225 0 223 1;
#X connect 226 0 227 0;
#X connect 227 0 701 0;
#X connect 228 0 226 1;
#X connect 229 0 230 0;
#X connect 230 0 702 0;
#X connect 231 0 229 1;
#X connect 232 0 233 0;
#X connect 233 0 703 0;
#X connect 234 0 232 1;
#X connect 235 0 236 0;
#X connect 236 0 704 0;
#X connect 237 0 235 1;
#X connect 238 0 239 0;
#X connect 239 0 705 0;
#X connect 240 0 238 1;
#X connect 241 0 242 0;
#X connect 242 0 706 0;
#X connect 243 0 241 1;
#X connect 244 0 245 0;
#X connect 245 0 707 0;
#X connect 246 0 244 1;
#X connect 247 0 274 1;
#X connect 248 0 249 0;
#X connect 249 0 709 0;
#X connect 250 0 248 1;
#X connect 251 0 252 0;
#X connect 252 0 710 0;
#X connect 253 0 251 1;
#X connect 254 0 255 0;
#X connect 255 0 711 0;
#X connect 256 0 254 1;
#X connect 257 0 258 0;
#X connect 257 0 259 0;
#X connect 257 0 260 0;
#X connect 257 0 261 0;
#X connect 257 0 262 0;
#X connect 257 0 263 0;
#X connect 257 0 264 0;
#X connect 257 0 265 0;
#X connect 257 0 266 0;
#X connect 257 0 267 0;
#X connect 257 0 268 0;
#X connect 257 0 269 0;
#X connect 257 0 270 0;
#X connect 257 0 271 0;
#X connect 257 0 272 0;
#X connect 257 0 273 0;
#X connect 258 0 211 0;
#X connect 259 0 214 0;
#X connect 260 0 217 0;
#X connect 261 0 220 0;
#X connect 262 0 223 0;
#X connect 263 0 226 0;
#X connect 264 0 229 0;
#X connect 265 0 232 0;
#X connect 266 0 235 0;
#X connect 267 0 238 0;
#X connect 268 0 241 0;
#X connect 269 0 244 0;
#X connect 270 0 274 0;
#X connect 271 0 248 0;
#X connect 272 0 251 0;
#X connect 273 0 254 0;
#X connect 274 0 275 0;
#X connect 275 0 708 0;
#X connect 276 0 277 0;
#X connect 277 0 712 0;
#X connect 278 0 276 1;
#X connect 279 0 280 0;
#X connect 280 0 713 0;
#X connect 281 0 279 1;
#X connect 282 0 283 0;
#X connect 283 0 714 0;
#X connect 284 0 282 1;
#X connect 285 0 286 0;
#X connect 286 0 715 0;
#X connect 287 0 285 1;
#X connect 288 0 289 0;
#X connect 289 0 716 0;
#X connect 290 0 288 1;
#X connect 291 0 292 0;
#X connect 292 0 717 0;
#X connect 293 0 291 1;
#X connect 294 0 295 0;
#X connect 295 0 718 0;
#X connect 296 0 294 1;
#X connect 297 0 298 0;
#X connect 298 0 719 0;
#X connect 299 0 297 1;
#X connect 300 0 301 0;
#X connect 301 0 720 0;
#X connect 302 0 300 1;
#X connect 303 0 304 0;
#X connect 304 0 721 0;
#X connect 305 0 303 1;
#X connect 306 0 307 0;
#X connect 307 0 722 0;
#X connect 308 0 306 1;
#X connect 309 0 310 0;
#X connect 310 0 723 0;
#X connect 311 0 309 1;
#X connect 312 0 339 1;
#X connect 313 0 314 0;
#X connect 314 0 725 0;
#X connect 315 0 313 1;
#X connect 316 0 317 0;
#X connect 317 0 726 0;
#X connect 318 0 316 1;
#X connect 319 0 320 0;
#X connect 320 0 727 0;
#X connect 321 0 319 1;
#X connect 322 0 323 0;
#X connect 322 0 324 0;
#X connect 322 0 325 0;
#X connect 322 0 326 0;
#X connect 322 0 327 0;
#X connect 322 0 328 0;
#X connect 322 0 329 0;
#X connect 322 0 330 0;
#X connect 322 0 331 0;
#X connect 322 0 332 0;
#X connect 322 0 333 0;
#X connect 322 0 334 0;
#X connect 322 0 335 0;
#X connect 322 0 336 0;
#X connect 322 0 337 0;
#X connect 322 0 338 0;
#X connect 323 0 276 0;
#X connect 324 0 279 0;
#X connect 325 0 282 0;
#X connect 326 0 285 0;
#X connect 327 0 288 0;
#X connect 328 0 291 0;
#X connect 329 0 294 0;
#X connect 330 0 297 0;
#X connect 331 0 300 0;
#X connect 332 0 303 0;
#X connect 333 0 306 0;
#X connect 334 0 309 0;
#X connect 335 0 339 0;
#X connect 336 0 313 0;
#X connect 337 0 316 0;
#X connect 338 0 319 0;
#X connect 339 0 340 0;
#X connect 340 0 724 0;
#X connect 341 0 342 0;
#X connect 342 0 728 0;
#X connect 343 0 341 1;
#X connect 344 0 345 0;
#X connect 345 0 729 0;
#X connect 346 0 344 1;
#X connect 347 0 348 0;
#X connect 348 0 730 0;
#X connect 349 0 347 1;
#X connect 350 0 351 0;
#X connect 351 0 731 0;
#X connect 352 0 350 1;
#X connect 353 0 354 0;
#X connect 354 0 732 0;
#X connect 355 0 353 1;
#X connect 356 0 357 0;
#X connect 357 0 733 0;
#X connect 358 0 356 1;
#X connect 359 0 360 0;
#X connect 360 0 734 0;
#X connect 361 0 359 1;
#X connect 362 0 363 0;
#X connect 363 0 735 0;
#X connect 364 0 362 1;
#X connect 365 0 366 0;
#X connect 366 0 736 0;
#X connect 367 0 365 1;
#X connect 368 0 369 0;
#X connect 369 0 737 0;
#X connect 370 0 368 1;
#X connect 371 0 372 0;
#X connect 372 0 738 0;
#X connect 373 0 371 1;
#X connect 374 0 375 0;
#X connect 375 0 739 0;
#X connect 376 0 374 1;
#X connect 377 0 404 1;
#X connect 378 0 379 0;
#X connect 379 0 741 0;
#X connect 380 0 378 1;
#X connect 381 0 382 0;
#X connect 382 0 742 0;
#X connect 383 0 381 1;
#X connect 384 0 385 0;
#X connect 385 0 743 0;
#X connect 386 0 384 1;
#X connect 387 0 388 0;
#X connect 387 0 389 0;
#X connect 387 0 390 0;
#X connect 387 0 391 0;
#X connect 387 0 392 0;
#X connect 387 0 393 0;
#X connect 387 0 394 0;
#X connect 387 0 395 0;
#X connect 387 0 396 0;
#X connect 387 0 397 0;
#X connect 387 0 398 0;
#X connect 387 0 399 0;
#X connect 387 0 400 0;
#X connect 387 0 401 0;
#X connect 387 0 402 0;
#X connect 387 0 403 0;
#X connect 388 0 341 0;
#X connect 389 0 344 0;
#X connect 390 0 347 0;
#X connect 391 0 350 0;
#X connect 392 0 353 0;
#X connect 393 0 356 0;
#X connect 394 0 359 0;
#X connect 395 0 362 0;
#X connect 396 0 365 0;
#X connect 397 0 368 0;
#X connect 398 0 371 0;
#X connect 399 0 374 0;
#X connect 400 0 404 0;
#X connect 401 0 378 0;
#X connect 402 0 381 0;
#X connect 403 0 384 0;
#X connect 404 0 405 0;
#X connect 405 0 740 0;
#X connect 406 0 407 0;
#X connect 407 0 744 0;
#X connect 408 0 406 1;
#X connect 409 0 410 0;
#X connect 410 0 745 0;
#X connect 411 0 409 1;
#X connect 412 0 413 0;
#X connect 413 0 746 0;
#X connect 414 0 412 1;
#X connect 415 0 416 0;
#X connect 416 0 747 0;
#X connect 417 0 415 1;
#X connect 418 0 419 0;
#X connect 419 0 748 0;
#X connect 420 0 418 1;
#X connect 421 0 422 0;
#X connect 422 0 749 0;
#X connect 423 0 421 1;
#X connect 424 0 425 0;
#X connect 425 0 750 0;
#X connect 426 0 424 1;
#X connect 427 0 428 0;
#X connect 428 0 751 0;
#X connect 429 0 427 1;
#X connect 430 0 431 0;
#X connect 431 0 752 0;
#X connect 432 0 430 1;
#X connect 433 0 434 0;
#X connect 434 0 753 0;
#X connect 435 0 433 1;
#X connect 436 0 437 0;
#X connect 437 0 754 0;
#X connect 438 0 436 1;
#X connect 439 0 440 0;
#X connect 440 0 755 0;
#X connect 441 0 439 1;
#X connect 442 0 469 1;
#X connect 443 0 444 0;
#X connect 444 0 757 0;
#X connect 445 0 443 1;
#X connect 446 0 447 0;
#X connect 447 0 758 0;
#X connect 448 0 446 1;
#X connect 449 0 450 0;
#X connect 450 0 759 0;
#X connect 451 0 449 1;
#X connect 452 0 453 0;
#X connect 452 0 454 0;
#X connect 452 0 455 0;
#X connect 452 0 456 0;
#X connect 452 0 457 0;
#X connect 452 0 458 0;
#X connect 452 0 459 0;
#X connect 452 0 460 0;
#X connect 452 0 461 0;
#X connect 452 0 462 0;
#X connect 452 0 463 0;
#X connect 452 0 464 0;
#X connect 452 0 465 0;
#X connect 452 0 466 0;
#X connect 452 0 467 0;
#X connect 452 0 468 0;
#X connect 453 0 406 0;
#X connect 454 0 409 0;
#X connect 455 0 412 0;
#X connect 456 0 415 0;
#X connect 457 0 418 0;
#X connect 458 0 421 0;
#X connect 459 0 424 0;
#X connect 460 0 427 0;
#X connect 461 0 430 0;
#X connect 462 0 433 0;
#X connect 463 0 436 0;
#X connect 464 0 439 0;
#X connect 465 0 469 0;
#X connect 466 0 443 0;
#X connect 467 0 446 0;
#X connect 468 0 449 0;
#X connect 469 0 470 0;
#X connect 470 0 756 0;
#X connect 471 0 472 0;
#X connect 472 0 760 0;
#X connect 473 0 471 1;
#X connect 474 0 475 0;
#X connect 475 0 761 0;
#X connect 476 0 474 1;
#X connect 477 0 478 0;
#X connect 478 0 762 0;
#X connect 479 0 477 1;
#X connect 480 0 481 0;
#X connect 481 0 763 0;
#X connect 482 0 480 1;
#X connect 483 0 484 0;
#X connect 484 0 764 0;
#X connect 485 0 483 1;
#X connect 486 0 487 0;
#X connect 487 0 765 0;
#X connect 488 0 486 1;
#X connect 489 0 490 0;
#X connect 490 0 766 0;
#X connect 491 0 489 1;
#X connect 492 0 493 0;
#X connect 493 0 767 0;
#X connect 494 0 492 1;
#X connect 495 0 496 0;
#X connect 496 0 768 0;
#X connect 497 0 495 1;
#X connect 498 0 499 0;
#X connect 499 0 769 0;
#X connect 500 0 498 1;
#X connect 501 0 502 0;
#X connect 502 0 770 0;
#X connect 503 0 501 1;
#X connect 504 0 505 0;
#X connect 505 0 771 0;
#X connect 506 0 504 1;
#X connect 507 0 534 1;
#X connect 508 0 509 0;
#X connect 509 0 773 0;
#X connect 510 0 508 1;
#X connect 511 0 512 0;
#X connect 512 0 774 0;
#X connect 513 0 511 1;
#X connect 514 0 515 0;
#X connect 515 0 775 0;
#X connect 516 0 514 1;
#X connect 517 0 518 0;
#X connect 517 0 519 0;
#X connect 517 0 520 0;
#X connect 517 0 521 0;
#X connect 517 0 522 0;
#X connect 517 0 523 0;
#X connect 517 0 524 0;
#X connect 517 0 525 0;
#X connect 517 0 526 0;
#X connect 517 0 527 0;
#X connect 517 0 528 0;
#X connect 517 0 529 0;
#X connect 517 0 530 0;
#X connect 517 0 531 0;
#X connect 517 0 532 0;
#X connect 517 0 533 0;
#X connect 518 0 471 0;
#X connect 519 0 474 0;
#X connect 520 0 477 0;
#X connect 521 0 480 0;
#X connect 522 0 483 0;
#X connect 523 0 486 0;
#X connect 524 0 489 0;
#X connect 525 0 492 0;
#X connect 526 0 495 0;
#X connect 527 0 498 0;
#X connect 528 0 501 0;
#X connect 529 0 504 0;
#X connect 530 0 534 0;
#X connect 531 0 508 0;
#X connect 532 0 511 0;
#X connect 533 0 514 0;
#X connect 534 0 535 0;
#X connect 535 0 772 0;
#X connect 536 0 83 0;
#X connect 537 0 148 0;
#X connect 538 0 213 0;
#X connect 539 0 278 0;
#X connect 540 0 343 0;
#X connect 541 0 408 0;
#X connect 542 0 473 0;
#X connect 543 0 86 0;
#X connect 544 0 89 0;
#X connect 545 0 92 0;
#X connect 546 0 95 0;
#X connect 547 0 98 0;
#X connect 548 0 101 0;
#X connect 549 0 104 0;
#X connect 550 0 107 0;
#X connect 551 0 110 0;
#X connect 552 0 113 0;
#X connect 553 0 116 0;
#X connect 554 0 117 0;
#X connect 555 0 120 0;
#X connect 556 0 123 0;
#X connect 557 0 126 0;
#X connect 558 0 151 0;
#X connect 559 0 154 0;
#X connect 560 0 157 0;
#X connect 561 0 160 0;
#X connect 562 0 163 0;
#X connect 563 0 166 0;
#X connect 564 0 169 0;
#X connect 565 0 172 0;
#X connect 566 0 175 0;
#X connect 567 0 178 0;
#X connect 568 0 181 0;
#X connect 569 0 182 0;
#X connect 570 0 185 0;
#X connect 571 0 188 0;
#X connect 572 0 191 0;
#X connect 573 0 216 0;
#X connect 574 0 219 0;
#X connect 575 0 222 0;
#X connect 576 0 225 0;
#X connect 577 0 228 0;
#X connect 578 0 231 0;
#X connect 579 0 234 0;
#X connect 580 0 237 0;
#X connect 581 0 240 0;
#X connect 582 0 243 0;
#X connect 583 0 246 0;
#X connect 584 0 247 0;
#X connect 585 0 250 0;
#X connect 586 0 253 0;
#X connect 587 0 256 0;
#X connect 588 0 281 0;
#X connect 589 0 284 0;
#X connect 590 0 287 0;
#X connect 591 0 290 0;
#X connect 592 0 293 0;
#X connect 593 0 296 0;
#X connect 594 0 299 0;
#X connect 595 0 302 0;
#X connect 596 0 305 0;
#X connect 597 0 308 0;
#X connect 598 0 311 0;
#X connect 599 0 312 0;
#X connect 600 0 315 0;
#X connect 601 0 318 0;
#X connect 602 0 321 0;
#X connect 603 0 346 0;
#X connect 604 0 349 0;
#X connect 605 0 352 0;
#X connect 606 0 355 0;
#X connect 607 0 358 0;
#X connect 608 0 386 0;
#X connect 609 0 383 0;
#X connect 610 0 380 0;
#X connect 611 0 377 0;
#X connect 612 0 376 0;
#X connect 613 0 373 0;
#X connect 614 0 370 0;
#X connect 615 0 367 0;
#X connect 616 0 364 0;
#X connect 617 0 361 0;
#X connect 618 0 411 0;
#X connect 619 0 414 0;
#X connect 620 0 417 0;
#X connect 621 0 420 0;
#X connect 622 0 423 0;
#X connect 623 0 426 0;
#X connect 624 0 429 0;
#X connect 625 0 432 0;
#X connect 626 0 435 0;
#X connect 627 0 438 0;
#X connect 628 0 441 0;
#X connect 629 0 442 0;
#X connect 630 0 445 0;
#X connect 631 0 448 0;
#X connect 632 0 451 0;
#X connect 633 0 516 0;
#X connect 634 0 513 0;
#X connect 635 0 510 0;
#X connect 636 0 507 0;
#X connect 637 0 506 0;
#X connect 638 0 503 0;
#X connect 639 0 500 0;
#X connect 640 0 497 0;
#X connect 641 0 494 0;
#X connect 642 0 491 0;
#X connect 643 0 488 0;
#X connect 644 0 485 0;
#X connect 645 0 482 0;
#X connect 646 0 479 0;
#X connect 647 0 476 0;
