#N canvas 174 0 684 736 10;
#X obj 393 145 s knob_vol_\$1_in;
#X obj 393 170 s knob_wave_level_\$1_in;
#X obj 393 190 s knob_noise_level_\$1_in;
#X obj 393 216 s knob_noise_lp_\$1_in;
#X obj 393 236 s knob_noise_hp_\$1_in;
#X obj 60 72 inlet;
#X obj 393 261 s waveform_VCO_\$1_in;
#X obj 393 281 s knob_pulse_VCO_\$1_in;
#X obj 393 311 s waveform_LFO_\$1_in;
#X obj 393 331 s knob_pulse_LFO_\$1_in;
#X obj 393 361 s knob_levenv_attack_\$1_in;
#X obj 393 381 s knob_levenv_decay_\$1_in;
#X obj 393 401 s knob_levenv_sustain_\$1_in;
#X obj 393 451 s knob_pitenv_time2_\$1_in;
#X obj 393 471 s knob_pitenv_freq1_\$1_in;
#X obj 393 491 s knob_pitenv_freq2_\$1_in;
#X obj 393 518 s knob_am_freq_\$1_in;
#X obj 393 538 s knob_am_int_\$1_in;
#X obj 393 567 s knob_lfo_freq_\$1_in;
#X obj 393 587 s knob_lfo_int_\$1_in;
#X obj 393 611 s knob_vcf_cut_\$1_in;
#X obj 393 631 s knob_vcf_q_\$1_in;
#X obj 393 653 s symbol\$1;
#X obj 393 421 s knob_levenv_release_\$1_in;
#X obj 393 677 s knob_reverb_\$1_in;
#X obj 60 116 unpack f f f f f 0 f 0 f f f f f f f f f f f f f f s
f;
#X connect 5 0 25 0;
#X connect 25 0 0 0;
#X connect 25 1 1 0;
#X connect 25 2 2 0;
#X connect 25 3 3 0;
#X connect 25 4 4 0;
#X connect 25 5 6 0;
#X connect 25 6 7 0;
#X connect 25 7 8 0;
#X connect 25 8 9 0;
#X connect 25 9 10 0;
#X connect 25 10 11 0;
#X connect 25 11 12 0;
#X connect 25 12 23 0;
#X connect 25 13 13 0;
#X connect 25 14 14 0;
#X connect 25 15 15 0;
#X connect 25 16 16 0;
#X connect 25 17 17 0;
#X connect 25 18 18 0;
#X connect 25 19 19 0;
#X connect 25 20 20 0;
#X connect 25 21 21 0;
#X connect 25 22 22 0;
#X connect 25 23 24 0;
