#N canvas 222 22 854 724 10;
#N canvas 548 634 602 192 guts 0;
#N canvas 72 457 1022 230 globalisierung 0;
#X obj 38 152 EP_Rauschen_globalisierung 5;
#X obj 248 152 EP_Rauschen_globalisierung 6;
#X obj 458 152 EP_Rauschen_globalisierung 7;
#X obj 668 152 EP_Rauschen_globalisierung 8;
#X obj 38 182 EP_Rauschen_globalisierung 1;
#X obj 248 182 EP_Rauschen_globalisierung 2;
#X obj 458 182 EP_Rauschen_globalisierung 3;
#X obj 668 182 EP_Rauschen_globalisierung 4;
#X obj 38 25 r knob_wave_level_global;
#X obj 303 27 r knob_noise_level_global;
#X obj 568 25 r knob_noise_lp_global;
#X obj 833 27 r knob_noise_hp_global;
#X connect 8 0 0 0;
#X connect 8 0 1 0;
#X connect 8 0 2 0;
#X connect 8 0 3 0;
#X connect 8 0 4 0;
#X connect 8 0 5 0;
#X connect 8 0 6 0;
#X connect 8 0 7 0;
#X connect 9 0 0 1;
#X connect 9 0 1 1;
#X connect 9 0 2 1;
#X connect 9 0 3 1;
#X connect 9 0 4 1;
#X connect 9 0 5 1;
#X connect 9 0 6 1;
#X connect 9 0 7 1;
#X connect 10 0 0 2;
#X connect 10 0 4 2;
#X connect 10 0 1 2;
#X connect 10 0 5 2;
#X connect 10 0 2 2;
#X connect 10 0 6 2;
#X connect 10 0 3 2;
#X connect 10 0 7 2;
#X connect 11 0 3 3;
#X connect 11 0 7 3;
#X connect 11 0 2 3;
#X connect 11 0 1 3;
#X connect 11 0 6 3;
#X connect 11 0 5 3;
#X connect 11 0 0 3;
#X connect 11 0 4 3;
#X restore 39 25 pd globalisierung;
#N canvas 926 181 659 736 darstellung_und_presets 0;
#X msg 144 181 stop;
#X obj 171 213 metro 100;
#X obj 144 131 sel 0;
#X obj 324 172 bng 15 250 50 0 empty empty empty 17 7 0 10 -262144
-1 -1;
#X obj 324 288 s bangtonal_sine;
#X msg 275 311 1500;
#X obj 177 354 s freq2_globe;
#X obj 275 335 s knob_levenv_release_1_in;
#X obj 275 355 s knob_levenv_decay_1_in;
#X obj 3 85 spigot~;
#X obj 275 375 s knob_levenv_release_2_in;
#X obj 275 395 s knob_levenv_decay_2_in;
#X obj 275 435 s knob_levenv_decay_3_in;
#X obj 275 415 s knob_levenv_release_3_in;
#X obj 275 455 s knob_levenv_release_4_in;
#X obj 275 475 s knob_levenv_decay_4_in;
#X obj 275 495 s knob_levenv_release_5_in;
#X obj 275 515 s knob_levenv_decay_5_in;
#X obj 275 535 s knob_levenv_release_6_in;
#X obj 275 555 s knob_levenv_decay_6_in;
#X obj 275 575 s knob_levenv_release_7_in;
#X obj 275 595 s knob_levenv_decay_7_in;
#X obj 275 615 s knob_levenv_release_8_in;
#X obj 275 635 s knob_levenv_decay_8_in;
#X obj 144 9 r EP_Rauschen_onoff;
#X obj 115 253 tabwrite~ zeitsignal_Rauschen;
#X msg 446 379 0;
#X obj 446 357 s knob_noise_lp_global;
#X msg 446 335 12000;
#X obj 446 401 s knob_noise_hp_global;
#X msg 446 435 0;
#X msg 446 479 1;
#X obj 446 457 s knob_wave_level_global;
#X obj 446 501 s knob_noise_level_global;
#X msg 177 334 94.435;
#X text 128 333 1 kHz;
#X obj 116 54 clip~ -0.3 0.3;
#X obj 275 289 del 35;
#X obj 117 -58 r~ darstellung_EP;
#N canvas 188 203 842 358 spektrum_noise 0;
#X obj 11 32 rfft~;
#X obj 11 59 *~;
#X obj 38 59 *~;
#X obj 11 123 biquad~ 0 0 0 0 1;
#X obj 11 101 q8_sqrt~;
#X obj 112 225 loadbang;
#X text 173 239 Beschriftung X-Achse Spektrum;
#X text 320 18 Blockgröße;
#X obj -91 1 inlet~;
#X obj 149 21 tgl 15 0 empty EP_Rauschen_onoff empty 17 7 0 10 -262144
-1 -1 1 1;
#X msg 149 81 stop;
#X obj 149 121 metro 100;
#X obj 149 47 sel 0;
#X obj -92 192 tabwrite~ spektrum_Rauschen;
#X msg 112 302 \; spektrum_Rauschen yticks -1 20 20;
#X obj 11 146 clip~ 0 48;
#X obj 239 18 block~ 2048;
#X msg 112 262 \; spektrum_Rauschen xticks 0 9.5 5;
#X connect 0 0 1 0;
#X connect 0 0 1 1;
#X connect 0 1 2 0;
#X connect 0 1 2 1;
#X connect 1 0 4 0;
#X connect 2 0 4 0;
#X connect 3 0 15 0;
#X connect 4 0 3 0;
#X connect 5 0 14 0;
#X connect 5 0 17 0;
#X connect 8 0 0 0;
#X connect 9 0 12 0;
#X connect 10 0 11 0;
#X connect 11 0 13 0;
#X connect 12 0 10 0;
#X connect 12 1 11 0;
#X connect 15 0 13 0;
#X restore 42 284 pd spektrum_noise;
#X connect 0 0 1 0;
#X connect 1 0 25 0;
#X connect 2 0 0 0;
#X connect 2 1 1 0;
#X connect 2 1 3 0;
#X connect 3 0 4 0;
#X connect 3 0 37 0;
#X connect 5 0 7 0;
#X connect 5 0 8 0;
#X connect 5 0 10 0;
#X connect 5 0 11 0;
#X connect 5 0 13 0;
#X connect 5 0 12 0;
#X connect 5 0 14 0;
#X connect 5 0 15 0;
#X connect 5 0 16 0;
#X connect 5 0 17 0;
#X connect 5 0 20 0;
#X connect 5 0 21 0;
#X connect 5 0 23 0;
#X connect 5 0 22 0;
#X connect 5 0 19 0;
#X connect 5 0 18 0;
#X connect 9 1 39 0;
#X connect 24 0 9 1;
#X connect 24 0 2 0;
#X connect 26 0 29 0;
#X connect 28 0 27 0;
#X connect 30 0 32 0;
#X connect 31 0 33 0;
#X connect 34 0 6 0;
#X connect 36 0 25 0;
#X connect 37 0 5 0;
#X connect 37 0 28 0;
#X connect 37 0 26 0;
#X connect 37 0 30 0;
#X connect 37 0 31 0;
#X connect 37 0 34 0;
#X connect 38 0 9 0;
#X connect 38 0 36 0;
#X restore 39 0 pd darstellung_und_presets;
#X obj 361 6 closebang;
#X msg 361 29 0;
#X obj 298 110 tgl 30 0 EP_Rauschen_onoff empty Patch-An/Aus -17 -8
0 10 -3394 -1 -1 1 1;
#X msg 286 31 1;
#X obj 286 8 loadbang;
#X obj 398 53 s bang808;
#X connect 2 0 3 0;
#X connect 2 0 7 0;
#X connect 3 0 4 0;
#X connect 5 0 4 0;
#X connect 6 0 5 0;
#X restore 790 637 pd guts;
#X obj -12 -66 cnv 15 850 720 empty empty empty 20 15 0 14 -128992
-33289 0;
#X obj 30 -7 bng 18 250 50 0 1-GUI-bang 1-GUI-bang_r Drumpad-1 25 10
0 11 -99865 -260097 -1;
#X text 139 624 2 KHz;
#X text 76 624 1 KHz;
#X text 411 366 0;
#X text 405 429 -1;
#X text 411 304 1;
#X text 18 624 0 Hz;
#X obj 424 304 cnv 15 400 140 empty empty empty 20 12 0 14 -204786
-66577 0;
#N canvas 0 50 919 418 (subpatch) 0;
#X array zeitsignal_Rauschen 200 float 1;
#A 0 0 0 0 0 0 0 0 0 0 0 0 0 0 0 0 0 0 0 0 0 0 0 0 0 0 0 0 0 0 0 0
0 0 0 0 0 0 0 0 0 0 0 0 0 0 0 0 0 0 0 0 0 0 0 0 0 0 0 0 0 0 0 0 0 0
0 0 0 0 0 0 0 0 0 0 0 0 0 0 0 0 0 0 0 0 0 0 0 0 0 0 0 0 0 0 0 0 0 0
0 0 0 0 0 0 0 0 0 0 0 0 0 0 0 0 0 0 0 0 0 0 0 0 0 0 0 0 0 0 0 0 0 0
0 0 0 0 0 0 0 0 0 0 0 0 0 0 0 0 0 0 0 0 0 0 0 0 0 0 0 0 0 0 0 0 0 0
0 0 0 0 0 0 0 0 0 0 0 0 0 0 0 0 0 0 0 0 0 0 0 0 0 0 0 0 0 0 0 0 0;
#X coords 0 0.3 199 -0.3 400 140 1 0 0;
#X restore 424 304 graph;
#X obj 24 470 cnv 15 800 150 empty empty empty 20 12 0 14 -204786 -66577
0;
#N canvas 511 450 1153 478 (subpatch) 0;
#X array spektrum_Rauschen 600 float 3;
#A 0 0 0 0 0 0 0 0 0 0 0 0 0 0 0 0 0 0 0 0 0 0 0 0 0 0 0 0 0 0 0 0
0 0 0 0 0 0 0 0 0 0 0 0 0 0 0 0 0 0 0 0 0 0 0 0 0 0 0 0 0 0 0 0 0 0
0 0 0 0 0 0 0 0 0 0 0 0 0 0 0 0 0 0 0 0 0 0 0 0 0 0 0 0 0 0 0 0 0 0
0 0 0 0 0 0 0 0 0 0 0 0 0 0 0 0 0 0 0 0 0 0 0 0 0 0 0 0 0 0 0 0 0 0
0 0 0 0 0 0 0 0 0 0 0 0 0 0 0 0 0 0 0 0 0 0 0 0 0 0 0 0 0 0 0 0 0 0
0 0 0 0 0 0 0 0 0 0 0 0 0 0 0 0 0 0 0 0 0 0 0 0 0 0 0 0 0 0 0 0 0 0
0 0 0 0 0 0 0 0 0 0 0 0 0 0 0 0 0 0 0 0 0 0 0 0 0 0 0 0 0 0 0 0 0 0
0 0 0 0 0 0 0 0 0 0 0 0 0 0 0 0 0 0 0 0 0 0 0 0 0 0 0 0 0 0 0 0 0 0
0 0 0 0 0 0 0 0 0 0 0 0 0 0 0 0 0 0 0 0 0 0 0 0 0 0 0 0 0 0 0 0 0 0
0 0 0 0 0 0 0 0 0 0 0 0 0 0 0 0 0 0 0 0 0 0 0 0 0 0 0 0 0 0 0 0 0 0
0 0 0 0 0 0 0 0 0 0 0 0 0 0 0 0 0 0 0 0 0 0 0 0 0 0 0 0 0 0 0 0 0 0
0 0 0 0 0 0 0 0 0 0 0 0 0 0 0 0 0 0 0 0 0 0 0 0 0 0 0 0 0 0 0 0 0 0
0 0 0 0 0 0 0 0 0 0 0 0 0 0 0 0 0 0 0 0 0 0 0 0 0 0 0 0 0 0 0 0 0 0
0 0 0 0 0 0 0 0 0 0 0 0 0 0 0 0 0 0 0 0 0 0 0 0 0 0 0 0 0 0 0 0 0 0
0 0 0 0 0 0 0 0 0 0 0 0 0 0 0 0 0 0 0 0 0 0 0 0 0 0 0 0 0 0 0 0 0 0
0 0 0 0 0 0 0 0 0 0 0 0 0 0 0 0 0 0 0 0 0 0 0 0 0 0 0 0 0 0 0 0 0 0
0 0 0 0 0 0 0 0 0 0 0 0 0 0 0 0 0 0 0 0 0 0 0 0 0 0 0 0 0 0 0 0 0 0
0 0 0 0 0 0 0 0 0 0 0 0 0 0 0 0 0 0 0 0 0 0 0 0 0;
#X coords 0 48 600 0 800 150 1 0 0;
#X restore 24 470 graph;
#X obj -12 -60 cnv 15 850 22 empty empty what?-Rauschen/Noise 20 11
0 14 -260097 -33289 0;
#X obj 443 50 cnv 15 380 150 empty empty ToDo 10 12 0 11 -260097 -1
0;
#X text 203 624 3 kHz;
#X text 265 624 4 KHz;
#X obj 24 27 cnv 15 118 100 empty empty Komponenten 10 12 0 13 -99865
-260097 0;
#X obj 146 27 cnv 15 145 100 empty empty Rauschfilter 10 12 0 13 -99865
-260097 0;
#X obj 38 64 knob 35 35 0 1 0 1 knob_wave_level_global knob_wave_level_global
empty 0 -8 0 11 -228856 -260097 -261682 0 1;
#X obj 90 64 knob 35 35 0 1 0 0 knob_noise_level_global knob_noise_level_global
empty 0 -8 0 11 -228856 -260097 -261682 3400 1;
#X obj 158 64 knob 35 35 0 12000 0 1 knob_noise_lp_global knob_noise_lp_global
empty 0 -8 0 11 -228856 -260097 -261682 3400 1;
#X obj 228 64 knob 35 35 0 12000 0 0 knob_noise_hp_global knob_noise_hp_global
empty 0 -8 0 11 -228856 -260097 -261682 0 1;
#X text 329 624 5 KHz;
#X text 393 624 6 KHz;
#X text 456 624 7 kHz;
#X text 519 624 8 KHz;
#X text 583 624 9 KHz;
#X text 645 624 10 KHz;
#X text 707 624 11 kHz;
#X text 771 624 12 KHz;
#X text 453 74 Verändere den Tiefpass- und Hochpassregler und beobachte
die Auswirkungen auf das Spektrum.;
#X obj 155 107 nbx 5 14 -1e+037 1e+037 0 0 knob_noise_lp_global knob_noise_lp_global
empty 0 -8 0 10 -66577 -260097 -1 12000 256;
#X obj 225 107 nbx 5 14 -1e+037 1e+037 0 0 knob_noise_hp_global knob_noise_hp_global
empty 0 -8 0 10 -66577 -260097 -1 0 256;
#X obj 36 107 nbx 4 14 -1e+037 1e+037 0 0 knob_wave_level_global knob_wave_level_global
empty 0 -8 0 10 -66577 -260097 -1 0 256;
#X obj 87 107 nbx 4 14 -1e+037 1e+037 0 0 knob_noise_level_global knob_noise_level_global
empty 0 -8 0 10 -66577 -260097 -1 1 256;
#X text 453 104 Ein Tiefpass \, dessen Grenzfrequenz auf 12000 Hz eingestellt
ist \, lässt Signale mit einer geringeren Frequenz nahezu ungehindert
passieren.;
#X text 453 147 Ein Hochpass dämpft alle Signale unterhalb der eingestellten
Frequenz. Ist er auf den Wert 0 Hz gestellt \, hat er kaum hörbare
Auswirkungen auf das Signal.;
#X obj 748 -11 dspcon;
#X text 27 271 DRUMBOS Modul stellt zwei Filter zur Verfügung \, mit
denen das Rauschen in seinem Klang geformt werden kann: Einen Tiefpass
\, der tiefe Frequenzen durchlässt und hohe Frequenzen sperrt sowie
einem Hochpass \, der entsprechend hohe Frequenzen durchlässt und
tiefe Frequenzen sperrt. Die Grenzfrequenz beider Filter lässt sich
in einem Bereich zwischen 0 und 12000 Hz einstellen.;
#X text 28 368 Weißes Rauschen eignet sich besonders um Klänge mit
großem Rauschanteil zu synthetisieren. Ein gutes Beispiel ist das
Geräusch beim Anblasen eines Blasinstrumentes. Weitere Beispiele sind
der Klang einer Snare Drum \, aber auch der von Klatschen \, Hi-Hats
oder den sog. Rimshots (Rim ist der häufig metallische Rahmen einer
Snaredrum).;
#X text 27 136 DRUMBO kann seinen Klängen Noise (dt: 'Rauschen') hinzufügen.
Weißes Rauschen ist in der Theorie ein gänzlich stochastisches (zufälliges)
Signal. Ein Zufallsalgorithmus bestimmt also den Lautstärkeverlauf
des Signals. Daher wiederholen sich theoretisch keine Lautstärkebewegungen.
Wenn keine Wiederholung \, z.B. im Sinne einer Sinusschwingung \, auftritt
\, ist keine Tonhöhe wahrnehmbar. Vielmehr resultiert ein Klang \,
in dem alle hörbaren Schwingungen enthalten sind \, da Laustärkeverläufe
jeglicher Geschwindigkeit auftreten.;
#X obj 157 50 cnv 10 10 10 empty empty Tiefpass 0 7 0 11 -99865 -261682
0;
#X obj 226 50 cnv 10 10 10 empty empty Hochpass 0 7 0 11 -99865 -261682
0;
#X obj 38 50 cnv 10 10 10 empty empty Wave 0 7 0 11 -99865 -261682
0;
#X obj 89 50 cnv 10 10 10 empty empty Noise 0 7 0 11 -99865 -261682
0;
