#N canvas 632 367 450 300 10;
#X obj 100 66 inlet;
#X obj 160 66 inlet;
#X obj 218 66 inlet;
#X obj 278 66 inlet;
#X obj 160 157 s knob_noise_level_\$1_in;
#X obj 100 137 s knob_wave_level_\$1_in;
#X obj 218 177 s knob_vcf_cut_\$1_in;
#X obj 278 197 s knob_vcf_q_\$1_in;
#X obj 335 221 s knob_noise_lp_\$1_in;
#X obj 396 242 s knob_noise_lp_\$1_in;
#X obj 335 66 inlet;
#X obj 395 66 inlet;
#X connect 0 0 5 0;
#X connect 1 0 4 0;
#X connect 2 0 6 0;
#X connect 3 0 7 0;
#X connect 10 0 8 0;
#X connect 11 0 9 0;
