#N canvas 28 49 494 424 10;
#N canvas 419 321 696 431 guts 0;
#X obj -2457 -665 closebang;
#X msg -2457 -633 0;
#X obj -2711 -628 clip~ -0.6 0.6;
#X msg -2683 -431 stop;
#X obj -2656 -399 metro 100;
#X obj -2683 -481 sel 0;
#X obj -2918 -432 spigot~;
#X obj -2769 -565 tgl 30 0 empty empty Patch-An/Aus -17 -8 0 10 -3394
-1 -1 1 1;
#X obj -2517 -666 loadbang;
#X msg -2517 -633 1;
#X obj -2823 -693 r~ darstellung_EP;
#X obj -2649 -518 s aktiviere_signalfluss_globvis_drumbo;
#X obj -2712 -359 tabwrite~ zeitsignal_globvis_drumbo;
#N canvas 822 397 842 358 spektrum_globvis_drumbo 0;
#X obj 11 32 rfft~;
#X obj 11 59 *~;
#X obj 38 59 *~;
#X obj 11 123 biquad~ 0 0 0 0 1;
#X obj 11 101 q8_sqrt~;
#X obj 112 225 loadbang;
#X text 173 239 Beschriftung X-Achse Spektrum;
#X text 320 18 Blockgröße;
#X obj -91 1 inlet~;
#X obj 149 21 tgl 15 0 empty empty empty 17 7 0 10 -262144 -1 -1 1
1;
#X msg 149 81 stop;
#X obj 149 121 metro 100;
#X obj 149 47 sel 0;
#X text 381 225 Array graphs can be given "ticks" on both the x and
y axis to help you visually measure your data. The tick messages require
3 values: (the index or value of the FIRST large tick \, then the interval
between ticks \, then finally the number of ticks overall per large
tick).;
#X text 380 301 Arrays can be given labels to describe the x and y
axis. Give a y value and a bunch of x values or vice versa:;
#X obj 239 18 block~ 4096;
#X obj 71 -1 inlet;
#X obj 11 146 clip~ 0 192;
#X obj -92 192 tabwrite~ spektrum_globvis_drumbo;
#X msg 174 264 \; spektrum_globvis_drumbo xticks 0 9.5 5;
#X msg 175 302 \; spektrum_globvis_drumbo yticks -1 20 20;
#X connect 0 0 1 0;
#X connect 0 0 1 1;
#X connect 0 1 2 0;
#X connect 0 1 2 1;
#X connect 1 0 4 0;
#X connect 2 0 4 0;
#X connect 3 0 17 0;
#X connect 4 0 3 0;
#X connect 5 0 19 0;
#X connect 5 0 20 0;
#X connect 8 0 0 0;
#X connect 9 0 12 0;
#X connect 10 0 11 0;
#X connect 11 0 18 0;
#X connect 12 0 10 0;
#X connect 12 1 11 0;
#X connect 16 0 9 0;
#X connect 17 0 18 0;
#X restore -2880 -360 pd spektrum_globvis_drumbo;
#X obj -2424 -633 s reactivate_globvis_drumbo;
#X connect 0 0 1 0;
#X connect 0 0 14 0;
#X connect 1 0 7 0;
#X connect 2 0 12 0;
#X connect 3 0 4 0;
#X connect 4 0 12 0;
#X connect 5 0 3 0;
#X connect 5 1 4 0;
#X connect 6 1 13 0;
#X connect 7 0 5 0;
#X connect 7 0 6 1;
#X connect 7 0 13 1;
#X connect 7 0 11 0;
#X connect 8 0 9 0;
#X connect 9 0 7 0;
#X connect 10 0 2 0;
#X connect 10 0 6 0;
#X restore 206 -1396 pd guts;
#X obj -238 -1798 cnv 15 490 420 empty empty empty 20 12 0 14 -128992
-66577 0;
#X obj -238 -1790 cnv 15 490 22 empty empty DRUMBO 15 11 0 14 -260097
-1 0;
#X text 169 -1416 2 KHz;
#X text -22 -1416 1 KHz;
#X text -114 -1416 500 Hz;
#X text 72 -1416 1.5 KHz;
#X text -200 -1416 0 Hz;
#X obj -194 -1570 cnv 15 400 150 empty empty empty 20 12 0 14 -204786
-66577 0;
#N canvas 511 450 1153 478 (subpatch) 0;
#X array spektrum_globvis_drumbo 200 float 3;
#A 0 0 0 0 0 0 0 0 0 0 0 0 0 0 0 0 0 0 0 0 0 0 0 0 0 0 0 0 0 0 0 0
0 0 0 0 0 0 0 0 0 0 0 0 0 0 0 0 0 0 0 0 0 0 0 0 0 0 0 0 0 0 0 0 0 0
0 0 0 0 0 0 0 0 0 0 0 0 0 0 0 0 0 0 0 0 0 0 0 0 0 0 0 0 0 0 0 0 0 0
0 0 0 0 0 0 0 0 0 0 0 0 0 0 0 0 0 0 0 0 0 0 0 0 0 0 0 0 0 0 0 0 0 0
0 0 0 0 0 0 0 0 0 0 0 0 0 0 0 0 0 0 0 0 0 0 0 0 0 0 0 0 0 0 0 0 0 0
0 0 0 0 0 0 0 0 0 0 0 0 0 0 0 0 0 0 0 0 0 0 0 0 0 0 0 0 0 0 0 0 0;
#X coords 0 192 200 0 400 150 1 0 0;
#X restore -194 -1570 graph;
#X text -208 -1682 0;
#X text -214 -1619 -1;
#X text -208 -1744 1;
#X obj -195 -1744 cnv 15 400 140 empty empty empty 20 12 0 14 -204786
-66577 0;
#N canvas 0 50 919 418 (subpatch) 0;
#X array zeitsignal_globvis_drumbo 200 float 1;
#A 0 0 0 0 0 0 0 0 0 0 0 0 0 0 0 0 0 0 0 0 0 0 0 0 0 0 0 0 0 0 0 0
0 0 0 0 0 0 0 0 0 0 0 0 0 0 0 0 0 0 0 0 0 0 0 0 0 0 0 0 0 0 0 0 0 0
0 0 0 0 0 0 0 0 0 0 0 0 0 0 0 0 0 0 0 0 0 0 0 0 0 0 0 0 0 0 0 0 0 0
0 0 0 0 0 0 0 0 0 0 0 0 0 0 0 0 0 0 0 0 0 0 0 0 0 0 0 0 0 0 0 0 0 0
0 0 0 0 0 0 0 0 0 0 0 0 0 0 0 0 0 0 0 0 0 0 0 0 0 0 0 0 0 0 0 0 0 0
0 0 0 0 0 0 0 0 0 0 0 0 0 0 0 0 0 0 0 0 0 0 0 0 0 0 0 0 0 0 0 0 0;
#X coords 0 0.6 199 -0.6 400 140 1 0 0;
#X restore -195 -1744 graph;
#X obj -172 -1790 cnv 15 20 22 empty empty - 0 11 0 14 -260097 -1 0
;
#X obj -163 -1790 cnv 15 20 22 empty empty Globale 0 11 0 14 -260097
-1 0;
#X obj -100 -1790 cnv 15 20 22 empty empty Visualisierung 0 11 0 14
-260097 -1 0;
#X obj 30 -1790 cnv 15 20 22 empty empty Zeitsignal/Frequenzspektrum
0 11 0 14 -260097 -1 0;
