#N canvas 50 13 488 711 10;
#X obj 18 102 loadbang;
#X msg 18 123 symbol ---;
#X obj 18 144 s symbol\$1;
#X obj 100 100 cnv 15 375 600 empty empty empty 20 14 0 14 -33289 -261682
0;
#X obj 289 470 cnv 15 120 100 empty empty FM 4 10 0 11 -66577 -260097
0;
#X obj 104 130 cnv 15 90 100 empty empty Lautstärke 10 10 0 11 -66577
-260097 0;
#X obj 352 233 cnv 15 120 233 empty empty Waveform 10 10 0 11 -66577
-260097 0;
#X obj 165 470 cnv 15 120 100 empty empty AM 10 10 0 11 -66577 -260097
0;
#X obj 374 271 vradio 17 1 0 6 waveform_VCO_\$1 waveform_VCO_\$1_in
Träger -6 -10 0 11 -54094 -260097 -261682 0;
#X obj 433 271 vradio 17 1 0 6 waveform_LFO_\$1 waveform_LFO_\$1_in
Mod -2 -10 0 11 -54094 -260097 -261682 0;
#X text 401 269 sin;
#X text 401 286 rec;
#X text 401 304 saw;
#X text 401 321 isw;
#X text 401 339 tri;
#X text 402 355 pls;
#X obj 104 233 cnv 15 244 130 empty empty Tonhöhen 10 10 0 11 -66577
-260097 0;
#X obj 104 366 cnv 15 244 100 empty empty LevelEnvelope 10 10 0 11
-66577 -260097 0;
#X obj 120 402 knob 35 35 0.1 500 1 0 knob_levenv_attack_\$1 knob_levenv_attack_\$1_in
empty 0 -8 0 11 -262144 -260097 -261682 642 1;
#X obj 172 402 knob 35 35 1 1500 1 0 knob_levenv_decay_\$1 knob_levenv_decay_\$1_in
empty 0 -8 0 11 -262144 -260097 -261682 1975 1;
#X obj 233 402 knob 35 35 0 1 0 1 knob_levenv_sustain_\$1 knob_levenv_sustain_\$1_in
empty 0 -8 0 11 -262144 -260097 -261682 0 1;
#X obj 290 402 knob 35 35 1 1500 1 1 knob_levenv_release_\$1 knob_levenv_release_\$1_in
empty 0 -8 0 11 -262144 -260097 -261682 2037 1;
#X obj 111 445 nbx 4 14 0 500 0 0 xxxx att\$1 empty 0 -8 0 11 -54094
-260097 -260097 0.499405 256;
#X obj 170 445 nbx 4 14 -1e+037 1e+037 0 0 yyyyy dec\$1 empty 0 -8
0 11 -54094 -260097 -260097 69.9738 256;
#X obj 228 445 nbx 4 14 -1e+037 1e+037 0 0 zzzzz sus\$1 empty 0 -8
0 11 -54094 -260097 -260097 0 256;
#X obj 288 445 nbx 4 14 -1e+037 1e+037 0 0 ccccc rel\$1 empty 0 -8
0 11 -54094 -260097 -260097 79.9562 256;
#X obj 303 507 knob 35 35 1.27 127 1 0 knob_lfo_freq_\$1 knob_lfo_freq_\$1_in
empty 0 -8 0 11 -228856 -260097 -261682 0 1;
#X obj 355 507 knob 35 35 0 127 0 0 knob_lfo_int_\$1 knob_lfo_int_\$1_in
empty 0 -8 0 11 -228856 -260097 -261682 0 1;
#X obj 228 574 cnv 15 120 100 empty empty VCF 10 10 0 11 -66577 -260097
0;
#X obj 242 613 knob 35 35 0 120 0 0 knob_vcf_cut_\$1 knob_vcf_cut_\$1_in
empty 0 -8 0 11 -262144 -260097 -261682 0 1;
#X obj 293 613 knob 35 35 0 127 0 0 knob_vcf_q_\$1 knob_vcf_q_\$1_in
empty 0 -8 0 11 -228856 -260097 -261682 0 1;
#X obj 177 507 knob 35 35 1.27 127 1 0 knob_am_freq_\$1 knob_am_freq_\$1_in
empty 0 -8 0 11 -228856 -260097 -261682 0 1;
#X obj 230 507 knob 35 35 0 127 0 0 knob_am_int_\$1 knob_am_int_\$1_in
empty 0 -8 0 11 -228856 -260097 -261682 0 1;
#X obj 104 574 cnv 15 120 100 empty empty Reverb 10 10 0 11 -66577
-260097 0;
#X obj 137 610 knob 35 35 0 0.75 0 0 knob_reverb_\$1 knob_reverb_\$1_in
empty 0 -8 0 11 -262144 -260097 -261682 0 1;
#X obj 133 654 nbx 4 14 -1e+037 1e+037 0 0 empty knob_reverb_\$1 empty
0 -8 0 11 -54094 -260097 -260097 0 256;
#X obj 236 654 nbx 4 14 -1e+037 1e+037 0 0 empty \$1-vcf-freq-gui empty
0 -8 0 11 -54094 -260097 -260097 0 256;
#X obj 292 654 nbx 4 14 -1e+037 1e+037 0 0 empty \$1-vcf-q-gui empty
0 -8 0 11 -54094 -260097 -260097 0 256;
#X obj 172 548 nbx 4 14 -1e+037 1e+037 0 0 empty \$1-AM-freq empty
0 -8 0 11 -54094 -260097 -260097 1.51935 256;
#X obj 228 548 nbx 4 14 -1e+037 1e+037 0 0 empty \$1-AM-int empty 0
-8 0 11 -54094 -260097 -260097 0 256;
#X obj 295 548 nbx 4 14 -1e+037 1e+037 0 0 empty \$1-LFO-freq empty
0 -8 0 11 -54094 -260097 -260097 0.0328311 256;
#X obj 353 548 nbx 4 14 -1e+037 1e+037 0 0 empty \$1-LFO-int empty
0 -8 0 11 -54094 -260097 -260097 0 256;
#X obj 103 103 tgl 24 0 channel\$1_send channel\$1_on empty 17 7 0
10 -66577 -260097 -1 1 1;
#X obj 128 104 cnv 20 320 22 empty pad-on-off\$1 Pad-\$1 8 12 0 12
-260097 -261682 0;
#X obj 449 103 bng 24 250 50 0 \$1-GUI-bang \$1-GUI-bang_r empty 17
7 0 10 -66577 -260097 -1;
#X obj 127 270 knob 35 35 0 750 0 1 knob_pitenv_time2_\$1_in knob_pitenv_time2_\$1_in
empty 0 -8 0 11 -262144 -260097 -261682 229 1;
#X obj 119 310 nbx 5 14 -1e+037 1e+037 0 0 xxxxxxxxxxxx tim\$1 empty
0 -8 0 11 -54094 -260097 -260097 50.5 256;
#X obj 195 310 nbx 5 14 -1e+037 1e+037 0 0 yyyyyyyyyyy fq1\$1 empty
0 -8 0 11 -54094 -260097 -260097 139.6 256;
#X obj 276 269 knob 35 35 0 127 0 1 knob_pitenv_freq2_\$1_in knob_pitenv_freq2_\$1_in
empty 0 -6 0 11 -204786 -260097 -261682 530 1;
#X obj 268 310 nbx 5 14 -1e+037 1e+037 0 0 vvvvvvvv fq2\$1 empty 0
-8 0 11 -54094 -260097 -260097 40.1077 256;
#X obj 203 270 knob 35 35 20 6362 0 1 knob_pitenv_freq1_\$1_in knob_pitenv_freq1_\$1_in
empty 0 -6 0 11 -262144 -260097 -261682 64 1;
#X obj 198 130 cnv 15 130 100 empty empty Komponenten 10 10 0 11 -66577
-260097 0;
#X obj 332 130 cnv 15 140 100 empty empty Noisefilter 10 10 0 11 -66577
-260097 0;
#X obj 219 168 knob 35 35 0 1 0 1 knob_wave_level_\$1 knob_wave_level_\$1_in
empty 0 -8 0 11 -228856 -260097 -261682 3400 1;
#X obj 271 168 knob 35 35 0 1 0 0 knob_noise_level_\$1 knob_noise_level_\$1_in
empty 0 -8 0 11 -228856 -260097 -261682 0 1;
#X obj 348 168 knob 35 35 0 12000 0 1 knob_noise_lp_\$1 knob_noise_lp_\$1_in
empty 0 -8 0 11 -228856 -260097 -261682 3400 1;
#X obj 409 168 knob 35 35 0 12000 0 0 knob_noise_hp_\$1 knob_noise_hp_\$1_in
empty 0 -8 0 11 -228856 -260097 -261682 0 1;
#X obj 218 150 cnv 12 30 12 empty empty Wave 0 7 0 11 -66577 -261682
0;
#X obj 270 150 cnv 12 30 12 empty empty Noise 0 7 0 11 -66577 -261682
0;
#X obj 348 150 cnv 12 30 12 empty empty LP 0 7 0 11 -66577 -261682
0;
#X obj 410 150 cnv 12 30 12 empty empty HP 0 7 0 11 -66577 -261682
0;
#X obj 120 385 cnv 12 30 12 empty empty A 0 7 0 11 -66577 -261682 0
;
#X obj 173 385 cnv 12 30 12 empty empty D 0 7 0 11 -66577 -261682 0
;
#X obj 290 385 cnv 12 30 12 empty empty R 0 7 0 11 -66577 -261682 0
;
#X obj 303 490 cnv 12 30 12 empty empty Freq 0 7 0 11 -66577 -261682
0;
#X obj 354 490 cnv 12 30 12 empty empty Int 0 7 0 11 -66577 -261682
0;
#X obj 177 489 cnv 12 30 12 empty empty Freq 0 7 0 11 -66577 -261682
0;
#X obj 228 489 cnv 12 30 12 empty empty Int 0 7 0 11 -66577 -261682
0;
#X obj 135 594 cnv 12 30 12 empty empty Dry/Wet 0 7 0 11 -66577 -261682
0;
#X obj 240 595 cnv 12 30 12 empty empty Cutoff 0 7 0 11 -66577 -261682
0;
#X obj 294 595 cnv 12 30 12 empty empty Q 0 7 0 11 -66577 -261682 0
;
#X obj 126 255 cnv 12 30 12 empty empty Time 0 7 0 11 -66577 -261682
0;
#X obj 201 255 cnv 12 30 12 empty empty Freq-1 0 7 0 11 -66577 -261682
0;
#X obj 274 253 cnv 12 30 12 empty empty Freq-2 0 7 0 11 -66577 -261682
0;
#X obj 420 402 knob 35 35 0 0.975 0 0 knob_pulse_LFO_\$1 knob_pulse_LFO_\$1_in
empty 0 -6 0 11 -228856 -260097 -261682 0 1;
#X obj 364 402 knob 35 35 0 0.975 0 0 knob_pulse_VCO_\$1 knob_pulse_VCO_\$1_in
empty 0 -6 0 11 -228856 -260097 -261682 0 1;
#X obj 368 385 cnv 12 30 12 empty empty Pulsbreite 0 7 0 11 -66577
-261682 0;
#X obj 210 208 nbx 4 14 0 500 0 0 xxxx knob_wave_level_\$1 empty 0
-8 0 11 -54094 -260097 -260097 1 256;
#X obj 269 208 nbx 4 14 -1e+037 1e+037 0 0 yyyyyyyyy knob_noise_level_\$1
empty 0 -8 0 11 -54094 -260097 -260097 0 256;
#X obj 339 208 nbx 5 14 -1e+037 1e+037 0 0 zzzzz knob_noise_lp_\$1
empty 0 -8 0 11 -54094 -260097 -260097 12000 256;
#X obj 407 208 nbx 5 14 -1e+037 1e+037 0 0 ccccc knob_noise_hp_\$1
empty 0 -8 0 11 -54094 -260097 -260097 0 256;
#X obj 125 208 nbx 4 14 -1e+037 1e+037 0 0 yyyyyyyyy knob_vol_\$1 empty
0 -8 0 11 -54094 -260097 -260097 1 256;
#X obj 131 168 knob 35 35 0 1 0 0 knob_vol_\$1 knob_vol_\$1_in empty
0 -8 0 11 -228856 -260097 -261682 3400 1;
#X obj 129 150 cnv 12 30 12 empty empty Pad-\$1 0 7 0 11 -66577 -261682
0;
#X obj 360 445 nbx 4 14 -1e+037 1e+037 0 0 empty knob_pulse_VCO_\$1
empty 0 -8 0 11 -54094 -260097 -260097 0 256;
#X obj 418 445 nbx 4 14 -1e+037 1e+037 0 0 empty knob_pulse_LFO_\$1
empty 0 -8 0 11 -54094 -260097 -260097 0 256;
#X obj 175 235 cnv 12 30 12 empty empty Hüllkurve 0 7 0 11 -66577
-260097 0;
#N canvas 83 42 753 300 saveloadsounds 0;
#N canvas 0 0 1280 718 savesound 0;
#X obj -4 11 r knob_vol_\$1;
#X obj 94 11 r knob_wave_level_\$1;
#X obj 230 11 r knob_noise_level_\$1;
#X obj 381 11 r knob_noise_lp_\$1;
#X obj 514 11 r knob_noise_hp_\$1;
#X obj 638 11 r knob_levenv_attack_\$1;
#X obj 792 11 r knob_levenv_decay_\$1;
#X obj 951 11 r knob_levenv_sustain_\$1;
#X obj 1117 11 r knob_levenv_release_\$1;
#X obj 1287 9 r knob_reverb_\$1;
#X obj 1409 9 r knob_am_freq_\$1;
#X obj 1536 9 r knob_am_int_\$1;
#X obj 1660 9 r knob_lfo_freq_\$1;
#X obj 1786 9 r knob_lfo_int_\$1;
#X obj 1918 9 r knob_pitenv_time2_\$1_in;
#X obj 2099 9 r knob_pitenv_freq1_\$1_in;
#X obj 2290 9 r knob_pitenv_freq2_\$1_in;
#X obj 2478 10 r waveform_VCO_\$1;
#X obj 2620 10 r waveform_LFO_\$1;
#X obj 2763 10 r knob_pulse_VCO_\$1;
#X obj 2911 10 r knob_pulse_LFO_\$1;
#X obj 3053 10 r knob_vcf_cut_\$1;
#X obj 3180 10 r knob_vcf_q_\$1;
#X obj 113 352 f;
#X obj 123 362 f;
#X obj 133 372 f;
#X obj 143 382 f;
#X obj 153 392 f;
#X obj 163 402 f;
#X obj 173 412 f;
#X obj 183 422 f;
#X obj 193 432 f;
#X obj 203 442 f;
#X obj 213 452 f;
#X obj 223 462 f;
#X obj 233 472 f;
#X obj 243 482 f;
#X obj 253 492 f;
#X obj 263 502 f;
#X obj 273 512 f;
#X obj 283 522 f;
#X obj 293 532 f;
#X obj 303 542 f;
#X obj 313 552 f;
#X obj 323 562 f;
#X obj 333 572 f;
#X obj 431 655 list-lastx;
#X obj 549 130 bng 15 250 50 0 empty DRUMBO_save_sound empty 17 7 0
10 -262144 -1 -1;
#X obj 489 606 bng 15 250 50 0 empty empty empty 17 7 0 10 -262144
-1 -1;
#X obj 113 589 f;
#X obj 431 685 s JerrySound\$1;
#X obj 562 674 t b;
#X obj 673 669 s Jerry_BANGSaveAllSounds\$1;
#X msg 488 628 24;
#X obj 113 251 t b b b b b b b b b b b b b b b b b b b b b b b b;
#X obj 3238 57 r knob_waveshape_\$1;
#X obj 343 579 f;
#X connect 0 0 23 1;
#X connect 1 0 24 1;
#X connect 2 0 25 1;
#X connect 3 0 26 1;
#X connect 4 0 27 1;
#X connect 5 0 28 1;
#X connect 6 0 29 1;
#X connect 7 0 30 1;
#X connect 8 0 31 1;
#X connect 9 0 32 1;
#X connect 10 0 33 1;
#X connect 11 0 34 1;
#X connect 12 0 35 1;
#X connect 13 0 36 1;
#X connect 14 0 37 1;
#X connect 15 0 38 1;
#X connect 16 0 39 1;
#X connect 17 0 40 1;
#X connect 18 0 41 1;
#X connect 19 0 42 1;
#X connect 20 0 43 1;
#X connect 21 0 44 1;
#X connect 22 0 45 1;
#X connect 23 0 49 0;
#X connect 24 0 49 0;
#X connect 25 0 49 0;
#X connect 26 0 49 0;
#X connect 27 0 49 0;
#X connect 28 0 49 0;
#X connect 29 0 49 0;
#X connect 30 0 49 0;
#X connect 31 0 49 0;
#X connect 32 0 49 0;
#X connect 33 0 49 0;
#X connect 34 0 49 0;
#X connect 35 0 49 0;
#X connect 36 0 49 0;
#X connect 37 0 49 0;
#X connect 38 0 49 0;
#X connect 39 0 49 0;
#X connect 40 0 49 0;
#X connect 41 0 49 0;
#X connect 42 0 49 0;
#X connect 43 0 49 0;
#X connect 44 0 49 0;
#X connect 45 0 49 0;
#X connect 46 0 50 0;
#X connect 46 0 51 0;
#X connect 47 0 48 0;
#X connect 47 0 54 0;
#X connect 48 0 53 0;
#X connect 49 0 46 0;
#X connect 51 0 52 0;
#X connect 53 0 46 1;
#X connect 54 0 23 0;
#X connect 54 1 24 0;
#X connect 54 2 25 0;
#X connect 54 3 26 0;
#X connect 54 4 27 0;
#X connect 54 5 28 0;
#X connect 54 6 29 0;
#X connect 54 7 30 0;
#X connect 54 8 31 0;
#X connect 54 9 32 0;
#X connect 54 10 33 0;
#X connect 54 11 34 0;
#X connect 54 12 35 0;
#X connect 54 13 36 0;
#X connect 54 14 37 0;
#X connect 54 15 38 0;
#X connect 54 16 39 0;
#X connect 54 17 40 0;
#X connect 54 18 41 0;
#X connect 54 19 42 0;
#X connect 54 20 43 0;
#X connect 54 21 44 0;
#X connect 54 22 45 0;
#X connect 54 23 56 0;
#X connect 55 0 56 1;
#X connect 56 0 49 0;
#X restore 42 28 pd savesound;
#N canvas 0 0 1280 718 loadsound 0;
#X obj 410 17 zl nth;
#X obj 616 -65 f;
#X obj 654 -65 + 1;
#X obj 616 -88 until;
#X obj 403 76 pack;
#X obj 453 -126 del 1;
#X obj 410 -36 list;
#X floatatom 616 -41 5 0 0 0 - - -;
#X msg 713 -82 1;
#X obj 520 -25 t f b f;
#X obj 410 -192 del 5;
#X obj -75 284 s knob_vol_\$1_in;
#X obj 30 285 s knob_wave_level_\$1_in;
#X obj 179 285 s knob_noise_level_\$1_in;
#X obj 332 285 s knob_noise_lp_\$1_in;
#X obj 469 285 s knob_noise_hp_\$1_in;
#X obj 603 285 s knob_levenv_attack_\$1_in;
#X obj -24 334 s knob_levenv_decay_\$1_in;
#X obj 133 332 s knob_levenv_sustain_\$1_in;
#X obj 302 332 s knob_levenv_release_\$1_in;
#X obj 476 332 s knob_reverb_\$1_in;
#X obj 599 332 s knob_am_freq_\$1_in;
#X obj 726 332 s knob_am_int_\$1_in;
#X obj 850 332 s knob_lfo_freq_\$1_in;
#X obj 32 387 s knob_lfo_int_\$1_in;
#X obj 157 387 s knob_pitenv_time2_\$1_in;
#X obj 317 386 s knob_pitenv_freq1_\$1_in;
#X obj 475 386 s knob_pitenv_freq2_\$1_in;
#X obj 635 385 s waveform_VCO_\$1_in;
#X obj 768 386 s waveform_LFO_\$1_in;
#X obj 901 389 s knob_pulse_VCO_\$1_in;
#X obj 1047 387 s knob_pulse_LFO_\$1_in;
#X obj 1199 389 s knob_vcf_cut_\$1_in;
#X obj 1336 389 s knob_vcf_q_\$1_in;
#X obj 431 -243 r JerryLoadListSound\$1;
#X obj 410 -215 bng 15 250 50 0 empty empty empty 17 7 0 10 -262144
-1 -1;
#X obj 410 -165 bng 15 250 50 0 empty empty empty 17 7 0 10 -262144
-1 -1;
#X msg 616 -109 24;
#X obj 361 161 route 1 2 3 4 5 6 7 8 9 10 11 12 13 14 15 16 17 18 19
20 21 22 23 24;
#X obj 1345 339 s knob_waveshape_\$1_in;
#X connect 0 0 4 1;
#X connect 1 0 2 0;
#X connect 1 0 7 0;
#X connect 2 0 1 1;
#X connect 3 0 1 0;
#X connect 4 0 38 0;
#X connect 5 0 37 0;
#X connect 6 0 0 0;
#X connect 7 0 9 0;
#X connect 8 0 1 1;
#X connect 9 0 4 0;
#X connect 9 1 6 0;
#X connect 9 2 0 1;
#X connect 10 0 36 0;
#X connect 34 0 6 1;
#X connect 34 0 35 0;
#X connect 35 0 10 0;
#X connect 36 0 5 0;
#X connect 36 0 8 0;
#X connect 37 0 3 0;
#X connect 38 0 11 0;
#X connect 38 1 12 0;
#X connect 38 2 13 0;
#X connect 38 3 14 0;
#X connect 38 4 15 0;
#X connect 38 5 16 0;
#X connect 38 6 17 0;
#X connect 38 7 18 0;
#X connect 38 8 19 0;
#X connect 38 9 20 0;
#X connect 38 10 21 0;
#X connect 38 11 22 0;
#X connect 38 12 23 0;
#X connect 38 13 24 0;
#X connect 38 14 25 0;
#X connect 38 15 26 0;
#X connect 38 16 27 0;
#X connect 38 17 28 0;
#X connect 38 18 29 0;
#X connect 38 19 30 0;
#X connect 38 20 31 0;
#X connect 38 21 32 0;
#X connect 38 22 33 0;
#X connect 38 23 39 0;
#X restore 384 26 pd loadsound;
#X restore 106 68 pd saveloadsounds;
#X obj 352 574 cnv 15 120 100 empty empty Waveshaping 10 10 0 11 -66577
-260097 0;
#X obj 383 613 knob 35 35 0 127 0 0 knob_waveshape_\$1 knob_waveshape_\$1_in
empty 0 -8 0 11 -262144 -260097 -261682 0 1;
#X obj 377 654 nbx 4 14 -1e+037 1e+037 0 0 empty show_waveshape-int-gui_\$1
empty 0 -8 0 11 -54094 -260097 -260097 0 256;
#X obj 381 595 cnv 12 30 12 empty empty Intensität 0 7 0 11 -66577
-261682 0;
#X obj 249 235 bng 12 250 50 0 what-Ptich what-Ptich_ctl ? 15 6 0 10
-2097 -260097 -260097;
#X obj 216 369 bng 12 250 50 0 what-ADSR what-ADSR_ctl ? 15 6 0 10
-2097 -260097 -260097;
#X obj 321 473 bng 12 250 50 0 what-FM what-FM_ctl ? 15 6 0 10 -2097
-260097 -260097;
#X obj 201 473 bng 12 250 50 0 what-AM what-AM_ctl ? 15 6 0 10 -2097
-260097 -260097;
#X obj 451 579 bng 12 250 50 0 what-Waveshape what-Waveshape_ctl ?
15 6 0 10 -2097 -260097 -260097;
#X obj 430 236 bng 12 250 50 0 what-Signalformen what-Signalformen_ctl
? 15 6 0 10 -2097 -260097 -260097;
#X obj 432 133 bng 12 250 50 0 what-Rauschen what-Rauschen_ctl ? 15
6 0 10 -2097 -260097 -260097;
#X obj 170 578 bng 12 250 50 0 what-Reverb what-Reverb_ctl ? 15 6 0
10 -2097 -260097 -260097;
#X obj 298 133 bng 12 250 50 0 what-Signalformen what-Signalformen_ctl
? 15 6 0 10 -2097 -260097 -260097;
#X obj 234 385 cnv 12 30 12 empty empty S 0 7 0 11 -66577 -261682 0
;
#X obj 265 578 bng 12 250 50 0 what-VCF what-VCF_ctl ? 16 6 0 10 -2097
-260097 -260097;
#X connect 0 0 1 0;
#X connect 1 0 2 0;
#X coords 0 -1 1 1 376 600 1 100 100;
