#N canvas 1099 302 604 533 10;
#X obj -2267 -25 inlet;
#X obj -2301 195 s channel\$1_on;
#X obj -2301 168 tgl 15 0 empty empty empty 17 7 0 10 -262144 -1 -1
1 1;
#X msg -2322 135 0;
#X msg -2267 134 1;
#X obj -2322 376 f;
#X msg -2440 192 0;
#X obj -2337 400 f;
#X text -2207 416 Bei Deaktiverung des Drumpads wird der Volume-Wert
auf 0 gesetz. Bei Reaktivierung wird der vorherige Wert wiederhergestellt.
;
#X obj -2440 226 s knob_vol_\$1_in;
#X obj -2307 353 r knob_vol_\$1;
#X obj -2337 447 s knob_vol_\$1_in;
#X obj -2440 270 r control_mode;
#X obj -2441 315 select 0;
#X obj -2267 -2 > 0;
#X obj -2267 21 sel 1;
#X obj -2267 41 bng 15 250 50 0 empty empty empty 17 7 0 10 -262144
-1 -1;
#X obj -2267 106 bng 15 250 50 0 empty empty empty 17 7 0 10 -262144
-1 -1;
#X obj -2322 106 bng 15 250 50 0 empty empty empty 17 7 0 10 -262144
-1 -1;
#X obj -2268 297 loadbang;
#X floatatom -2294 378 5 0 0 0 - - -;
#X floatatom -2308 399 5 0 0 0 - - -;
#X obj -2396 339 bng 15 250 50 0 empty empty empty 17 7 0 10 -262144
-1 -1;
#X obj -2441 353 bng 15 250 50 0 empty empty empty 17 7 0 10 -262144
-1 -1;
#X obj -2192 -20 loadbang;
#X obj -2337 351 bng 15 250 50 0 empty empty empty 17 7 0 10 -262144
-1 -1;
#X obj -2322 330 bng 15 250 50 0 empty empty empty 17 7 0 10 -262144
-1 -1;
#X obj -2440 171 del 1;
#X obj -2300 71 gate 2;
#X floatatom -2320 20 5 0 0 0 - - -;
#X obj -2408 72 invert;
#X obj -2320 41 + 1;
#X msg -2320 -3 0;
#X msg -2246 166 1;
#X obj -2268 323 del 5;
#X obj -2441 291 change;
#X connect 0 0 14 0;
#X connect 2 0 1 0;
#X connect 3 0 2 0;
#X connect 3 0 26 0;
#X connect 3 0 27 0;
#X connect 3 0 30 0;
#X connect 4 0 2 0;
#X connect 4 0 25 0;
#X connect 4 0 30 0;
#X connect 5 0 7 1;
#X connect 5 0 21 0;
#X connect 6 0 9 0;
#X connect 7 0 11 0;
#X connect 10 0 5 1;
#X connect 10 0 20 0;
#X connect 12 0 35 0;
#X connect 13 0 23 0;
#X connect 13 1 22 0;
#X connect 14 0 15 0;
#X connect 15 0 16 0;
#X connect 16 0 28 1;
#X connect 17 0 4 0;
#X connect 18 0 3 0;
#X connect 19 0 34 0;
#X connect 22 0 5 0;
#X connect 23 0 33 0;
#X connect 23 0 7 0;
#X connect 24 0 2 0;
#X connect 24 0 32 0;
#X connect 25 0 7 0;
#X connect 26 0 5 0;
#X connect 27 0 6 0;
#X connect 28 0 18 0;
#X connect 28 1 17 0;
#X connect 29 0 31 0;
#X connect 30 0 29 0;
#X connect 31 0 28 0;
#X connect 32 0 29 0;
#X connect 33 0 2 0;
#X connect 34 0 5 0;
#X connect 35 0 13 0;
