#N canvas 375 191 680 483 10;
#X obj 100 100 cnv 20 520 258 empty empty empty 20 12 0 14 -66577 -66577
0;
#X obj 227 238 tgl 20 0 \$1togl1-1s \$1togl1-1r empty 17 7 0 10 -162280
-33289 -262144 1 1;
#X obj 227 261 tgl 20 0 \$1togl1-2s \$1togl1-2r empty 17 7 0 10 -162280
-1 -262144 1 1;
#X obj 227 284 tgl 20 0 \$1togl1-3s \$1togl1-3r empty 17 7 0 10 -162280
-1 -262144 1 1;
#X obj 227 307 tgl 20 0 \$1togl1-4s \$1togl1-4r empty 17 7 0 10 -162280
-1 -262144 1 1;
#X obj 227 139 tgl 20 0 \$1togl1-5s \$1togl1-5r empty 17 7 0 10 -162280
-1 -262144 1 1;
#X obj 227 162 tgl 20 0 \$1togl1-6s \$1togl1-6r empty 17 7 0 10 -162280
-1 -262144 1 1;
#X obj 227 185 tgl 20 0 \$1togl1-7s \$1togl1-7r empty 17 7 0 10 -162280
-1 -262144 1 1;
#X obj 227 208 tgl 20 0 \$1togl1-8s \$1togl1-8r empty 17 7 0 10 -162280
-1 -262144 1 1;
#X obj 250 238 tgl 20 0 \$1togl2-1s \$1togl2-1r empty 17 7 0 10 -162280
-1 -262144 1 1;
#X obj 250 261 tgl 20 0 \$1togl2-2s \$1togl2-2r empty 17 7 0 10 -162280
-1 -262144 1 1;
#X obj 250 284 tgl 20 0 \$1togl2-3s \$1togl2-3r empty 17 7 0 10 -162280
-1 -262144 1 1;
#X obj 250 307 tgl 20 0 \$1togl2-4s \$1togl2-4r empty 17 7 0 10 -162280
-1 -262144 1 1;
#X obj 250 139 tgl 20 0 \$1togl2-5s \$1togl2-5r empty 17 7 0 10 -162280
-1 -262144 1 1;
#X obj 250 162 tgl 20 0 \$1togl2-6s \$1togl2-6r empty 17 7 0 10 -162280
-1 -262144 1 1;
#X obj 250 185 tgl 20 0 \$1togl2-7s \$1togl2-7r empty 17 7 0 10 -162280
-1 -262144 1 1;
#X obj 250 208 tgl 20 0 \$1togl2-8s \$1togl2-8r empty 17 7 0 10 -162280
-1 -262144 1 1;
#X obj 273 238 tgl 20 0 \$1togl3-1s \$1togl3-1r empty 17 7 0 10 -162280
-1 -262144 1 1;
#X obj 273 261 tgl 20 0 \$1togl3-2s \$1togl3-2r empty 17 7 0 10 -162280
-1 -262144 1 1;
#X obj 273 284 tgl 20 0 \$1togl3-3s \$1togl3-3r empty 17 7 0 10 -162280
-1 -262144 1 1;
#X obj 273 307 tgl 20 0 \$1togl3-4s \$1togl3-4r empty 17 7 0 10 -162280
-1 -262144 1 1;
#X obj 273 139 tgl 20 0 \$1togl3-5s \$1togl3-5r empty 17 7 0 10 -162280
-1 -262144 1 1;
#X obj 273 162 tgl 20 0 \$1togl3-6s \$1togl3-6r empty 17 7 0 10 -162280
-1 -262144 1 1;
#X obj 273 185 tgl 20 0 \$1togl3-7s \$1togl3-7r empty 17 7 0 10 -162280
-1 -262144 1 1;
#X obj 273 208 tgl 20 0 \$1togl3-8s \$1togl3-8r empty 17 7 0 10 -162280
-1 -262144 1 1;
#X obj 296 238 tgl 20 0 \$1togl4-1s \$1togl4-1r empty 17 7 0 10 -162280
-1 -262144 1 1;
#X obj 296 261 tgl 20 0 \$1togl4-2s \$1togl4-2r empty 17 7 0 10 -162280
-1 -262144 1 1;
#X obj 296 284 tgl 20 0 \$1togl4-3s \$1togl4-3r empty 17 7 0 10 -162280
-1 -262144 1 1;
#X obj 296 307 tgl 20 0 \$1togl4-4s \$1togl4-4r empty 17 7 0 10 -162280
-1 -262144 1 1;
#X obj 296 139 tgl 20 0 \$1togl4-5s \$1togl4-5r empty 17 7 0 10 -162280
-1 -262144 1 1;
#X obj 296 162 tgl 20 0 \$1togl4-6s \$1togl4-6r empty 17 7 0 10 -162280
-1 -262144 1 1;
#X obj 296 185 tgl 20 0 \$1togl4-7s \$1togl4-7r empty 17 7 0 10 -162280
-1 -262144 1 1;
#X obj 296 208 tgl 20 0 \$1togl4-8s \$1togl4-8r empty 17 7 0 10 -162280
-1 -262144 1 1;
#X obj 325 238 tgl 20 0 \$1togl5-1s \$1togl5-1r empty 17 7 0 10 -162280
-1 -262144 1 1;
#X obj 325 261 tgl 20 0 \$1togl5-2s \$1togl5-2r empty 17 7 0 10 -162280
-1 -262144 1 1;
#X obj 325 284 tgl 20 0 \$1togl5-3s \$1togl5-3r empty 17 7 0 10 -162280
-1 -262144 1 1;
#X obj 325 307 tgl 20 0 \$1togl5-4s \$1togl5-4r empty 17 7 0 10 -162280
-1 -262144 1 1;
#X obj 325 139 tgl 20 0 \$1togl5-5s \$1togl5-5r empty 17 7 0 10 -162280
-1 -262144 1 1;
#X obj 325 162 tgl 20 0 \$1togl5-6s \$1togl5-6r empty 17 7 0 10 -162280
-1 -262144 1 1;
#X obj 325 185 tgl 20 0 \$1togl5-7s \$1togl5-7r empty 17 7 0 10 -162280
-1 -262144 1 1;
#X obj 325 208 tgl 20 0 \$1togl5-8s \$1togl5-8r empty 17 7 0 10 -162280
-1 -262144 1 1;
#X obj 348 238 tgl 20 0 \$1togl6-1s \$1togl6-1r empty 17 7 0 10 -162280
-1 -262144 1 1;
#X obj 348 261 tgl 20 0 \$1togl6-2s \$1togl6-2r empty 17 7 0 10 -162280
-1 -262144 1 1;
#X obj 348 284 tgl 20 0 \$1togl6-3s \$1togl6-3r empty 17 7 0 10 -162280
-1 -262144 1 1;
#X obj 348 307 tgl 20 0 \$1togl6-4s \$1togl6-4r empty 17 7 0 10 -162280
-1 -262144 1 1;
#X obj 348 139 tgl 20 0 \$1togl6-5s \$1togl6-5r empty 17 7 0 10 -162280
-1 -262144 1 1;
#X obj 348 162 tgl 20 0 \$1togl6-6s \$1togl6-6r empty 17 7 0 10 -162280
-1 -262144 1 1;
#X obj 348 185 tgl 20 0 \$1togl6-7s \$1togl6-7r empty 17 7 0 10 -162280
-1 -262144 1 1;
#X obj 348 208 tgl 20 0 \$1togl6-8s \$1togl6-8r empty 17 7 0 10 -162280
-1 -262144 1 1;
#X obj 371 238 tgl 20 0 \$1togl7-1s \$1togl7-1r empty 17 7 0 10 -162280
-1 -262144 1 1;
#X obj 371 261 tgl 20 0 \$1togl7-2s \$1togl7-2r empty 17 7 0 10 -162280
-1 -262144 1 1;
#X obj 371 284 tgl 20 0 \$1togl7-3s \$1togl7-3r empty 17 7 0 10 -162280
-1 -262144 1 1;
#X obj 371 307 tgl 20 0 \$1togl7-4s \$1togl7-4r empty 17 7 0 10 -162280
-1 -262144 1 1;
#X obj 371 139 tgl 20 0 \$1togl7-5s \$1togl7-5r empty 17 7 0 10 -162280
-1 -262144 1 1;
#X obj 371 162 tgl 20 0 \$1togl7-6s \$1togl7-6r empty 17 7 0 10 -162280
-1 -262144 1 1;
#X obj 371 185 tgl 20 0 \$1togl7-7s \$1togl7-7r empty 17 7 0 10 -162280
-1 -262144 1 1;
#X obj 371 208 tgl 20 0 \$1togl7-8s \$1togl7-8r empty 17 7 0 10 -162280
-1 -262144 1 1;
#X obj 394 238 tgl 20 0 \$1togl8-1s \$1togl8-1r empty 17 7 0 10 -162280
-1 -262144 1 1;
#X obj 394 261 tgl 20 0 \$1togl8-2s \$1togl8-2r empty 17 7 0 10 -162280
-1 -262144 1 1;
#X obj 394 284 tgl 20 0 \$1togl8-3s \$1togl8-3r empty 17 7 0 10 -162280
-1 -262144 1 1;
#X obj 394 307 tgl 20 0 \$1togl8-4s \$1togl8-4r empty 17 7 0 10 -162280
-1 -262144 1 1;
#X obj 394 139 tgl 20 0 \$1togl8-5s \$1togl8-5r empty 17 7 0 10 -162280
-1 -262144 1 1;
#X obj 394 162 tgl 20 0 \$1togl8-6s \$1togl8-6r empty 17 7 0 10 -162280
-1 -262144 1 1;
#X obj 394 185 tgl 20 0 \$1togl8-7s \$1togl8-7r empty 17 7 0 10 -162280
-1 -262144 1 1;
#X obj 394 208 tgl 20 0 \$1togl8-8s \$1togl8-8r empty 17 7 0 10 -162280
-1 -262144 1 1;
#X obj 423 238 tgl 20 0 \$1togl9-1s \$1togl9-1r empty 17 7 0 10 -162280
-1 -262144 1 1;
#X obj 423 261 tgl 20 0 \$1togl9-2s \$1togl9-2r empty 17 7 0 10 -162280
-1 -262144 1 1;
#X obj 423 284 tgl 20 0 \$1togl9-3s \$1togl9-3r empty 17 7 0 10 -162280
-1 -262144 1 1;
#X obj 423 307 tgl 20 0 \$1togl9-4s \$1togl9-4r empty 17 7 0 10 -162280
-1 -262144 1 1;
#X obj 423 139 tgl 20 0 \$1togl9-5s \$1togl9-5r empty 17 7 0 10 -162280
-1 -262144 1 1;
#X obj 423 162 tgl 20 0 \$1togl9-6s \$1togl9-6r empty 17 7 0 10 -162280
-1 -262144 1 1;
#X obj 423 185 tgl 20 0 \$1togl9-7s \$1togl9-7r empty 17 7 0 10 -162280
-1 -262144 1 1;
#X obj 423 208 tgl 20 0 \$1togl9-8s \$1togl9-8r empty 17 7 0 10 -162280
-1 -262144 1 1;
#X obj 446 238 tgl 20 0 \$1togl10-1s \$1togl10-1r empty 17 7 0 10 -162280
-1 -262144 1 1;
#X obj 446 261 tgl 20 0 \$1togl10-2s \$1togl10-2r empty 17 7 0 10 -162280
-1 -262144 1 1;
#X obj 446 284 tgl 20 0 \$1togl10-3s \$1togl10-3r empty 17 7 0 10 -162280
-1 -262144 1 1;
#X obj 446 307 tgl 20 0 \$1togl10-4s \$1togl10-4r empty 17 7 0 10 -162280
-1 -262144 1 1;
#X obj 446 139 tgl 20 0 \$1togl10-5s \$1togl10-5r empty 17 7 0 10 -162280
-1 -262144 1 1;
#X obj 446 162 tgl 20 0 \$1togl10-6s \$1togl10-6r empty 17 7 0 10 -162280
-1 -262144 1 1;
#X obj 446 185 tgl 20 0 \$1togl10-7s \$1togl10-7r empty 17 7 0 10 -162280
-1 -262144 1 1;
#X obj 446 208 tgl 20 0 \$1togl10-8s \$1togl10-8r empty 17 7 0 10 -162280
-1 -262144 1 1;
#X obj 469 238 tgl 20 0 \$1togl11-1s \$1togl11-1r empty 17 7 0 10 -162280
-1 -262144 1 1;
#X obj 469 261 tgl 20 0 \$1togl11-2s \$1togl11-2r empty 17 7 0 10 -162280
-1 -262144 1 1;
#X obj 469 284 tgl 20 0 \$1togl11-3s \$1togl11-3r empty 17 7 0 10 -162280
-1 -262144 1 1;
#X obj 469 307 tgl 20 0 \$1togl11-4s \$1togl11-4r empty 17 7 0 10 -162280
-1 -262144 1 1;
#X obj 469 139 tgl 20 0 \$1togl11-5s \$1togl11-5r empty 17 7 0 10 -162280
-1 -262144 1 1;
#X obj 469 162 tgl 20 0 \$1togl11-6s \$1togl11-6r empty 17 7 0 10 -162280
-1 -262144 1 1;
#X obj 469 185 tgl 20 0 \$1togl11-7s \$1togl11-7r empty 17 7 0 10 -162280
-1 -262144 1 1;
#X obj 469 208 tgl 20 0 \$1togl11-8s \$1togl11-8r empty 17 7 0 10 -162280
-1 -262144 1 1;
#X obj 492 238 tgl 20 0 \$1togl12-1s \$1togl12-1r empty 17 7 0 10 -162280
-1 -262144 1 1;
#X obj 492 261 tgl 20 0 \$1togl12-2s \$1togl12-2r empty 17 7 0 10 -162280
-1 -262144 1 1;
#X obj 492 284 tgl 20 0 \$1togl12-3s \$1togl12-3r empty 17 7 0 10 -162280
-1 -262144 1 1;
#X obj 492 307 tgl 20 0 \$1togl12-4s \$1togl12-4r empty 17 7 0 10 -162280
-1 -262144 1 1;
#X obj 492 139 tgl 20 0 \$1togl12-5s \$1togl12-5r empty 17 7 0 10 -162280
-1 -262144 1 1;
#X obj 492 162 tgl 20 0 \$1togl12-6s \$1togl12-6r empty 17 7 0 10 -162280
-1 -262144 1 1;
#X obj 492 185 tgl 20 0 \$1togl12-7s \$1togl12-7r empty 17 7 0 10 -162280
-1 -262144 1 1;
#X obj 492 208 tgl 20 0 \$1togl12-8s \$1togl12-8r empty 17 7 0 10 -162280
-1 -262144 1 1;
#X obj 521 238 tgl 20 0 \$1togl13-1s \$1togl13-1r empty 17 7 0 10 -162280
-1 -262144 1 1;
#X obj 521 261 tgl 20 0 \$1togl13-2s \$1togl13-2r empty 17 7 0 10 -162280
-1 -262144 1 1;
#X obj 521 284 tgl 20 0 \$1togl13-3s \$1togl13-3r empty 17 7 0 10 -162280
-1 -262144 1 1;
#X obj 521 307 tgl 20 0 \$1togl13-4s \$1togl13-4r empty 17 7 0 10 -162280
-1 -262144 1 1;
#X obj 521 139 tgl 20 0 \$1togl13-5s \$1togl13-5r empty 17 7 0 10 -162280
-1 -262144 1 1;
#X obj 521 162 tgl 20 0 \$1togl13-6s \$1togl13-6r empty 17 7 0 10 -162280
-1 -262144 1 1;
#X obj 521 185 tgl 20 0 \$1togl13-7s \$1togl13-7r empty 17 7 0 10 -162280
-1 -262144 1 1;
#X obj 521 208 tgl 20 0 \$1togl13-8s \$1togl13-8r empty 17 7 0 10 -162280
-1 -262144 1 1;
#X obj 544 238 tgl 20 0 \$1togl14-1s \$1togl14-1r empty 17 7 0 10 -162280
-1 -262144 1 1;
#X obj 544 261 tgl 20 0 \$1togl14-2s \$1togl14-2r empty 17 7 0 10 -162280
-1 -262144 1 1;
#X obj 544 284 tgl 20 0 \$1togl14-3s \$1togl14-3r empty 17 7 0 10 -162280
-1 -262144 1 1;
#X obj 544 307 tgl 20 0 \$1togl14-4s \$1togl14-4r empty 17 7 0 10 -162280
-1 -262144 1 1;
#X obj 544 139 tgl 20 0 \$1togl14-5s \$1togl14-5r empty 17 7 0 10 -162280
-1 -262144 1 1;
#X obj 544 162 tgl 20 0 \$1togl14-6s \$1togl14-6r empty 17 7 0 10 -162280
-1 -262144 1 1;
#X obj 544 185 tgl 20 0 \$1togl14-7s \$1togl14-7r empty 17 7 0 10 -162280
-1 -262144 1 1;
#X obj 544 208 tgl 20 0 \$1togl14-8s \$1togl14-8r empty 17 7 0 10 -162280
-1 -262144 1 1;
#X obj 567 238 tgl 20 0 \$1togl15-1s \$1togl15-1r empty 17 7 0 10 -162280
-1 -262144 1 1;
#X obj 567 261 tgl 20 0 \$1togl15-2s \$1togl15-2r empty 17 7 0 10 -162280
-1 -262144 1 1;
#X obj 567 284 tgl 20 0 \$1togl15-3s \$1togl15-3r empty 17 7 0 10 -162280
-1 -262144 1 1;
#X obj 567 307 tgl 20 0 \$1togl15-4s \$1togl15-4r empty 17 7 0 10 -162280
-1 -262144 1 1;
#X obj 567 139 tgl 20 0 \$1togl15-5s \$1togl15-5r empty 17 7 0 10 -162280
-1 -262144 1 1;
#X obj 567 162 tgl 20 0 \$1togl15-6s \$1togl15-6r empty 17 7 0 10 -162280
-1 -262144 1 1;
#X obj 567 185 tgl 20 0 \$1togl15-7s \$1togl15-7r empty 17 7 0 10 -162280
-1 -262144 1 1;
#X obj 567 208 tgl 20 0 \$1togl15-8s \$1togl15-8r empty 17 7 0 10 -162280
-1 -262144 1 1;
#X obj 590 238 tgl 20 0 \$1togl16-1s \$1togl16-1r empty 17 7 0 10 -162280
-1 -262144 1 1;
#X obj 590 261 tgl 20 0 \$1togl16-2s \$1togl16-2r empty 17 7 0 10 -162280
-1 -262144 1 1;
#X obj 590 284 tgl 20 0 \$1togl16-3s \$1togl16-3r empty 17 7 0 10 -162280
-1 -262144 1 1;
#X obj 590 307 tgl 20 0 \$1togl16-4s \$1togl16-4r empty 17 7 0 10 -162280
-1 -262144 1 1;
#X obj 590 139 tgl 20 0 \$1togl16-5s \$1togl16-5r empty 17 7 0 10 -162280
-1 -262144 1 1;
#X obj 590 162 tgl 20 0 \$1togl16-6s \$1togl16-6r empty 17 7 0 10 -162280
-1 -262144 1 1;
#X obj 590 185 tgl 20 0 \$1togl16-7s \$1togl16-7r empty 17 7 0 10 -162280
-1 -262144 1 1;
#X obj 590 208 tgl 20 0 \$1togl16-8s \$1togl16-8r empty 17 7 0 10 -162280
-1 -262144 1 1;
#X obj 227 109 hradio 24 1 0 16 empty radiogaga empty 0 -8 0 10 -54094
-260097 -258113 3;
#X obj 160 110 bng 16 250 50 0 \$1clearseq empty clear 22 9 0 11 -208961
-260097 -260097;
#X obj 105 108 cnv 18 40 22 empty empty Clip-\$1 5 10 0 11 -66577 -261682
0;
#X obj 105 139 cnv 15 55 22 empty empty Pad-5 5 10 0 11 -66577 -260097
0;
#X obj 105 162 cnv 15 55 22 empty empty Pad-6 5 10 0 11 -66577 -260097
0;
#X obj 105 186 cnv 15 55 22 empty empty Pad-7 5 10 0 11 -66577 -260097
0;
#X obj 105 209 cnv 15 55 22 empty empty Pad-8 5 10 0 11 -66577 -260097
0;
#X obj 105 238 cnv 15 55 22 empty empty Pad-1 5 10 0 11 -66577 -260097
0;
#X obj 105 261 cnv 15 55 22 empty empty Pad-2 5 10 0 11 -66577 -260097
0;
#X obj 105 284 cnv 15 55 22 empty empty Pad-3 5 10 0 11 -66577 -260097
0;
#X obj 105 307 cnv 15 55 22 empty empty Pad-4 5 10 0 11 -66577 -260097
0;
#N canvas 494 175 229 103 saveload 0;
#N canvas 0 1 1280 717 load 0;
#X floatatom 631 197 5 0 0 0 - - #1togl1-5r;
#X floatatom 664 197 5 0 0 0 - - #1togl2-5r;
#X floatatom 697 197 5 0 0 0 - - #1togl3-5r;
#X floatatom 730 197 5 0 0 0 - - #1togl4-5r;
#X floatatom 763 197 5 0 0 0 - - #1togl5-5r;
#X floatatom 796 197 5 0 0 0 - - #1togl6-5r;
#X floatatom 829 197 5 0 0 0 - - #1togl7-5r;
#X floatatom 862 197 5 0 0 0 - - #1togl8-5r;
#X floatatom 895 197 5 0 0 0 - - #1togl9-5r;
#X floatatom 928 197 5 0 0 0 - - #1togl10-5r;
#X floatatom 961 197 5 0 0 0 - - #1togl11-5r;
#X floatatom 994 197 5 0 0 0 - - #1togl12-5r;
#X floatatom 1027 197 5 0 0 0 - - #1togl13-5r;
#X floatatom 1060 197 5 0 0 0 - - #1togl14-5r;
#X floatatom 1093 197 5 0 0 0 - - #1togl15-5r;
#X floatatom 1126 197 5 0 0 0 - - #1togl16-5r;
#X obj 905 -10 zl nth;
#X obj 1111 -92 f;
#X obj 1149 -92 + 1;
#X obj 1111 -115 until;
#X obj 675 130 route 1 2 3 4 5 6 7 8 9 10 11 12 13 14 15 16;
#X obj 675 51 pack;
#X obj 905 -63 list;
#X floatatom 1111 -68 5 0 0 0 - - -;
#X msg 1208 -109 1;
#X obj 1015 -52 t f b f;
#X floatatom 631 284 5 0 0 0 - - #1togl1-6r;
#X floatatom 664 284 5 0 0 0 - - #1togl2-6r;
#X floatatom 697 284 5 0 0 0 - - #1togl3-6r;
#X floatatom 730 284 5 0 0 0 - - #1togl4-6r;
#X floatatom 763 284 5 0 0 0 - - #1togl5-6r;
#X floatatom 796 284 5 0 0 0 - - #1togl6-6r;
#X floatatom 829 284 5 0 0 0 - - #1togl7-6r;
#X floatatom 862 284 5 0 0 0 - - #1togl8-6r;
#X floatatom 895 284 5 0 0 0 - - #1togl9-6r;
#X floatatom 928 284 5 0 0 0 - - #1togl10-6r;
#X floatatom 961 284 5 0 0 0 - - #1togl11-6r;
#X floatatom 994 284 5 0 0 0 - - #1togl12-6r;
#X floatatom 1027 284 5 0 0 0 - - #1togl13-6r;
#X floatatom 1060 284 5 0 0 0 - - #1togl14-6r;
#X floatatom 1093 284 5 0 0 0 - - #1togl15-6r;
#X floatatom 1126 284 5 0 0 0 - - #1togl16-6r;
#X obj 675 217 route 17 18 19 20 21 22 23 24 25 26 27 28 29 30 31 32
;
#X floatatom 631 400 5 0 0 0 - - #1togl1-7r;
#X floatatom 664 400 5 0 0 0 - - #1togl2-7r;
#X floatatom 697 400 5 0 0 0 - - #1togl3-7r;
#X floatatom 730 400 5 0 0 0 - - #1togl4-7r;
#X floatatom 763 400 5 0 0 0 - - #1togl5-7r;
#X floatatom 796 400 5 0 0 0 - - #1togl6-7r;
#X floatatom 829 400 5 0 0 0 - - #1togl7-7r;
#X floatatom 862 400 5 0 0 0 - - #1togl8-7r;
#X floatatom 895 400 5 0 0 0 - - #1togl9-7r;
#X floatatom 928 400 5 0 0 0 - - #1togl10-7r;
#X floatatom 961 400 5 0 0 0 - - #1togl11-7r;
#X floatatom 994 400 5 0 0 0 - - #1togl12-7r;
#X floatatom 1027 400 5 0 0 0 - - #1togl13-7r;
#X floatatom 1060 400 5 0 0 0 - - #1togl14-7r;
#X floatatom 1093 400 5 0 0 0 - - #1togl15-7r;
#X floatatom 1126 400 5 0 0 0 - - #1togl16-7r;
#X floatatom 631 487 5 0 0 0 - - #1togl1-8r;
#X floatatom 664 487 5 0 0 0 - - #1togl2-8r;
#X floatatom 697 487 5 0 0 0 - - #1togl3-8r;
#X floatatom 730 487 5 0 0 0 - - #1togl4-8r;
#X floatatom 763 487 5 0 0 0 - - #1togl5-8r;
#X floatatom 796 487 5 0 0 0 - - #1togl6-8r;
#X floatatom 829 487 5 0 0 0 - - #1togl7-8r;
#X floatatom 862 487 5 0 0 0 - - #1togl8-8r;
#X floatatom 895 487 5 0 0 0 - - #1togl9-8r;
#X floatatom 928 487 5 0 0 0 - - #1togl10-8r;
#X floatatom 961 487 5 0 0 0 - - #1togl11-8r;
#X floatatom 994 487 5 0 0 0 - - #1togl12-8r;
#X floatatom 1027 487 5 0 0 0 - - #1togl13-8r;
#X floatatom 1060 487 5 0 0 0 - - #1togl14-8r;
#X floatatom 1093 487 5 0 0 0 - - #1togl15-8r;
#X floatatom 1126 487 5 0 0 0 - - #1togl16-8r;
#X obj 675 333 route 33 34 35 36 37 38 39 40 41 42 43 44 45 46 47 48
;
#X floatatom 62 197 5 0 0 0 - - #1togl1-1r;
#X floatatom 95 197 5 0 0 0 - - #1togl2-1r;
#X floatatom 128 197 5 0 0 0 - - #1togl3-1r;
#X floatatom 161 197 5 0 0 0 - - #1togl4-1r;
#X floatatom 194 197 5 0 0 0 - - #1togl5-1r;
#X floatatom 227 197 5 0 0 0 - - #1togl6-1r;
#X floatatom 260 197 5 0 0 0 - - #1togl7-1r;
#X floatatom 293 197 5 0 0 0 - - #1togl8-1r;
#X floatatom 326 197 5 0 0 0 - - #1togl9-1r;
#X floatatom 359 197 5 0 0 0 - - #1togl10-1r;
#X floatatom 392 197 5 0 0 0 - - #1togl11-1r;
#X floatatom 425 197 5 0 0 0 - - #1togl12-1r;
#X floatatom 458 197 5 0 0 0 - - #1togl13-1r;
#X floatatom 491 197 5 0 0 0 - - #1togl14-1r;
#X floatatom 524 197 5 0 0 0 - - #1togl15-1r;
#X floatatom 557 197 5 0 0 0 - - #1togl16-1r;
#X floatatom 62 284 5 0 0 0 - - #1togl1-2r;
#X floatatom 95 284 5 0 0 0 - - #1togl2-2r;
#X floatatom 128 284 5 0 0 0 - - #1togl3-2r;
#X floatatom 161 284 5 0 0 0 - - #1togl4-2r;
#X floatatom 194 284 5 0 0 0 - - #1togl5-2r;
#X floatatom 227 284 5 0 0 0 - - #1togl6-2r;
#X floatatom 260 284 5 0 0 0 - - #1togl7-2r;
#X floatatom 293 284 5 0 0 0 - - #1togl8-2r;
#X floatatom 326 284 5 0 0 0 - - #1togl9-2r;
#X floatatom 359 284 5 0 0 0 - - #1togl10-2r;
#X floatatom 392 284 5 0 0 0 - - #1togl11-2r;
#X floatatom 425 284 5 0 0 0 - - #1togl12-2r;
#X floatatom 458 284 5 0 0 0 - - #1togl13-2r;
#X floatatom 491 284 5 0 0 0 - - #1togl14-2r;
#X floatatom 524 284 5 0 0 0 - - #1togl15-2r;
#X floatatom 557 284 5 0 0 0 - - #1togl16-2r;
#X floatatom 62 400 5 0 0 0 - - #1togl1-3r;
#X floatatom 95 400 5 0 0 0 - - #1togl2-3r;
#X floatatom 128 400 5 0 0 0 - - #1togl3-3r;
#X floatatom 161 400 5 0 0 0 - - #1togl4-3r;
#X floatatom 194 400 5 0 0 0 - - #1togl5-3r;
#X floatatom 227 400 5 0 0 0 - - #1togl6-3r;
#X floatatom 260 400 5 0 0 0 - - #1togl7-3r;
#X floatatom 293 400 5 0 0 0 - - #1togl8-3r;
#X floatatom 326 400 5 0 0 0 - - #1togl9-3r;
#X floatatom 359 400 5 0 0 0 - - #1togl10-3r;
#X floatatom 392 400 5 0 0 0 - - #1togl11-3r;
#X floatatom 425 400 5 0 0 0 - - #1togl12-3r;
#X floatatom 458 400 5 0 0 0 - - #1togl13-3r;
#X floatatom 491 400 5 0 0 0 - - #1togl14-3r;
#X floatatom 524 400 5 0 0 0 - - #1togl15-3r;
#X floatatom 557 400 5 0 0 0 - - #1togl16-3r;
#X floatatom 62 487 5 0 0 0 - - #1togl1-4r;
#X floatatom 95 487 5 0 0 0 - - #1togl2-4r;
#X floatatom 128 487 5 0 0 0 - - #1togl3-4r;
#X floatatom 161 487 5 0 0 0 - - #1togl4-4r;
#X floatatom 194 487 5 0 0 0 - - #1togl5-4r;
#X floatatom 227 487 5 0 0 0 - - #1togl6-4r;
#X floatatom 260 487 5 0 0 0 - - #1togl7-4r;
#X floatatom 293 487 5 0 0 0 - - #1togl8-4r;
#X floatatom 326 487 5 0 0 0 - - #1togl9-4r;
#X floatatom 359 487 5 0 0 0 - - #1togl10-4r;
#X floatatom 392 487 5 0 0 0 - - #1togl11-4r;
#X floatatom 425 487 5 0 0 0 - - #1togl12-4r;
#X floatatom 458 487 5 0 0 0 - - #1togl13-4r;
#X floatatom 491 487 5 0 0 0 - - #1togl14-4r;
#X floatatom 524 487 5 0 0 0 - - #1togl15-4r;
#X floatatom 557 487 5 0 0 0 - - #1togl16-4r;
#X obj 675 420 route 49 50 51 52 53 54 55 56 57 58 59 60 61 62 63 64
;
#X obj 106 130 route 65 66 67 68 69 70 71 72 73 74 75 76 77 78 79 80
;
#X obj 106 217 route 81 82 83 84 85 86 87 88 89 90 91 92 93 94 95 96
;
#X obj 106 333 route 97 98 99 100 101 102 103 104 105 106 107 108 109
110 111 112;
#X obj 106 420 route 113 114 115 116 117 118 119 120 121 122 123 124
125 126 127 128;
#X obj 401 -256 r Drumbo_beatpreset_clip\$1;
#X obj 380 -120 list;
#X obj 391 -68 zl nth;
#X obj 594 -125 f;
#X obj 632 -125 + 1;
#X obj 594 -148 until;
#X obj 431 -220 del 1;
#X floatatom 594 -101 5 0 0 0 - - -;
#X msg 691 -142 1;
#X obj 498 -85 t f b f;
#X msg 594 -169 144;
#X msg 1111 -136 144;
#X floatatom 534 591 5 0 0 0 - - accent-01;
#X floatatom 567 591 5 0 0 0 - - accent-02;
#X floatatom 600 591 5 0 0 0 - - accent-03;
#X floatatom 633 591 5 0 0 0 - - accent-04;
#X floatatom 666 591 5 0 0 0 - - accent-05;
#X floatatom 699 591 5 0 0 0 - - accent-06;
#X floatatom 732 591 5 0 0 0 - - accent-07;
#X floatatom 765 591 5 0 0 0 - - accent-08;
#X floatatom 798 591 5 0 0 0 - - accent-09;
#X floatatom 831 591 5 0 0 0 - - accent-10;
#X floatatom 864 591 5 0 0 0 - - accent-11;
#X floatatom 897 591 5 0 0 0 - - accent-12;
#X floatatom 930 591 5 0 0 0 - - accent-13;
#X floatatom 963 591 5 0 0 0 - - accent-14;
#X floatatom 996 591 5 0 0 0 - - accent-15;
#X floatatom 1029 591 5 0 0 0 - - accent-16;
#X obj 578 524 route 129 130 131 132 133 134 135 136 137 138 139 140
141 142 143 144;
#X obj 921 -254 r DRUMBO_loaded_seq\$1;
#X obj 1109 -231 bng 15 250 50 0 empty empty empty 17 7 0 10 -262144
-1 -1;
#X obj 1111 -166 del 20;
#X connect 16 0 21 1;
#X connect 17 0 18 0;
#X connect 17 0 23 0;
#X connect 18 0 17 1;
#X connect 19 0 17 0;
#X connect 20 0 0 0;
#X connect 20 1 1 0;
#X connect 20 2 2 0;
#X connect 20 3 3 0;
#X connect 20 4 4 0;
#X connect 20 5 5 0;
#X connect 20 6 6 0;
#X connect 20 7 7 0;
#X connect 20 8 8 0;
#X connect 20 9 9 0;
#X connect 20 10 10 0;
#X connect 20 11 11 0;
#X connect 20 12 12 0;
#X connect 20 13 13 0;
#X connect 20 14 14 0;
#X connect 20 15 15 0;
#X connect 21 0 141 0;
#X connect 21 0 20 0;
#X connect 21 0 142 0;
#X connect 21 0 143 0;
#X connect 21 0 144 0;
#X connect 21 0 42 0;
#X connect 21 0 75 0;
#X connect 21 0 140 0;
#X connect 21 0 173 0;
#X connect 22 0 16 0;
#X connect 23 0 25 0;
#X connect 24 0 17 1;
#X connect 25 0 21 0;
#X connect 25 1 22 0;
#X connect 25 2 16 1;
#X connect 42 0 26 0;
#X connect 42 1 27 0;
#X connect 42 2 28 0;
#X connect 42 3 29 0;
#X connect 42 4 30 0;
#X connect 42 5 31 0;
#X connect 42 6 32 0;
#X connect 42 7 33 0;
#X connect 42 8 34 0;
#X connect 42 9 35 0;
#X connect 42 10 36 0;
#X connect 42 11 37 0;
#X connect 42 12 38 0;
#X connect 42 13 39 0;
#X connect 42 14 40 0;
#X connect 42 15 41 0;
#X connect 75 0 43 0;
#X connect 75 1 44 0;
#X connect 75 2 45 0;
#X connect 75 3 46 0;
#X connect 75 4 47 0;
#X connect 75 5 48 0;
#X connect 75 6 49 0;
#X connect 75 7 50 0;
#X connect 75 8 51 0;
#X connect 75 9 52 0;
#X connect 75 10 53 0;
#X connect 75 11 54 0;
#X connect 75 12 55 0;
#X connect 75 13 56 0;
#X connect 75 14 57 0;
#X connect 75 15 58 0;
#X connect 140 0 59 0;
#X connect 140 1 60 0;
#X connect 140 2 61 0;
#X connect 140 3 62 0;
#X connect 140 4 63 0;
#X connect 140 5 64 0;
#X connect 140 6 65 0;
#X connect 140 7 66 0;
#X connect 140 8 67 0;
#X connect 140 9 68 0;
#X connect 140 10 69 0;
#X connect 140 11 70 0;
#X connect 140 12 71 0;
#X connect 140 13 72 0;
#X connect 140 14 73 0;
#X connect 140 15 74 0;
#X connect 141 0 76 0;
#X connect 141 1 77 0;
#X connect 141 2 78 0;
#X connect 141 3 79 0;
#X connect 141 4 80 0;
#X connect 141 5 81 0;
#X connect 141 6 82 0;
#X connect 141 7 83 0;
#X connect 141 8 84 0;
#X connect 141 9 85 0;
#X connect 141 10 86 0;
#X connect 141 11 87 0;
#X connect 141 12 88 0;
#X connect 141 13 89 0;
#X connect 141 14 90 0;
#X connect 141 15 91 0;
#X connect 142 0 92 0;
#X connect 142 1 93 0;
#X connect 142 2 94 0;
#X connect 142 3 95 0;
#X connect 142 4 96 0;
#X connect 142 5 97 0;
#X connect 142 6 98 0;
#X connect 142 7 99 0;
#X connect 142 8 100 0;
#X connect 142 9 101 0;
#X connect 142 10 102 0;
#X connect 142 11 103 0;
#X connect 142 12 104 0;
#X connect 142 13 105 0;
#X connect 142 14 106 0;
#X connect 142 15 107 0;
#X connect 143 0 108 0;
#X connect 143 1 109 0;
#X connect 143 2 110 0;
#X connect 143 3 111 0;
#X connect 143 4 112 0;
#X connect 143 5 113 0;
#X connect 143 6 114 0;
#X connect 143 7 115 0;
#X connect 143 8 116 0;
#X connect 143 9 117 0;
#X connect 143 10 118 0;
#X connect 143 11 119 0;
#X connect 143 12 120 0;
#X connect 143 13 121 0;
#X connect 143 14 122 0;
#X connect 143 15 123 0;
#X connect 144 0 124 0;
#X connect 144 1 125 0;
#X connect 144 2 126 0;
#X connect 144 3 127 0;
#X connect 144 4 128 0;
#X connect 144 5 129 0;
#X connect 144 6 130 0;
#X connect 144 7 131 0;
#X connect 144 8 132 0;
#X connect 144 9 133 0;
#X connect 144 10 134 0;
#X connect 144 11 135 0;
#X connect 144 12 136 0;
#X connect 144 13 137 0;
#X connect 144 14 138 0;
#X connect 144 15 139 0;
#X connect 145 0 146 1;
#X connect 145 0 151 0;
#X connect 145 0 153 0;
#X connect 146 0 147 0;
#X connect 147 0 21 1;
#X connect 148 0 149 0;
#X connect 148 0 152 0;
#X connect 149 0 148 1;
#X connect 150 0 148 0;
#X connect 151 0 155 0;
#X connect 152 0 154 0;
#X connect 153 0 148 1;
#X connect 154 0 21 0;
#X connect 154 1 146 0;
#X connect 154 2 147 1;
#X connect 155 0 150 0;
#X connect 156 0 19 0;
#X connect 173 0 157 0;
#X connect 173 1 158 0;
#X connect 173 2 159 0;
#X connect 173 3 160 0;
#X connect 173 4 161 0;
#X connect 173 5 162 0;
#X connect 173 6 163 0;
#X connect 173 7 164 0;
#X connect 173 8 165 0;
#X connect 173 9 166 0;
#X connect 173 10 167 0;
#X connect 173 11 168 0;
#X connect 173 12 169 0;
#X connect 173 13 170 0;
#X connect 173 14 171 0;
#X connect 173 15 172 0;
#X connect 174 0 22 1;
#X connect 174 0 175 0;
#X connect 175 0 24 0;
#X connect 175 0 176 0;
#X connect 176 0 156 0;
#X restore 32 -17 pd load;
#N canvas 2 31 1280 711 save 0;
#X floatatom 42 316 5 0 0 0 - #1togl1-5s -;
#X floatatom 75 316 5 0 0 0 - #1togl2-5s -;
#X floatatom 108 316 5 0 0 0 - #1togl3-5s -;
#X floatatom 141 316 5 0 0 0 - #1togl4-5s -;
#X floatatom 174 316 5 0 0 0 - #1togl5-5s -;
#X floatatom 207 316 5 0 0 0 - #1togl6-5s -;
#X floatatom 240 316 5 0 0 0 - #1togl7-5s -;
#X floatatom 273 316 5 0 0 0 - #1togl8-5s -;
#X obj 42 344 f;
#X obj 75 344 f;
#X obj 108 344 f;
#X obj 141 344 f;
#X obj 174 344 f;
#X obj 207 344 f;
#X obj 240 344 f;
#X obj 273 344 f;
#X floatatom 41 408 5 0 0 0 - #1togl1-6s -;
#X floatatom 74 408 5 0 0 0 - #1togl2-6s -;
#X floatatom 107 408 5 0 0 0 - #1togl3-6s -;
#X floatatom 140 408 5 0 0 0 - #1togl4-6s -;
#X floatatom 173 408 5 0 0 0 - #1togl5-6s -;
#X floatatom 206 408 5 0 0 0 - #1togl6-6s -;
#X floatatom 239 408 5 0 0 0 - #1togl7-6s -;
#X floatatom 272 408 5 0 0 0 - #1togl8-6s -;
#X obj 41 436 f;
#X obj 74 436 f;
#X obj 107 436 f;
#X obj 140 436 f;
#X obj 173 436 f;
#X obj 206 436 f;
#X obj 239 436 f;
#X obj 272 436 f;
#X obj 142 -84 t b b b b b b b b b b b b b b b b;
#X floatatom 306 316 5 0 0 0 - #1togl9-5s -;
#X floatatom 339 316 5 0 0 0 - #1togl10-5s -;
#X floatatom 372 316 5 0 0 0 - #1togl11-5s -;
#X floatatom 405 316 5 0 0 0 - #1togl12-5s -;
#X floatatom 438 316 5 0 0 0 - #1togl13-5s -;
#X floatatom 471 316 5 0 0 0 - #1togl14-5s -;
#X floatatom 504 316 5 0 0 0 - #1togl15-5s -;
#X floatatom 537 316 5 0 0 0 - #1togl16-5s -;
#X obj 306 344 f;
#X obj 339 344 f;
#X obj 372 344 f;
#X obj 405 344 f;
#X obj 438 344 f;
#X obj 471 344 f;
#X obj 504 344 f;
#X obj 537 344 f;
#X obj 420 872 list-lastx;
#X text 538 803 HIER SAVEBANG;
#X obj 142 -49 del 1;
#X obj 142 -22 t b b b b b b b b b b b b b b b b;
#X obj 142 10 del 1;
#X floatatom 305 408 5 0 0 0 - #1togl9-6s -;
#X floatatom 338 408 5 0 0 0 - #1togl10-6s -;
#X floatatom 371 408 5 0 0 0 - #1togl11-6s -;
#X floatatom 404 408 5 0 0 0 - #1togl12-6s -;
#X floatatom 437 408 5 0 0 0 - #1togl13-6s -;
#X floatatom 470 408 5 0 0 0 - #1togl14-6s -;
#X floatatom 503 408 5 0 0 0 - #1togl15-6s -;
#X floatatom 536 408 5 0 0 0 - #1togl16-6s -;
#X obj 305 436 f;
#X obj 338 436 f;
#X obj 371 436 f;
#X obj 404 436 f;
#X obj 437 436 f;
#X obj 470 436 f;
#X obj 503 436 f;
#X obj 536 436 f;
#X obj 419 895 list-rev;
#X floatatom 40 487 5 0 0 0 - #1togl1-7s -;
#X floatatom 73 487 5 0 0 0 - #1togl2-7s -;
#X floatatom 106 487 5 0 0 0 - #1togl3-7s -;
#X floatatom 139 487 5 0 0 0 - #1togl4-7s -;
#X floatatom 172 487 5 0 0 0 - #1togl5-7s -;
#X floatatom 205 487 5 0 0 0 - #1togl6-7s -;
#X floatatom 238 487 5 0 0 0 - #1togl7-7s -;
#X floatatom 271 487 5 0 0 0 - #1togl8-7s -;
#X obj 40 515 f;
#X obj 73 515 f;
#X obj 106 515 f;
#X obj 139 515 f;
#X obj 172 515 f;
#X obj 205 515 f;
#X obj 238 515 f;
#X obj 271 515 f;
#X floatatom 39 579 5 0 0 0 - #1togl1-8s -;
#X floatatom 72 579 5 0 0 0 - #1togl2-8s -;
#X floatatom 105 579 5 0 0 0 - #1togl3-8s -;
#X floatatom 138 579 5 0 0 0 - #1togl4-8s -;
#X floatatom 171 579 5 0 0 0 - #1togl5-8s -;
#X floatatom 204 579 5 0 0 0 - #1togl6-8s -;
#X floatatom 237 579 5 0 0 0 - #1togl7-8s -;
#X floatatom 270 579 5 0 0 0 - #1togl8-8s -;
#X obj 39 607 f;
#X obj 72 607 f;
#X obj 105 607 f;
#X obj 138 607 f;
#X obj 171 607 f;
#X obj 204 607 f;
#X obj 237 607 f;
#X obj 270 607 f;
#X obj 142 38 t b b b b b b b b b b b b b b b b;
#X floatatom 304 487 5 0 0 0 - #1togl9-7s -;
#X floatatom 337 487 5 0 0 0 - #1togl10-7s -;
#X floatatom 370 487 5 0 0 0 - #1togl11-7s -;
#X floatatom 403 487 5 0 0 0 - #1togl12-7s -;
#X floatatom 436 487 5 0 0 0 - #1togl13-7s -;
#X floatatom 469 487 5 0 0 0 - #1togl14-7s -;
#X floatatom 502 487 5 0 0 0 - #1togl15-7s -;
#X floatatom 535 487 5 0 0 0 - #1togl16-7s -;
#X obj 304 515 f;
#X obj 337 515 f;
#X obj 370 515 f;
#X obj 403 515 f;
#X obj 436 515 f;
#X obj 469 515 f;
#X obj 502 515 f;
#X obj 535 515 f;
#X obj 142 64 del 1;
#X obj 142 91 t b b b b b b b b b b b b b b b b;
#X obj 142 123 del 1;
#X floatatom 303 579 5 0 0 0 - #1togl9-8s -;
#X floatatom 336 579 5 0 0 0 - #1togl10-8s -;
#X floatatom 369 579 5 0 0 0 - #1togl11-8s -;
#X floatatom 402 579 5 0 0 0 - #1togl12-8s -;
#X floatatom 435 579 5 0 0 0 - #1togl13-8s -;
#X floatatom 468 579 5 0 0 0 - #1togl14-8s -;
#X floatatom 501 579 5 0 0 0 - #1togl15-8s -;
#X floatatom 534 579 5 0 0 0 - #1togl16-8s -;
#X obj 303 607 f;
#X obj 336 607 f;
#X obj 369 607 f;
#X obj 402 607 f;
#X obj 435 607 f;
#X obj 468 607 f;
#X obj 501 607 f;
#X obj 534 607 f;
#X floatatom 647 317 5 0 0 0 - #1togl1-1s -;
#X floatatom 680 317 5 0 0 0 - #1togl2-1s -;
#X floatatom 713 317 5 0 0 0 - #1togl3-1s -;
#X floatatom 746 317 5 0 0 0 - #1togl4-1s -;
#X floatatom 779 317 5 0 0 0 - #1togl5-1s -;
#X floatatom 812 317 5 0 0 0 - #1togl6-1s -;
#X floatatom 845 317 5 0 0 0 - #1togl7-1s -;
#X floatatom 878 317 5 0 0 0 - #1togl8-1s -;
#X obj 647 345 f;
#X obj 680 345 f;
#X obj 713 345 f;
#X obj 746 345 f;
#X obj 779 345 f;
#X obj 812 345 f;
#X obj 845 345 f;
#X obj 878 345 f;
#X floatatom 646 409 5 0 0 0 - #1togl1-2s -;
#X floatatom 679 409 5 0 0 0 - #1togl2-2s -;
#X floatatom 712 409 5 0 0 0 - #1togl3-2s -;
#X floatatom 745 409 5 0 0 0 - #1togl4-2s -;
#X floatatom 778 409 5 0 0 0 - #1togl5-2s -;
#X floatatom 811 409 5 0 0 0 - #1togl6-2s -;
#X floatatom 844 409 5 0 0 0 - #1togl7-2s -;
#X floatatom 877 409 5 0 0 0 - #1togl8-2s -;
#X obj 646 437 f;
#X obj 679 437 f;
#X obj 712 437 f;
#X obj 745 437 f;
#X obj 778 437 f;
#X obj 811 437 f;
#X obj 844 437 f;
#X obj 877 437 f;
#X obj 747 -74 t b b b b b b b b b b b b b b b b;
#X floatatom 911 317 5 0 0 0 - #1togl9-1s -;
#X floatatom 944 317 5 0 0 0 - #1togl10-1s -;
#X floatatom 977 317 5 0 0 0 - #1togl11-1s -;
#X floatatom 1010 317 5 0 0 0 - #1togl12-1s -;
#X floatatom 1043 317 5 0 0 0 - #1togl13-1s -;
#X floatatom 1076 317 5 0 0 0 - #1togl14-1s -;
#X floatatom 1109 317 5 0 0 0 - #1togl15-1s -;
#X floatatom 1142 317 5 0 0 0 - #1togl16-1s -;
#X obj 911 345 f;
#X obj 944 345 f;
#X obj 977 345 f;
#X obj 1010 345 f;
#X obj 1043 345 f;
#X obj 1076 345 f;
#X obj 1109 345 f;
#X obj 1142 345 f;
#X obj 799 841 f;
#X obj 747 -48 del 1;
#X obj 747 -21 t b b b b b b b b b b b b b b b b;
#X obj 747 11 del 1;
#X floatatom 910 409 5 0 0 0 - #1togl9-2s -;
#X floatatom 943 409 5 0 0 0 - #1togl10-2s -;
#X floatatom 976 409 5 0 0 0 - #1togl11-2s -;
#X floatatom 1009 409 5 0 0 0 - #1togl12-2s -;
#X floatatom 1042 409 5 0 0 0 - #1togl13-2s -;
#X floatatom 1075 409 5 0 0 0 - #1togl14-2s -;
#X floatatom 1108 409 5 0 0 0 - #1togl15-2s -;
#X floatatom 1141 409 5 0 0 0 - #1togl16-2s -;
#X obj 910 437 f;
#X obj 943 437 f;
#X obj 976 437 f;
#X obj 1009 437 f;
#X obj 1042 437 f;
#X obj 1075 437 f;
#X obj 1108 437 f;
#X obj 1141 437 f;
#X floatatom 645 488 5 0 0 0 - #1togl1-3s -;
#X floatatom 678 488 5 0 0 0 - #1togl2-3s -;
#X floatatom 711 488 5 0 0 0 - #1togl3-3s -;
#X floatatom 744 488 5 0 0 0 - #1togl4-3s -;
#X floatatom 777 488 5 0 0 0 - #1togl5-3s -;
#X floatatom 810 488 5 0 0 0 - #1togl6-3s -;
#X floatatom 843 488 5 0 0 0 - #1togl7-3s -;
#X floatatom 876 488 5 0 0 0 - #1togl8-3s -;
#X obj 645 516 f;
#X obj 678 516 f;
#X obj 711 516 f;
#X obj 744 516 f;
#X obj 777 516 f;
#X obj 810 516 f;
#X obj 843 516 f;
#X obj 876 516 f;
#X floatatom 644 580 5 0 0 0 - #1togl1-4s -;
#X floatatom 677 580 5 0 0 0 - #1togl2-4s -;
#X floatatom 710 580 5 0 0 0 - #1togl3-4s -;
#X floatatom 743 580 5 0 0 0 - #1togl4-4s -;
#X floatatom 776 580 5 0 0 0 - #1togl5-4s -;
#X floatatom 809 580 5 0 0 0 - #1togl6-4s -;
#X floatatom 842 580 5 0 0 0 - #1togl7-4s -;
#X floatatom 875 580 5 0 0 0 - #1togl8-4s -;
#X obj 644 608 f;
#X obj 677 608 f;
#X obj 710 608 f;
#X obj 743 608 f;
#X obj 776 608 f;
#X obj 809 608 f;
#X obj 842 608 f;
#X obj 875 608 f;
#X obj 747 39 t b b b b b b b b b b b b b b b b;
#X floatatom 909 488 5 0 0 0 - #1togl9-3s -;
#X floatatom 942 488 5 0 0 0 - #1togl10-3s -;
#X floatatom 975 488 5 0 0 0 - #1togl11-3s -;
#X floatatom 1008 488 5 0 0 0 - #1togl12-3s -;
#X floatatom 1041 488 5 0 0 0 - #1togl13-3s -;
#X floatatom 1074 488 5 0 0 0 - #1togl14-3s -;
#X floatatom 1107 488 5 0 0 0 - #1togl15-3s -;
#X floatatom 1140 488 5 0 0 0 - #1togl16-3s -;
#X obj 909 516 f;
#X obj 942 516 f;
#X obj 975 516 f;
#X obj 1008 516 f;
#X obj 1041 516 f;
#X obj 1074 516 f;
#X obj 1107 516 f;
#X obj 1140 516 f;
#X obj 747 65 del 1;
#X obj 747 92 t b b b b b b b b b b b b b b b b;
#X obj 747 124 del 1;
#X floatatom 908 580 5 0 0 0 - #1togl9-4s -;
#X floatatom 941 580 5 0 0 0 - #1togl10-4s -;
#X floatatom 974 580 5 0 0 0 - #1togl11-4s -;
#X floatatom 1007 580 5 0 0 0 - #1togl12-4s -;
#X floatatom 1040 580 5 0 0 0 - #1togl13-4s -;
#X floatatom 1073 580 5 0 0 0 - #1togl14-4s -;
#X floatatom 1106 580 5 0 0 0 - #1togl15-4s -;
#X floatatom 1139 580 5 0 0 0 - #1togl16-4s -;
#X obj 908 608 f;
#X obj 941 608 f;
#X obj 974 608 f;
#X obj 1007 608 f;
#X obj 1040 608 f;
#X obj 1073 608 f;
#X obj 1106 608 f;
#X obj 1139 608 f;
#X obj 573 -122 bng 15 250 50 0 empty DRUMBO_save_seq empty 17 7 0
10 -262144 -1 -1;
#X obj 574 675 bng 15 250 50 0 empty empty empty 17 7 0 10 -262144
-1 -1;
#X obj 274 769 f;
#X obj 747 155 t b b b b b b b b b b b b b b b b;
#X floatatom 620 743 5 0 0 0 - accent-01 -;
#X floatatom 653 743 5 0 0 0 - accent-02 -;
#X floatatom 686 743 5 0 0 0 - accent-03 -;
#X floatatom 719 743 5 0 0 0 - accent-04 -;
#X floatatom 752 743 5 0 0 0 - accent-05 -;
#X floatatom 785 743 5 0 0 0 - accent-06 -;
#X floatatom 818 743 5 0 0 0 - accent-07 -;
#X floatatom 851 743 5 0 0 0 - accent-08 -;
#X obj 620 771 f;
#X obj 653 771 f;
#X obj 686 771 f;
#X obj 719 771 f;
#X obj 752 771 f;
#X obj 785 771 f;
#X obj 818 771 f;
#X obj 851 771 f;
#X floatatom 884 743 5 0 0 0 - accent-09 -;
#X floatatom 917 743 5 0 0 0 - accent-10 -;
#X floatatom 950 743 5 0 0 0 - accent-11 -;
#X floatatom 983 743 5 0 0 0 - accent-12 -;
#X floatatom 1016 743 5 0 0 0 - accent-13 -;
#X floatatom 1049 743 5 0 0 0 - accent-14 -;
#X floatatom 1082 743 5 0 0 0 - accent-15 -;
#X floatatom 1115 743 5 0 0 0 - accent-16 -;
#X obj 884 771 f;
#X obj 917 771 f;
#X obj 950 771 f;
#X obj 983 771 f;
#X obj 1016 771 f;
#X obj 1049 771 f;
#X obj 1082 771 f;
#X obj 1115 771 f;
#X obj 420 924 s DRUMBO_seq_pattern\$1;
#X msg 477 846 144;
#X obj 142 -107 del 1;
#X connect 0 0 8 1;
#X connect 1 0 9 1;
#X connect 2 0 10 1;
#X connect 3 0 11 1;
#X connect 4 0 12 1;
#X connect 5 0 13 1;
#X connect 6 0 14 1;
#X connect 7 0 15 1;
#X connect 8 0 278 0;
#X connect 9 0 278 0;
#X connect 10 0 278 0;
#X connect 11 0 278 0;
#X connect 12 0 278 0;
#X connect 13 0 278 0;
#X connect 14 0 278 0;
#X connect 15 0 278 0;
#X connect 16 0 24 1;
#X connect 17 0 25 1;
#X connect 18 0 26 1;
#X connect 19 0 27 1;
#X connect 20 0 28 1;
#X connect 21 0 29 1;
#X connect 22 0 30 1;
#X connect 23 0 31 1;
#X connect 24 0 278 0;
#X connect 25 0 278 0;
#X connect 26 0 278 0;
#X connect 27 0 278 0;
#X connect 28 0 278 0;
#X connect 29 0 278 0;
#X connect 30 0 278 0;
#X connect 31 0 278 0;
#X connect 32 0 48 0;
#X connect 32 0 51 0;
#X connect 32 1 47 0;
#X connect 32 2 46 0;
#X connect 32 3 45 0;
#X connect 32 4 44 0;
#X connect 32 5 43 0;
#X connect 32 6 42 0;
#X connect 32 7 41 0;
#X connect 32 8 15 0;
#X connect 32 9 14 0;
#X connect 32 10 13 0;
#X connect 32 11 12 0;
#X connect 32 12 11 0;
#X connect 32 13 10 0;
#X connect 32 14 9 0;
#X connect 32 15 8 0;
#X connect 33 0 41 1;
#X connect 34 0 42 1;
#X connect 35 0 43 1;
#X connect 36 0 44 1;
#X connect 37 0 45 1;
#X connect 38 0 46 1;
#X connect 39 0 47 1;
#X connect 40 0 48 1;
#X connect 41 0 278 0;
#X connect 42 0 278 0;
#X connect 43 0 278 0;
#X connect 44 0 278 0;
#X connect 45 0 278 0;
#X connect 46 0 278 0;
#X connect 47 0 278 0;
#X connect 48 0 278 0;
#X connect 49 0 70 0;
#X connect 51 0 52 0;
#X connect 52 0 53 0;
#X connect 52 0 69 0;
#X connect 52 1 68 0;
#X connect 52 2 67 0;
#X connect 52 3 66 0;
#X connect 52 4 65 0;
#X connect 52 5 64 0;
#X connect 52 6 63 0;
#X connect 52 7 62 0;
#X connect 52 8 31 0;
#X connect 52 9 30 0;
#X connect 52 10 29 0;
#X connect 52 11 28 0;
#X connect 52 12 27 0;
#X connect 52 13 26 0;
#X connect 52 14 25 0;
#X connect 52 15 24 0;
#X connect 53 0 103 0;
#X connect 54 0 62 1;
#X connect 55 0 63 1;
#X connect 56 0 64 1;
#X connect 57 0 65 1;
#X connect 58 0 66 1;
#X connect 59 0 67 1;
#X connect 60 0 68 1;
#X connect 61 0 69 1;
#X connect 62 0 278 0;
#X connect 63 0 278 0;
#X connect 64 0 278 0;
#X connect 65 0 278 0;
#X connect 66 0 278 0;
#X connect 67 0 278 0;
#X connect 68 0 278 0;
#X connect 69 0 278 0;
#X connect 70 0 312 0;
#X connect 71 0 79 1;
#X connect 72 0 80 1;
#X connect 73 0 81 1;
#X connect 74 0 82 1;
#X connect 75 0 83 1;
#X connect 76 0 84 1;
#X connect 77 0 85 1;
#X connect 78 0 86 1;
#X connect 79 0 278 0;
#X connect 80 0 278 0;
#X connect 81 0 278 0;
#X connect 82 0 278 0;
#X connect 83 0 278 0;
#X connect 84 0 278 0;
#X connect 85 0 278 0;
#X connect 86 0 278 0;
#X connect 87 0 95 1;
#X connect 88 0 96 1;
#X connect 89 0 97 1;
#X connect 90 0 98 1;
#X connect 91 0 99 1;
#X connect 92 0 100 1;
#X connect 93 0 101 1;
#X connect 94 0 102 1;
#X connect 95 0 278 0;
#X connect 96 0 278 0;
#X connect 97 0 278 0;
#X connect 98 0 278 0;
#X connect 99 0 278 0;
#X connect 100 0 278 0;
#X connect 101 0 278 0;
#X connect 102 0 278 0;
#X connect 103 0 119 0;
#X connect 103 0 120 0;
#X connect 103 1 118 0;
#X connect 103 2 117 0;
#X connect 103 3 116 0;
#X connect 103 4 115 0;
#X connect 103 5 114 0;
#X connect 103 6 113 0;
#X connect 103 7 112 0;
#X connect 103 8 86 0;
#X connect 103 9 85 0;
#X connect 103 10 84 0;
#X connect 103 11 83 0;
#X connect 103 12 82 0;
#X connect 103 13 81 0;
#X connect 103 14 80 0;
#X connect 103 15 79 0;
#X connect 104 0 112 1;
#X connect 105 0 113 1;
#X connect 106 0 114 1;
#X connect 107 0 115 1;
#X connect 108 0 116 1;
#X connect 109 0 117 1;
#X connect 110 0 118 1;
#X connect 111 0 119 1;
#X connect 112 0 278 0;
#X connect 113 0 278 0;
#X connect 114 0 278 0;
#X connect 115 0 278 0;
#X connect 116 0 278 0;
#X connect 117 0 278 0;
#X connect 118 0 278 0;
#X connect 119 0 278 0;
#X connect 120 0 121 0;
#X connect 121 0 122 0;
#X connect 121 0 138 0;
#X connect 121 1 137 0;
#X connect 121 2 136 0;
#X connect 121 3 135 0;
#X connect 121 4 134 0;
#X connect 121 5 133 0;
#X connect 121 6 132 0;
#X connect 121 7 131 0;
#X connect 121 8 102 0;
#X connect 121 9 101 0;
#X connect 121 10 100 0;
#X connect 121 11 99 0;
#X connect 121 12 98 0;
#X connect 121 13 97 0;
#X connect 121 14 96 0;
#X connect 121 15 95 0;
#X connect 122 0 171 0;
#X connect 123 0 131 1;
#X connect 124 0 132 1;
#X connect 125 0 133 1;
#X connect 126 0 134 1;
#X connect 127 0 135 1;
#X connect 128 0 136 1;
#X connect 129 0 137 1;
#X connect 130 0 138 1;
#X connect 131 0 278 0;
#X connect 132 0 278 0;
#X connect 133 0 278 0;
#X connect 134 0 278 0;
#X connect 135 0 278 0;
#X connect 136 0 278 0;
#X connect 137 0 278 0;
#X connect 138 0 278 0;
#X connect 139 0 147 1;
#X connect 140 0 148 1;
#X connect 141 0 149 1;
#X connect 142 0 150 1;
#X connect 143 0 151 1;
#X connect 144 0 152 1;
#X connect 145 0 153 1;
#X connect 146 0 154 1;
#X connect 147 0 188 0;
#X connect 148 0 188 0;
#X connect 149 0 188 0;
#X connect 150 0 188 0;
#X connect 151 0 188 0;
#X connect 152 0 188 0;
#X connect 153 0 188 0;
#X connect 154 0 188 0;
#X connect 155 0 163 1;
#X connect 156 0 164 1;
#X connect 157 0 165 1;
#X connect 158 0 166 1;
#X connect 159 0 167 1;
#X connect 160 0 168 1;
#X connect 161 0 169 1;
#X connect 162 0 170 1;
#X connect 163 0 188 0;
#X connect 164 0 188 0;
#X connect 165 0 188 0;
#X connect 166 0 188 0;
#X connect 167 0 188 0;
#X connect 168 0 188 0;
#X connect 169 0 188 0;
#X connect 170 0 188 0;
#X connect 171 0 187 0;
#X connect 171 0 189 0;
#X connect 171 1 186 0;
#X connect 171 2 185 0;
#X connect 171 3 184 0;
#X connect 171 4 183 0;
#X connect 171 5 182 0;
#X connect 171 6 181 0;
#X connect 171 7 180 0;
#X connect 171 8 154 0;
#X connect 171 9 153 0;
#X connect 171 10 152 0;
#X connect 171 11 151 0;
#X connect 171 12 150 0;
#X connect 171 13 149 0;
#X connect 171 14 148 0;
#X connect 171 15 147 0;
#X connect 172 0 180 1;
#X connect 173 0 181 1;
#X connect 174 0 182 1;
#X connect 175 0 183 1;
#X connect 176 0 184 1;
#X connect 177 0 185 1;
#X connect 178 0 186 1;
#X connect 179 0 187 1;
#X connect 180 0 188 0;
#X connect 181 0 188 0;
#X connect 182 0 188 0;
#X connect 183 0 188 0;
#X connect 184 0 188 0;
#X connect 185 0 188 0;
#X connect 186 0 188 0;
#X connect 187 0 188 0;
#X connect 188 0 49 0;
#X connect 189 0 190 0;
#X connect 190 0 191 0;
#X connect 190 0 207 0;
#X connect 190 1 206 0;
#X connect 190 2 205 0;
#X connect 190 3 204 0;
#X connect 190 4 203 0;
#X connect 190 5 202 0;
#X connect 190 6 201 0;
#X connect 190 7 200 0;
#X connect 190 8 170 0;
#X connect 190 9 169 0;
#X connect 190 10 168 0;
#X connect 190 11 167 0;
#X connect 190 12 166 0;
#X connect 190 13 165 0;
#X connect 190 14 164 0;
#X connect 190 15 163 0;
#X connect 191 0 240 0;
#X connect 192 0 200 1;
#X connect 193 0 201 1;
#X connect 194 0 202 1;
#X connect 195 0 203 1;
#X connect 196 0 204 1;
#X connect 197 0 205 1;
#X connect 198 0 206 1;
#X connect 199 0 207 1;
#X connect 200 0 188 0;
#X connect 201 0 188 0;
#X connect 202 0 188 0;
#X connect 203 0 188 0;
#X connect 204 0 188 0;
#X connect 205 0 188 0;
#X connect 206 0 188 0;
#X connect 207 0 188 0;
#X connect 208 0 216 1;
#X connect 209 0 217 1;
#X connect 210 0 218 1;
#X connect 211 0 219 1;
#X connect 212 0 220 1;
#X connect 213 0 221 1;
#X connect 214 0 222 1;
#X connect 215 0 223 1;
#X connect 216 0 188 0;
#X connect 217 0 188 0;
#X connect 218 0 188 0;
#X connect 219 0 188 0;
#X connect 220 0 188 0;
#X connect 221 0 188 0;
#X connect 222 0 188 0;
#X connect 223 0 188 0;
#X connect 224 0 232 1;
#X connect 225 0 233 1;
#X connect 226 0 234 1;
#X connect 227 0 235 1;
#X connect 228 0 236 1;
#X connect 229 0 237 1;
#X connect 230 0 238 1;
#X connect 231 0 239 1;
#X connect 232 0 188 0;
#X connect 233 0 188 0;
#X connect 234 0 188 0;
#X connect 235 0 188 0;
#X connect 236 0 188 0;
#X connect 237 0 188 0;
#X connect 238 0 188 0;
#X connect 239 0 188 0;
#X connect 240 0 256 0;
#X connect 240 0 257 0;
#X connect 240 1 255 0;
#X connect 240 2 254 0;
#X connect 240 3 253 0;
#X connect 240 4 252 0;
#X connect 240 5 251 0;
#X connect 240 6 250 0;
#X connect 240 7 249 0;
#X connect 240 8 223 0;
#X connect 240 9 222 0;
#X connect 240 10 221 0;
#X connect 240 11 220 0;
#X connect 240 12 219 0;
#X connect 240 13 218 0;
#X connect 240 14 217 0;
#X connect 240 15 216 0;
#X connect 241 0 249 1;
#X connect 242 0 250 1;
#X connect 243 0 251 1;
#X connect 244 0 252 1;
#X connect 245 0 253 1;
#X connect 246 0 254 1;
#X connect 247 0 255 1;
#X connect 248 0 256 1;
#X connect 249 0 188 0;
#X connect 250 0 188 0;
#X connect 251 0 188 0;
#X connect 252 0 188 0;
#X connect 253 0 188 0;
#X connect 254 0 188 0;
#X connect 255 0 188 0;
#X connect 256 0 188 0;
#X connect 257 0 258 0;
#X connect 258 0 259 0;
#X connect 258 0 275 0;
#X connect 258 1 274 0;
#X connect 258 2 273 0;
#X connect 258 3 272 0;
#X connect 258 4 271 0;
#X connect 258 5 270 0;
#X connect 258 6 269 0;
#X connect 258 7 268 0;
#X connect 258 8 239 0;
#X connect 258 9 238 0;
#X connect 258 10 237 0;
#X connect 258 11 236 0;
#X connect 258 12 235 0;
#X connect 258 13 234 0;
#X connect 258 14 233 0;
#X connect 258 15 232 0;
#X connect 259 0 279 0;
#X connect 260 0 268 1;
#X connect 261 0 269 1;
#X connect 262 0 270 1;
#X connect 263 0 271 1;
#X connect 264 0 272 1;
#X connect 265 0 273 1;
#X connect 266 0 274 1;
#X connect 267 0 275 1;
#X connect 268 0 188 0;
#X connect 269 0 188 0;
#X connect 270 0 188 0;
#X connect 271 0 188 0;
#X connect 272 0 188 0;
#X connect 273 0 188 0;
#X connect 274 0 188 0;
#X connect 275 0 188 0;
#X connect 276 0 277 0;
#X connect 276 0 314 0;
#X connect 277 0 313 0;
#X connect 278 0 49 0;
#X connect 279 0 311 0;
#X connect 279 1 310 0;
#X connect 279 2 309 0;
#X connect 279 3 308 0;
#X connect 279 4 307 0;
#X connect 279 5 306 0;
#X connect 279 6 305 0;
#X connect 279 7 304 0;
#X connect 279 8 295 0;
#X connect 279 9 294 0;
#X connect 279 10 293 0;
#X connect 279 11 292 0;
#X connect 279 12 291 0;
#X connect 279 13 290 0;
#X connect 279 14 289 0;
#X connect 279 15 288 0;
#X connect 280 0 288 1;
#X connect 281 0 289 1;
#X connect 282 0 290 1;
#X connect 283 0 291 1;
#X connect 284 0 292 1;
#X connect 285 0 293 1;
#X connect 286 0 294 1;
#X connect 287 0 295 1;
#X connect 288 0 188 0;
#X connect 289 0 188 0;
#X connect 290 0 188 0;
#X connect 291 0 188 0;
#X connect 292 0 188 0;
#X connect 293 0 188 0;
#X connect 294 0 188 0;
#X connect 295 0 188 0;
#X connect 296 0 304 1;
#X connect 297 0 305 1;
#X connect 298 0 306 1;
#X connect 299 0 307 1;
#X connect 300 0 308 1;
#X connect 301 0 309 1;
#X connect 302 0 310 1;
#X connect 303 0 311 1;
#X connect 304 0 188 0;
#X connect 305 0 188 0;
#X connect 306 0 188 0;
#X connect 307 0 188 0;
#X connect 308 0 188 0;
#X connect 309 0 188 0;
#X connect 310 0 188 0;
#X connect 311 0 188 0;
#X connect 313 0 49 1;
#X connect 314 0 32 0;
#X restore 153 -17 pd save;
#X restore 100 368 pd saveload;
#X obj 155 139 cnv 15 55 22 empty empty HHat-cls 5 10 0 11 -66577 -261682
0;
#X obj 155 162 cnv 15 55 22 empty empty HHat-opn 5 10 0 11 -66577 -261682
0;
#X obj 155 186 cnv 15 55 22 empty empty Cymbal 5 10 0 11 -66577 -261682
0;
#X obj 155 209 cnv 15 55 22 empty empty Rimshot 5 10 0 11 -66577 -261682
0;
#X obj 155 238 cnv 15 55 22 empty empty Bass 5 10 0 11 -66577 -261682
0;
#X obj 155 261 cnv 15 55 22 empty empty Snare 5 10 0 11 -66577 -261682
0;
#X obj 155 284 cnv 15 55 22 empty empty Lo-Tom 5 10 0 11 -66577 -261682
0;
#X obj 155 307 cnv 15 55 22 empty empty Hi-Tom 5 10 0 11 -66577 -261682
0;
#X obj 227 333 tgl 20 0 accent-01 accent-01 empty 17 7 0 10 -54094
-260097 -262144 1 1;
#X obj 250 333 tgl 20 0 accent-02 accent-02 empty 17 7 0 10 -54094
-260097 -262144 1 1;
#X obj 273 333 tgl 20 0 accent-03 accent-03 empty 17 7 0 10 -54094
-260097 -262144 1 1;
#X obj 296 333 tgl 20 0 accent-04 accent-04 empty 17 7 0 10 -54094
-260097 -262144 1 1;
#X obj 155 334 cnv 15 20 20 empty empty Accent 5 10 0 11 -66577 -260097
0;
#X obj 325 333 tgl 20 0 accent-05 accent-05 empty 17 7 0 10 -54094
-260097 -262144 1 1;
#X obj 348 333 tgl 20 0 accent-06 accent-06 empty 17 7 0 10 -54094
-260097 -262144 1 1;
#X obj 371 333 tgl 20 0 accent-07 accent-07 empty 17 7 0 10 -54094
-260097 -262144 1 1;
#X obj 394 333 tgl 20 0 accent-08 accent-08 empty 17 7 0 10 -54094
-260097 -262144 1 1;
#X obj 423 333 tgl 20 0 accent-09 accent-09 empty 17 7 0 10 -54094
-260097 -262144 1 1;
#X obj 446 333 tgl 20 0 accent-10 accent-10 empty 17 7 0 10 -54094
-260097 -262144 1 1;
#X obj 469 333 tgl 20 0 accent-11 accent-11 empty 17 7 0 10 -54094
-260097 -262144 1 1;
#X obj 492 333 tgl 20 0 accent-12 accent-12 empty 17 7 0 10 -54094
-260097 -262144 1 1;
#X obj 521 333 tgl 20 0 accent-13 accent-13 empty 17 7 0 10 -54094
-260097 -262144 1 1;
#X obj 544 333 tgl 20 0 accent-14 accent-14 empty 17 7 0 10 -54094
-260097 -262144 1 1;
#X obj 567 333 tgl 20 0 accent-15 accent-15 empty 17 7 0 10 -54094
-260097 -262144 1 1;
#X obj 590 333 tgl 20 0 accent-16 accent-16 empty 17 7 0 10 -54094
-260097 -262144 1 1;
#X coords 0 -1 1 1 520 258 1 100 100;
