#N canvas 27 226 757 431 10;
#N canvas 10 240 1242 538 clearsequencer 1;
#X msg 585 -14 0;
#X obj 5 154 s \$1togl1-2r;
#X obj 75 154 s \$1togl2-2r;
#X obj 145 154 s \$1togl3-2r;
#X obj 215 154 s \$1togl4-2r;
#X obj 285 154 s \$1togl5-2r;
#X obj 355 154 s \$1togl6-2r;
#X obj 425 154 s \$1togl7-2r;
#X obj 495 154 s \$1togl8-2r;
#X obj 585 154 s \$1togl9-2r;
#X obj 655 154 s \$1togl10-2r;
#X obj 735 154 s \$1togl11-2r;
#X obj 815 154 s \$1togl12-2r;
#X obj 895 154 s \$1togl13-2r;
#X obj 975 154 s \$1togl14-2r;
#X obj 1055 154 s \$1togl15-2r;
#X obj 1135 154 s \$1togl16-2r;
#X obj 5 174 s \$1togl1-3r;
#X obj 75 174 s \$1togl2-3r;
#X obj 145 174 s \$1togl3-3r;
#X obj 215 174 s \$1togl4-3r;
#X obj 285 174 s \$1togl5-3r;
#X obj 355 174 s \$1togl6-3r;
#X obj 425 174 s \$1togl7-3r;
#X obj 495 174 s \$1togl8-3r;
#X obj 585 174 s \$1togl9-3r;
#X obj 655 174 s \$1togl10-3r;
#X obj 735 174 s \$1togl11-3r;
#X obj 815 174 s \$1togl12-3r;
#X obj 895 174 s \$1togl13-3r;
#X obj 975 174 s \$1togl14-3r;
#X obj 1055 174 s \$1togl15-3r;
#X obj 1135 174 s \$1togl16-3r;
#X obj 5 194 s \$1togl1-4r;
#X obj 75 194 s \$1togl2-4r;
#X obj 145 194 s \$1togl3-4r;
#X obj 215 194 s \$1togl4-4r;
#X obj 285 194 s \$1togl5-4r;
#X obj 355 194 s \$1togl6-4r;
#X obj 425 194 s \$1togl7-4r;
#X obj 495 194 s \$1togl8-4r;
#X obj 585 194 s \$1togl9-4r;
#X obj 655 194 s \$1togl10-4r;
#X obj 735 194 s \$1togl11-4r;
#X obj 815 194 s \$1togl12-4r;
#X obj 895 194 s \$1togl13-4r;
#X obj 975 194 s \$1togl14-4r;
#X obj 1055 194 s \$1togl15-4r;
#X obj 1135 194 s \$1togl16-4r;
#X obj 5 224 s \$1togl1-5r;
#X obj 75 224 s \$1togl2-5r;
#X obj 145 224 s \$1togl3-5r;
#X obj 215 224 s \$1togl4-5r;
#X obj 285 224 s \$1togl5-5r;
#X obj 355 224 s \$1togl6-5r;
#X obj 425 224 s \$1togl7-5r;
#X obj 495 224 s \$1togl8-5r;
#X obj 585 224 s \$1togl9-5r;
#X obj 655 224 s \$1togl10-5r;
#X obj 735 224 s \$1togl11-5r;
#X obj 815 224 s \$1togl12-5r;
#X obj 895 224 s \$1togl13-5r;
#X obj 975 224 s \$1togl14-5r;
#X obj 1055 224 s \$1togl15-5r;
#X obj 1135 224 s \$1togl16-5r;
#X obj 5 244 s \$1togl1-6r;
#X obj 75 244 s \$1togl2-6r;
#X obj 145 244 s \$1togl3-6r;
#X obj 215 244 s \$1togl4-6r;
#X obj 285 244 s \$1togl5-6r;
#X obj 355 244 s \$1togl6-6r;
#X obj 425 244 s \$1togl7-6r;
#X obj 495 244 s \$1togl8-6r;
#X obj 585 244 s \$1togl9-6r;
#X obj 655 244 s \$1togl10-6r;
#X obj 735 244 s \$1togl11-6r;
#X obj 815 244 s \$1togl12-6r;
#X obj 895 244 s \$1togl13-6r;
#X obj 975 244 s \$1togl14-6r;
#X obj 1055 244 s \$1togl15-6r;
#X obj 1135 244 s \$1togl16-6r;
#X obj 5 264 s \$1togl1-7r;
#X obj 75 264 s \$1togl2-7r;
#X obj 145 264 s \$1togl3-7r;
#X obj 215 264 s \$1togl4-7r;
#X obj 285 264 s \$1togl5-7r;
#X obj 425 264 s \$1togl7-7r;
#X obj 495 264 s \$1togl8-7r;
#X obj 585 264 s \$1togl9-7r;
#X obj 655 264 s \$1togl10-7r;
#X obj 735 264 s \$1togl11-7r;
#X obj 815 264 s \$1togl12-7r;
#X obj 895 264 s \$1togl13-7r;
#X obj 975 264 s \$1togl14-7r;
#X obj 1055 264 s \$1togl15-7r;
#X obj 1135 264 s \$1togl16-7r;
#X obj 5 284 s \$1togl1-8r;
#X obj 75 284 s \$1togl2-8r;
#X obj 145 284 s \$1togl3-8r;
#X obj 215 284 s \$1togl4-8r;
#X obj 285 284 s \$1togl5-8r;
#X obj 425 284 s \$1togl7-8r;
#X obj 495 284 s \$1togl8-8r;
#X obj 585 284 s \$1togl9-8r;
#X obj 655 284 s \$1togl10-8r;
#X obj 735 284 s \$1togl11-8r;
#X obj 815 284 s \$1togl12-8r;
#X obj 895 284 s \$1togl13-8r;
#X obj 975 284 s \$1togl14-8r;
#X obj 1055 284 s \$1togl15-8r;
#X obj 1135 284 s \$1togl16-8r;
#X obj 355 264 s \$1togl6-7r;
#X obj 355 284 s \$1togl6-8r;
#X obj 5 134 s \$1togl1-1r;
#X obj 145 134 s \$1togl3-1r;
#X obj 75 134 s \$1togl2-1r;
#X obj 215 134 s \$1togl4-1r;
#X obj 285 134 s \$1togl5-1r;
#X obj 355 134 s \$1togl6-1r;
#X obj 425 134 s \$1togl7-1r;
#X obj 495 134 s \$1togl8-1r;
#X obj 585 134 s \$1togl9-1r;
#X obj 655 134 s \$1togl10-1r;
#X obj 735 134 s \$1togl11-1r;
#X obj 815 134 s \$1togl12-1r;
#X obj 895 134 s \$1togl13-1r;
#X obj 975 134 s \$1togl14-1r;
#X obj 1055 134 s \$1togl15-1r;
#X obj 1135 134 s \$1togl16-1r;
#X obj 585 -35 r \$1clearseq;
#X obj 8 -74 s accent-01;
#X obj 80 -74 s accent-02;
#X obj 155 -74 s accent-03;
#X obj 227 -74 s accent-04;
#X obj 300 -74 s accent-05;
#X obj 372 -74 s accent-06;
#X obj 447 -74 s accent-07;
#X obj 519 -74 s accent-08;
#X obj 608 -74 s accent-09;
#X obj 680 -74 s accent-10;
#X obj 755 -74 s accent-11;
#X obj 827 -74 s accent-12;
#X obj 900 -74 s accent-13;
#X obj 972 -74 s accent-14;
#X obj 1047 -74 s accent-15;
#X obj 1119 -74 s accent-16;
#X connect 0 0 1 0;
#X connect 0 0 17 0;
#X connect 0 0 33 0;
#X connect 0 0 49 0;
#X connect 0 0 65 0;
#X connect 0 0 81 0;
#X connect 0 0 96 0;
#X connect 0 0 2 0;
#X connect 0 0 3 0;
#X connect 0 0 4 0;
#X connect 0 0 5 0;
#X connect 0 0 6 0;
#X connect 0 0 7 0;
#X connect 0 0 8 0;
#X connect 0 0 9 0;
#X connect 0 0 10 0;
#X connect 0 0 11 0;
#X connect 0 0 12 0;
#X connect 0 0 13 0;
#X connect 0 0 14 0;
#X connect 0 0 15 0;
#X connect 0 0 16 0;
#X connect 0 0 18 0;
#X connect 0 0 34 0;
#X connect 0 0 50 0;
#X connect 0 0 66 0;
#X connect 0 0 82 0;
#X connect 0 0 97 0;
#X connect 0 0 19 0;
#X connect 0 0 35 0;
#X connect 0 0 51 0;
#X connect 0 0 67 0;
#X connect 0 0 83 0;
#X connect 0 0 98 0;
#X connect 0 0 20 0;
#X connect 0 0 36 0;
#X connect 0 0 52 0;
#X connect 0 0 68 0;
#X connect 0 0 84 0;
#X connect 0 0 99 0;
#X connect 0 0 21 0;
#X connect 0 0 37 0;
#X connect 0 0 53 0;
#X connect 0 0 69 0;
#X connect 0 0 85 0;
#X connect 0 0 100 0;
#X connect 0 0 22 0;
#X connect 0 0 38 0;
#X connect 0 0 54 0;
#X connect 0 0 70 0;
#X connect 0 0 111 0;
#X connect 0 0 112 0;
#X connect 0 0 23 0;
#X connect 0 0 39 0;
#X connect 0 0 55 0;
#X connect 0 0 71 0;
#X connect 0 0 86 0;
#X connect 0 0 101 0;
#X connect 0 0 24 0;
#X connect 0 0 40 0;
#X connect 0 0 56 0;
#X connect 0 0 72 0;
#X connect 0 0 87 0;
#X connect 0 0 102 0;
#X connect 0 0 25 0;
#X connect 0 0 41 0;
#X connect 0 0 57 0;
#X connect 0 0 26 0;
#X connect 0 0 42 0;
#X connect 0 0 27 0;
#X connect 0 0 43 0;
#X connect 0 0 28 0;
#X connect 0 0 44 0;
#X connect 0 0 29 0;
#X connect 0 0 45 0;
#X connect 0 0 30 0;
#X connect 0 0 46 0;
#X connect 0 0 31 0;
#X connect 0 0 47 0;
#X connect 0 0 32 0;
#X connect 0 0 48 0;
#X connect 0 0 73 0;
#X connect 0 0 88 0;
#X connect 0 0 103 0;
#X connect 0 0 58 0;
#X connect 0 0 74 0;
#X connect 0 0 89 0;
#X connect 0 0 104 0;
#X connect 0 0 59 0;
#X connect 0 0 75 0;
#X connect 0 0 90 0;
#X connect 0 0 105 0;
#X connect 0 0 60 0;
#X connect 0 0 76 0;
#X connect 0 0 91 0;
#X connect 0 0 106 0;
#X connect 0 0 61 0;
#X connect 0 0 77 0;
#X connect 0 0 92 0;
#X connect 0 0 107 0;
#X connect 0 0 62 0;
#X connect 0 0 78 0;
#X connect 0 0 93 0;
#X connect 0 0 108 0;
#X connect 0 0 63 0;
#X connect 0 0 79 0;
#X connect 0 0 94 0;
#X connect 0 0 109 0;
#X connect 0 0 64 0;
#X connect 0 0 80 0;
#X connect 0 0 95 0;
#X connect 0 0 110 0;
#X connect 0 0 113 0;
#X connect 0 0 115 0;
#X connect 0 0 114 0;
#X connect 0 0 116 0;
#X connect 0 0 118 0;
#X connect 0 0 119 0;
#X connect 0 0 120 0;
#X connect 0 0 121 0;
#X connect 0 0 122 0;
#X connect 0 0 123 0;
#X connect 0 0 124 0;
#X connect 0 0 125 0;
#X connect 0 0 126 0;
#X connect 0 0 127 0;
#X connect 0 0 128 0;
#X connect 0 0 117 0;
#X connect 0 0 130 0;
#X connect 0 0 131 0;
#X connect 0 0 132 0;
#X connect 0 0 133 0;
#X connect 0 0 134 0;
#X connect 0 0 135 0;
#X connect 0 0 136 0;
#X connect 0 0 137 0;
#X connect 0 0 138 0;
#X connect 0 0 139 0;
#X connect 0 0 140 0;
#X connect 0 0 141 0;
#X connect 0 0 142 0;
#X connect 0 0 143 0;
#X connect 0 0 144 0;
#X connect 0 0 145 0;
#X connect 129 0 0 0;
#X restore 621 360 pd clearsequencer;
#X obj 633 243 tgl 15 0 empty empty empty 17 7 0 10 -262144 -1 -1 1
1;
#X obj 423 50 inlet;
#X obj 502 234 16seq 8 \$1;
#X obj 30 234 16seq 1 \$1;
#X obj 97 234 16seq 2 \$1;
#X obj 165 234 16seq 3 \$1;
#X obj 233 234 16seq 4 \$1;
#X obj 301 234 16seq 5 \$1;
#X obj 368 234 16seq 6 \$1;
#X obj 435 234 16seq 7 \$1;
#X obj 502 258 spigot;
#X obj 435 258 spigot;
#X obj 368 258 spigot;
#X obj 301 258 spigot;
#X obj 233 258 spigot;
#X obj 165 258 spigot;
#X obj 97 258 spigot;
#X obj 30 258 spigot;
#X obj 30 339 s 1-GUI-bang_r;
#X obj 97 361 s 2-GUI-bang_r;
#X obj 165 339 s 3-GUI-bang_r;
#X obj 233 360 s 4-GUI-bang_r;
#X obj 301 339 s 5-GUI-bang_r;
#X obj 368 361 s 6-GUI-bang_r;
#X obj 435 339 s 7-GUI-bang_r;
#X obj 502 361 s 8-GUI-bang_r;
#X obj 633 151 r toggle_seqr\$1;
#X connect 1 0 11 1;
#X connect 1 0 12 1;
#X connect 1 0 13 1;
#X connect 1 0 14 1;
#X connect 1 0 15 1;
#X connect 1 0 16 1;
#X connect 1 0 17 1;
#X connect 1 0 18 1;
#X connect 2 0 4 0;
#X connect 2 0 5 0;
#X connect 2 0 6 0;
#X connect 2 0 7 0;
#X connect 2 0 8 0;
#X connect 2 0 9 0;
#X connect 2 0 10 0;
#X connect 2 0 3 0;
#X connect 3 0 11 0;
#X connect 4 0 18 0;
#X connect 5 0 17 0;
#X connect 6 0 16 0;
#X connect 7 0 15 0;
#X connect 8 0 14 0;
#X connect 9 0 13 0;
#X connect 10 0 12 0;
#X connect 11 0 26 0;
#X connect 12 0 25 0;
#X connect 13 0 24 0;
#X connect 14 0 23 0;
#X connect 15 0 22 0;
#X connect 16 0 21 0;
#X connect 17 0 20 0;
#X connect 18 0 19 0;
#X connect 27 0 1 0;
